  0
SECTION
  2
HEADER
  9
$ACADVER
  1
AC1014
  9
$HANDSEED
  5
FFFF
  9
$MEASUREMENT
 70
     1
  0
ENDSEC
  0
SECTION
  2
TABLES
  0
TABLE
  2
VPORT
  5
8
330
0
100
AcDbSymbolTable
 70
     4
  0
VPORT
  5
2E
330
8
100
AcDbSymbolTableRecord
100
AcDbViewportTableRecord
  2
*ACTIVE
 70
     0
 10
0.0
 20
0.0
 11
1.0
 21
1.0
 12
210.0
 22
148.5
 13
0.0
 23
0.0
 14
10.0
 24
10.0
 15
10.0
 25
10.0
 16
0.0
 26
0.0
 36
1.0
 17
0.0
 27
0.0
 37
0.0
 40
341.0
 41
1.24
 42
50.0
 43
0.0
 44
0.0
 50
0.0
 51
0.0
 71
     0
 72
   100
 73
     1
 74
     3
 75
     0
 76
     0
 77
     0
 78
     0
  0
ENDTAB
  0
TABLE
  2
LTYPE
  5
5
330
0
100
AcDbSymbolTable
 70
     1
  0
LTYPE
  5
14
330
5
100
AcDbSymbolTableRecord
100
AcDbLinetypeTableRecord
  2
BYBLOCK
 70
     0
  3

 72
    65
 73
     0
 40
0.0
  0
LTYPE
  5
15
330
5
100
AcDbSymbolTableRecord
100
AcDbLinetypeTableRecord
  2
BYLAYER
 70
     0
  3

 72
    65
 73
     0
 40
0.0
  0
LTYPE
  5
16
330
5
100
AcDbSymbolTableRecord
100
AcDbLinetypeTableRecord
  2
CONTINUOUS
 70
     0
  3
Solid line
 72
    65
 73
     0
 40
0.0
  0
ENDTAB
  0
TABLE
  2
LAYER
  5
2
100
AcDbSymbolTable
 70
2
  0
LAYER
  5
50
100
AcDbSymbolTableRecord
100
AcDbLayerTableRecord
  2
0
 70
0
  6
CONTINUOUS
  0
LAYER
  5
51
100
AcDbSymbolTableRecord
100
AcDbLayerTableRecord
  2
Layer_1
 70
0
  6
CONTINUOUS
  0
ENDTAB
  0
TABLE
  2
STYLE
  5
3
330
0
100
AcDbSymbolTable
 70
     1
  0
STYLE
  5
11
330
3
100
AcDbSymbolTableRecord
100
AcDbTextStyleTableRecord
  2
STANDARD
 70
     0
 40
0.0
 41
1.0
 50
0.0
 71
     0
 42
2.5
  3
txt
  4

  0
ENDTAB
  0
TABLE
  2
VIEW
  5
6
330
0
100
AcDbSymbolTable
 70
     0
  0
ENDTAB
  0
TABLE
  2
UCS
  5
7
330
0
100
AcDbSymbolTable
 70
     0
  0
ENDTAB
  0
TABLE
  2
APPID
  5
9
330
0
100
AcDbSymbolTable
 70
     2
  0
APPID
  5
12
330
9
100
AcDbSymbolTableRecord
100
AcDbRegAppTableRecord
  2
ACAD
 70
     0
  0
ENDTAB
  0
TABLE
  2
DIMSTYLE
  5
A
330
0
100
AcDbSymbolTable
 70
     1
  0
DIMSTYLE
105
27
330
A
100
AcDbSymbolTableRecord
100
AcDbDimStyleTableRecord
  2
ISO-25
 70
     0
  3

  4

  5

  6

  7

 40
1.0
 41
2.5
 42
0.625
 43
3.75
 44
1.25
 45
0.0
 46
0.0
 47
0.0
 48
0.0
140
2.5
141
2.5
142
0.0
143
0.03937007874016
144
1.0
145
0.0
146
1.0
147
0.625
 71
     0
 72
     0
 73
     0
 74
     0
 75
     0
 76
     0
 77
     1
 78
     8
170
     0
171
     3
172
     1
173
     0
174
     0
175
     0
176
     0
177
     0
178
     0
270
     2
271
     2
272
     2
273
     2
274
     3
340
11
275
     0
280
     0
281
     0
282
     0
283
     0
284
     8
285
     0
286
     0
287
     3
288
     0
  0
ENDTAB
  0
TABLE
  2
BLOCK_RECORD
  5
1
330
0
100
AcDbSymbolTable
 70
     1
  0
BLOCK_RECORD
  5
1F
330
1
100
AcDbSymbolTableRecord
100
AcDbBlockTableRecord
  2
*MODEL_SPACE
  0
BLOCK_RECORD
  5
1B
330
1
100
AcDbSymbolTableRecord
100
AcDbBlockTableRecord
  2
*PAPER_SPACE
  0
ENDTAB
  0
ENDSEC
  0
SECTION
  2
BLOCKS
  0
BLOCK
  5
20
330
1F
100
AcDbEntity
  8
0
100
AcDbBlockBegin
  2
*MODEL_SPACE
 70
     0
 10
0.0
 20
0.0
 30
0.0
  3
*MODEL_SPACE
  1

  0
ENDBLK
  5
21
330
1F
100
AcDbEntity
  8
0
100
AcDbBlockEnd
  0
BLOCK
  5
1C
330
1B
100
AcDbEntity
 67
     1
  8
0
100
AcDbBlockBegin
  2
*PAPER_SPACE
  1

  0
ENDBLK
  5
1D
330
1B
100
AcDbEntity
 67
     1
  8
0
100
AcDbBlockEnd
  0
ENDSEC
  0
SECTION
  2
ENTITIES
  0
LWPOLYLINE
  5
100
100
AcDbEntity
  8
Layer_1
 62
7
100
AcDbPolyline
 90
78
 70
1
 10
5.586826
 20
47.450650
 30
0.0
 10
5.318770
 20
44.911113
 30
0.0
 10
5.504850
 20
42.286443
 30
0.0
 10
7.078489
 20
37.089486
 30
0.0
 10
9.985889
 20
32.475349
 30
0.0
 10
13.905196
 20
29.059600
 30
0.0
 10
17.389769
 20
27.348151
 30
0.0
 10
20.718793
 20
27.040509
 30
0.0
 10
25.372928
 20
28.018079
 30
0.0
 10
32.832835
 20
30.162270
 30
0.0
 10
28.429219
 20
25.912082
 30
0.0
 10
23.039746
 20
21.932328
 30
0.0
 10
11.494958
 20
14.588029
 30
0.0
 10
6.435505
 20
11.125436
 30
0.0
 10
2.581923
 20
7.737182
 30
0.0
 10
1.278562
 20
6.055613
 30
0.0
 10
0.482143
 20
4.374245
 30
0.0
 10
0.261157
 20
2.686950
 30
0.0
 10
0.684096
 20
0.987600
 30
0.0
 10
4.089971
 20
3.956099
 30
0.0
 10
7.028831
 20
5.189769
 30
0.0
 10
9.636373
 20
5.101278
 30
0.0
 10
12.048293
 20
4.103294
 30
0.0
 10
16.828059
 20
1.029519
 30
0.0
 10
19.467299
 20
-0.220935
 30
0.0
 10
22.453705
 20
-0.730210
 30
0.0
 10
70.630356
 20
-0.747210
 30
0.0
 10
80.307255
 20
-0.421909
 30
0.0
 10
89.394948
 20
1.325370
 30
0.0
 10
99.970580
 20
4.481514
 30
0.0
 10
106.246152
 20
5.481124
 30
0.0
 10
109.208892
 20
5.333186
 30
0.0
 10
111.894180
 20
4.561750
 30
0.0
 10
110.131822
 20
7.767813
 30
0.0
 10
107.506402
 20
9.708636
 30
0.0
 10
104.289440
 20
10.611632
 30
0.0
 10
100.752459
 20
10.704213
 30
0.0
 10
93.804521
 20
9.367773
 30
0.0
 10
88.834756
 20
7.518610
 30
0.0
 10
85.454859
 20
11.432988
 30
0.0
 10
83.586762
 20
13.039343
 30
0.0
 10
81.546245
 20
14.236983
 30
0.0
 10
79.293067
 20
14.894786
 30
0.0
 10
76.786987
 20
14.881634
 30
0.0
 10
73.987764
 20
14.066405
 30
0.0
 10
70.855157
 20
12.317980
 30
0.0
 10
69.548961
 20
15.215684
 30
0.0
 10
67.202166
 20
17.241610
 30
0.0
 10
64.039418
 20
18.539000
 30
0.0
 10
60.285361
 20
19.251095
 30
0.0
 10
51.901901
 20
19.492372
 30
0.0
 10
43.848945
 20
19.111380
 30
0.0
 10
55.899159
 20
22.350404
 30
0.0
 10
65.917941
 20
25.561334
 30
0.0
 10
69.990356
 20
27.599606
 30
0.0
 10
73.344686
 20
30.162867
 30
0.0
 10
75.910855
 20
33.428452
 30
0.0
 10
77.618788
 20
37.573700
 30
0.0
 10
77.970859
 20
40.608341
 30
0.0
 10
77.488617
 20
43.648197
 30
0.0
 10
76.308671
 20
46.639136
 30
0.0
 10
74.567627
 20
49.527029
 30
0.0
 10
69.948674
 20
54.777156
 30
0.0
 10
64.724615
 20
58.965540
 30
0.0
 10
60.406477
 20
61.549034
 30
0.0
 10
55.744832
 20
63.679220
 30
0.0
 10
50.826693
 20
65.331766
 30
0.0
 10
45.739076
 20
66.482339
 30
0.0
 10
40.568994
 20
67.106606
 30
0.0
 10
35.403462
 20
67.180235
 30
0.0
 10
30.329494
 20
66.678894
 30
0.0
 10
25.434105
 20
65.578250
 30
0.0
 10
18.961238
 20
62.911007
 30
0.0
 10
12.964842
 20
58.855304
 30
0.0
 10
10.394177
 20
56.374914
 30
0.0
 10
8.241258
 20
53.629171
 30
0.0
 10
6.605627
 20
50.645328
 30
0.0
 10
5.586826
 20
47.450640
 30
0.0
  0
ENDSEC
  0
SECTION
  2
OBJECTS
  0
DICTIONARY
  5
C
330
0
100
AcDbDictionary
  3
ACAD_GROUP
350
D
  3
ACAD_MLINESTYLE
350
17
  0
DICTIONARY
  5
D
330
C
100
AcDbDictionary
  0
DICTIONARY
  5
1A
330
C
100
AcDbDictionary
  0
DICTIONARY
  5
17
330
C
100
AcDbDictionary
  3
STANDARD
350
18
  0
DICTIONARY
  5
19
330
C
100
AcDbDictionary
  0
ENDSEC
  0
EOF
