  0
SECTION
  2
HEADER
  9
$ACADVER
  1
AC1014
  9
$HANDSEED
  5
FFFF
  9
$MEASUREMENT
 70
     1
  0
ENDSEC
  0
SECTION
  2
TABLES
  0
TABLE
  2
VPORT
  5
8
330
0
100
AcDbSymbolTable
 70
     4
  0
VPORT
  5
2E
330
8
100
AcDbSymbolTableRecord
100
AcDbViewportTableRecord
  2
*ACTIVE
 70
     0
 10
0.0
 20
0.0
 11
1.0
 21
1.0
 12
210.0
 22
148.5
 13
0.0
 23
0.0
 14
10.0
 24
10.0
 15
10.0
 25
10.0
 16
0.0
 26
0.0
 36
1.0
 17
0.0
 27
0.0
 37
0.0
 40
341.0
 41
1.24
 42
50.0
 43
0.0
 44
0.0
 50
0.0
 51
0.0
 71
     0
 72
   100
 73
     1
 74
     3
 75
     0
 76
     0
 77
     0
 78
     0
  0
ENDTAB
  0
TABLE
  2
LTYPE
  5
5
330
0
100
AcDbSymbolTable
 70
     1
  0
LTYPE
  5
14
330
5
100
AcDbSymbolTableRecord
100
AcDbLinetypeTableRecord
  2
BYBLOCK
 70
     0
  3

 72
    65
 73
     0
 40
0.0
  0
LTYPE
  5
15
330
5
100
AcDbSymbolTableRecord
100
AcDbLinetypeTableRecord
  2
BYLAYER
 70
     0
  3

 72
    65
 73
     0
 40
0.0
  0
LTYPE
  5
16
330
5
100
AcDbSymbolTableRecord
100
AcDbLinetypeTableRecord
  2
CONTINUOUS
 70
     0
  3
Solid line
 72
    65
 73
     0
 40
0.0
  0
ENDTAB
  0
TABLE
  2
LAYER
  5
2
100
AcDbSymbolTable
 70
2
  0
LAYER
  5
50
100
AcDbSymbolTableRecord
100
AcDbLayerTableRecord
  2
0
 70
0
  6
CONTINUOUS
  0
LAYER
  5
51
100
AcDbSymbolTableRecord
100
AcDbLayerTableRecord
  2
Layer_1
 70
0
  6
CONTINUOUS
  0
ENDTAB
  0
TABLE
  2
STYLE
  5
3
330
0
100
AcDbSymbolTable
 70
     1
  0
STYLE
  5
11
330
3
100
AcDbSymbolTableRecord
100
AcDbTextStyleTableRecord
  2
STANDARD
 70
     0
 40
0.0
 41
1.0
 50
0.0
 71
     0
 42
2.5
  3
txt
  4

  0
ENDTAB
  0
TABLE
  2
VIEW
  5
6
330
0
100
AcDbSymbolTable
 70
     0
  0
ENDTAB
  0
TABLE
  2
UCS
  5
7
330
0
100
AcDbSymbolTable
 70
     0
  0
ENDTAB
  0
TABLE
  2
APPID
  5
9
330
0
100
AcDbSymbolTable
 70
     2
  0
APPID
  5
12
330
9
100
AcDbSymbolTableRecord
100
AcDbRegAppTableRecord
  2
ACAD
 70
     0
  0
ENDTAB
  0
TABLE
  2
DIMSTYLE
  5
A
330
0
100
AcDbSymbolTable
 70
     1
  0
DIMSTYLE
105
27
330
A
100
AcDbSymbolTableRecord
100
AcDbDimStyleTableRecord
  2
ISO-25
 70
     0
  3

  4

  5

  6

  7

 40
1.0
 41
2.5
 42
0.625
 43
3.75
 44
1.25
 45
0.0
 46
0.0
 47
0.0
 48
0.0
140
2.5
141
2.5
142
0.0
143
0.03937007874016
144
1.0
145
0.0
146
1.0
147
0.625
 71
     0
 72
     0
 73
     0
 74
     0
 75
     0
 76
     0
 77
     1
 78
     8
170
     0
171
     3
172
     1
173
     0
174
     0
175
     0
176
     0
177
     0
178
     0
270
     2
271
     2
272
     2
273
     2
274
     3
340
11
275
     0
280
     0
281
     0
282
     0
283
     0
284
     8
285
     0
286
     0
287
     3
288
     0
  0
ENDTAB
  0
TABLE
  2
BLOCK_RECORD
  5
1
330
0
100
AcDbSymbolTable
 70
     1
  0
BLOCK_RECORD
  5
1F
330
1
100
AcDbSymbolTableRecord
100
AcDbBlockTableRecord
  2
*MODEL_SPACE
  0
BLOCK_RECORD
  5
1B
330
1
100
AcDbSymbolTableRecord
100
AcDbBlockTableRecord
  2
*PAPER_SPACE
  0
ENDTAB
  0
ENDSEC
  0
SECTION
  2
BLOCKS
  0
BLOCK
  5
20
330
1F
100
AcDbEntity
  8
0
100
AcDbBlockBegin
  2
*MODEL_SPACE
 70
     0
 10
0.0
 20
0.0
 30
0.0
  3
*MODEL_SPACE
  1

  0
ENDBLK
  5
21
330
1F
100
AcDbEntity
  8
0
100
AcDbBlockEnd
  0
BLOCK
  5
1C
330
1B
100
AcDbEntity
 67
     1
  8
0
100
AcDbBlockBegin
  2
*PAPER_SPACE
  1

  0
ENDBLK
  5
1D
330
1B
100
AcDbEntity
 67
     1
  8
0
100
AcDbBlockEnd
  0
ENDSEC
  0
SECTION
  2
ENTITIES
  0
LWPOLYLINE
  5
100
100
AcDbEntity
  8
Layer_1
 62
7
100
AcDbPolyline
 90
141
 70
1
 10
-50.189633
 20
108.997410
 30
0.0
 10
-56.319292
 20
108.556166
 30
0.0
 10
-64.277609
 20
107.221487
 30
0.0
 10
-73.717652
 20
105.003667
 30
0.0
 10
-84.292487
 20
101.913003
 30
0.0
 10
-95.655180
 20
97.959791
 30
0.0
 10
-107.458800
 20
93.154326
 30
0.0
 10
-119.356411
 20
87.506905
 30
0.0
 10
-131.001082
 20
81.027823
 30
0.0
 10
-142.045879
 20
73.727375
 30
0.0
 10
-152.143869
 20
65.615858
 30
0.0
 10
-160.948119
 20
56.703568
 30
0.0
 10
-164.756674
 20
51.950350
 30
0.0
 10
-168.111695
 20
47.000800
 30
0.0
 10
-170.969814
 20
41.856205
 30
0.0
 10
-173.287664
 20
36.517851
 30
0.0
 10
-175.021880
 20
30.987025
 30
0.0
 10
-176.129094
 20
25.265015
 30
0.0
 10
-176.565939
 20
19.353108
 30
0.0
 10
-176.289050
 20
13.252590
 30
0.0
 10
-175.255059
 20
6.964748
 30
0.0
 10
-173.420600
 20
0.490870
 30
0.0
 10
-158.053490
 20
17.060072
 30
0.0
 10
-150.237220
 20
24.056250
 30
0.0
 10
-146.170974
 20
26.813615
 30
0.0
 10
-141.951729
 20
28.917690
 30
0.0
 10
-137.543788
 20
30.248870
 30
0.0
 10
-132.911457
 20
30.687549
 30
0.0
 10
-128.019042
 20
30.114123
 30
0.0
 10
-122.830847
 20
28.408985
 30
0.0
 10
-117.311178
 20
25.452532
 30
0.0
 10
-111.424340
 20
21.125156
 30
0.0
 10
-105.134638
 20
15.307254
 30
0.0
 10
-98.406378
 20
7.879220
 30
0.0
 10
-95.194817
 20
14.558308
 30
0.0
 10
-91.787860
 20
20.368186
 30
0.0
 10
-88.224654
 20
25.333351
 30
0.0
 10
-84.544346
 20
29.478298
 30
0.0
 10
-80.786082
 20
32.827521
 30
0.0
 10
-76.989009
 20
35.405518
 30
0.0
 10
-73.192275
 20
37.236782
 30
0.0
 10
-69.435026
 20
38.345810
 30
0.0
 10
-65.756408
 20
38.757097
 30
0.0
 10
-62.195569
 20
38.495139
 30
0.0
 10
-58.791655
 20
37.584430
 30
0.0
 10
-55.583813
 20
36.049468
 30
0.0
 10
-52.611190
 20
33.914746
 30
0.0
 10
-49.912933
 20
31.204760
 30
0.0
 10
-47.528188
 20
27.944006
 30
0.0
 10
-45.496103
 20
24.156980
 30
0.0
 10
-42.770674
 20
29.511252
 30
0.0
 10
-40.025593
 20
33.918690
 30
0.0
 10
-37.261278
 20
37.468001
 30
0.0
 10
-34.478145
 20
40.247898
 30
0.0
 10
-31.676610
 20
42.347088
 30
0.0
 10
-28.857089
 20
43.854283
 30
0.0
 10
-23.165756
 20
45.447526
 30
0.0
 10
-17.407477
 20
45.737305
 30
0.0
 10
-11.585583
 20
45.433299
 30
0.0
 10
-5.703405
 20
45.245188
 30
0.0
 10
0.235727
 20
45.882650
 30
0.0
 10
6.174858
 20
45.245188
 30
0.0
 10
12.057036
 20
45.433299
 30
0.0
 10
17.878930
 20
45.737305
 30
0.0
 10
23.637209
 20
45.447526
 30
0.0
 10
29.328543
 20
43.854283
 30
0.0
 10
32.148064
 20
42.347088
 30
0.0
 10
34.949599
 20
40.247898
 30
0.0
 10
37.732732
 20
37.468001
 30
0.0
 10
40.497047
 20
33.918690
 30
0.0
 10
43.242128
 20
29.511252
 30
0.0
 10
45.967557
 20
24.156980
 30
0.0
 10
47.999642
 20
27.944006
 30
0.0
 10
50.384387
 20
31.204760
 30
0.0
 10
53.082645
 20
33.914746
 30
0.0
 10
56.055268
 20
36.049468
 30
0.0
 10
59.263110
 20
37.584430
 30
0.0
 10
62.667024
 20
38.495139
 30
0.0
 10
66.227864
 20
38.757097
 30
0.0
 10
69.906482
 20
38.345810
 30
0.0
 10
73.663732
 20
37.236782
 30
0.0
 10
77.460468
 20
35.405518
 30
0.0
 10
81.257541
 20
32.827521
 30
0.0
 10
85.015806
 20
29.478298
 30
0.0
 10
88.696116
 20
25.333351
 30
0.0
 10
92.259324
 20
20.368186
 30
0.0
 10
95.666283
 20
14.558308
 30
0.0
 10
98.877847
 20
7.879220
 30
0.0
 10
105.606106
 20
15.307254
 30
0.0
 10
111.895806
 20
21.125156
 30
0.0
 10
117.782643
 20
25.452532
 30
0.0
 10
123.302310
 20
28.408985
 30
0.0
 10
128.490504
 20
30.114123
 30
0.0
 10
133.382918
 20
30.687549
 30
0.0
 10
138.015247
 20
30.248870
 30
0.0
 10
142.423187
 20
28.917690
 30
0.0
 10
146.642432
 20
26.813615
 30
0.0
 10
150.708676
 20
24.056250
 30
0.0
 10
158.524942
 20
17.060072
 30
0.0
 10
173.892040
 20
0.490870
 30
0.0
 10
175.726498
 20
6.964748
 30
0.0
 10
176.760488
 20
13.252589
 30
0.0
 10
177.037377
 20
19.353107
 30
0.0
 10
176.600531
 20
25.265014
 30
0.0
 10
175.493317
 20
30.987023
 30
0.0
 10
173.759102
 20
36.517848
 30
0.0
 10
171.441251
 20
41.856201
 30
0.0
 10
168.583133
 20
47.000796
 30
0.0
 10
165.228112
 20
51.950345
 30
0.0
 10
161.419557
 20
56.703562
 30
0.0
 10
152.615309
 20
65.615850
 30
0.0
 10
142.517320
 20
73.727365
 30
0.0
 10
131.472525
 20
81.027811
 30
0.0
 10
119.827856
 20
87.506892
 30
0.0
 10
107.930246
 20
93.154313
 30
0.0
 10
96.126628
 20
97.959778
 30
0.0
 10
84.763936
 20
101.912991
 30
0.0
 10
74.189103
 20
105.003656
 30
0.0
 10
64.749062
 20
107.221478
 30
0.0
 10
56.790745
 20
108.556161
 30
0.0
 10
50.661087
 20
108.997410
 30
0.0
 10
49.517602
 20
105.868240
 30
0.0
 10
47.488678
 20
103.034011
 30
0.0
 10
44.706677
 20
100.467047
 30
0.0
 10
41.303962
 20
98.139673
 30
0.0
 10
33.165840
 20
94.092990
 30
0.0
 10
24.133214
 20
90.672555
 30
0.0
 10
7.620063
 20
84.824799
 30
0.0
 10
2.257342
 20
81.954665
 30
0.0
 10
0.762715
 20
80.436168
 30
0.0
 10
0.235727
 20
78.825150
 30
0.0
 10
-0.291275
 20
80.436168
 30
0.0
 10
-1.785911
 20
81.954665
 30
0.0
 10
-7.148642
 20
84.824799
 30
0.0
 10
-23.661787
 20
90.672555
 30
0.0
 10
-32.694403
 20
94.092990
 30
0.0
 10
-40.832515
 20
98.139673
 30
0.0
 10
-44.235226
 20
100.467047
 30
0.0
 10
-47.017225
 20
103.034011
 30
0.0
 10
-49.046148
 20
105.868240
 30
0.0
 10
-50.189633
 20
108.997410
 30
0.0
  0
ENDSEC
  0
SECTION
  2
OBJECTS
  0
DICTIONARY
  5
C
330
0
100
AcDbDictionary
  3
ACAD_GROUP
350
D
  3
ACAD_MLINESTYLE
350
17
  0
DICTIONARY
  5
D
330
C
100
AcDbDictionary
  0
DICTIONARY
  5
1A
330
C
100
AcDbDictionary
  0
DICTIONARY
  5
17
330
C
100
AcDbDictionary
  3
STANDARD
350
18
  0
DICTIONARY
  5
19
330
C
100
AcDbDictionary
  0
ENDSEC
  0
EOF
