  0
SECTION
  2
HEADER
  9
$ACADVER
  1
AC1014
  9
$HANDSEED
  5
FFFF
  9
$MEASUREMENT
 70
     1
  0
ENDSEC
  0
SECTION
  2
TABLES
  0
TABLE
  2
VPORT
  5
8
330
0
100
AcDbSymbolTable
 70
     4
  0
VPORT
  5
2E
330
8
100
AcDbSymbolTableRecord
100
AcDbViewportTableRecord
  2
*ACTIVE
 70
     0
 10
0.0
 20
0.0
 11
1.0
 21
1.0
 12
210.0
 22
148.5
 13
0.0
 23
0.0
 14
10.0
 24
10.0
 15
10.0
 25
10.0
 16
0.0
 26
0.0
 36
1.0
 17
0.0
 27
0.0
 37
0.0
 40
341.0
 41
1.24
 42
50.0
 43
0.0
 44
0.0
 50
0.0
 51
0.0
 71
     0
 72
   100
 73
     1
 74
     3
 75
     0
 76
     0
 77
     0
 78
     0
  0
ENDTAB
  0
TABLE
  2
LTYPE
  5
5
330
0
100
AcDbSymbolTable
 70
     1
  0
LTYPE
  5
14
330
5
100
AcDbSymbolTableRecord
100
AcDbLinetypeTableRecord
  2
BYBLOCK
 70
     0
  3

 72
    65
 73
     0
 40
0.0
  0
LTYPE
  5
15
330
5
100
AcDbSymbolTableRecord
100
AcDbLinetypeTableRecord
  2
BYLAYER
 70
     0
  3

 72
    65
 73
     0
 40
0.0
  0
LTYPE
  5
16
330
5
100
AcDbSymbolTableRecord
100
AcDbLinetypeTableRecord
  2
CONTINUOUS
 70
     0
  3
Solid line
 72
    65
 73
     0
 40
0.0
  0
ENDTAB
  0
TABLE
  2
LAYER
  5
2
100
AcDbSymbolTable
 70
2
  0
LAYER
  5
50
100
AcDbSymbolTableRecord
100
AcDbLayerTableRecord
  2
0
 70
0
  6
CONTINUOUS
  0
LAYER
  5
51
100
AcDbSymbolTableRecord
100
AcDbLayerTableRecord
  2
Layer_1
 70
0
  6
CONTINUOUS
  0
ENDTAB
  0
TABLE
  2
STYLE
  5
3
330
0
100
AcDbSymbolTable
 70
     1
  0
STYLE
  5
11
330
3
100
AcDbSymbolTableRecord
100
AcDbTextStyleTableRecord
  2
STANDARD
 70
     0
 40
0.0
 41
1.0
 50
0.0
 71
     0
 42
2.5
  3
txt
  4

  0
ENDTAB
  0
TABLE
  2
VIEW
  5
6
330
0
100
AcDbSymbolTable
 70
     0
  0
ENDTAB
  0
TABLE
  2
UCS
  5
7
330
0
100
AcDbSymbolTable
 70
     0
  0
ENDTAB
  0
TABLE
  2
APPID
  5
9
330
0
100
AcDbSymbolTable
 70
     2
  0
APPID
  5
12
330
9
100
AcDbSymbolTableRecord
100
AcDbRegAppTableRecord
  2
ACAD
 70
     0
  0
ENDTAB
  0
TABLE
  2
DIMSTYLE
  5
A
330
0
100
AcDbSymbolTable
 70
     1
  0
DIMSTYLE
105
27
330
A
100
AcDbSymbolTableRecord
100
AcDbDimStyleTableRecord
  2
ISO-25
 70
     0
  3

  4

  5

  6

  7

 40
1.0
 41
2.5
 42
0.625
 43
3.75
 44
1.25
 45
0.0
 46
0.0
 47
0.0
 48
0.0
140
2.5
141
2.5
142
0.0
143
0.03937007874016
144
1.0
145
0.0
146
1.0
147
0.625
 71
     0
 72
     0
 73
     0
 74
     0
 75
     0
 76
     0
 77
     1
 78
     8
170
     0
171
     3
172
     1
173
     0
174
     0
175
     0
176
     0
177
     0
178
     0
270
     2
271
     2
272
     2
273
     2
274
     3
340
11
275
     0
280
     0
281
     0
282
     0
283
     0
284
     8
285
     0
286
     0
287
     3
288
     0
  0
ENDTAB
  0
TABLE
  2
BLOCK_RECORD
  5
1
330
0
100
AcDbSymbolTable
 70
     1
  0
BLOCK_RECORD
  5
1F
330
1
100
AcDbSymbolTableRecord
100
AcDbBlockTableRecord
  2
*MODEL_SPACE
  0
BLOCK_RECORD
  5
1B
330
1
100
AcDbSymbolTableRecord
100
AcDbBlockTableRecord
  2
*PAPER_SPACE
  0
ENDTAB
  0
ENDSEC
  0
SECTION
  2
BLOCKS
  0
BLOCK
  5
20
330
1F
100
AcDbEntity
  8
0
100
AcDbBlockBegin
  2
*MODEL_SPACE
 70
     0
 10
0.0
 20
0.0
 30
0.0
  3
*MODEL_SPACE
  1

  0
ENDBLK
  5
21
330
1F
100
AcDbEntity
  8
0
100
AcDbBlockEnd
  0
BLOCK
  5
1C
330
1B
100
AcDbEntity
 67
     1
  8
0
100
AcDbBlockBegin
  2
*PAPER_SPACE
  1

  0
ENDBLK
  5
1D
330
1B
100
AcDbEntity
 67
     1
  8
0
100
AcDbBlockEnd
  0
ENDSEC
  0
SECTION
  2
ENTITIES
  0
LWPOLYLINE
  5
100
100
AcDbEntity
  8
Layer_1
 62
7
100
AcDbPolyline
 90
60
 70
1
 10
197.990370
 20
140.644870
 30
0.0
 10
183.842130
 20
113.325120
 30
0.0
 10
205.631770
 20
129.622150
 30
0.0
 10
203.603755
 20
122.129507
 30
0.0
 10
200.459470
 20
115.204659
 30
0.0
 10
196.294225
 20
108.961386
 30
0.0
 10
191.203330
 20
103.513470
 30
0.0
 10
186.757649
 20
100.197553
 30
0.0
 10
181.667853
 20
97.552854
 30
0.0
 10
176.445693
 20
95.769340
 30
0.0
 10
171.602920
 20
95.036980
 30
0.0
 10
168.678351
 20
78.255087
 30
0.0
 10
166.245630
 20
69.083406
 30
0.0
 10
163.333172
 20
63.275065
 30
0.0
 10
158.969390
 20
56.583190
 30
0.0
 10
152.744259
 20
48.111948
 30
0.0
 10
145.370104
 20
40.105934
 30
0.0
 10
137.241762
 20
32.528142
 30
0.0
 10
128.754071
 20
25.341563
 30
0.0
 10
112.279992
 20
11.994012
 30
0.0
 10
105.083279
 20
5.759025
 30
0.0
 10
99.106567
 20
-0.232780
 30
0.0
 10
-0.132543
 20
-0.178180
 30
0.0
 10
-0.084543
 20
42.729240
 30
0.0
 10
3.609515
 20
48.267459
 30
0.0
 10
7.824426
 20
53.284190
 30
0.0
 10
12.488551
 20
57.811435
 30
0.0
 10
17.530252
 20
61.881198
 30
0.0
 10
22.877893
 20
65.525481
 30
0.0
 10
28.459836
 20
68.776288
 30
0.0
 10
40.040075
 20
74.225485
 30
0.0
 10
51.697869
 20
78.484812
 30
0.0
 10
62.860116
 20
81.810294
 30
0.0
 10
81.405568
 20
86.683820
 30
0.0
 10
89.841208
 20
88.294672
 30
0.0
 10
98.876712
 20
88.797738
 30
0.0
 10
117.676634
 20
88.563513
 30
0.0
 10
126.905711
 20
88.867720
 30
0.0
 10
135.663973
 20
90.147141
 30
0.0
 10
139.782901
 20
91.315290
 30
0.0
 10
143.683749
 20
92.922524
 30
0.0
 10
147.333058
 20
95.033936
 30
0.0
 10
150.697370
 20
97.714620
 30
0.0
 10
152.840248
 20
100.106817
 30
0.0
 10
153.812306
 20
102.681135
 30
0.0
 10
154.310110
 20
113.143680
 30
0.0
 10
154.412871
 20
116.347027
 30
0.0
 10
155.314549
 20
119.480146
 30
0.0
 10
156.957166
 20
122.360033
 30
0.0
 10
159.282746
 20
124.803679
 30
0.0
 10
162.233311
 20
126.628077
 30
0.0
 10
165.750883
 20
127.650222
 30
0.0
 10
169.777485
 20
127.687105
 30
0.0
 10
174.255140
 20
126.555720
 30
0.0
 10
179.416191
 20
130.644673
 30
0.0
 10
185.240424
 20
135.550750
 30
0.0
 10
188.331855
 20
137.750101
 30
0.0
 10
191.505827
 20
139.481602
 30
0.0
 10
194.734589
 20
140.521209
 30
0.0
 10
197.990390
 20
140.644880
 30
0.0
  0
ENDSEC
  0
SECTION
  2
OBJECTS
  0
DICTIONARY
  5
C
330
0
100
AcDbDictionary
  3
ACAD_GROUP
350
D
  3
ACAD_MLINESTYLE
350
17
  0
DICTIONARY
  5
D
330
C
100
AcDbDictionary
  0
DICTIONARY
  5
1A
330
C
100
AcDbDictionary
  0
DICTIONARY
  5
17
330
C
100
AcDbDictionary
  3
STANDARD
350
18
  0
DICTIONARY
  5
19
330
C
100
AcDbDictionary
  0
ENDSEC
  0
EOF
