<?xml version="1.0" encoding="UTF-8" standalone="no"?>
<!-- Created with Inkscape (http://www.inkscape.org/) -->

<svg
   xmlns:dc="http://purl.org/dc/elements/1.1/"
   xmlns:cc="http://creativecommons.org/ns#"
   xmlns:rdf="http://www.w3.org/1999/02/22-rdf-syntax-ns#"
   xmlns:svg="http://www.w3.org/2000/svg"
   xmlns="http://www.w3.org/2000/svg"
   xmlns:sodipodi="http://sodipodi.sourceforge.net/DTD/sodipodi-0.dtd"
   xmlns:inkscape="http://www.inkscape.org/namespaces/inkscape"
   width="210mm"
   height="297mm"
   viewBox="0 0 210 297"
   version="1.1"
   id="svg8"
   inkscape:version="0.92.4 5da689c313, 2019-01-14"
   sodipodi:docname="dragon.svg">
  <defs
     id="defs2" />
  <sodipodi:namedview
     id="base"
     pagecolor="#ffffff"
     bordercolor="#666666"
     borderopacity="1.0"
     inkscape:pageopacity="0.0"
     inkscape:pageshadow="2"
     inkscape:zoom="1.1251953"
     inkscape:cx="-1317.2476"
     inkscape:cy="599.33878"
     inkscape:document-units="mm"
     inkscape:current-layer="layer1"
     showgrid="false"
     inkscape:window-width="1920"
     inkscape:window-height="1051"
     inkscape:window-x="0"
     inkscape:window-y="0"
     inkscape:window-maximized="1" />
  <metadata
     id="metadata5">
    <rdf:RDF>
      <cc:Work
         rdf:about="">
        <dc:format>image/svg+xml</dc:format>
        <dc:type
           rdf:resource="http://purl.org/dc/dcmitype/StillImage" />
        <dc:title></dc:title>
      </cc:Work>
    </rdf:RDF>
  </metadata>
  <g
     inkscape:label="Layer 1"
     inkscape:groupmode="layer"
     id="layer1">
    <path
       id="path4518-1"
       style="fill:none;fill-rule:evenodd;stroke:#000000;stroke-width:0.26458332px;stroke-linecap:butt;stroke-linejoin:miter;stroke-opacity:1"
       d="M 49.952943,87.783056 C 22.754622,87.735556 -97.268943,126.24727 -73.278023,196.28959 -52.262993,174.45837 -35.380809,144.77874 1.7361974,188.90124 18.273873,150.918 44.818701,151.06616 54.64647,172.62348 69.128957,141.38476 84.467638,154.3293 100.3783,150.89781 c 15.91066,3.43149 31.24935,-9.51305 45.73183,21.72567 9.82777,-21.55732 36.3726,-21.70548 52.91028,16.27776 37.117,-44.1225 53.99919,-14.44287 75.01421,7.38835 23.99091,-70.04232 -96.03264,-108.554004 -123.23096,-108.506534 -3.5021,17.524614 -50.43044,21.284234 -50.42536,30.172254 0.005,-8.88802 -46.923252,-12.64764 -50.425357,-30.172254 z"
       inkscape:connector-curvature="0"
       sodipodi:nodetypes="ccccccccccc" />
    <path
       style="fill:none;fill-rule:evenodd;stroke:#000000;stroke-width:0.15278895px;stroke-linecap:butt;stroke-linejoin:miter;stroke-opacity:1"
       d="m 148.36502,183.11584 c -14.42394,1.6329 -25.10309,9.31506 -26.29478,20.32989 -0.93151,8.60993 8.62748,16.73119 16.67941,19.91944 8.89579,3.52239 16.91201,-0.0978 28.49809,-3.42635 -9.23296,10.90148 -33.66041,18.63825 -29.85764,27.09553 9.12541,-9.8408 12.28005,1.59259 20.21819,1.59539 l 44.74332,0.0158 c 8.64761,0.003 9.50933,-0.16681 17.42732,-1.92487 4.53814,-1.00762 14.68847,-5.80705 20.89581,-3.00574 -3.07181,-9.69472 -17.38336,-4.60248 -21.41608,-2.74614 -3.99089,-5.10174 -8.49393,-10.05137 -16.69827,-4.45734 -1.76092,-8.37431 -16.05598,-6.69332 -25.0816,-6.30926 15.9483,-4.61392 20.88681,-6.0516 23.50129,-14.96273 2.1895,-7.46264 -2.93153,-16.39416 -9.79139,-21.17767 -12.08536,-8.42733 -28.1837,-12.60332 -42.82367,-10.94596 z"
       id="path858"
       inkscape:connector-curvature="0"
       sodipodi:nodetypes="caaccsssccccassc" />
    <path
       style="fill:none;fill-rule:evenodd;stroke:#000000;stroke-width:0.15278895px;stroke-linecap:butt;stroke-linejoin:miter;stroke-opacity:1"
       d="m 58.395537,185.40561 c 14.42394,1.6329 25.10309,9.31506 26.29478,20.32989 0.93151,8.60993 -8.62748,16.73119 -16.67941,19.91944 -8.89579,3.52239 -16.91201,-0.0978 -28.49809,-3.42635 9.23295,10.90148 33.66041,18.63825 29.85764,27.09553 -9.12541,-9.8408 -12.28006,1.59259 -20.2182,1.59539 l -44.7433201,0.0158 c -8.64761,0.003 -9.50932,-0.16681 -17.4273199,-1.92487 -4.53814,-1.00762 -14.688468,-5.80705 -20.895808,-3.00574 3.07181,-9.69472 17.383358,-4.60248 21.416088,-2.74614 3.9908899,-5.10174 8.4939199,-10.05138 16.6982599,-4.45735 1.76093,-8.37431 16.0559901,-6.69331 25.0816101,-6.30926 -15.9483,-4.61392 -20.8868103,-6.0516 -23.5012901,-14.96273 -2.18951,-7.46263 2.9315198,-16.39415 9.7913901,-21.17766 12.08536,-8.42733 28.1837,-12.60332 42.82367,-10.94596 z"
       id="path858-9"
       inkscape:connector-curvature="0"
       sodipodi:nodetypes="caaccsssccccassc" />
    <path
       style="fill:none;fill-rule:evenodd;stroke:#000000;stroke-width:0.20109478px;stroke-linecap:butt;stroke-linejoin:miter;stroke-opacity:1"
       d="m 163.30009,18.461581 c -5.14535,1.838768 -10.22608,5.00749 -13.38059,9.46897 -1.9609,2.773328 -4.48371,6.867965 -2.77623,9.804115 4.50907,7.753715 10.8792,10.813322 26.12834,6.432416 -12.15206,14.348098 -21.32421,1.552638 -30.32497,17.060594 14.41775,-1.572349 7.84656,9.531109 18.29442,9.540379 l 23.43717,0.02079 c 10.76555,0.0096 14.67827,-0.180576 16.37193,-9.317504 3.73157,-3.269226 1.82511,-7.643009 13.9341,1.952667 -8.03869,-22.378282 -12.81261,-9.121374 -18.12032,-6.678132 -7.44106,-1.243688 -6.00836,3.203688 -9.28483,3.98125 -5.89103,1.398043 -18.13024,1.106158 -18.13024,1.106158 20.99052,-6.07266 25.69644,-10.355863 30.71265,-21.881762 1.53753,-3.532867 0.34024,-8.079058 -1.50732,-11.460135 -2.86403,-5.241223 -8.01075,-9.709097 -13.68886,-11.561709 -6.88271,-2.245636 -14.84773,-0.904444 -21.66525,1.531899 z"
       id="path858-3"
       inkscape:connector-curvature="0"
       sodipodi:nodetypes="aaaccsscccacaaaa" />
    <path
       style="fill:none;fill-rule:evenodd;stroke:#000000;stroke-width:0.20109478px;stroke-linecap:butt;stroke-linejoin:miter;stroke-opacity:1"
       d="m 52.36137,21.041824 c 5.14535,1.838768 10.22608,5.00749 13.38059,9.46897 1.9609,2.773328 4.48371,6.867965 2.77623,9.804115 -4.50907,7.753716 -10.8792,10.813323 -26.12834,6.432416 12.15206,14.348097 21.32421,1.552638 30.32497,17.060597 -14.41775,-1.572352 -7.84656,9.53111 -18.29442,9.54038 l -23.43717,0.0208 c -10.76555,0.01 -14.67827,-0.18058 -16.37193,-9.31751 C 10.87973,60.782367 12.78619,56.408583 0.67720019,66.004262 8.7158902,43.625977 13.48981,56.882885 18.79752,59.326127 c 7.44106,-1.243687 6.00836,3.203689 9.28483,3.981255 5.89103,1.39804 18.13024,1.10615 18.13024,1.10615 C 25.22207,58.340871 20.51615,54.057669 15.49994,42.53177 13.96241,38.998898 15.1597,34.452707 17.00726,31.07163 c 2.86403,-5.241223 8.01075,-9.709097 13.68886,-11.561709 6.88271,-2.245636 14.84773,-0.904444 21.66525,1.531899 z"
       id="path858-3-9"
       inkscape:connector-curvature="0"
       sodipodi:nodetypes="aaaccsscccacaaaa" />
    <path
       style="fill:none;fill-rule:evenodd;stroke:#000000;stroke-width:0.20528789px;stroke-linecap:butt;stroke-linejoin:miter;stroke-opacity:1"
       d="m -210.36038,73.781249 -14.14824,27.319741 21.78964,-16.297021 c -1.91748,10.318146 -7.06584,19.425601 -14.42844,26.108671 -5.27072,4.78427 -13.62375,8.28521 -19.60041,8.47649 -4.65914,29.33684 -5.41579,27.05477 -12.63353,38.45379 -14.71735,23.24318 -45.90256,41.12917 -59.86282,56.81597 l -99.23911,-0.0546 0.048,-42.90742 c 18.18535,-30.9847 61.65026,-38.35376 81.49011,-43.95458 21.45729,-6.23554 52.16828,4.89996 69.2918,-11.03079 3.86729,-3.59791 3.23496,-4.50311 3.61274,-15.42907 -0.84273,-8.473216 7.45475,-18.149427 19.94503,-13.41204 6.34061,-4.110586 15.04173,-15.179762 23.73525,-14.089156 z"
       id="path920"
       inkscape:connector-curvature="0"
       sodipodi:nodetypes="cccacaccccacccc" />
    <path
       style="fill:none;fill-rule:evenodd;stroke:#000000;stroke-width:0.21652557px;stroke-linecap:butt;stroke-linejoin:miter;stroke-opacity:1"
       d="m -289.76463,158.29557 c -5.54017,1.97986 -11.01076,5.39173 -14.40733,10.19556 -2.11137,2.98614 -4.82776,7.39497 -2.98926,10.55643 4.85507,8.34868 11.714,11.64306 28.13327,6.92599 -13.08454,15.44909 -22.9605,1.67178 -32.65193,18.36973 15.52409,-1.69301 8.44866,10.26247 19.69823,10.27245 l 25.23559,0.0224 c 11.59164,0.0108 15.80459,-0.19443 17.62822,-10.03248 4.0179,-3.52008 1.96515,-8.22948 15.00331,2.10251 -8.65553,-24.09545 -13.79577,-9.8213 -19.51076,-7.19057 -8.01204,-1.33912 -6.4694,3.44951 -9.99729,4.28675 -6.34307,1.50531 -19.52145,1.19103 -19.52145,1.19103 22.60121,-6.53864 27.66823,-11.15051 33.06936,-23.56084 1.65551,-3.80396 0.36634,-8.69899 -1.62299,-12.33952 -3.08379,-5.6434 -8.62544,-10.45412 -14.73926,-12.44888 -7.41084,-2.41796 -15.98705,-0.97384 -23.32771,1.64945 z"
       id="path858-3-0"
       inkscape:connector-curvature="0"
       sodipodi:nodetypes="aaaccsscccacaaaa" />
    <path
       style="fill:none;fill-rule:evenodd;stroke:#000000;stroke-width:0.16451305px;stroke-linecap:butt;stroke-linejoin:miter;stroke-opacity:1"
       d="m -419.76031,166.75449 c -1.35609,6.59019 2.56107,14.90923 8.31837,18.39105 5.40787,3.27051 6.45251,2.48129 18.92764,-1.10267 -9.94145,11.73799 -36.24331,20.06843 -32.14874,29.17467 9.82564,-10.59592 13.22235,1.7148 21.76961,1.71781 l 48.17665,0.017 c 9.31118,0.003 10.23902,-0.17961 18.76459,-2.07258 4.88637,-1.08494 15.81557,-6.25265 22.49923,-3.23638 -3.30752,-10.43863 -18.71726,-4.95565 -23.05942,-2.95686 -4.29713,-5.49323 -9.1457,-10.82266 -17.9796,-4.79938 -1.89604,-9.01691 -17.28801,-7.20693 -27.00621,-6.7934 17.17208,-4.96796 30.42196,-6.07781 33.76984,-18.46232 2.1727,-8.03731 -6.01107,-16.70762 -12.89417,-21.39184 -10.97968,-7.4721 -26.55159,-10.36846 -39.29051,-6.61271 -8.59421,2.53378 -18.0414,9.35154 -19.84728,18.12761 z"
       id="path858-8"
       inkscape:connector-curvature="0"
       sodipodi:nodetypes="aaccsssccccaaaa" />
    <path
       style="fill:none;fill-rule:evenodd;stroke:#000000;stroke-width:0.26458332px;stroke-linecap:butt;stroke-linejoin:miter;stroke-opacity:1"
       d="m -395.03206,171.46173 c 0,0 -15.99361,-6.46252 -22.11402,-12.25632 -5.24332,-4.96351 -9.91292,-11.30282 -11.52207,-18.34125 -2.67186,-11.68673 -1.26907,-24.97244 3.99744,-35.74195 5.67358,-11.601925 16.5145,-20.667911 27.74704,-27.041606 10.08681,-5.723569 33.62564,-8.935486 33.62564,-8.935486 l 2e-5,11.286929 20.2224,-18.34126 -24.21987,-7.054332 2.82174,8.935488 c 0,0 -33.96685,0.420636 -47.7343,8.935484 -17.55896,10.859816 -30.25873,30.004383 -37.38796,49.380323 -4.74426,12.89402 -5.87777,27.87137 -2.35146,41.15026 5.20611,19.60451 33.15536,51.02633 33.15536,51.02633 l 23.71204,-0.0952 z"
       id="path952"
       inkscape:connector-curvature="0"
       sodipodi:nodetypes="caaaacccccaaaccc" />
  </g>
</svg>
