solid OpenSCAD_Model
  facet normal 0 0 -1
    outer loop
      vertex 3.53552 3.53552 0
      vertex 2.69762 2.36137 0
      vertex 2.65164 2.65164 0
    endloop
  endfacet
  facet normal 0 0 -1
    outer loop
      vertex 2 0 0
      vertex 2.99048 1.39775 0
      vertex 3.10295 1.12622 0
    endloop
  endfacet
  facet normal 0 0 -1
    outer loop
      vertex -2.69762 2.36137 0
      vertex -3.53552 3.53552 0
      vertex -2.65164 2.65164 0
    endloop
  endfacet
  facet normal 0 0 -1
    outer loop
      vertex 0.237762 3.57724 0
      vertex 0 3.75 0
      vertex 0 5 0
    endloop
  endfacet
  facet normal 0 0 -1
    outer loop
      vertex -1.91341 4.61938 0
      vertex 0 5 0
      vertex -1.14928 3.39594 0
    endloop
  endfacet
  facet normal 0 0 -1
    outer loop
      vertex -2.22795 -2.43576 0
      vertex -0.445038 -1.94984 0
      vertex -1.39775 -2.99048 0
    endloop
  endfacet
  facet normal 0 0 -1
    outer loop
      vertex -3.10295 1.12622 0
      vertex -3.29774 0.146942 0
      vertex -3.57724 0.237762 0
    endloop
  endfacet
  facet normal 0 0 -1
    outer loop
      vertex -0.445038 1.94984 0
      vertex 1.12622 3.10295 0
      vertex 1.24698 1.56366 0
    endloop
  endfacet
  facet normal 0 0 -1
    outer loop
      vertex 0 -5 0
      vertex -0.237762 -3.57724 0
      vertex 0 -3.75 0
    endloop
  endfacet
  facet normal 0 0 -1
    outer loop
      vertex 5 0 0
      vertex 4.61938 -1.91341 0
      vertex 3.39594 -1.14928 0
    endloop
  endfacet
  facet normal 0 -0 -1
    outer loop
      vertex 0.146942 3.29774 0
      vertex 1.12622 3.10295 0
      vertex -0.445038 1.94984 0
    endloop
  endfacet
  facet normal 0 -0 -1
    outer loop
      vertex 1.24698 -1.56366 0
      vertex 1.39775 -2.99048 0
      vertex 1.12622 -3.10295 0
    endloop
  endfacet
  facet normal 0 0 -1
    outer loop
      vertex -0.445038 1.94984 0
      vertex -1.39775 2.99048 0
      vertex -1.12622 3.10295 0
    endloop
  endfacet
  facet normal 0 0 -1
    outer loop
      vertex 3.39594 1.14928 0
      vertex 3.46454 1.43506 0
      vertex 4.61938 1.91341 0
    endloop
  endfacet
  facet normal 0 0 -1
    outer loop
      vertex -0.237762 3.57724 0
      vertex -1.12622 3.10295 0
      vertex -1.14928 3.39594 0
    endloop
  endfacet
  facet normal -0 0 -1
    outer loop
      vertex -2.43576 -2.22795 0
      vertex -2.69762 -2.36137 0
      vertex -2.99048 -1.39775 0
    endloop
  endfacet
  facet normal 0 0 -1
    outer loop
      vertex -1.91341 4.61938 0
      vertex -1.14928 3.39594 0
      vertex -1.43506 3.46454 0
    endloop
  endfacet
  facet normal 0 -0 -1
    outer loop
      vertex 0 5 0
      vertex 0 3.75 0
      vertex -0.237762 3.57724 0
    endloop
  endfacet
  facet normal 0 0 -1
    outer loop
      vertex 1.14928 3.39594 0
      vertex 0.237762 3.57724 0
      vertex 0 5 0
    endloop
  endfacet
  facet normal 0 0 -1
    outer loop
      vertex 1.58861 3.21396 0
      vertex 1.43506 3.46454 0
      vertex 1.91341 4.61938 0
    endloop
  endfacet
  facet normal 0 0 -1
    outer loop
      vertex -0.146942 3.29774 0
      vertex -0.445038 1.94984 0
      vertex -1.12622 3.10295 0
    endloop
  endfacet
  facet normal 0 0 -1
    outer loop
      vertex 1.12622 3.10295 0
      vertex 0.146942 3.29774 0
      vertex 0.237762 3.57724 0
    endloop
  endfacet
  facet normal -0 0 -1
    outer loop
      vertex 1.91341 4.61938 0
      vertex 1.14928 3.39594 0
      vertex 0 5 0
    endloop
  endfacet
  facet normal -0 0 -1
    outer loop
      vertex 1.14928 3.39594 0
      vertex 1.12622 3.10295 0
      vertex 0.237762 3.57724 0
    endloop
  endfacet
  facet normal -0 0 -1
    outer loop
      vertex 1.43506 3.46454 0
      vertex 1.14928 3.39594 0
      vertex 1.91341 4.61938 0
    endloop
  endfacet
  facet normal 0 0 -1
    outer loop
      vertex 1.39775 2.99048 0
      vertex 2.36137 2.69762 0
      vertex 2.22795 2.43576 0
    endloop
  endfacet
  facet normal 0 0 -1
    outer loop
      vertex 1.58861 3.21396 0
      vertex 1.91341 4.61938 0
      vertex 2.36137 2.69762 0
    endloop
  endfacet
  facet normal 0 0 -1
    outer loop
      vertex -2.69762 2.36137 0
      vertex -2.99048 1.39775 0
      vertex -3.21396 1.58861 0
    endloop
  endfacet
  facet normal 0 -0 -1
    outer loop
      vertex -3.29774 -0.146942 0
      vertex -3.10295 -1.12622 0
      vertex -3.57724 -0.237762 0
    endloop
  endfacet
  facet normal 0 0 -1
    outer loop
      vertex -2.36137 2.69762 0
      vertex -3.53552 3.53552 0
      vertex -1.91341 4.61938 0
    endloop
  endfacet
  facet normal 0 0 -1
    outer loop
      vertex -1.91341 4.61938 0
      vertex -1.43506 3.46454 0
      vertex -1.58861 3.21396 0
    endloop
  endfacet
  facet normal 0 0 -1
    outer loop
      vertex -1.14928 3.39594 0
      vertex 0 5 0
      vertex -0.237762 3.57724 0
    endloop
  endfacet
  facet normal 0 -0 -1
    outer loop
      vertex -1.39775 2.99048 0
      vertex -0.445038 1.94984 0
      vertex -2.22795 2.43576 0
    endloop
  endfacet
  facet normal 0 0 -1
    outer loop
      vertex -1.12622 3.10295 0
      vertex -0.237762 3.57724 0
      vertex -0.146942 3.29774 0
    endloop
  endfacet
  facet normal 0 0 -1
    outer loop
      vertex -2.43576 2.22795 0
      vertex -2.22795 2.43576 0
      vertex -1.80193 0.867767 0
    endloop
  endfacet
  facet normal 0 0 -1
    outer loop
      vertex 2.69762 2.36137 0
      vertex 4.61938 1.91341 0
      vertex 3.21396 1.58861 0
    endloop
  endfacet
  facet normal -0 0 -1
    outer loop
      vertex 1.39775 2.99048 0
      vertex 1.24698 1.56366 0
      vertex 1.12622 3.10295 0
    endloop
  endfacet
  facet normal 0 0 -1
    outer loop
      vertex 2.36137 2.69762 0
      vertex 3.53552 3.53552 0
      vertex 2.65164 2.65164 0
    endloop
  endfacet
  facet normal -0 0 -1
    outer loop
      vertex 3.53552 3.53552 0
      vertex 2.36137 2.69762 0
      vertex 1.91341 4.61938 0
    endloop
  endfacet
  facet normal 0 0 -1
    outer loop
      vertex 2.36137 2.69762 0
      vertex 1.39775 2.99048 0
      vertex 1.58861 3.21396 0
    endloop
  endfacet
  facet normal 0 -0 -1
    outer loop
      vertex 3.53552 3.53552 0
      vertex 4.61938 1.91341 0
      vertex 2.69762 2.36137 0
    endloop
  endfacet
  facet normal 0 0 -1
    outer loop
      vertex 2 0 0
      vertex 1.24698 1.56366 0
      vertex 2.99048 1.39775 0
    endloop
  endfacet
  facet normal -0 0 -1
    outer loop
      vertex -1.39775 2.99048 0
      vertex -2.36137 2.69762 0
      vertex -1.58861 3.21396 0
    endloop
  endfacet
  facet normal 0 0 -1
    outer loop
      vertex -5 0 0
      vertex -3.39594 1.14928 0
      vertex -3.57724 0.237762 0
    endloop
  endfacet
  facet normal 0 -0 -1
    outer loop
      vertex -3.53552 3.53552 0
      vertex -2.69762 2.36137 0
      vertex -4.61938 1.91341 0
    endloop
  endfacet
  facet normal 0 0 -1
    outer loop
      vertex -2.65164 2.65164 0
      vertex -3.53552 3.53552 0
      vertex -2.36137 2.69762 0
    endloop
  endfacet
  facet normal -0 0 -1
    outer loop
      vertex -1.58861 3.21396 0
      vertex -2.36137 2.69762 0
      vertex -1.91341 4.61938 0
    endloop
  endfacet
  facet normal 0 0 -1
    outer loop
      vertex -1.39775 2.99048 0
      vertex -2.22795 2.43576 0
      vertex -2.36137 2.69762 0
    endloop
  endfacet
  facet normal 0 0 -1
    outer loop
      vertex 1.14928 -3.39594 0
      vertex 1.43506 -3.46454 0
      vertex 1.91341 -4.61938 0
    endloop
  endfacet
  facet normal 0 -0 -1
    outer loop
      vertex 1.39775 2.99048 0
      vertex 2.22795 2.43576 0
      vertex 1.24698 1.56366 0
    endloop
  endfacet
  facet normal 0 0 -1
    outer loop
      vertex -3.53552 -3.53552 0
      vertex -2.69762 -2.36137 0
      vertex -2.65164 -2.65164 0
    endloop
  endfacet
  facet normal 0 -0 -1
    outer loop
      vertex 2.22795 2.43576 0
      vertex 2.43576 2.22795 0
      vertex 1.24698 1.56366 0
    endloop
  endfacet
  facet normal 0 0 -1
    outer loop
      vertex -1.80193 0.867767 0
      vertex -2.22795 2.43576 0
      vertex -0.445038 1.94984 0
    endloop
  endfacet
  facet normal -0 0 -1
    outer loop
      vertex 0.146942 3.29774 0
      vertex -0.445038 1.94984 0
      vertex -0.146942 3.29774 0
    endloop
  endfacet
  facet normal 0 0 -1
    outer loop
      vertex 5 0 0
      vertex 3.39594 -1.14928 0
      vertex 3.57724 -0.237762 0
    endloop
  endfacet
  facet normal -0 0 -1
    outer loop
      vertex 4.61938 -1.91341 0
      vertex 2.69762 -2.36137 0
      vertex 3.21396 -1.58861 0
    endloop
  endfacet
  facet normal 0 0 -1
    outer loop
      vertex 2 0 0
      vertex 3.29774 0.146942 0
      vertex 3.29774 -0.146942 0
    endloop
  endfacet
  facet normal 0 -0 -1
    outer loop
      vertex 2.69762 2.36137 0
      vertex 2.99048 1.39775 0
      vertex 2.43576 2.22795 0
    endloop
  endfacet
  facet normal 0 0 -1
    outer loop
      vertex 2.99048 1.39775 0
      vertex 1.24698 1.56366 0
      vertex 2.43576 2.22795 0
    endloop
  endfacet
  facet normal 0 0 -1
    outer loop
      vertex 2.69762 2.36137 0
      vertex 3.21396 1.58861 0
      vertex 2.99048 1.39775 0
    endloop
  endfacet
  facet normal 0 0 -1
    outer loop
      vertex 4.61938 1.91341 0
      vertex 3.46454 1.43506 0
      vertex 3.21396 1.58861 0
    endloop
  endfacet
  facet normal 0 0 -1
    outer loop
      vertex 5 0 0
      vertex 3.39594 1.14928 0
      vertex 4.61938 1.91341 0
    endloop
  endfacet
  facet normal 0 0 -1
    outer loop
      vertex -1.80193 0.867767 0
      vertex -2.99048 1.39775 0
      vertex -2.43576 2.22795 0
    endloop
  endfacet
  facet normal 0 0 -1
    outer loop
      vertex -4.61938 -1.91341 0
      vertex -5 0 0
      vertex -3.39594 -1.14928 0
    endloop
  endfacet
  facet normal -0 0 -1
    outer loop
      vertex -3.39594 1.14928 0
      vertex -5 0 0
      vertex -4.61938 1.91341 0
    endloop
  endfacet
  facet normal -0 0 -1
    outer loop
      vertex -3.21396 1.58861 0
      vertex -3.46454 1.43506 0
      vertex -4.61938 1.91341 0
    endloop
  endfacet
  facet normal -0 -0 -1
    outer loop
      vertex -3.46454 1.43506 0
      vertex -3.39594 1.14928 0
      vertex -4.61938 1.91341 0
    endloop
  endfacet
  facet normal 0 0 -1
    outer loop
      vertex -3.21396 1.58861 0
      vertex -4.61938 1.91341 0
      vertex -2.69762 2.36137 0
    endloop
  endfacet
  facet normal 0 0 -1
    outer loop
      vertex -3.10295 1.12622 0
      vertex -2.99048 1.39775 0
      vertex -1.80193 0.867767 0
    endloop
  endfacet
  facet normal 0 0 -1
    outer loop
      vertex -2.99048 1.39775 0
      vertex -2.69762 2.36137 0
      vertex -2.43576 2.22795 0
    endloop
  endfacet
  facet normal 0 0 -1
    outer loop
      vertex 2.99048 -1.39775 0
      vertex 2 0 0
      vertex 3.10295 -1.12622 0
    endloop
  endfacet
  facet normal 0 0 -1
    outer loop
      vertex 4.61938 -1.91341 0
      vertex 3.21396 -1.58861 0
      vertex 3.46454 -1.43506 0
    endloop
  endfacet
  facet normal 0 0 -1
    outer loop
      vertex 3.57724 0.237762 0
      vertex 5 0 0
      vertex 3.75 0 0
    endloop
  endfacet
  facet normal -0 0 -1
    outer loop
      vertex 3.57724 0.237762 0
      vertex 3.29774 0.146942 0
      vertex 3.10295 1.12622 0
    endloop
  endfacet
  facet normal -0 0 -1
    outer loop
      vertex 3.29774 0.146942 0
      vertex 2 0 0
      vertex 3.10295 1.12622 0
    endloop
  endfacet
  facet normal 0 0 -1
    outer loop
      vertex 5 0 0
      vertex 3.57724 0.237762 0
      vertex 3.39594 1.14928 0
    endloop
  endfacet
  facet normal 0 0 -1
    outer loop
      vertex 3.57724 0.237762 0
      vertex 3.10295 1.12622 0
      vertex 3.39594 1.14928 0
    endloop
  endfacet
  facet normal 0 -0 -1
    outer loop
      vertex 3.75 0 0
      vertex 5 0 0
      vertex 3.57724 -0.237762 0
    endloop
  endfacet
  facet normal 0 0 -1
    outer loop
      vertex -3.57724 -0.237762 0
      vertex -5 0 0
      vertex -3.75 0 0
    endloop
  endfacet
  facet normal 0 0 -1
    outer loop
      vertex -3.75 0 0
      vertex -5 0 0
      vertex -3.57724 0.237762 0
    endloop
  endfacet
  facet normal 0 0 -1
    outer loop
      vertex -3.57724 0.237762 0
      vertex -3.39594 1.14928 0
      vertex -3.10295 1.12622 0
    endloop
  endfacet
  facet normal 0 0 -1
    outer loop
      vertex -1.80193 -0.867767 0
      vertex -3.29774 0.146942 0
      vertex -1.80193 0.867767 0
    endloop
  endfacet
  facet normal 0 0 -1
    outer loop
      vertex -3.29774 0.146942 0
      vertex -3.10295 1.12622 0
      vertex -1.80193 0.867767 0
    endloop
  endfacet
  facet normal -0 -0 -1
    outer loop
      vertex -3.57724 -0.237762 0
      vertex -3.39594 -1.14928 0
      vertex -5 0 0
    endloop
  endfacet
  facet normal 0 0 -1
    outer loop
      vertex -3.29774 -0.146942 0
      vertex -3.29774 0.146942 0
      vertex -1.80193 -0.867767 0
    endloop
  endfacet
  facet normal 0 0 -1
    outer loop
      vertex -4.61938 -1.91341 0
      vertex -2.69762 -2.36137 0
      vertex -3.53552 -3.53552 0
    endloop
  endfacet
  facet normal 0 0 -1
    outer loop
      vertex -1.80193 -0.867767 0
      vertex -2.22795 -2.43576 0
      vertex -2.43576 -2.22795 0
    endloop
  endfacet
  facet normal 0 0 -1
    outer loop
      vertex -3.39594 -1.14928 0
      vertex -3.46454 -1.43506 0
      vertex -4.61938 -1.91341 0
    endloop
  endfacet
  facet normal 0 -0 -1
    outer loop
      vertex -3.46454 -1.43506 0
      vertex -3.21396 -1.58861 0
      vertex -4.61938 -1.91341 0
    endloop
  endfacet
  facet normal -0 0 -1
    outer loop
      vertex -3.10295 -1.12622 0
      vertex -3.39594 -1.14928 0
      vertex -3.57724 -0.237762 0
    endloop
  endfacet
  facet normal -0 0 -1
    outer loop
      vertex -1.80193 -0.867767 0
      vertex -3.10295 -1.12622 0
      vertex -3.29774 -0.146942 0
    endloop
  endfacet
  facet normal 0 0 -1
    outer loop
      vertex -1.80193 -0.867767 0
      vertex -2.99048 -1.39775 0
      vertex -3.10295 -1.12622 0
    endloop
  endfacet
  facet normal 0 -0 -1
    outer loop
      vertex 2 0 0
      vertex 2.99048 -1.39775 0
      vertex 1.24698 -1.56366 0
    endloop
  endfacet
  facet normal 0 0 -1
    outer loop
      vertex 3.53552 -3.53552 0
      vertex 2.36137 -2.69762 0
      vertex 2.65164 -2.65164 0
    endloop
  endfacet
  facet normal -0 0 -1
    outer loop
      vertex 3.57724 -0.237762 0
      vertex 3.10295 -1.12622 0
      vertex 3.29774 -0.146942 0
    endloop
  endfacet
  facet normal 0 0 -1
    outer loop
      vertex 3.10295 -1.12622 0
      vertex 2 0 0
      vertex 3.29774 -0.146942 0
    endloop
  endfacet
  facet normal 0 0 -1
    outer loop
      vertex 3.57724 -0.237762 0
      vertex 3.39594 -1.14928 0
      vertex 3.10295 -1.12622 0
    endloop
  endfacet
  facet normal 0 0 -1
    outer loop
      vertex 4.61938 -1.91341 0
      vertex 3.46454 -1.43506 0
      vertex 3.39594 -1.14928 0
    endloop
  endfacet
  facet normal 0 0 -1
    outer loop
      vertex -2.69762 -2.36137 0
      vertex -4.61938 -1.91341 0
      vertex -3.21396 -1.58861 0
    endloop
  endfacet
  facet normal 0 -0 -1
    outer loop
      vertex -2.36137 -2.69762 0
      vertex -1.91341 -4.61938 0
      vertex -3.53552 -3.53552 0
    endloop
  endfacet
  facet normal 0 0 -1
    outer loop
      vertex -3.53552 -3.53552 0
      vertex -2.65164 -2.65164 0
      vertex -2.36137 -2.69762 0
    endloop
  endfacet
  facet normal 0 0 -1
    outer loop
      vertex -3.21396 -1.58861 0
      vertex -2.99048 -1.39775 0
      vertex -2.69762 -2.36137 0
    endloop
  endfacet
  facet normal 0 0 -1
    outer loop
      vertex -2.99048 -1.39775 0
      vertex -1.80193 -0.867767 0
      vertex -2.43576 -2.22795 0
    endloop
  endfacet
  facet normal 0 -0 -1
    outer loop
      vertex -1.80193 -0.867767 0
      vertex -0.445038 -1.94984 0
      vertex -2.22795 -2.43576 0
    endloop
  endfacet
  facet normal -0 0 -1
    outer loop
      vertex -1.58861 -3.21396 0
      vertex -1.91341 -4.61938 0
      vertex -2.36137 -2.69762 0
    endloop
  endfacet
  facet normal 0 0 -1
    outer loop
      vertex 1.91341 -4.61938 0
      vertex 2.36137 -2.69762 0
      vertex 3.53552 -3.53552 0
    endloop
  endfacet
  facet normal 0 -0 -1
    outer loop
      vertex 2.99048 -1.39775 0
      vertex 3.21396 -1.58861 0
      vertex 2.69762 -2.36137 0
    endloop
  endfacet
  facet normal -0 0 -1
    outer loop
      vertex 2.43576 -2.22795 0
      vertex 2.22795 -2.43576 0
      vertex 1.24698 -1.56366 0
    endloop
  endfacet
  facet normal 0 0 -1
    outer loop
      vertex -1.12622 -3.10295 0
      vertex -0.146942 -3.29774 0
      vertex -0.237762 -3.57724 0
    endloop
  endfacet
  facet normal 0 0 -1
    outer loop
      vertex 2.69762 -2.36137 0
      vertex 2.43576 -2.22795 0
      vertex 2.99048 -1.39775 0
    endloop
  endfacet
  facet normal 0 0 -1
    outer loop
      vertex 2.43576 -2.22795 0
      vertex 1.24698 -1.56366 0
      vertex 2.99048 -1.39775 0
    endloop
  endfacet
  facet normal 0 0 -1
    outer loop
      vertex 2.69762 -2.36137 0
      vertex 4.61938 -1.91341 0
      vertex 3.53552 -3.53552 0
    endloop
  endfacet
  facet normal 0 0 -1
    outer loop
      vertex 3.53552 -3.53552 0
      vertex 2.65164 -2.65164 0
      vertex 2.69762 -2.36137 0
    endloop
  endfacet
  facet normal 0 -0 -1
    outer loop
      vertex -1.58861 -3.21396 0
      vertex -1.43506 -3.46454 0
      vertex -1.91341 -4.61938 0
    endloop
  endfacet
  facet normal 0 -0 -1
    outer loop
      vertex -1.14928 -3.39594 0
      vertex 0 -5 0
      vertex -1.91341 -4.61938 0
    endloop
  endfacet
  facet normal -0 0 -1
    outer loop
      vertex -1.39775 -2.99048 0
      vertex -1.58861 -3.21396 0
      vertex -2.36137 -2.69762 0
    endloop
  endfacet
  facet normal 0 -0 -1
    outer loop
      vertex -2.22795 -2.43576 0
      vertex -1.39775 -2.99048 0
      vertex -2.36137 -2.69762 0
    endloop
  endfacet
  facet normal 0 0 -1
    outer loop
      vertex -0.445038 -1.94984 0
      vertex -1.12622 -3.10295 0
      vertex -1.39775 -2.99048 0
    endloop
  endfacet
  facet normal -0 0 -1
    outer loop
      vertex 1.91341 -4.61938 0
      vertex 0 -5 0
      vertex 1.14928 -3.39594 0
    endloop
  endfacet
  facet normal 0 0 -1
    outer loop
      vertex -1.14928 -3.39594 0
      vertex -1.91341 -4.61938 0
      vertex -1.43506 -3.46454 0
    endloop
  endfacet
  facet normal 0 0 -1
    outer loop
      vertex 1.91341 -4.61938 0
      vertex 1.43506 -3.46454 0
      vertex 1.58861 -3.21396 0
    endloop
  endfacet
  facet normal 0 0 -1
    outer loop
      vertex 1.58861 -3.21396 0
      vertex 2.36137 -2.69762 0
      vertex 1.91341 -4.61938 0
    endloop
  endfacet
  facet normal 0 0 -1
    outer loop
      vertex 0 -5 0
      vertex -1.14928 -3.39594 0
      vertex -0.237762 -3.57724 0
    endloop
  endfacet
  facet normal 0 0 -1
    outer loop
      vertex -1.12622 -3.10295 0
      vertex -0.445038 -1.94984 0
      vertex -0.146942 -3.29774 0
    endloop
  endfacet
  facet normal 0 0 -1
    outer loop
      vertex 1.12622 -3.10295 0
      vertex -0.445038 -1.94984 0
      vertex 1.24698 -1.56366 0
    endloop
  endfacet
  facet normal -0 0 -1
    outer loop
      vertex 2.36137 -2.69762 0
      vertex 1.39775 -2.99048 0
      vertex 2.22795 -2.43576 0
    endloop
  endfacet
  facet normal 0 0 -1
    outer loop
      vertex 1.39775 -2.99048 0
      vertex 1.24698 -1.56366 0
      vertex 2.22795 -2.43576 0
    endloop
  endfacet
  facet normal 0 0 -1
    outer loop
      vertex 2.36137 -2.69762 0
      vertex 1.58861 -3.21396 0
      vertex 1.39775 -2.99048 0
    endloop
  endfacet
  facet normal 0 0 -1
    outer loop
      vertex 0 -5 0
      vertex 0.237762 -3.57724 0
      vertex 1.14928 -3.39594 0
    endloop
  endfacet
  facet normal 0 0 -1
    outer loop
      vertex -0.445038 -1.94984 0
      vertex 1.12622 -3.10295 0
      vertex 0.146942 -3.29774 0
    endloop
  endfacet
  facet normal 0 -0 -1
    outer loop
      vertex -1.12622 -3.10295 0
      vertex -0.237762 -3.57724 0
      vertex -1.14928 -3.39594 0
    endloop
  endfacet
  facet normal 0 -0 -1
    outer loop
      vertex 1.12622 -3.10295 0
      vertex 1.14928 -3.39594 0
      vertex 0.237762 -3.57724 0
    endloop
  endfacet
  facet normal 0 0 -1
    outer loop
      vertex -0.146942 -3.29774 0
      vertex -0.445038 -1.94984 0
      vertex 0.146942 -3.29774 0
    endloop
  endfacet
  facet normal 0 0 -1
    outer loop
      vertex 0.146942 -3.29774 0
      vertex 1.12622 -3.10295 0
      vertex 0.237762 -3.57724 0
    endloop
  endfacet
  facet normal 0 0 -1
    outer loop
      vertex 0.237762 -3.57724 0
      vertex 0 -5 0
      vertex 0 -3.75 0
    endloop
  endfacet
  facet normal -0 0 1
    outer loop
      vertex 2.65164 2.65164 1
      vertex 2.69762 2.36137 1
      vertex 3.53552 3.53552 1
    endloop
  endfacet
  facet normal 0 0 1
    outer loop
      vertex 3.10295 1.12622 1
      vertex 2.99048 1.39775 1
      vertex 2 0 1
    endloop
  endfacet
  facet normal 0 0 1
    outer loop
      vertex -2.65164 2.65164 1
      vertex -3.53552 3.53552 1
      vertex -2.69762 2.36137 1
    endloop
  endfacet
  facet normal 0 0 1
    outer loop
      vertex 0 5 1
      vertex 0 3.75 1
      vertex 0.237762 3.57724 1
    endloop
  endfacet
  facet normal 0 -0 1
    outer loop
      vertex -1.14928 3.39594 1
      vertex 0 5 1
      vertex -1.91341 4.61938 1
    endloop
  endfacet
  facet normal 0 -0 1
    outer loop
      vertex -1.39775 -2.99048 1
      vertex -0.445038 -1.94984 1
      vertex -2.22795 -2.43576 1
    endloop
  endfacet
  facet normal -0 0 1
    outer loop
      vertex -3.57724 0.237762 1
      vertex -3.29774 0.146942 1
      vertex -3.10295 1.12622 1
    endloop
  endfacet
  facet normal 0 0 1
    outer loop
      vertex 1.24698 1.56366 1
      vertex 1.12622 3.10295 1
      vertex -0.445038 1.94984 1
    endloop
  endfacet
  facet normal 0 0 1
    outer loop
      vertex 0 -3.75 1
      vertex -0.237762 -3.57724 1
      vertex 0 -5 1
    endloop
  endfacet
  facet normal -0 0 1
    outer loop
      vertex 3.39594 -1.14928 1
      vertex 4.61938 -1.91341 1
      vertex 5 0 1
    endloop
  endfacet
  facet normal 0 0 1
    outer loop
      vertex -0.445038 1.94984 1
      vertex 1.12622 3.10295 1
      vertex 0.146942 3.29774 1
    endloop
  endfacet
  facet normal 0 0 1
    outer loop
      vertex 1.12622 -3.10295 1
      vertex 1.39775 -2.99048 1
      vertex 1.24698 -1.56366 1
    endloop
  endfacet
  facet normal 0 0 1
    outer loop
      vertex -1.12622 3.10295 1
      vertex -1.39775 2.99048 1
      vertex -0.445038 1.94984 1
    endloop
  endfacet
  facet normal 0 0 1
    outer loop
      vertex 4.61938 1.91341 1
      vertex 3.46454 1.43506 1
      vertex 3.39594 1.14928 1
    endloop
  endfacet
  facet normal -0 0 1
    outer loop
      vertex -1.14928 3.39594 1
      vertex -1.12622 3.10295 1
      vertex -0.237762 3.57724 1
    endloop
  endfacet
  facet normal 0 0 1
    outer loop
      vertex -2.99048 -1.39775 1
      vertex -2.69762 -2.36137 1
      vertex -2.43576 -2.22795 1
    endloop
  endfacet
  facet normal -0 -0 1
    outer loop
      vertex -1.43506 3.46454 1
      vertex -1.14928 3.39594 1
      vertex -1.91341 4.61938 1
    endloop
  endfacet
  facet normal 0 0 1
    outer loop
      vertex -0.237762 3.57724 1
      vertex 0 3.75 1
      vertex 0 5 1
    endloop
  endfacet
  facet normal 0 0 1
    outer loop
      vertex 0 5 1
      vertex 0.237762 3.57724 1
      vertex 1.14928 3.39594 1
    endloop
  endfacet
  facet normal 0 0 1
    outer loop
      vertex 1.91341 4.61938 1
      vertex 1.43506 3.46454 1
      vertex 1.58861 3.21396 1
    endloop
  endfacet
  facet normal -0 0 1
    outer loop
      vertex -1.12622 3.10295 1
      vertex -0.445038 1.94984 1
      vertex -0.146942 3.29774 1
    endloop
  endfacet
  facet normal 0 0 1
    outer loop
      vertex 0.237762 3.57724 1
      vertex 0.146942 3.29774 1
      vertex 1.12622 3.10295 1
    endloop
  endfacet
  facet normal 0 0 1
    outer loop
      vertex 0 5 1
      vertex 1.14928 3.39594 1
      vertex 1.91341 4.61938 1
    endloop
  endfacet
  facet normal 0 0 1
    outer loop
      vertex 0.237762 3.57724 1
      vertex 1.12622 3.10295 1
      vertex 1.14928 3.39594 1
    endloop
  endfacet
  facet normal 0 0 1
    outer loop
      vertex 1.91341 4.61938 1
      vertex 1.14928 3.39594 1
      vertex 1.43506 3.46454 1
    endloop
  endfacet
  facet normal 0 -0 1
    outer loop
      vertex 2.22795 2.43576 1
      vertex 2.36137 2.69762 1
      vertex 1.39775 2.99048 1
    endloop
  endfacet
  facet normal 0 0 1
    outer loop
      vertex 2.36137 2.69762 1
      vertex 1.91341 4.61938 1
      vertex 1.58861 3.21396 1
    endloop
  endfacet
  facet normal -0 0 1
    outer loop
      vertex -3.21396 1.58861 1
      vertex -2.99048 1.39775 1
      vertex -2.69762 2.36137 1
    endloop
  endfacet
  facet normal -0 0 1
    outer loop
      vertex -3.57724 -0.237762 1
      vertex -3.10295 -1.12622 1
      vertex -3.29774 -0.146942 1
    endloop
  endfacet
  facet normal 0 0 1
    outer loop
      vertex -1.91341 4.61938 1
      vertex -3.53552 3.53552 1
      vertex -2.36137 2.69762 1
    endloop
  endfacet
  facet normal 0 -0 1
    outer loop
      vertex -1.58861 3.21396 1
      vertex -1.43506 3.46454 1
      vertex -1.91341 4.61938 1
    endloop
  endfacet
  facet normal 0 -0 1
    outer loop
      vertex -0.237762 3.57724 1
      vertex 0 5 1
      vertex -1.14928 3.39594 1
    endloop
  endfacet
  facet normal -0 0 1
    outer loop
      vertex -2.22795 2.43576 1
      vertex -0.445038 1.94984 1
      vertex -1.39775 2.99048 1
    endloop
  endfacet
  facet normal 0 0 1
    outer loop
      vertex -0.146942 3.29774 1
      vertex -0.237762 3.57724 1
      vertex -1.12622 3.10295 1
    endloop
  endfacet
  facet normal 0 0 1
    outer loop
      vertex -1.80193 0.867767 1
      vertex -2.22795 2.43576 1
      vertex -2.43576 2.22795 1
    endloop
  endfacet
  facet normal 0 -0 1
    outer loop
      vertex 3.21396 1.58861 1
      vertex 4.61938 1.91341 1
      vertex 2.69762 2.36137 1
    endloop
  endfacet
  facet normal 0 0 1
    outer loop
      vertex 1.12622 3.10295 1
      vertex 1.24698 1.56366 1
      vertex 1.39775 2.99048 1
    endloop
  endfacet
  facet normal 0 -0 1
    outer loop
      vertex 2.65164 2.65164 1
      vertex 3.53552 3.53552 1
      vertex 2.36137 2.69762 1
    endloop
  endfacet
  facet normal 0 0 1
    outer loop
      vertex 1.91341 4.61938 1
      vertex 2.36137 2.69762 1
      vertex 3.53552 3.53552 1
    endloop
  endfacet
  facet normal 0 0 1
    outer loop
      vertex 1.58861 3.21396 1
      vertex 1.39775 2.99048 1
      vertex 2.36137 2.69762 1
    endloop
  endfacet
  facet normal -0 0 1
    outer loop
      vertex 2.69762 2.36137 1
      vertex 4.61938 1.91341 1
      vertex 3.53552 3.53552 1
    endloop
  endfacet
  facet normal 0 0 1
    outer loop
      vertex 2.99048 1.39775 1
      vertex 1.24698 1.56366 1
      vertex 2 0 1
    endloop
  endfacet
  facet normal 0 0 1
    outer loop
      vertex -1.58861 3.21396 1
      vertex -2.36137 2.69762 1
      vertex -1.39775 2.99048 1
    endloop
  endfacet
  facet normal 0 -0 1
    outer loop
      vertex -3.57724 0.237762 1
      vertex -3.39594 1.14928 1
      vertex -5 0 1
    endloop
  endfacet
  facet normal 0 0 1
    outer loop
      vertex -4.61938 1.91341 1
      vertex -2.69762 2.36137 1
      vertex -3.53552 3.53552 1
    endloop
  endfacet
  facet normal 0 0 1
    outer loop
      vertex -2.36137 2.69762 1
      vertex -3.53552 3.53552 1
      vertex -2.65164 2.65164 1
    endloop
  endfacet
  facet normal 0 0 1
    outer loop
      vertex -1.91341 4.61938 1
      vertex -2.36137 2.69762 1
      vertex -1.58861 3.21396 1
    endloop
  endfacet
  facet normal -0 0 1
    outer loop
      vertex -2.36137 2.69762 1
      vertex -2.22795 2.43576 1
      vertex -1.39775 2.99048 1
    endloop
  endfacet
  facet normal 0 0 1
    outer loop
      vertex 1.91341 -4.61938 1
      vertex 1.43506 -3.46454 1
      vertex 1.14928 -3.39594 1
    endloop
  endfacet
  facet normal 0 0 1
    outer loop
      vertex 1.24698 1.56366 1
      vertex 2.22795 2.43576 1
      vertex 1.39775 2.99048 1
    endloop
  endfacet
  facet normal 0 0 1
    outer loop
      vertex -2.65164 -2.65164 1
      vertex -2.69762 -2.36137 1
      vertex -3.53552 -3.53552 1
    endloop
  endfacet
  facet normal 0 0 1
    outer loop
      vertex 1.24698 1.56366 1
      vertex 2.43576 2.22795 1
      vertex 2.22795 2.43576 1
    endloop
  endfacet
  facet normal 0 0 1
    outer loop
      vertex -0.445038 1.94984 1
      vertex -2.22795 2.43576 1
      vertex -1.80193 0.867767 1
    endloop
  endfacet
  facet normal -0 0 1
    outer loop
      vertex -0.146942 3.29774 1
      vertex -0.445038 1.94984 1
      vertex 0.146942 3.29774 1
    endloop
  endfacet
  facet normal -0 0 1
    outer loop
      vertex 3.57724 -0.237762 1
      vertex 3.39594 -1.14928 1
      vertex 5 0 1
    endloop
  endfacet
  facet normal 0 0 1
    outer loop
      vertex 3.21396 -1.58861 1
      vertex 2.69762 -2.36137 1
      vertex 4.61938 -1.91341 1
    endloop
  endfacet
  facet normal 0 -0 1
    outer loop
      vertex 3.29774 -0.146942 1
      vertex 3.29774 0.146942 1
      vertex 2 0 1
    endloop
  endfacet
  facet normal -0 0 1
    outer loop
      vertex 2.43576 2.22795 1
      vertex 2.99048 1.39775 1
      vertex 2.69762 2.36137 1
    endloop
  endfacet
  facet normal 0 0 1
    outer loop
      vertex 2.43576 2.22795 1
      vertex 1.24698 1.56366 1
      vertex 2.99048 1.39775 1
    endloop
  endfacet
  facet normal 0 -0 1
    outer loop
      vertex 2.99048 1.39775 1
      vertex 3.21396 1.58861 1
      vertex 2.69762 2.36137 1
    endloop
  endfacet
  facet normal -0 0 1
    outer loop
      vertex 3.21396 1.58861 1
      vertex 3.46454 1.43506 1
      vertex 4.61938 1.91341 1
    endloop
  endfacet
  facet normal 0 0 1
    outer loop
      vertex 4.61938 1.91341 1
      vertex 3.39594 1.14928 1
      vertex 5 0 1
    endloop
  endfacet
  facet normal 0 0 1
    outer loop
      vertex -2.43576 2.22795 1
      vertex -2.99048 1.39775 1
      vertex -1.80193 0.867767 1
    endloop
  endfacet
  facet normal 0 0 1
    outer loop
      vertex -3.39594 -1.14928 1
      vertex -5 0 1
      vertex -4.61938 -1.91341 1
    endloop
  endfacet
  facet normal 0 0 1
    outer loop
      vertex -4.61938 1.91341 1
      vertex -5 0 1
      vertex -3.39594 1.14928 1
    endloop
  endfacet
  facet normal 0 0 1
    outer loop
      vertex -4.61938 1.91341 1
      vertex -3.46454 1.43506 1
      vertex -3.21396 1.58861 1
    endloop
  endfacet
  facet normal 0 0 1
    outer loop
      vertex -4.61938 1.91341 1
      vertex -3.39594 1.14928 1
      vertex -3.46454 1.43506 1
    endloop
  endfacet
  facet normal 0 0 1
    outer loop
      vertex -2.69762 2.36137 1
      vertex -4.61938 1.91341 1
      vertex -3.21396 1.58861 1
    endloop
  endfacet
  facet normal 0 0 1
    outer loop
      vertex -1.80193 0.867767 1
      vertex -2.99048 1.39775 1
      vertex -3.10295 1.12622 1
    endloop
  endfacet
  facet normal 0 0 1
    outer loop
      vertex -2.43576 2.22795 1
      vertex -2.69762 2.36137 1
      vertex -2.99048 1.39775 1
    endloop
  endfacet
  facet normal 0 0 1
    outer loop
      vertex 3.10295 -1.12622 1
      vertex 2 0 1
      vertex 2.99048 -1.39775 1
    endloop
  endfacet
  facet normal 0 0 1
    outer loop
      vertex 3.46454 -1.43506 1
      vertex 3.21396 -1.58861 1
      vertex 4.61938 -1.91341 1
    endloop
  endfacet
  facet normal 0 -0 1
    outer loop
      vertex 3.75 0 1
      vertex 5 0 1
      vertex 3.57724 0.237762 1
    endloop
  endfacet
  facet normal 0 0 1
    outer loop
      vertex 3.10295 1.12622 1
      vertex 3.29774 0.146942 1
      vertex 3.57724 0.237762 1
    endloop
  endfacet
  facet normal 0 0 1
    outer loop
      vertex 3.10295 1.12622 1
      vertex 2 0 1
      vertex 3.29774 0.146942 1
    endloop
  endfacet
  facet normal 0 0 1
    outer loop
      vertex 3.39594 1.14928 1
      vertex 3.57724 0.237762 1
      vertex 5 0 1
    endloop
  endfacet
  facet normal 0 0 1
    outer loop
      vertex 3.39594 1.14928 1
      vertex 3.10295 1.12622 1
      vertex 3.57724 0.237762 1
    endloop
  endfacet
  facet normal 0 0 1
    outer loop
      vertex 3.57724 -0.237762 1
      vertex 5 0 1
      vertex 3.75 0 1
    endloop
  endfacet
  facet normal 0 0 1
    outer loop
      vertex -3.75 0 1
      vertex -5 0 1
      vertex -3.57724 -0.237762 1
    endloop
  endfacet
  facet normal 0 0 1
    outer loop
      vertex -3.57724 0.237762 1
      vertex -5 0 1
      vertex -3.75 0 1
    endloop
  endfacet
  facet normal 0 0 1
    outer loop
      vertex -3.10295 1.12622 1
      vertex -3.39594 1.14928 1
      vertex -3.57724 0.237762 1
    endloop
  endfacet
  facet normal 0 0 1
    outer loop
      vertex -1.80193 0.867767 1
      vertex -3.29774 0.146942 1
      vertex -1.80193 -0.867767 1
    endloop
  endfacet
  facet normal 0 0 1
    outer loop
      vertex -1.80193 0.867767 1
      vertex -3.10295 1.12622 1
      vertex -3.29774 0.146942 1
    endloop
  endfacet
  facet normal 0 0 1
    outer loop
      vertex -5 0 1
      vertex -3.39594 -1.14928 1
      vertex -3.57724 -0.237762 1
    endloop
  endfacet
  facet normal 0 0 1
    outer loop
      vertex -1.80193 -0.867767 1
      vertex -3.29774 0.146942 1
      vertex -3.29774 -0.146942 1
    endloop
  endfacet
  facet normal 0 -0 1
    outer loop
      vertex -3.53552 -3.53552 1
      vertex -2.69762 -2.36137 1
      vertex -4.61938 -1.91341 1
    endloop
  endfacet
  facet normal -0 0 1
    outer loop
      vertex -2.43576 -2.22795 1
      vertex -2.22795 -2.43576 1
      vertex -1.80193 -0.867767 1
    endloop
  endfacet
  facet normal 0 0 1
    outer loop
      vertex -4.61938 -1.91341 1
      vertex -3.46454 -1.43506 1
      vertex -3.39594 -1.14928 1
    endloop
  endfacet
  facet normal 0 0 1
    outer loop
      vertex -4.61938 -1.91341 1
      vertex -3.21396 -1.58861 1
      vertex -3.46454 -1.43506 1
    endloop
  endfacet
  facet normal 0 0 1
    outer loop
      vertex -3.57724 -0.237762 1
      vertex -3.39594 -1.14928 1
      vertex -3.10295 -1.12622 1
    endloop
  endfacet
  facet normal 0 0 1
    outer loop
      vertex -3.29774 -0.146942 1
      vertex -3.10295 -1.12622 1
      vertex -1.80193 -0.867767 1
    endloop
  endfacet
  facet normal -0 0 1
    outer loop
      vertex -3.10295 -1.12622 1
      vertex -2.99048 -1.39775 1
      vertex -1.80193 -0.867767 1
    endloop
  endfacet
  facet normal 0 0 1
    outer loop
      vertex 1.24698 -1.56366 1
      vertex 2.99048 -1.39775 1
      vertex 2 0 1
    endloop
  endfacet
  facet normal 0 0 1
    outer loop
      vertex 2.65164 -2.65164 1
      vertex 2.36137 -2.69762 1
      vertex 3.53552 -3.53552 1
    endloop
  endfacet
  facet normal 0 0 1
    outer loop
      vertex 3.29774 -0.146942 1
      vertex 3.10295 -1.12622 1
      vertex 3.57724 -0.237762 1
    endloop
  endfacet
  facet normal 0 0 1
    outer loop
      vertex 3.29774 -0.146942 1
      vertex 2 0 1
      vertex 3.10295 -1.12622 1
    endloop
  endfacet
  facet normal -0 0 1
    outer loop
      vertex 3.10295 -1.12622 1
      vertex 3.39594 -1.14928 1
      vertex 3.57724 -0.237762 1
    endloop
  endfacet
  facet normal 0 0 1
    outer loop
      vertex 3.39594 -1.14928 1
      vertex 3.46454 -1.43506 1
      vertex 4.61938 -1.91341 1
    endloop
  endfacet
  facet normal 0 0 1
    outer loop
      vertex -3.21396 -1.58861 1
      vertex -4.61938 -1.91341 1
      vertex -2.69762 -2.36137 1
    endloop
  endfacet
  facet normal -0 0 1
    outer loop
      vertex -3.53552 -3.53552 1
      vertex -1.91341 -4.61938 1
      vertex -2.36137 -2.69762 1
    endloop
  endfacet
  facet normal 0 0 1
    outer loop
      vertex -2.36137 -2.69762 1
      vertex -2.65164 -2.65164 1
      vertex -3.53552 -3.53552 1
    endloop
  endfacet
  facet normal 0 0 1
    outer loop
      vertex -2.69762 -2.36137 1
      vertex -2.99048 -1.39775 1
      vertex -3.21396 -1.58861 1
    endloop
  endfacet
  facet normal 0 -0 1
    outer loop
      vertex -2.43576 -2.22795 1
      vertex -1.80193 -0.867767 1
      vertex -2.99048 -1.39775 1
    endloop
  endfacet
  facet normal 0 0 1
    outer loop
      vertex -2.22795 -2.43576 1
      vertex -0.445038 -1.94984 1
      vertex -1.80193 -0.867767 1
    endloop
  endfacet
  facet normal 0 0 1
    outer loop
      vertex -2.36137 -2.69762 1
      vertex -1.91341 -4.61938 1
      vertex -1.58861 -3.21396 1
    endloop
  endfacet
  facet normal 0 0 1
    outer loop
      vertex 3.53552 -3.53552 1
      vertex 2.36137 -2.69762 1
      vertex 1.91341 -4.61938 1
    endloop
  endfacet
  facet normal 0 0 1
    outer loop
      vertex 2.69762 -2.36137 1
      vertex 3.21396 -1.58861 1
      vertex 2.99048 -1.39775 1
    endloop
  endfacet
  facet normal 0 0 1
    outer loop
      vertex 1.24698 -1.56366 1
      vertex 2.22795 -2.43576 1
      vertex 2.43576 -2.22795 1
    endloop
  endfacet
  facet normal 0 -0 1
    outer loop
      vertex -0.237762 -3.57724 1
      vertex -0.146942 -3.29774 1
      vertex -1.12622 -3.10295 1
    endloop
  endfacet
  facet normal 0 0 1
    outer loop
      vertex 2.99048 -1.39775 1
      vertex 2.43576 -2.22795 1
      vertex 2.69762 -2.36137 1
    endloop
  endfacet
  facet normal 0 0 1
    outer loop
      vertex 2.99048 -1.39775 1
      vertex 1.24698 -1.56366 1
      vertex 2.43576 -2.22795 1
    endloop
  endfacet
  facet normal 0 -0 1
    outer loop
      vertex 3.53552 -3.53552 1
      vertex 4.61938 -1.91341 1
      vertex 2.69762 -2.36137 1
    endloop
  endfacet
  facet normal 0 0 1
    outer loop
      vertex 2.69762 -2.36137 1
      vertex 2.65164 -2.65164 1
      vertex 3.53552 -3.53552 1
    endloop
  endfacet
  facet normal 0 0 1
    outer loop
      vertex -1.91341 -4.61938 1
      vertex -1.43506 -3.46454 1
      vertex -1.58861 -3.21396 1
    endloop
  endfacet
  facet normal -0 0 1
    outer loop
      vertex -1.91341 -4.61938 1
      vertex 0 -5 1
      vertex -1.14928 -3.39594 1
    endloop
  endfacet
  facet normal 0 0 1
    outer loop
      vertex -2.36137 -2.69762 1
      vertex -1.58861 -3.21396 1
      vertex -1.39775 -2.99048 1
    endloop
  endfacet
  facet normal -0 0 1
    outer loop
      vertex -2.36137 -2.69762 1
      vertex -1.39775 -2.99048 1
      vertex -2.22795 -2.43576 1
    endloop
  endfacet
  facet normal -0 0 1
    outer loop
      vertex -1.39775 -2.99048 1
      vertex -1.12622 -3.10295 1
      vertex -0.445038 -1.94984 1
    endloop
  endfacet
  facet normal 0 0 1
    outer loop
      vertex 1.14928 -3.39594 1
      vertex 0 -5 1
      vertex 1.91341 -4.61938 1
    endloop
  endfacet
  facet normal -0 0 1
    outer loop
      vertex -1.43506 -3.46454 1
      vertex -1.91341 -4.61938 1
      vertex -1.14928 -3.39594 1
    endloop
  endfacet
  facet normal 0 0 1
    outer loop
      vertex 1.58861 -3.21396 1
      vertex 1.43506 -3.46454 1
      vertex 1.91341 -4.61938 1
    endloop
  endfacet
  facet normal 0 -0 1
    outer loop
      vertex 1.91341 -4.61938 1
      vertex 2.36137 -2.69762 1
      vertex 1.58861 -3.21396 1
    endloop
  endfacet
  facet normal 0 0 1
    outer loop
      vertex -0.237762 -3.57724 1
      vertex -1.14928 -3.39594 1
      vertex 0 -5 1
    endloop
  endfacet
  facet normal 0 0 1
    outer loop
      vertex -0.146942 -3.29774 1
      vertex -0.445038 -1.94984 1
      vertex -1.12622 -3.10295 1
    endloop
  endfacet
  facet normal 0 0 1
    outer loop
      vertex 1.24698 -1.56366 1
      vertex -0.445038 -1.94984 1
      vertex 1.12622 -3.10295 1
    endloop
  endfacet
  facet normal 0 0 1
    outer loop
      vertex 2.22795 -2.43576 1
      vertex 1.39775 -2.99048 1
      vertex 2.36137 -2.69762 1
    endloop
  endfacet
  facet normal 0 0 1
    outer loop
      vertex 2.22795 -2.43576 1
      vertex 1.24698 -1.56366 1
      vertex 1.39775 -2.99048 1
    endloop
  endfacet
  facet normal -0 0 1
    outer loop
      vertex 1.39775 -2.99048 1
      vertex 1.58861 -3.21396 1
      vertex 2.36137 -2.69762 1
    endloop
  endfacet
  facet normal 0 0 1
    outer loop
      vertex 1.14928 -3.39594 1
      vertex 0.237762 -3.57724 1
      vertex 0 -5 1
    endloop
  endfacet
  facet normal 0 -0 1
    outer loop
      vertex 0.146942 -3.29774 1
      vertex 1.12622 -3.10295 1
      vertex -0.445038 -1.94984 1
    endloop
  endfacet
  facet normal -0 0 1
    outer loop
      vertex -1.14928 -3.39594 1
      vertex -0.237762 -3.57724 1
      vertex -1.12622 -3.10295 1
    endloop
  endfacet
  facet normal 0 0 1
    outer loop
      vertex 0.237762 -3.57724 1
      vertex 1.14928 -3.39594 1
      vertex 1.12622 -3.10295 1
    endloop
  endfacet
  facet normal 0 0 1
    outer loop
      vertex 0.146942 -3.29774 1
      vertex -0.445038 -1.94984 1
      vertex -0.146942 -3.29774 1
    endloop
  endfacet
  facet normal 0 -0 1
    outer loop
      vertex 0.237762 -3.57724 1
      vertex 1.12622 -3.10295 1
      vertex 0.146942 -3.29774 1
    endloop
  endfacet
  facet normal -0 0 1
    outer loop
      vertex 0 -3.75 1
      vertex 0 -5 1
      vertex 0.237762 -3.57724 1
    endloop
  endfacet
  facet normal 0.55557 -0.831469 0
    outer loop
      vertex 3.53552 -3.53552 0
      vertex 1.91341 -4.61938 1
      vertex 1.91341 -4.61938 0
    endloop
  endfacet
  facet normal 0.55557 -0.831469 0
    outer loop
      vertex 3.53552 -3.53552 0
      vertex 3.53552 -3.53552 1
      vertex 1.91341 -4.61938 1
    endloop
  endfacet
  facet normal 0.831469 -0.55557 0
    outer loop
      vertex 4.61938 -1.91341 0
      vertex 3.53552 -3.53552 1
      vertex 3.53552 -3.53552 0
    endloop
  endfacet
  facet normal 0.831469 -0.55557 0
    outer loop
      vertex 4.61938 -1.91341 0
      vertex 4.61938 -1.91341 1
      vertex 3.53552 -3.53552 1
    endloop
  endfacet
  facet normal 0.980783 -0.1951 0
    outer loop
      vertex 5 0 0
      vertex 4.61938 -1.91341 1
      vertex 4.61938 -1.91341 0
    endloop
  endfacet
  facet normal 0.980783 -0.1951 0
    outer loop
      vertex 5 0 0
      vertex 5 0 1
      vertex 4.61938 -1.91341 1
    endloop
  endfacet
  facet normal 0.980783 0.1951 0
    outer loop
      vertex 4.61938 1.91341 0
      vertex 5 0 1
      vertex 5 0 0
    endloop
  endfacet
  facet normal 0.980783 0.1951 -0
    outer loop
      vertex 4.61938 1.91341 0
      vertex 4.61938 1.91341 1
      vertex 5 0 1
    endloop
  endfacet
  facet normal 0.831469 0.55557 0
    outer loop
      vertex 3.53552 3.53552 0
      vertex 4.61938 1.91341 1
      vertex 4.61938 1.91341 0
    endloop
  endfacet
  facet normal 0.831469 0.55557 -0
    outer loop
      vertex 3.53552 3.53552 0
      vertex 3.53552 3.53552 1
      vertex 4.61938 1.91341 1
    endloop
  endfacet
  facet normal 0.55557 0.831469 0
    outer loop
      vertex 1.91341 4.61938 0
      vertex 3.53552 3.53552 1
      vertex 3.53552 3.53552 0
    endloop
  endfacet
  facet normal 0.55557 0.831469 -0
    outer loop
      vertex 1.91341 4.61938 0
      vertex 1.91341 4.61938 1
      vertex 3.53552 3.53552 1
    endloop
  endfacet
  facet normal 0.1951 0.980783 0
    outer loop
      vertex 0 5 0
      vertex 1.91341 4.61938 1
      vertex 1.91341 4.61938 0
    endloop
  endfacet
  facet normal 0.1951 0.980783 -0
    outer loop
      vertex 0 5 0
      vertex 0 5 1
      vertex 1.91341 4.61938 1
    endloop
  endfacet
  facet normal -0.1951 0.980783 0
    outer loop
      vertex -1.91341 4.61938 0
      vertex 0 5 1
      vertex 0 5 0
    endloop
  endfacet
  facet normal -0.1951 0.980783 0
    outer loop
      vertex -1.91341 4.61938 0
      vertex -1.91341 4.61938 1
      vertex 0 5 1
    endloop
  endfacet
  facet normal -0.55557 0.831469 0
    outer loop
      vertex -3.53552 3.53552 0
      vertex -1.91341 4.61938 1
      vertex -1.91341 4.61938 0
    endloop
  endfacet
  facet normal -0.55557 0.831469 0
    outer loop
      vertex -3.53552 3.53552 0
      vertex -3.53552 3.53552 1
      vertex -1.91341 4.61938 1
    endloop
  endfacet
  facet normal -0.831469 0.55557 0
    outer loop
      vertex -4.61938 1.91341 0
      vertex -3.53552 3.53552 1
      vertex -3.53552 3.53552 0
    endloop
  endfacet
  facet normal -0.831469 0.55557 0
    outer loop
      vertex -4.61938 1.91341 0
      vertex -4.61938 1.91341 1
      vertex -3.53552 3.53552 1
    endloop
  endfacet
  facet normal -0.980783 0.1951 0
    outer loop
      vertex -5 0 0
      vertex -4.61938 1.91341 1
      vertex -4.61938 1.91341 0
    endloop
  endfacet
  facet normal -0.980783 0.1951 0
    outer loop
      vertex -5 0 0
      vertex -5 0 1
      vertex -4.61938 1.91341 1
    endloop
  endfacet
  facet normal -0.980783 -0.1951 0
    outer loop
      vertex -4.61938 -1.91341 0
      vertex -5 0 1
      vertex -5 0 0
    endloop
  endfacet
  facet normal -0.980783 -0.1951 0
    outer loop
      vertex -4.61938 -1.91341 0
      vertex -4.61938 -1.91341 1
      vertex -5 0 1
    endloop
  endfacet
  facet normal -0.831469 -0.55557 0
    outer loop
      vertex -3.53552 -3.53552 0
      vertex -4.61938 -1.91341 1
      vertex -4.61938 -1.91341 0
    endloop
  endfacet
  facet normal -0.831469 -0.55557 0
    outer loop
      vertex -3.53552 -3.53552 0
      vertex -3.53552 -3.53552 1
      vertex -4.61938 -1.91341 1
    endloop
  endfacet
  facet normal -0.55557 -0.831469 0
    outer loop
      vertex -1.91341 -4.61938 0
      vertex -3.53552 -3.53552 1
      vertex -3.53552 -3.53552 0
    endloop
  endfacet
  facet normal -0.55557 -0.831469 0
    outer loop
      vertex -1.91341 -4.61938 0
      vertex -1.91341 -4.61938 1
      vertex -3.53552 -3.53552 1
    endloop
  endfacet
  facet normal -0.1951 -0.980783 0
    outer loop
      vertex 0 -5 0
      vertex -1.91341 -4.61938 1
      vertex -1.91341 -4.61938 0
    endloop
  endfacet
  facet normal -0.1951 -0.980783 0
    outer loop
      vertex 0 -5 0
      vertex 0 -5 1
      vertex -1.91341 -4.61938 1
    endloop
  endfacet
  facet normal 0.1951 -0.980783 0
    outer loop
      vertex 1.91341 -4.61938 0
      vertex 0 -5 1
      vertex 0 -5 0
    endloop
  endfacet
  facet normal 0.1951 -0.980783 0
    outer loop
      vertex 1.91341 -4.61938 0
      vertex 1.91341 -4.61938 1
      vertex 0 -5 1
    endloop
  endfacet
  facet normal 0.951052 0.309032 -0
    outer loop
      vertex -0.237762 3.57724 0
      vertex -0.237762 3.57724 1
      vertex -0.146942 3.29774 0
    endloop
  endfacet
  facet normal 0.951052 0.309032 0
    outer loop
      vertex -0.146942 3.29774 1
      vertex -0.146942 3.29774 0
      vertex -0.237762 3.57724 1
    endloop
  endfacet
  facet normal 0.58782 -0.808991 0
    outer loop
      vertex 0 3.75 0
      vertex 0 3.75 1
      vertex -0.237762 3.57724 0
    endloop
  endfacet
  facet normal 0.58782 -0.808991 0
    outer loop
      vertex -0.237762 3.57724 1
      vertex -0.237762 3.57724 0
      vertex 0 3.75 1
    endloop
  endfacet
  facet normal -0.58782 -0.808991 0
    outer loop
      vertex 0.237762 3.57724 0
      vertex 0.237762 3.57724 1
      vertex 0 3.75 0
    endloop
  endfacet
  facet normal -0.58782 -0.808991 -0
    outer loop
      vertex 0 3.75 1
      vertex 0 3.75 0
      vertex 0.237762 3.57724 1
    endloop
  endfacet
  facet normal -0.951052 0.309032 0
    outer loop
      vertex 0.146942 3.29774 0
      vertex 0.146942 3.29774 1
      vertex 0.237762 3.57724 0
    endloop
  endfacet
  facet normal -0.951052 0.309032 0
    outer loop
      vertex 0.237762 3.57724 1
      vertex 0.237762 3.57724 0
      vertex 0.146942 3.29774 1
    endloop
  endfacet
  facet normal 0 1 0
    outer loop
      vertex -0.146942 3.29774 0
      vertex -0.146942 3.29774 1
      vertex 0.146942 3.29774 0
    endloop
  endfacet
  facet normal 0 1 0
    outer loop
      vertex 0.146942 3.29774 1
      vertex 0.146942 3.29774 0
      vertex -0.146942 3.29774 1
    endloop
  endfacet
  facet normal 0.996917 -0.0784631 0
    outer loop
      vertex 1.14928 3.39594 0
      vertex 1.14928 3.39594 1
      vertex 1.12622 3.10295 0
    endloop
  endfacet
  facet normal 0.996917 -0.0784631 0
    outer loop
      vertex 1.12622 3.10295 1
      vertex 1.12622 3.10295 0
      vertex 1.14928 3.39594 1
    endloop
  endfacet
  facet normal 0.233414 -0.972377 0
    outer loop
      vertex 1.43506 3.46454 0
      vertex 1.43506 3.46454 1
      vertex 1.14928 3.39594 0
    endloop
  endfacet
  facet normal 0.233414 -0.972377 0
    outer loop
      vertex 1.14928 3.39594 1
      vertex 1.14928 3.39594 0
      vertex 1.43506 3.46454 1
    endloop
  endfacet
  facet normal -0.852649 -0.522485 0
    outer loop
      vertex 1.58861 3.21396 0
      vertex 1.58861 3.21396 1
      vertex 1.43506 3.46454 0
    endloop
  endfacet
  facet normal -0.852649 -0.522485 -0
    outer loop
      vertex 1.43506 3.46454 1
      vertex 1.43506 3.46454 0
      vertex 1.58861 3.21396 1
    endloop
  endfacet
  facet normal -0.760423 0.649428 0
    outer loop
      vertex 1.39775 2.99048 0
      vertex 1.39775 2.99048 1
      vertex 1.58861 3.21396 0
    endloop
  endfacet
  facet normal -0.760423 0.649428 0
    outer loop
      vertex 1.58861 3.21396 1
      vertex 1.58861 3.21396 0
      vertex 1.39775 2.99048 1
    endloop
  endfacet
  facet normal 0.382679 0.923881 -0
    outer loop
      vertex 1.12622 3.10295 0
      vertex 1.12622 3.10295 1
      vertex 1.39775 2.99048 0
    endloop
  endfacet
  facet normal 0.382679 0.923881 0
    outer loop
      vertex 1.39775 2.99048 1
      vertex 1.39775 2.99048 0
      vertex 1.12622 3.10295 1
    endloop
  endfacet
  facet normal 0.852649 -0.522485 0
    outer loop
      vertex -1.43506 3.46454 0
      vertex -1.43506 3.46454 1
      vertex -1.58861 3.21396 0
    endloop
  endfacet
  facet normal 0.852649 -0.522485 0
    outer loop
      vertex -1.58861 3.21396 1
      vertex -1.58861 3.21396 0
      vertex -1.43506 3.46454 1
    endloop
  endfacet
  facet normal -0.233414 -0.972377 0
    outer loop
      vertex -1.14928 3.39594 0
      vertex -1.14928 3.39594 1
      vertex -1.43506 3.46454 0
    endloop
  endfacet
  facet normal -0.233414 -0.972377 -0
    outer loop
      vertex -1.43506 3.46454 1
      vertex -1.43506 3.46454 0
      vertex -1.14928 3.39594 1
    endloop
  endfacet
  facet normal -0.996917 -0.0784631 0
    outer loop
      vertex -1.12622 3.10295 0
      vertex -1.12622 3.10295 1
      vertex -1.14928 3.39594 0
    endloop
  endfacet
  facet normal -0.996917 -0.0784631 -0
    outer loop
      vertex -1.14928 3.39594 1
      vertex -1.14928 3.39594 0
      vertex -1.12622 3.10295 1
    endloop
  endfacet
  facet normal -0.382679 0.923881 0
    outer loop
      vertex -1.39775 2.99048 0
      vertex -1.39775 2.99048 1
      vertex -1.12622 3.10295 0
    endloop
  endfacet
  facet normal -0.382679 0.923881 0
    outer loop
      vertex -1.12622 3.10295 1
      vertex -1.12622 3.10295 0
      vertex -1.39775 2.99048 1
    endloop
  endfacet
  facet normal 0.760423 0.649428 -0
    outer loop
      vertex -1.58861 3.21396 0
      vertex -1.58861 3.21396 1
      vertex -1.39775 2.99048 0
    endloop
  endfacet
  facet normal 0.760423 0.649428 0
    outer loop
      vertex -1.39775 2.99048 1
      vertex -1.39775 2.99048 0
      vertex -1.58861 3.21396 1
    endloop
  endfacet
  facet normal 0.891012 -0.453979 0
    outer loop
      vertex 2.36137 2.69762 0
      vertex 2.36137 2.69762 1
      vertex 2.22795 2.43576 0
    endloop
  endfacet
  facet normal 0.891012 -0.453979 0
    outer loop
      vertex 2.22795 2.43576 1
      vertex 2.22795 2.43576 0
      vertex 2.36137 2.69762 1
    endloop
  endfacet
  facet normal -0.156454 -0.987685 0
    outer loop
      vertex 2.65164 2.65164 0
      vertex 2.65164 2.65164 1
      vertex 2.36137 2.69762 0
    endloop
  endfacet
  facet normal -0.156454 -0.987685 -0
    outer loop
      vertex 2.36137 2.69762 1
      vertex 2.36137 2.69762 0
      vertex 2.65164 2.65164 1
    endloop
  endfacet
  facet normal -0.987685 -0.156454 0
    outer loop
      vertex 2.69762 2.36137 0
      vertex 2.69762 2.36137 1
      vertex 2.65164 2.65164 0
    endloop
  endfacet
  facet normal -0.987685 -0.156454 -0
    outer loop
      vertex 2.65164 2.65164 1
      vertex 2.65164 2.65164 0
      vertex 2.69762 2.36137 1
    endloop
  endfacet
  facet normal -0.453979 0.891012 0
    outer loop
      vertex 2.43576 2.22795 0
      vertex 2.43576 2.22795 1
      vertex 2.69762 2.36137 0
    endloop
  endfacet
  facet normal -0.453979 0.891012 0
    outer loop
      vertex 2.69762 2.36137 1
      vertex 2.69762 2.36137 0
      vertex 2.43576 2.22795 1
    endloop
  endfacet
  facet normal 0.707107 0.707107 -0
    outer loop
      vertex 2.22795 2.43576 0
      vertex 2.22795 2.43576 1
      vertex 2.43576 2.22795 0
    endloop
  endfacet
  facet normal 0.707107 0.707107 0
    outer loop
      vertex 2.43576 2.22795 1
      vertex 2.43576 2.22795 0
      vertex 2.22795 2.43576 1
    endloop
  endfacet
  facet normal 0.987685 -0.156454 0
    outer loop
      vertex -2.65164 2.65164 0
      vertex -2.65164 2.65164 1
      vertex -2.69762 2.36137 0
    endloop
  endfacet
  facet normal 0.987685 -0.156454 0
    outer loop
      vertex -2.69762 2.36137 1
      vertex -2.69762 2.36137 0
      vertex -2.65164 2.65164 1
    endloop
  endfacet
  facet normal 0.156454 -0.987685 0
    outer loop
      vertex -2.36137 2.69762 0
      vertex -2.36137 2.69762 1
      vertex -2.65164 2.65164 0
    endloop
  endfacet
  facet normal 0.156454 -0.987685 0
    outer loop
      vertex -2.65164 2.65164 1
      vertex -2.65164 2.65164 0
      vertex -2.36137 2.69762 1
    endloop
  endfacet
  facet normal -0.891012 -0.453979 0
    outer loop
      vertex -2.22795 2.43576 0
      vertex -2.22795 2.43576 1
      vertex -2.36137 2.69762 0
    endloop
  endfacet
  facet normal -0.891012 -0.453979 -0
    outer loop
      vertex -2.36137 2.69762 1
      vertex -2.36137 2.69762 0
      vertex -2.22795 2.43576 1
    endloop
  endfacet
  facet normal -0.707107 0.707107 0
    outer loop
      vertex -2.43576 2.22795 0
      vertex -2.43576 2.22795 1
      vertex -2.22795 2.43576 0
    endloop
  endfacet
  facet normal -0.707107 0.707107 0
    outer loop
      vertex -2.22795 2.43576 1
      vertex -2.22795 2.43576 0
      vertex -2.43576 2.22795 1
    endloop
  endfacet
  facet normal 0.453979 0.891012 -0
    outer loop
      vertex -2.69762 2.36137 0
      vertex -2.69762 2.36137 1
      vertex -2.43576 2.22795 0
    endloop
  endfacet
  facet normal 0.453979 0.891012 0
    outer loop
      vertex -2.43576 2.22795 1
      vertex -2.43576 2.22795 0
      vertex -2.69762 2.36137 1
    endloop
  endfacet
  facet normal 1 0 -0
    outer loop
      vertex -1.80193 0.867767 0
      vertex -1.80193 0.867767 1
      vertex -1.80193 -0.867767 0
    endloop
  endfacet
  facet normal 1 -0 0
    outer loop
      vertex -1.80193 -0.867767 1
      vertex -1.80193 -0.867767 0
      vertex -1.80193 0.867767 1
    endloop
  endfacet
  facet normal 0.623485 -0.781835 0
    outer loop
      vertex -0.445038 1.94984 0
      vertex -0.445038 1.94984 1
      vertex -1.80193 0.867767 0
    endloop
  endfacet
  facet normal 0.623485 -0.781835 0
    outer loop
      vertex -1.80193 0.867767 1
      vertex -1.80193 0.867767 0
      vertex -0.445038 1.94984 1
    endloop
  endfacet
  facet normal -0.222514 -0.974929 0
    outer loop
      vertex 1.24698 1.56366 0
      vertex 1.24698 1.56366 1
      vertex -0.445038 1.94984 0
    endloop
  endfacet
  facet normal -0.222514 -0.974929 -0
    outer loop
      vertex -0.445038 1.94984 1
      vertex -0.445038 1.94984 0
      vertex 1.24698 1.56366 1
    endloop
  endfacet
  facet normal -0.900969 -0.433884 0
    outer loop
      vertex 2 0 0
      vertex 2 0 1
      vertex 1.24698 1.56366 0
    endloop
  endfacet
  facet normal -0.900969 -0.433884 -0
    outer loop
      vertex 1.24698 1.56366 1
      vertex 1.24698 1.56366 0
      vertex 2 0 1
    endloop
  endfacet
  facet normal -0.900969 0.433884 0
    outer loop
      vertex 1.24698 -1.56366 0
      vertex 1.24698 -1.56366 1
      vertex 2 0 0
    endloop
  endfacet
  facet normal -0.900969 0.433884 0
    outer loop
      vertex 2 0 1
      vertex 2 0 0
      vertex 1.24698 -1.56366 1
    endloop
  endfacet
  facet normal -0.222514 0.974929 0
    outer loop
      vertex -0.445038 -1.94984 0
      vertex -0.445038 -1.94984 1
      vertex 1.24698 -1.56366 0
    endloop
  endfacet
  facet normal -0.222514 0.974929 0
    outer loop
      vertex 1.24698 -1.56366 1
      vertex 1.24698 -1.56366 0
      vertex -0.445038 -1.94984 1
    endloop
  endfacet
  facet normal 0.623485 0.781835 -0
    outer loop
      vertex -1.80193 -0.867767 0
      vertex -1.80193 -0.867767 1
      vertex -0.445038 -1.94984 0
    endloop
  endfacet
  facet normal 0.623485 0.781835 0
    outer loop
      vertex -0.445038 -1.94984 1
      vertex -0.445038 -1.94984 0
      vertex -1.80193 -0.867767 1
    endloop
  endfacet
  facet normal 0.649428 -0.760423 0
    outer loop
      vertex 3.21396 1.58861 0
      vertex 3.21396 1.58861 1
      vertex 2.99048 1.39775 0
    endloop
  endfacet
  facet normal 0.649428 -0.760423 0
    outer loop
      vertex 2.99048 1.39775 1
      vertex 2.99048 1.39775 0
      vertex 3.21396 1.58861 1
    endloop
  endfacet
  facet normal -0.522485 -0.852649 0
    outer loop
      vertex 3.46454 1.43506 0
      vertex 3.46454 1.43506 1
      vertex 3.21396 1.58861 0
    endloop
  endfacet
  facet normal -0.522485 -0.852649 -0
    outer loop
      vertex 3.21396 1.58861 1
      vertex 3.21396 1.58861 0
      vertex 3.46454 1.43506 1
    endloop
  endfacet
  facet normal -0.972377 0.233414 0
    outer loop
      vertex 3.39594 1.14928 0
      vertex 3.39594 1.14928 1
      vertex 3.46454 1.43506 0
    endloop
  endfacet
  facet normal -0.972377 0.233414 0
    outer loop
      vertex 3.46454 1.43506 1
      vertex 3.46454 1.43506 0
      vertex 3.39594 1.14928 1
    endloop
  endfacet
  facet normal -0.0784631 0.996917 0
    outer loop
      vertex 3.10295 1.12622 0
      vertex 3.10295 1.12622 1
      vertex 3.39594 1.14928 0
    endloop
  endfacet
  facet normal -0.0784631 0.996917 0
    outer loop
      vertex 3.39594 1.14928 1
      vertex 3.39594 1.14928 0
      vertex 3.10295 1.12622 1
    endloop
  endfacet
  facet normal 0.923881 0.382679 -0
    outer loop
      vertex 2.99048 1.39775 0
      vertex 2.99048 1.39775 1
      vertex 3.10295 1.12622 0
    endloop
  endfacet
  facet normal 0.923881 0.382679 0
    outer loop
      vertex 3.10295 1.12622 1
      vertex 3.10295 1.12622 0
      vertex 2.99048 1.39775 1
    endloop
  endfacet
  facet normal 0.972377 0.233414 -0
    outer loop
      vertex -3.46454 1.43506 0
      vertex -3.46454 1.43506 1
      vertex -3.39594 1.14928 0
    endloop
  endfacet
  facet normal 0.972377 0.233414 0
    outer loop
      vertex -3.39594 1.14928 1
      vertex -3.39594 1.14928 0
      vertex -3.46454 1.43506 1
    endloop
  endfacet
  facet normal 0.522485 -0.852649 0
    outer loop
      vertex -3.21396 1.58861 0
      vertex -3.21396 1.58861 1
      vertex -3.46454 1.43506 0
    endloop
  endfacet
  facet normal 0.522485 -0.852649 0
    outer loop
      vertex -3.46454 1.43506 1
      vertex -3.46454 1.43506 0
      vertex -3.21396 1.58861 1
    endloop
  endfacet
  facet normal -0.649428 -0.760423 0
    outer loop
      vertex -2.99048 1.39775 0
      vertex -2.99048 1.39775 1
      vertex -3.21396 1.58861 0
    endloop
  endfacet
  facet normal -0.649428 -0.760423 -0
    outer loop
      vertex -3.21396 1.58861 1
      vertex -3.21396 1.58861 0
      vertex -2.99048 1.39775 1
    endloop
  endfacet
  facet normal -0.923881 0.382679 0
    outer loop
      vertex -3.10295 1.12622 0
      vertex -3.10295 1.12622 1
      vertex -2.99048 1.39775 0
    endloop
  endfacet
  facet normal -0.923881 0.382679 0
    outer loop
      vertex -2.99048 1.39775 1
      vertex -2.99048 1.39775 0
      vertex -3.10295 1.12622 1
    endloop
  endfacet
  facet normal 0.0784631 0.996917 -0
    outer loop
      vertex -3.39594 1.14928 0
      vertex -3.39594 1.14928 1
      vertex -3.10295 1.12622 0
    endloop
  endfacet
  facet normal 0.0784631 0.996917 0
    outer loop
      vertex -3.10295 1.12622 1
      vertex -3.10295 1.12622 0
      vertex -3.39594 1.14928 1
    endloop
  endfacet
  facet normal 1 0 -0
    outer loop
      vertex 3.29774 0.146942 0
      vertex 3.29774 0.146942 1
      vertex 3.29774 -0.146942 0
    endloop
  endfacet
  facet normal 1 -0 0
    outer loop
      vertex 3.29774 -0.146942 1
      vertex 3.29774 -0.146942 0
      vertex 3.29774 0.146942 1
    endloop
  endfacet
  facet normal 0.309032 -0.951052 0
    outer loop
      vertex 3.57724 0.237762 0
      vertex 3.57724 0.237762 1
      vertex 3.29774 0.146942 0
    endloop
  endfacet
  facet normal 0.309032 -0.951052 0
    outer loop
      vertex 3.29774 0.146942 1
      vertex 3.29774 0.146942 0
      vertex 3.57724 0.237762 1
    endloop
  endfacet
  facet normal -0.808991 -0.58782 0
    outer loop
      vertex 3.75 0 0
      vertex 3.75 0 1
      vertex 3.57724 0.237762 0
    endloop
  endfacet
  facet normal -0.808991 -0.58782 -0
    outer loop
      vertex 3.57724 0.237762 1
      vertex 3.57724 0.237762 0
      vertex 3.75 0 1
    endloop
  endfacet
  facet normal -0.808991 0.58782 0
    outer loop
      vertex 3.57724 -0.237762 0
      vertex 3.57724 -0.237762 1
      vertex 3.75 0 0
    endloop
  endfacet
  facet normal -0.808991 0.58782 0
    outer loop
      vertex 3.75 0 1
      vertex 3.75 0 0
      vertex 3.57724 -0.237762 1
    endloop
  endfacet
  facet normal 0.309032 0.951052 -0
    outer loop
      vertex 3.29774 -0.146942 0
      vertex 3.29774 -0.146942 1
      vertex 3.57724 -0.237762 0
    endloop
  endfacet
  facet normal 0.309032 0.951052 0
    outer loop
      vertex 3.57724 -0.237762 1
      vertex 3.57724 -0.237762 0
      vertex 3.29774 -0.146942 1
    endloop
  endfacet
  facet normal 0.808991 -0.58782 0
    outer loop
      vertex -3.57724 0.237762 0
      vertex -3.57724 0.237762 1
      vertex -3.75 0 0
    endloop
  endfacet
  facet normal 0.808991 -0.58782 0
    outer loop
      vertex -3.75 0 1
      vertex -3.75 0 0
      vertex -3.57724 0.237762 1
    endloop
  endfacet
  facet normal -0.309032 -0.951052 0
    outer loop
      vertex -3.29774 0.146942 0
      vertex -3.29774 0.146942 1
      vertex -3.57724 0.237762 0
    endloop
  endfacet
  facet normal -0.309032 -0.951052 -0
    outer loop
      vertex -3.57724 0.237762 1
      vertex -3.57724 0.237762 0
      vertex -3.29774 0.146942 1
    endloop
  endfacet
  facet normal -1 0 0
    outer loop
      vertex -3.29774 -0.146942 0
      vertex -3.29774 -0.146942 1
      vertex -3.29774 0.146942 0
    endloop
  endfacet
  facet normal -1 -0 -0
    outer loop
      vertex -3.29774 0.146942 1
      vertex -3.29774 0.146942 0
      vertex -3.29774 -0.146942 1
    endloop
  endfacet
  facet normal -0.309032 0.951052 0
    outer loop
      vertex -3.57724 -0.237762 0
      vertex -3.57724 -0.237762 1
      vertex -3.29774 -0.146942 0
    endloop
  endfacet
  facet normal -0.309032 0.951052 0
    outer loop
      vertex -3.29774 -0.146942 1
      vertex -3.29774 -0.146942 0
      vertex -3.57724 -0.237762 1
    endloop
  endfacet
  facet normal 0.808991 0.58782 -0
    outer loop
      vertex -3.75 0 0
      vertex -3.75 0 1
      vertex -3.57724 -0.237762 0
    endloop
  endfacet
  facet normal 0.808991 0.58782 0
    outer loop
      vertex -3.57724 -0.237762 1
      vertex -3.57724 -0.237762 0
      vertex -3.75 0 1
    endloop
  endfacet
  facet normal 0.972377 -0.233414 0
    outer loop
      vertex -3.39594 -1.14928 0
      vertex -3.39594 -1.14928 1
      vertex -3.46454 -1.43506 0
    endloop
  endfacet
  facet normal 0.972377 -0.233414 0
    outer loop
      vertex -3.46454 -1.43506 1
      vertex -3.46454 -1.43506 0
      vertex -3.39594 -1.14928 1
    endloop
  endfacet
  facet normal 0.0784631 -0.996917 0
    outer loop
      vertex -3.10295 -1.12622 0
      vertex -3.10295 -1.12622 1
      vertex -3.39594 -1.14928 0
    endloop
  endfacet
  facet normal 0.0784631 -0.996917 0
    outer loop
      vertex -3.39594 -1.14928 1
      vertex -3.39594 -1.14928 0
      vertex -3.10295 -1.12622 1
    endloop
  endfacet
  facet normal -0.923881 -0.382679 0
    outer loop
      vertex -2.99048 -1.39775 0
      vertex -2.99048 -1.39775 1
      vertex -3.10295 -1.12622 0
    endloop
  endfacet
  facet normal -0.923881 -0.382679 -0
    outer loop
      vertex -3.10295 -1.12622 1
      vertex -3.10295 -1.12622 0
      vertex -2.99048 -1.39775 1
    endloop
  endfacet
  facet normal -0.649428 0.760423 0
    outer loop
      vertex -3.21396 -1.58861 0
      vertex -3.21396 -1.58861 1
      vertex -2.99048 -1.39775 0
    endloop
  endfacet
  facet normal -0.649428 0.760423 0
    outer loop
      vertex -2.99048 -1.39775 1
      vertex -2.99048 -1.39775 0
      vertex -3.21396 -1.58861 1
    endloop
  endfacet
  facet normal 0.522485 0.852649 -0
    outer loop
      vertex -3.46454 -1.43506 0
      vertex -3.46454 -1.43506 1
      vertex -3.21396 -1.58861 0
    endloop
  endfacet
  facet normal 0.522485 0.852649 0
    outer loop
      vertex -3.21396 -1.58861 1
      vertex -3.21396 -1.58861 0
      vertex -3.46454 -1.43506 1
    endloop
  endfacet
  facet normal 0.923881 -0.382679 0
    outer loop
      vertex 3.10295 -1.12622 0
      vertex 3.10295 -1.12622 1
      vertex 2.99048 -1.39775 0
    endloop
  endfacet
  facet normal 0.923881 -0.382679 0
    outer loop
      vertex 2.99048 -1.39775 1
      vertex 2.99048 -1.39775 0
      vertex 3.10295 -1.12622 1
    endloop
  endfacet
  facet normal -0.0784631 -0.996917 0
    outer loop
      vertex 3.39594 -1.14928 0
      vertex 3.39594 -1.14928 1
      vertex 3.10295 -1.12622 0
    endloop
  endfacet
  facet normal -0.0784631 -0.996917 -0
    outer loop
      vertex 3.10295 -1.12622 1
      vertex 3.10295 -1.12622 0
      vertex 3.39594 -1.14928 1
    endloop
  endfacet
  facet normal -0.972377 -0.233414 0
    outer loop
      vertex 3.46454 -1.43506 0
      vertex 3.46454 -1.43506 1
      vertex 3.39594 -1.14928 0
    endloop
  endfacet
  facet normal -0.972377 -0.233414 -0
    outer loop
      vertex 3.39594 -1.14928 1
      vertex 3.39594 -1.14928 0
      vertex 3.46454 -1.43506 1
    endloop
  endfacet
  facet normal -0.522485 0.852649 0
    outer loop
      vertex 3.21396 -1.58861 0
      vertex 3.21396 -1.58861 1
      vertex 3.46454 -1.43506 0
    endloop
  endfacet
  facet normal -0.522485 0.852649 0
    outer loop
      vertex 3.46454 -1.43506 1
      vertex 3.46454 -1.43506 0
      vertex 3.21396 -1.58861 1
    endloop
  endfacet
  facet normal 0.649428 0.760423 -0
    outer loop
      vertex 2.99048 -1.39775 0
      vertex 2.99048 -1.39775 1
      vertex 3.21396 -1.58861 0
    endloop
  endfacet
  facet normal 0.649428 0.760423 0
    outer loop
      vertex 3.21396 -1.58861 1
      vertex 3.21396 -1.58861 0
      vertex 2.99048 -1.39775 1
    endloop
  endfacet
  facet normal 0.987685 0.156454 -0
    outer loop
      vertex -2.69762 -2.36137 0
      vertex -2.69762 -2.36137 1
      vertex -2.65164 -2.65164 0
    endloop
  endfacet
  facet normal 0.987685 0.156454 0
    outer loop
      vertex -2.65164 -2.65164 1
      vertex -2.65164 -2.65164 0
      vertex -2.69762 -2.36137 1
    endloop
  endfacet
  facet normal 0.453979 -0.891012 0
    outer loop
      vertex -2.43576 -2.22795 0
      vertex -2.43576 -2.22795 1
      vertex -2.69762 -2.36137 0
    endloop
  endfacet
  facet normal 0.453979 -0.891012 0
    outer loop
      vertex -2.69762 -2.36137 1
      vertex -2.69762 -2.36137 0
      vertex -2.43576 -2.22795 1
    endloop
  endfacet
  facet normal -0.707107 -0.707107 0
    outer loop
      vertex -2.22795 -2.43576 0
      vertex -2.22795 -2.43576 1
      vertex -2.43576 -2.22795 0
    endloop
  endfacet
  facet normal -0.707107 -0.707107 -0
    outer loop
      vertex -2.43576 -2.22795 1
      vertex -2.43576 -2.22795 0
      vertex -2.22795 -2.43576 1
    endloop
  endfacet
  facet normal -0.891012 0.453979 0
    outer loop
      vertex -2.36137 -2.69762 0
      vertex -2.36137 -2.69762 1
      vertex -2.22795 -2.43576 0
    endloop
  endfacet
  facet normal -0.891012 0.453979 0
    outer loop
      vertex -2.22795 -2.43576 1
      vertex -2.22795 -2.43576 0
      vertex -2.36137 -2.69762 1
    endloop
  endfacet
  facet normal 0.156454 0.987685 -0
    outer loop
      vertex -2.65164 -2.65164 0
      vertex -2.65164 -2.65164 1
      vertex -2.36137 -2.69762 0
    endloop
  endfacet
  facet normal 0.156454 0.987685 0
    outer loop
      vertex -2.36137 -2.69762 1
      vertex -2.36137 -2.69762 0
      vertex -2.65164 -2.65164 1
    endloop
  endfacet
  facet normal 0.707107 -0.707107 0
    outer loop
      vertex 2.43576 -2.22795 0
      vertex 2.43576 -2.22795 1
      vertex 2.22795 -2.43576 0
    endloop
  endfacet
  facet normal 0.707107 -0.707107 0
    outer loop
      vertex 2.22795 -2.43576 1
      vertex 2.22795 -2.43576 0
      vertex 2.43576 -2.22795 1
    endloop
  endfacet
  facet normal -0.453979 -0.891012 0
    outer loop
      vertex 2.69762 -2.36137 0
      vertex 2.69762 -2.36137 1
      vertex 2.43576 -2.22795 0
    endloop
  endfacet
  facet normal -0.453979 -0.891012 -0
    outer loop
      vertex 2.43576 -2.22795 1
      vertex 2.43576 -2.22795 0
      vertex 2.69762 -2.36137 1
    endloop
  endfacet
  facet normal -0.987685 0.156454 0
    outer loop
      vertex 2.65164 -2.65164 0
      vertex 2.65164 -2.65164 1
      vertex 2.69762 -2.36137 0
    endloop
  endfacet
  facet normal -0.987685 0.156454 0
    outer loop
      vertex 2.69762 -2.36137 1
      vertex 2.69762 -2.36137 0
      vertex 2.65164 -2.65164 1
    endloop
  endfacet
  facet normal -0.156454 0.987685 0
    outer loop
      vertex 2.36137 -2.69762 0
      vertex 2.36137 -2.69762 1
      vertex 2.65164 -2.65164 0
    endloop
  endfacet
  facet normal -0.156454 0.987685 0
    outer loop
      vertex 2.65164 -2.65164 1
      vertex 2.65164 -2.65164 0
      vertex 2.36137 -2.69762 1
    endloop
  endfacet
  facet normal 0.891012 0.453979 -0
    outer loop
      vertex 2.22795 -2.43576 0
      vertex 2.22795 -2.43576 1
      vertex 2.36137 -2.69762 0
    endloop
  endfacet
  facet normal 0.891012 0.453979 0
    outer loop
      vertex 2.36137 -2.69762 1
      vertex 2.36137 -2.69762 0
      vertex 2.22795 -2.43576 1
    endloop
  endfacet
  facet normal 0.760423 -0.649428 0
    outer loop
      vertex -1.39775 -2.99048 0
      vertex -1.39775 -2.99048 1
      vertex -1.58861 -3.21396 0
    endloop
  endfacet
  facet normal 0.760423 -0.649428 0
    outer loop
      vertex -1.58861 -3.21396 1
      vertex -1.58861 -3.21396 0
      vertex -1.39775 -2.99048 1
    endloop
  endfacet
  facet normal -0.382679 -0.923881 0
    outer loop
      vertex -1.12622 -3.10295 0
      vertex -1.12622 -3.10295 1
      vertex -1.39775 -2.99048 0
    endloop
  endfacet
  facet normal -0.382679 -0.923881 -0
    outer loop
      vertex -1.39775 -2.99048 1
      vertex -1.39775 -2.99048 0
      vertex -1.12622 -3.10295 1
    endloop
  endfacet
  facet normal -0.996917 0.0784631 0
    outer loop
      vertex -1.14928 -3.39594 0
      vertex -1.14928 -3.39594 1
      vertex -1.12622 -3.10295 0
    endloop
  endfacet
  facet normal -0.996917 0.0784631 0
    outer loop
      vertex -1.12622 -3.10295 1
      vertex -1.12622 -3.10295 0
      vertex -1.14928 -3.39594 1
    endloop
  endfacet
  facet normal -0.233414 0.972377 0
    outer loop
      vertex -1.43506 -3.46454 0
      vertex -1.43506 -3.46454 1
      vertex -1.14928 -3.39594 0
    endloop
  endfacet
  facet normal -0.233414 0.972377 0
    outer loop
      vertex -1.14928 -3.39594 1
      vertex -1.14928 -3.39594 0
      vertex -1.43506 -3.46454 1
    endloop
  endfacet
  facet normal 0.852649 0.522485 -0
    outer loop
      vertex -1.58861 -3.21396 0
      vertex -1.58861 -3.21396 1
      vertex -1.43506 -3.46454 0
    endloop
  endfacet
  facet normal 0.852649 0.522485 0
    outer loop
      vertex -1.43506 -3.46454 1
      vertex -1.43506 -3.46454 0
      vertex -1.58861 -3.21396 1
    endloop
  endfacet
  facet normal 0.996917 0.0784631 -0
    outer loop
      vertex 1.12622 -3.10295 0
      vertex 1.12622 -3.10295 1
      vertex 1.14928 -3.39594 0
    endloop
  endfacet
  facet normal 0.996917 0.0784631 0
    outer loop
      vertex 1.14928 -3.39594 1
      vertex 1.14928 -3.39594 0
      vertex 1.12622 -3.10295 1
    endloop
  endfacet
  facet normal 0.382679 -0.923881 0
    outer loop
      vertex 1.39775 -2.99048 0
      vertex 1.39775 -2.99048 1
      vertex 1.12622 -3.10295 0
    endloop
  endfacet
  facet normal 0.382679 -0.923881 0
    outer loop
      vertex 1.12622 -3.10295 1
      vertex 1.12622 -3.10295 0
      vertex 1.39775 -2.99048 1
    endloop
  endfacet
  facet normal -0.760423 -0.649428 0
    outer loop
      vertex 1.58861 -3.21396 0
      vertex 1.58861 -3.21396 1
      vertex 1.39775 -2.99048 0
    endloop
  endfacet
  facet normal -0.760423 -0.649428 -0
    outer loop
      vertex 1.39775 -2.99048 1
      vertex 1.39775 -2.99048 0
      vertex 1.58861 -3.21396 1
    endloop
  endfacet
  facet normal -0.852649 0.522485 0
    outer loop
      vertex 1.43506 -3.46454 0
      vertex 1.43506 -3.46454 1
      vertex 1.58861 -3.21396 0
    endloop
  endfacet
  facet normal -0.852649 0.522485 0
    outer loop
      vertex 1.58861 -3.21396 1
      vertex 1.58861 -3.21396 0
      vertex 1.43506 -3.46454 1
    endloop
  endfacet
  facet normal 0.233414 0.972377 -0
    outer loop
      vertex 1.14928 -3.39594 0
      vertex 1.14928 -3.39594 1
      vertex 1.43506 -3.46454 0
    endloop
  endfacet
  facet normal 0.233414 0.972377 0
    outer loop
      vertex 1.43506 -3.46454 1
      vertex 1.43506 -3.46454 0
      vertex 1.14928 -3.39594 1
    endloop
  endfacet
  facet normal 0.951052 -0.309032 0
    outer loop
      vertex -0.146942 -3.29774 0
      vertex -0.146942 -3.29774 1
      vertex -0.237762 -3.57724 0
    endloop
  endfacet
  facet normal 0.951052 -0.309032 0
    outer loop
      vertex -0.237762 -3.57724 1
      vertex -0.237762 -3.57724 0
      vertex -0.146942 -3.29774 1
    endloop
  endfacet
  facet normal 0 -1 0
    outer loop
      vertex 0.146942 -3.29774 0
      vertex 0.146942 -3.29774 1
      vertex -0.146942 -3.29774 0
    endloop
  endfacet
  facet normal 0 -1 0
    outer loop
      vertex -0.146942 -3.29774 1
      vertex -0.146942 -3.29774 0
      vertex 0.146942 -3.29774 1
    endloop
  endfacet
  facet normal -0.951052 -0.309032 0
    outer loop
      vertex 0.237762 -3.57724 0
      vertex 0.237762 -3.57724 1
      vertex 0.146942 -3.29774 0
    endloop
  endfacet
  facet normal -0.951052 -0.309032 -0
    outer loop
      vertex 0.146942 -3.29774 1
      vertex 0.146942 -3.29774 0
      vertex 0.237762 -3.57724 1
    endloop
  endfacet
  facet normal -0.58782 0.808991 0
    outer loop
      vertex 0 -3.75 0
      vertex 0 -3.75 1
      vertex 0.237762 -3.57724 0
    endloop
  endfacet
  facet normal -0.58782 0.808991 0
    outer loop
      vertex 0.237762 -3.57724 1
      vertex 0.237762 -3.57724 0
      vertex 0 -3.75 1
    endloop
  endfacet
  facet normal 0.58782 0.808991 -0
    outer loop
      vertex -0.237762 -3.57724 0
      vertex -0.237762 -3.57724 1
      vertex 0 -3.75 0
    endloop
  endfacet
  facet normal 0.58782 0.808991 0
    outer loop
      vertex 0 -3.75 1
      vertex 0 -3.75 0
      vertex -0.237762 -3.57724 1
    endloop
  endfacet
endsolid OpenSCAD_Model
