solid OpenSCAD_Model
  facet normal 0 0 1
    outer loop
      vertex 7 14.9548 1
      vertex 6.375 11.0418 1
      vertex 7 10.5877 1
    endloop
  endfacet
  facet normal 0 0 1
    outer loop
      vertex 3.93996 12.126 1
      vertex 7 14.9548 1
      vertex 5.12967 15.7875 1
    endloop
  endfacet
  facet normal 0 0 1
    outer loop
      vertex 7 14.9548 1
      vertex 3.93996 12.126 1
      vertex 6.375 11.0418 1
    endloop
  endfacet
  facet normal 0 0 1
    outer loop
      vertex 1.73517 16.509 1
      vertex 3.93996 12.126 1
      vertex 5.12967 15.7875 1
    endloop
  endfacet
  facet normal 0 0 1
    outer loop
      vertex 1.73517 16.509 1
      vertex 1.33273 12.6801 1
      vertex 3.93996 12.126 1
    endloop
  endfacet
  facet normal 0 0 1
    outer loop
      vertex 1.73517 16.509 1
      vertex -1.33273 12.6801 1
      vertex 1.33273 12.6801 1
    endloop
  endfacet
  facet normal -0 0 1
    outer loop
      vertex -1.73517 16.509 1
      vertex -1.33273 12.6801 1
      vertex 1.73517 16.509 1
    endloop
  endfacet
  facet normal 0 0 1
    outer loop
      vertex -1.73517 16.509 1
      vertex -3.93996 12.126 1
      vertex -1.33273 12.6801 1
    endloop
  endfacet
  facet normal -0 0 1
    outer loop
      vertex -5.12967 15.7875 1
      vertex -3.93996 12.126 1
      vertex -1.73517 16.509 1
    endloop
  endfacet
  facet normal 0 0 1
    outer loop
      vertex -5.12967 15.7875 1
      vertex -6.375 11.0418 1
      vertex -3.93996 12.126 1
    endloop
  endfacet
  facet normal -0 0 1
    outer loop
      vertex -8.29999 14.376 1
      vertex -6.375 11.0418 1
      vertex -5.12967 15.7875 1
    endloop
  endfacet
  facet normal 0 0 1
    outer loop
      vertex -8.29999 14.376 1
      vertex -8.5314 9.47508 1
      vertex -6.375 11.0418 1
    endloop
  endfacet
  facet normal -0 0 1
    outer loop
      vertex -11.1076 12.3362 1
      vertex -8.5314 9.47508 1
      vertex -8.29999 14.376 1
    endloop
  endfacet
  facet normal 0 0 1
    outer loop
      vertex -8.5314 9.47508 1
      vertex -11.1076 12.3362 1
      vertex -10.315 7.49425 1
    endloop
  endfacet
  facet normal -0 0 1
    outer loop
      vertex -13.4297 9.75723 1
      vertex -10.315 7.49425 1
      vertex -11.1076 12.3362 1
    endloop
  endfacet
  facet normal 0 0 1
    outer loop
      vertex -10.315 7.49425 1
      vertex -13.4297 9.75723 1
      vertex -11.6477 5.18588 1
    endloop
  endfacet
  facet normal 0 0 1
    outer loop
      vertex -11.6477 5.18588 1
      vertex -15.1648 6.75182 1
      vertex -12.4714 2.65086 1
    endloop
  endfacet
  facet normal -0 0 1
    outer loop
      vertex -15.1648 6.75182 1
      vertex -11.6477 5.18588 1
      vertex -13.4297 9.75723 1
    endloop
  endfacet
  facet normal -0 0 1
    outer loop
      vertex 6.375 -11.0418 1
      vertex 7 -14.9548 1
      vertex 7 -10.5877 1
    endloop
  endfacet
  facet normal -0 0 1
    outer loop
      vertex 3.93996 -12.126 1
      vertex 7 -14.9548 1
      vertex 6.375 -11.0418 1
    endloop
  endfacet
  facet normal 0 0 1
    outer loop
      vertex 7 -14.9548 1
      vertex 3.93996 -12.126 1
      vertex 5.12967 -15.7875 1
    endloop
  endfacet
  facet normal 0 0 1
    outer loop
      vertex 3.93996 -12.126 1
      vertex 1.73517 -16.509 1
      vertex 5.12967 -15.7875 1
    endloop
  endfacet
  facet normal -0 0 1
    outer loop
      vertex 1.33273 -12.6801 1
      vertex 1.73517 -16.509 1
      vertex 3.93996 -12.126 1
    endloop
  endfacet
  facet normal -0 0 1
    outer loop
      vertex -1.33273 -12.6801 1
      vertex 1.73517 -16.509 1
      vertex 1.33273 -12.6801 1
    endloop
  endfacet
  facet normal 0 0 1
    outer loop
      vertex -1.33273 -12.6801 1
      vertex -1.73517 -16.509 1
      vertex 1.73517 -16.509 1
    endloop
  endfacet
  facet normal 0 0 1
    outer loop
      vertex -3.93996 -12.126 1
      vertex -1.73517 -16.509 1
      vertex -1.33273 -12.6801 1
    endloop
  endfacet
  facet normal 0 0 1
    outer loop
      vertex -3.93996 -12.126 1
      vertex -5.12967 -15.7875 1
      vertex -1.73517 -16.509 1
    endloop
  endfacet
  facet normal 0 0 1
    outer loop
      vertex -6.375 -11.0418 1
      vertex -5.12967 -15.7875 1
      vertex -3.93996 -12.126 1
    endloop
  endfacet
  facet normal 0 0 1
    outer loop
      vertex -6.375 -11.0418 1
      vertex -8.29999 -14.376 1
      vertex -5.12967 -15.7875 1
    endloop
  endfacet
  facet normal 0 0 1
    outer loop
      vertex -8.5314 -9.47508 1
      vertex -8.29999 -14.376 1
      vertex -6.375 -11.0418 1
    endloop
  endfacet
  facet normal 0 0 1
    outer loop
      vertex -11.1076 -12.3362 1
      vertex -8.5314 -9.47508 1
      vertex -10.315 -7.49425 1
    endloop
  endfacet
  facet normal 0 0 1
    outer loop
      vertex -8.5314 -9.47508 1
      vertex -11.1076 -12.3362 1
      vertex -8.29999 -14.376 1
    endloop
  endfacet
  facet normal 0 0 1
    outer loop
      vertex -13.4297 -9.75723 1
      vertex -10.315 -7.49425 1
      vertex -11.6477 -5.18588 1
    endloop
  endfacet
  facet normal 0 0 1
    outer loop
      vertex -15.1648 -6.75182 1
      vertex -11.6477 -5.18588 1
      vertex -12.4714 -2.65086 1
    endloop
  endfacet
  facet normal 0 0 1
    outer loop
      vertex -10.315 -7.49425 1
      vertex -13.4297 -9.75723 1
      vertex -11.1076 -12.3362 1
    endloop
  endfacet
  facet normal 0 0 1
    outer loop
      vertex -16.2372 -3.45132 1
      vertex -12.4714 -2.65086 1
      vertex -12.75 0 1
    endloop
  endfacet
  facet normal -0 0 1
    outer loop
      vertex -16.2372 3.45132 1
      vertex -12.4714 2.65086 1
      vertex -15.1648 6.75182 1
    endloop
  endfacet
  facet normal 0 0 1
    outer loop
      vertex -12.4714 2.65086 1
      vertex -16.2372 3.45132 1
      vertex -12.75 0 1
    endloop
  endfacet
  facet normal 0 0 1
    outer loop
      vertex -11.6477 -5.18588 1
      vertex -15.1648 -6.75182 1
      vertex -13.4297 -9.75723 1
    endloop
  endfacet
  facet normal 0 0 1
    outer loop
      vertex -16.6 0 1
      vertex -12.75 0 1
      vertex -16.2372 3.45132 1
    endloop
  endfacet
  facet normal 0 0 1
    outer loop
      vertex -12.4714 -2.65086 1
      vertex -16.2372 -3.45132 1
      vertex -15.1648 -6.75182 1
    endloop
  endfacet
  facet normal 0 0 1
    outer loop
      vertex -12.75 0 1
      vertex -16.6 0 1
      vertex -16.2372 -3.45132 1
    endloop
  endfacet
  facet normal 0 0 1
    outer loop
      vertex 3.56914 10.9847 1
      vertex 7 9.11256 1
      vertex 5.77499 10.0026 1
    endloop
  endfacet
  facet normal 0 0 1
    outer loop
      vertex 1.20729 11.4867 1
      vertex 7 9.11256 1
      vertex 3.56914 10.9847 1
    endloop
  endfacet
  facet normal 0 0 1
    outer loop
      vertex 7 9.11256 1
      vertex 1.20729 11.4867 1
      vertex 7 -9.11256 1
    endloop
  endfacet
  facet normal 0 0 1
    outer loop
      vertex 7 -9.11256 1
      vertex 3.56914 -10.9847 1
      vertex 5.77499 -10.0026 1
    endloop
  endfacet
  facet normal -0 0 1
    outer loop
      vertex -1.20729 11.4867 1
      vertex 7 -9.11256 1
      vertex 1.20729 11.4867 1
    endloop
  endfacet
  facet normal 0 0 1
    outer loop
      vertex 7 -9.11256 1
      vertex 1.20729 -11.4867 1
      vertex 3.56914 -10.9847 1
    endloop
  endfacet
  facet normal 0 0 1
    outer loop
      vertex 7 -9.11256 1
      vertex -1.20729 11.4867 1
      vertex 1.20729 -11.4867 1
    endloop
  endfacet
  facet normal 0 0 1
    outer loop
      vertex -1.20729 11.4867 1
      vertex -1.20729 -11.4867 1
      vertex 1.20729 -11.4867 1
    endloop
  endfacet
  facet normal -0 0 1
    outer loop
      vertex -3.56914 10.9847 1
      vertex -1.20729 -11.4867 1
      vertex -1.20729 11.4867 1
    endloop
  endfacet
  facet normal 0 0 1
    outer loop
      vertex -3.56914 10.9847 1
      vertex -3.56914 -10.9847 1
      vertex -1.20729 -11.4867 1
    endloop
  endfacet
  facet normal -0 0 1
    outer loop
      vertex -5.77499 10.0026 1
      vertex -3.56914 -10.9847 1
      vertex -3.56914 10.9847 1
    endloop
  endfacet
  facet normal 0 0 1
    outer loop
      vertex -5.77499 10.0026 1
      vertex -5.77499 -10.0026 1
      vertex -3.56914 -10.9847 1
    endloop
  endfacet
  facet normal -0 0 1
    outer loop
      vertex -7.72845 8.58331 1
      vertex -5.77499 -10.0026 1
      vertex -5.77499 10.0026 1
    endloop
  endfacet
  facet normal 0 0 1
    outer loop
      vertex -7.72845 8.58331 1
      vertex -7.72845 -8.58331 1
      vertex -5.77499 -10.0026 1
    endloop
  endfacet
  facet normal -0 0 1
    outer loop
      vertex -9.34413 6.78891 1
      vertex -7.72845 -8.58331 1
      vertex -7.72845 8.58331 1
    endloop
  endfacet
  facet normal 0 0 1
    outer loop
      vertex -9.34413 6.78891 1
      vertex -9.34413 -6.78891 1
      vertex -7.72845 -8.58331 1
    endloop
  endfacet
  facet normal -0 0 1
    outer loop
      vertex -10.5514 4.6978 1
      vertex -9.34413 -6.78891 1
      vertex -9.34413 6.78891 1
    endloop
  endfacet
  facet normal 0 0 1
    outer loop
      vertex -10.5514 4.6978 1
      vertex -10.5514 -4.6978 1
      vertex -9.34413 -6.78891 1
    endloop
  endfacet
  facet normal -0 0 1
    outer loop
      vertex -11.2976 2.40137 1
      vertex -10.5514 -4.6978 1
      vertex -10.5514 4.6978 1
    endloop
  endfacet
  facet normal 0 0 1
    outer loop
      vertex -11.2976 2.40137 1
      vertex -11.2976 -2.40137 1
      vertex -10.5514 -4.6978 1
    endloop
  endfacet
  facet normal 0 -0 1
    outer loop
      vertex -11.2976 -2.40137 1
      vertex -11.2976 2.40137 1
      vertex -11.55 0 1
    endloop
  endfacet
  facet normal 0 0 -1
    outer loop
      vertex 1.8815 -17.9014 0
      vertex 7 -16.4789 0
      vertex 5.5623 -17.119 0
    endloop
  endfacet
  facet normal 0 0 -1
    outer loop
      vertex -1.8815 -17.9014 0
      vertex 7 -16.4789 0
      vertex 1.8815 -17.9014 0
    endloop
  endfacet
  facet normal 0 0 -1
    outer loop
      vertex -5.5623 -17.119 0
      vertex 7 -16.4789 0
      vertex -1.8815 -17.9014 0
    endloop
  endfacet
  facet normal 0 0 -1
    outer loop
      vertex 7 16.4789 0
      vertex 1.8815 17.9014 0
      vertex 5.5623 17.119 0
    endloop
  endfacet
  facet normal -0 0 -1
    outer loop
      vertex 7 -16.4789 0
      vertex -5.5623 -17.119 0
      vertex 7 16.4789 0
    endloop
  endfacet
  facet normal 0 0 -1
    outer loop
      vertex 7 16.4789 0
      vertex -1.8815 17.9014 0
      vertex 1.8815 17.9014 0
    endloop
  endfacet
  facet normal 0 0 -1
    outer loop
      vertex -5.5623 17.119 0
      vertex 7 16.4789 0
      vertex -5.5623 -17.119 0
    endloop
  endfacet
  facet normal 0 0 -1
    outer loop
      vertex 7 16.4789 0
      vertex -5.5623 17.119 0
      vertex -1.8815 17.9014 0
    endloop
  endfacet
  facet normal 0 0 -1
    outer loop
      vertex -9 -15.5885 0
      vertex -5.5623 17.119 0
      vertex -5.5623 -17.119 0
    endloop
  endfacet
  facet normal 0 0 -1
    outer loop
      vertex -9 -15.5885 0
      vertex -9 15.5885 0
      vertex -5.5623 17.119 0
    endloop
  endfacet
  facet normal 0 0 -1
    outer loop
      vertex -12.0443 -13.3766 0
      vertex -9 15.5885 0
      vertex -9 -15.5885 0
    endloop
  endfacet
  facet normal 0 0 -1
    outer loop
      vertex -12.0443 -13.3766 0
      vertex -12.0443 13.3766 0
      vertex -9 15.5885 0
    endloop
  endfacet
  facet normal 0 0 -1
    outer loop
      vertex -14.5623 -10.5801 0
      vertex -12.0443 13.3766 0
      vertex -12.0443 -13.3766 0
    endloop
  endfacet
  facet normal 0 0 -1
    outer loop
      vertex -14.5623 -10.5801 0
      vertex -14.5623 10.5801 0
      vertex -12.0443 13.3766 0
    endloop
  endfacet
  facet normal 0 0 -1
    outer loop
      vertex -16.4438 -7.32126 0
      vertex -14.5623 10.5801 0
      vertex -14.5623 -10.5801 0
    endloop
  endfacet
  facet normal 0 0 -1
    outer loop
      vertex -16.4438 -7.32126 0
      vertex -16.4438 7.32126 0
      vertex -14.5623 10.5801 0
    endloop
  endfacet
  facet normal 0 0 -1
    outer loop
      vertex -17.6066 -3.7424 0
      vertex -16.4438 7.32126 0
      vertex -16.4438 -7.32126 0
    endloop
  endfacet
  facet normal 0 0 -1
    outer loop
      vertex -17.6066 -3.7424 0
      vertex -17.6066 3.7424 0
      vertex -16.4438 7.32126 0
    endloop
  endfacet
  facet normal 0 -0 -1
    outer loop
      vertex -17.6066 3.7424 0
      vertex -17.6066 -3.7424 0
      vertex -18 0 0
    endloop
  endfacet
  facet normal 0 0 1
    outer loop
      vertex 5.12967 15.7875 7
      vertex 7 16.4789 7
      vertex 5.5623 17.119 7
    endloop
  endfacet
  facet normal 0 0 1
    outer loop
      vertex 7 16.4789 7
      vertex 5.12967 15.7875 7
      vertex 7 14.9548 7
    endloop
  endfacet
  facet normal 0 0 1
    outer loop
      vertex 1.8815 17.9014 7
      vertex 5.12967 15.7875 7
      vertex 5.5623 17.119 7
    endloop
  endfacet
  facet normal 0 0 1
    outer loop
      vertex 1.8815 17.9014 7
      vertex 1.73517 16.509 7
      vertex 5.12967 15.7875 7
    endloop
  endfacet
  facet normal 0 0 1
    outer loop
      vertex 1.8815 17.9014 7
      vertex -1.73517 16.509 7
      vertex 1.73517 16.509 7
    endloop
  endfacet
  facet normal -0 0 1
    outer loop
      vertex -1.8815 17.9014 7
      vertex -1.73517 16.509 7
      vertex 1.8815 17.9014 7
    endloop
  endfacet
  facet normal 0 0 1
    outer loop
      vertex -1.8815 17.9014 7
      vertex -5.12967 15.7875 7
      vertex -1.73517 16.509 7
    endloop
  endfacet
  facet normal -0 0 1
    outer loop
      vertex -5.5623 17.119 7
      vertex -5.12967 15.7875 7
      vertex -1.8815 17.9014 7
    endloop
  endfacet
  facet normal 0 0 1
    outer loop
      vertex -5.5623 17.119 7
      vertex -8.29999 14.376 7
      vertex -5.12967 15.7875 7
    endloop
  endfacet
  facet normal -0 0 1
    outer loop
      vertex -9 15.5885 7
      vertex -8.29999 14.376 7
      vertex -5.5623 17.119 7
    endloop
  endfacet
  facet normal 0 0 1
    outer loop
      vertex -9 15.5885 7
      vertex -11.1076 12.3362 7
      vertex -8.29999 14.376 7
    endloop
  endfacet
  facet normal -0 0 1
    outer loop
      vertex -12.0443 13.3766 7
      vertex -11.1076 12.3362 7
      vertex -9 15.5885 7
    endloop
  endfacet
  facet normal 0 0 1
    outer loop
      vertex -12.0443 13.3766 7
      vertex -13.4297 9.75723 7
      vertex -11.1076 12.3362 7
    endloop
  endfacet
  facet normal -0 0 1
    outer loop
      vertex -14.5623 10.5801 7
      vertex -13.4297 9.75723 7
      vertex -12.0443 13.3766 7
    endloop
  endfacet
  facet normal 0 0 1
    outer loop
      vertex -14.5623 10.5801 7
      vertex -15.1648 6.75182 7
      vertex -13.4297 9.75723 7
    endloop
  endfacet
  facet normal -0 0 1
    outer loop
      vertex -16.4438 7.32126 7
      vertex -15.1648 6.75182 7
      vertex -14.5623 10.5801 7
    endloop
  endfacet
  facet normal 0 0 1
    outer loop
      vertex -15.1648 6.75182 7
      vertex -16.4438 7.32126 7
      vertex -16.2372 3.45132 7
    endloop
  endfacet
  facet normal -0 0 1
    outer loop
      vertex -17.6066 3.7424 7
      vertex -16.2372 3.45132 7
      vertex -16.4438 7.32126 7
    endloop
  endfacet
  facet normal 0 0 1
    outer loop
      vertex -16.2372 3.45132 7
      vertex -17.6066 3.7424 7
      vertex -16.6 0 7
    endloop
  endfacet
  facet normal -0 0 1
    outer loop
      vertex 5.12967 -15.7875 7
      vertex 7 -16.4789 7
      vertex 7 -14.9548 7
    endloop
  endfacet
  facet normal 0 0 1
    outer loop
      vertex 7 -16.4789 7
      vertex 5.12967 -15.7875 7
      vertex 5.5623 -17.119 7
    endloop
  endfacet
  facet normal 0 0 1
    outer loop
      vertex 5.12967 -15.7875 7
      vertex 1.8815 -17.9014 7
      vertex 5.5623 -17.119 7
    endloop
  endfacet
  facet normal -0 0 1
    outer loop
      vertex 1.73517 -16.509 7
      vertex 1.8815 -17.9014 7
      vertex 5.12967 -15.7875 7
    endloop
  endfacet
  facet normal -0 0 1
    outer loop
      vertex -1.73517 -16.509 7
      vertex 1.8815 -17.9014 7
      vertex 1.73517 -16.509 7
    endloop
  endfacet
  facet normal 0 0 1
    outer loop
      vertex -1.73517 -16.509 7
      vertex -1.8815 -17.9014 7
      vertex 1.8815 -17.9014 7
    endloop
  endfacet
  facet normal 0 0 1
    outer loop
      vertex -5.12967 -15.7875 7
      vertex -1.8815 -17.9014 7
      vertex -1.73517 -16.509 7
    endloop
  endfacet
  facet normal 0 0 1
    outer loop
      vertex -5.12967 -15.7875 7
      vertex -5.5623 -17.119 7
      vertex -1.8815 -17.9014 7
    endloop
  endfacet
  facet normal 0 0 1
    outer loop
      vertex -8.29999 -14.376 7
      vertex -5.5623 -17.119 7
      vertex -5.12967 -15.7875 7
    endloop
  endfacet
  facet normal 0 0 1
    outer loop
      vertex -8.29999 -14.376 7
      vertex -9 -15.5885 7
      vertex -5.5623 -17.119 7
    endloop
  endfacet
  facet normal 0 0 1
    outer loop
      vertex -11.1076 -12.3362 7
      vertex -9 -15.5885 7
      vertex -8.29999 -14.376 7
    endloop
  endfacet
  facet normal 0 0 1
    outer loop
      vertex -11.1076 -12.3362 7
      vertex -12.0443 -13.3766 7
      vertex -9 -15.5885 7
    endloop
  endfacet
  facet normal 0 0 1
    outer loop
      vertex -13.4297 -9.75723 7
      vertex -12.0443 -13.3766 7
      vertex -11.1076 -12.3362 7
    endloop
  endfacet
  facet normal 0 0 1
    outer loop
      vertex -13.4297 -9.75723 7
      vertex -14.5623 -10.5801 7
      vertex -12.0443 -13.3766 7
    endloop
  endfacet
  facet normal 0 0 1
    outer loop
      vertex -15.1648 -6.75182 7
      vertex -14.5623 -10.5801 7
      vertex -13.4297 -9.75723 7
    endloop
  endfacet
  facet normal 0 0 1
    outer loop
      vertex -16.4438 -7.32126 7
      vertex -15.1648 -6.75182 7
      vertex -16.2372 -3.45132 7
    endloop
  endfacet
  facet normal 0 0 1
    outer loop
      vertex -15.1648 -6.75182 7
      vertex -16.4438 -7.32126 7
      vertex -14.5623 -10.5801 7
    endloop
  endfacet
  facet normal 0 0 1
    outer loop
      vertex -17.6066 -3.7424 7
      vertex -16.2372 -3.45132 7
      vertex -16.6 0 7
    endloop
  endfacet
  facet normal 0 0 1
    outer loop
      vertex -18 0 7
      vertex -16.6 0 7
      vertex -17.6066 3.7424 7
    endloop
  endfacet
  facet normal 0 0 1
    outer loop
      vertex -16.2372 -3.45132 7
      vertex -17.6066 -3.7424 7
      vertex -16.4438 -7.32126 7
    endloop
  endfacet
  facet normal 0 0 1
    outer loop
      vertex -16.6 0 7
      vertex -18 0 7
      vertex -17.6066 -3.7424 7
    endloop
  endfacet
  facet normal 0.406734 -0.913547 0
    outer loop
      vertex 5.5623 -17.119 0
      vertex 7 -16.4789 7
      vertex 5.5623 -17.119 7
    endloop
  endfacet
  facet normal 0.406734 -0.913547 0
    outer loop
      vertex 7 -16.4789 7
      vertex 5.5623 -17.119 0
      vertex 7 -16.4789 0
    endloop
  endfacet
  facet normal 0.406734 0.913547 -0
    outer loop
      vertex 7 16.4789 0
      vertex 5.5623 17.119 7
      vertex 7 16.4789 7
    endloop
  endfacet
  facet normal 0.406734 0.913547 0
    outer loop
      vertex 5.5623 17.119 7
      vertex 7 16.4789 0
      vertex 5.5623 17.119 0
    endloop
  endfacet
  facet normal 0.207917 0.978146 -0
    outer loop
      vertex 5.5623 17.119 0
      vertex 1.8815 17.9014 7
      vertex 5.5623 17.119 7
    endloop
  endfacet
  facet normal 0.207917 0.978146 0
    outer loop
      vertex 1.8815 17.9014 7
      vertex 5.5623 17.119 0
      vertex 1.8815 17.9014 0
    endloop
  endfacet
  facet normal 0 1 -0
    outer loop
      vertex 1.8815 17.9014 0
      vertex -1.8815 17.9014 7
      vertex 1.8815 17.9014 7
    endloop
  endfacet
  facet normal 0 1 0
    outer loop
      vertex -1.8815 17.9014 7
      vertex 1.8815 17.9014 0
      vertex -1.8815 17.9014 0
    endloop
  endfacet
  facet normal -0.207917 0.978146 0
    outer loop
      vertex -1.8815 17.9014 0
      vertex -5.5623 17.119 7
      vertex -1.8815 17.9014 7
    endloop
  endfacet
  facet normal -0.207917 0.978146 0
    outer loop
      vertex -5.5623 17.119 7
      vertex -1.8815 17.9014 0
      vertex -5.5623 17.119 0
    endloop
  endfacet
  facet normal -0.406723 0.913552 0
    outer loop
      vertex -5.5623 17.119 0
      vertex -9 15.5885 7
      vertex -5.5623 17.119 7
    endloop
  endfacet
  facet normal -0.406723 0.913552 0
    outer loop
      vertex -9 15.5885 7
      vertex -5.5623 17.119 0
      vertex -9 15.5885 0
    endloop
  endfacet
  facet normal -0.5878 0.809006 0
    outer loop
      vertex -9 15.5885 0
      vertex -12.0443 13.3766 7
      vertex -9 15.5885 7
    endloop
  endfacet
  facet normal -0.5878 0.809006 0
    outer loop
      vertex -12.0443 13.3766 7
      vertex -9 15.5885 0
      vertex -12.0443 13.3766 0
    endloop
  endfacet
  facet normal -0.743142 0.669134 0
    outer loop
      vertex -14.5623 10.5801 0
      vertex -12.0443 13.3766 7
      vertex -12.0443 13.3766 0
    endloop
  endfacet
  facet normal -0.743142 0.669134 0
    outer loop
      vertex -12.0443 13.3766 7
      vertex -14.5623 10.5801 0
      vertex -14.5623 10.5801 7
    endloop
  endfacet
  facet normal -0.866025 0.500002 0
    outer loop
      vertex -16.4438 7.32126 0
      vertex -14.5623 10.5801 7
      vertex -14.5623 10.5801 0
    endloop
  endfacet
  facet normal -0.866025 0.500002 0
    outer loop
      vertex -14.5623 10.5801 7
      vertex -16.4438 7.32126 0
      vertex -16.4438 7.32126 7
    endloop
  endfacet
  facet normal -0.95106 0.309007 0
    outer loop
      vertex -17.6066 3.7424 0
      vertex -16.4438 7.32126 7
      vertex -16.4438 7.32126 0
    endloop
  endfacet
  facet normal -0.95106 0.309007 0
    outer loop
      vertex -16.4438 7.32126 7
      vertex -17.6066 3.7424 0
      vertex -17.6066 3.7424 7
    endloop
  endfacet
  facet normal -0.99452 0.104544 0
    outer loop
      vertex -18 0 0
      vertex -17.6066 3.7424 7
      vertex -17.6066 3.7424 0
    endloop
  endfacet
  facet normal -0.99452 0.104544 0
    outer loop
      vertex -17.6066 3.7424 7
      vertex -18 0 0
      vertex -18 0 7
    endloop
  endfacet
  facet normal -0.99452 -0.104544 0
    outer loop
      vertex -17.6066 -3.7424 0
      vertex -18 0 7
      vertex -18 0 0
    endloop
  endfacet
  facet normal -0.99452 -0.104544 0
    outer loop
      vertex -18 0 7
      vertex -17.6066 -3.7424 0
      vertex -17.6066 -3.7424 7
    endloop
  endfacet
  facet normal -0.95106 -0.309007 0
    outer loop
      vertex -16.4438 -7.32126 0
      vertex -17.6066 -3.7424 7
      vertex -17.6066 -3.7424 0
    endloop
  endfacet
  facet normal -0.95106 -0.309007 0
    outer loop
      vertex -17.6066 -3.7424 7
      vertex -16.4438 -7.32126 0
      vertex -16.4438 -7.32126 7
    endloop
  endfacet
  facet normal -0.866025 -0.500002 0
    outer loop
      vertex -14.5623 -10.5801 0
      vertex -16.4438 -7.32126 7
      vertex -16.4438 -7.32126 0
    endloop
  endfacet
  facet normal -0.866025 -0.500002 0
    outer loop
      vertex -16.4438 -7.32126 7
      vertex -14.5623 -10.5801 0
      vertex -14.5623 -10.5801 7
    endloop
  endfacet
  facet normal -0.743142 -0.669134 0
    outer loop
      vertex -12.0443 -13.3766 0
      vertex -14.5623 -10.5801 7
      vertex -14.5623 -10.5801 0
    endloop
  endfacet
  facet normal -0.743142 -0.669134 0
    outer loop
      vertex -14.5623 -10.5801 7
      vertex -12.0443 -13.3766 0
      vertex -12.0443 -13.3766 7
    endloop
  endfacet
  facet normal -0.5878 -0.809006 0
    outer loop
      vertex -12.0443 -13.3766 0
      vertex -9 -15.5885 7
      vertex -12.0443 -13.3766 7
    endloop
  endfacet
  facet normal -0.5878 -0.809006 -0
    outer loop
      vertex -9 -15.5885 7
      vertex -12.0443 -13.3766 0
      vertex -9 -15.5885 0
    endloop
  endfacet
  facet normal -0.406723 -0.913552 0
    outer loop
      vertex -9 -15.5885 0
      vertex -5.5623 -17.119 7
      vertex -9 -15.5885 7
    endloop
  endfacet
  facet normal -0.406723 -0.913552 -0
    outer loop
      vertex -5.5623 -17.119 7
      vertex -9 -15.5885 0
      vertex -5.5623 -17.119 0
    endloop
  endfacet
  facet normal -0.207917 -0.978146 0
    outer loop
      vertex -5.5623 -17.119 0
      vertex -1.8815 -17.9014 7
      vertex -5.5623 -17.119 7
    endloop
  endfacet
  facet normal -0.207917 -0.978146 -0
    outer loop
      vertex -1.8815 -17.9014 7
      vertex -5.5623 -17.119 0
      vertex -1.8815 -17.9014 0
    endloop
  endfacet
  facet normal 0 -1 0
    outer loop
      vertex -1.8815 -17.9014 0
      vertex 1.8815 -17.9014 7
      vertex -1.8815 -17.9014 7
    endloop
  endfacet
  facet normal 0 -1 -0
    outer loop
      vertex 1.8815 -17.9014 7
      vertex -1.8815 -17.9014 0
      vertex 1.8815 -17.9014 0
    endloop
  endfacet
  facet normal 0.207917 -0.978146 0
    outer loop
      vertex 1.8815 -17.9014 0
      vertex 5.5623 -17.119 7
      vertex 1.8815 -17.9014 7
    endloop
  endfacet
  facet normal 0.207917 -0.978146 0
    outer loop
      vertex 5.5623 -17.119 7
      vertex 1.8815 -17.9014 0
      vertex 5.5623 -17.119 0
    endloop
  endfacet
  facet normal 0.207905 0.978149 -0
    outer loop
      vertex -1.73517 -16.509 1
      vertex -5.12967 -15.7875 7
      vertex -1.73517 -16.509 7
    endloop
  endfacet
  facet normal 0.207905 0.978149 0
    outer loop
      vertex -5.12967 -15.7875 7
      vertex -1.73517 -16.509 1
      vertex -5.12967 -15.7875 1
    endloop
  endfacet
  facet normal 0.406732 0.913547 -0
    outer loop
      vertex -5.12967 -15.7875 1
      vertex -8.29999 -14.376 7
      vertex -5.12967 -15.7875 7
    endloop
  endfacet
  facet normal 0.406732 0.913547 0
    outer loop
      vertex -8.29999 -14.376 7
      vertex -5.12967 -15.7875 1
      vertex -8.29999 -14.376 1
    endloop
  endfacet
  facet normal 0.587776 0.809024 -0
    outer loop
      vertex -8.29999 -14.376 1
      vertex -11.1076 -12.3362 7
      vertex -8.29999 -14.376 7
    endloop
  endfacet
  facet normal 0.587776 0.809024 0
    outer loop
      vertex -11.1076 -12.3362 7
      vertex -8.29999 -14.376 1
      vertex -11.1076 -12.3362 1
    endloop
  endfacet
  facet normal 0.743147 0.669128 0
    outer loop
      vertex -11.1076 -12.3362 7
      vertex -13.4297 -9.75723 1
      vertex -13.4297 -9.75723 7
    endloop
  endfacet
  facet normal 0.743147 0.669128 0
    outer loop
      vertex -13.4297 -9.75723 1
      vertex -11.1076 -12.3362 7
      vertex -11.1076 -12.3362 1
    endloop
  endfacet
  facet normal 0.866035 0.499984 0
    outer loop
      vertex -13.4297 -9.75723 7
      vertex -15.1648 -6.75182 1
      vertex -15.1648 -6.75182 7
    endloop
  endfacet
  facet normal 0.866035 0.499984 0
    outer loop
      vertex -15.1648 -6.75182 1
      vertex -13.4297 -9.75723 7
      vertex -13.4297 -9.75723 1
    endloop
  endfacet
  facet normal 0.951056 0.309018 0
    outer loop
      vertex -15.1648 -6.75182 7
      vertex -16.2372 -3.45132 1
      vertex -16.2372 -3.45132 7
    endloop
  endfacet
  facet normal 0.951056 0.309018 0
    outer loop
      vertex -16.2372 -3.45132 1
      vertex -15.1648 -6.75182 7
      vertex -15.1648 -6.75182 1
    endloop
  endfacet
  facet normal 0.99452 0.104543 0
    outer loop
      vertex -16.2372 -3.45132 7
      vertex -16.6 0 1
      vertex -16.6 0 7
    endloop
  endfacet
  facet normal 0.99452 0.104543 0
    outer loop
      vertex -16.6 0 1
      vertex -16.2372 -3.45132 7
      vertex -16.2372 -3.45132 1
    endloop
  endfacet
  facet normal 0.99452 -0.104543 0
    outer loop
      vertex -16.6 0 7
      vertex -16.2372 3.45132 1
      vertex -16.2372 3.45132 7
    endloop
  endfacet
  facet normal 0.99452 -0.104543 0
    outer loop
      vertex -16.2372 3.45132 1
      vertex -16.6 0 7
      vertex -16.6 0 1
    endloop
  endfacet
  facet normal 0.951056 -0.309018 0
    outer loop
      vertex -16.2372 3.45132 7
      vertex -15.1648 6.75182 1
      vertex -15.1648 6.75182 7
    endloop
  endfacet
  facet normal 0.951056 -0.309018 0
    outer loop
      vertex -15.1648 6.75182 1
      vertex -16.2372 3.45132 7
      vertex -16.2372 3.45132 1
    endloop
  endfacet
  facet normal 0.866035 -0.499984 0
    outer loop
      vertex -15.1648 6.75182 7
      vertex -13.4297 9.75723 1
      vertex -13.4297 9.75723 7
    endloop
  endfacet
  facet normal 0.866035 -0.499984 0
    outer loop
      vertex -13.4297 9.75723 1
      vertex -15.1648 6.75182 7
      vertex -15.1648 6.75182 1
    endloop
  endfacet
  facet normal 0.743147 -0.669128 0
    outer loop
      vertex -13.4297 9.75723 7
      vertex -11.1076 12.3362 1
      vertex -11.1076 12.3362 7
    endloop
  endfacet
  facet normal 0.743147 -0.669128 0
    outer loop
      vertex -11.1076 12.3362 1
      vertex -13.4297 9.75723 7
      vertex -13.4297 9.75723 1
    endloop
  endfacet
  facet normal 0.587776 -0.809024 0
    outer loop
      vertex -11.1076 12.3362 1
      vertex -8.29999 14.376 7
      vertex -11.1076 12.3362 7
    endloop
  endfacet
  facet normal 0.587776 -0.809024 0
    outer loop
      vertex -8.29999 14.376 7
      vertex -11.1076 12.3362 1
      vertex -8.29999 14.376 1
    endloop
  endfacet
  facet normal 0.406732 -0.913547 0
    outer loop
      vertex -8.29999 14.376 1
      vertex -5.12967 15.7875 7
      vertex -8.29999 14.376 7
    endloop
  endfacet
  facet normal 0.406732 -0.913547 0
    outer loop
      vertex -5.12967 15.7875 7
      vertex -8.29999 14.376 1
      vertex -5.12967 15.7875 1
    endloop
  endfacet
  facet normal 0.207905 -0.978149 0
    outer loop
      vertex -5.12967 15.7875 1
      vertex -1.73517 16.509 7
      vertex -5.12967 15.7875 7
    endloop
  endfacet
  facet normal 0.207905 -0.978149 0
    outer loop
      vertex -1.73517 16.509 7
      vertex -5.12967 15.7875 1
      vertex -1.73517 16.509 1
    endloop
  endfacet
  facet normal 0 -1 0
    outer loop
      vertex -1.73517 16.509 1
      vertex 1.73517 16.509 7
      vertex -1.73517 16.509 7
    endloop
  endfacet
  facet normal 0 -1 -0
    outer loop
      vertex 1.73517 16.509 7
      vertex -1.73517 16.509 1
      vertex 1.73517 16.509 1
    endloop
  endfacet
  facet normal -0.207905 -0.978149 0
    outer loop
      vertex 1.73517 16.509 1
      vertex 5.12967 15.7875 7
      vertex 1.73517 16.509 7
    endloop
  endfacet
  facet normal -0.207905 -0.978149 -0
    outer loop
      vertex 5.12967 15.7875 7
      vertex 1.73517 16.509 1
      vertex 5.12967 15.7875 1
    endloop
  endfacet
  facet normal -0.406727 -0.91355 0
    outer loop
      vertex 5.12967 15.7875 1
      vertex 7 14.9548 7
      vertex 5.12967 15.7875 7
    endloop
  endfacet
  facet normal -0.406727 -0.91355 -0
    outer loop
      vertex 7 14.9548 7
      vertex 5.12967 15.7875 1
      vertex 7 14.9548 1
    endloop
  endfacet
  facet normal -0.406727 0.91355 0
    outer loop
      vertex 7 -14.9548 1
      vertex 5.12967 -15.7875 7
      vertex 7 -14.9548 7
    endloop
  endfacet
  facet normal -0.406727 0.91355 0
    outer loop
      vertex 5.12967 -15.7875 7
      vertex 7 -14.9548 1
      vertex 5.12967 -15.7875 1
    endloop
  endfacet
  facet normal -0.207905 0.978149 0
    outer loop
      vertex 5.12967 -15.7875 1
      vertex 1.73517 -16.509 7
      vertex 5.12967 -15.7875 7
    endloop
  endfacet
  facet normal -0.207905 0.978149 0
    outer loop
      vertex 1.73517 -16.509 7
      vertex 5.12967 -15.7875 1
      vertex 1.73517 -16.509 1
    endloop
  endfacet
  facet normal 0 1 -0
    outer loop
      vertex 1.73517 -16.509 1
      vertex -1.73517 -16.509 7
      vertex 1.73517 -16.509 7
    endloop
  endfacet
  facet normal 0 1 0
    outer loop
      vertex -1.73517 -16.509 7
      vertex 1.73517 -16.509 1
      vertex -1.73517 -16.509 1
    endloop
  endfacet
  facet normal 0 0 1
    outer loop
      vertex 5.77499 10.0026 7
      vertex 7 10.5877 7
      vertex 6.375 11.0418 7
    endloop
  endfacet
  facet normal 0 0 1
    outer loop
      vertex 7 10.5877 7
      vertex 5.77499 10.0026 7
      vertex 7 9.11256 7
    endloop
  endfacet
  facet normal 0 0 1
    outer loop
      vertex 3.93996 12.126 7
      vertex 5.77499 10.0026 7
      vertex 6.375 11.0418 7
    endloop
  endfacet
  facet normal 0 0 1
    outer loop
      vertex 3.93996 12.126 7
      vertex 3.56914 10.9847 7
      vertex 5.77499 10.0026 7
    endloop
  endfacet
  facet normal 0 0 1
    outer loop
      vertex 1.33273 12.6801 7
      vertex 3.56914 10.9847 7
      vertex 3.93996 12.126 7
    endloop
  endfacet
  facet normal 0 0 1
    outer loop
      vertex 1.33273 12.6801 7
      vertex 1.20729 11.4867 7
      vertex 3.56914 10.9847 7
    endloop
  endfacet
  facet normal 0 0 1
    outer loop
      vertex 1.33273 12.6801 7
      vertex -1.20729 11.4867 7
      vertex 1.20729 11.4867 7
    endloop
  endfacet
  facet normal -0 0 1
    outer loop
      vertex -1.33273 12.6801 7
      vertex -1.20729 11.4867 7
      vertex 1.33273 12.6801 7
    endloop
  endfacet
  facet normal 0 0 1
    outer loop
      vertex -1.33273 12.6801 7
      vertex -3.56914 10.9847 7
      vertex -1.20729 11.4867 7
    endloop
  endfacet
  facet normal -0 0 1
    outer loop
      vertex -3.93996 12.126 7
      vertex -3.56914 10.9847 7
      vertex -1.33273 12.6801 7
    endloop
  endfacet
  facet normal 0 0 1
    outer loop
      vertex -3.93996 12.126 7
      vertex -5.77499 10.0026 7
      vertex -3.56914 10.9847 7
    endloop
  endfacet
  facet normal -0 0 1
    outer loop
      vertex -6.375 11.0418 7
      vertex -5.77499 10.0026 7
      vertex -3.93996 12.126 7
    endloop
  endfacet
  facet normal 0 0 1
    outer loop
      vertex -6.375 11.0418 7
      vertex -7.72845 8.58331 7
      vertex -5.77499 10.0026 7
    endloop
  endfacet
  facet normal -0 0 1
    outer loop
      vertex -8.5314 9.47508 7
      vertex -7.72845 8.58331 7
      vertex -6.375 11.0418 7
    endloop
  endfacet
  facet normal 0 0 1
    outer loop
      vertex -8.5314 9.47508 7
      vertex -9.34413 6.78891 7
      vertex -7.72845 8.58331 7
    endloop
  endfacet
  facet normal -0 0 1
    outer loop
      vertex -10.315 7.49425 7
      vertex -9.34413 6.78891 7
      vertex -8.5314 9.47508 7
    endloop
  endfacet
  facet normal 0 0 1
    outer loop
      vertex -10.315 7.49425 7
      vertex -10.5514 4.6978 7
      vertex -9.34413 6.78891 7
    endloop
  endfacet
  facet normal -0 0 1
    outer loop
      vertex -11.6477 5.18588 7
      vertex -10.5514 4.6978 7
      vertex -10.315 7.49425 7
    endloop
  endfacet
  facet normal -0 0 1
    outer loop
      vertex -12.4714 2.65086 7
      vertex -11.2976 2.40137 7
      vertex -11.6477 5.18588 7
    endloop
  endfacet
  facet normal 0 0 1
    outer loop
      vertex -10.5514 4.6978 7
      vertex -11.6477 5.18588 7
      vertex -11.2976 2.40137 7
    endloop
  endfacet
  facet normal -0 0 1
    outer loop
      vertex 5.77499 -10.0026 7
      vertex 7 -10.5877 7
      vertex 7 -9.11256 7
    endloop
  endfacet
  facet normal 0 0 1
    outer loop
      vertex 7 -10.5877 7
      vertex 5.77499 -10.0026 7
      vertex 6.375 -11.0418 7
    endloop
  endfacet
  facet normal 0 0 1
    outer loop
      vertex 5.77499 -10.0026 7
      vertex 3.93996 -12.126 7
      vertex 6.375 -11.0418 7
    endloop
  endfacet
  facet normal -0 0 1
    outer loop
      vertex 3.56914 -10.9847 7
      vertex 3.93996 -12.126 7
      vertex 5.77499 -10.0026 7
    endloop
  endfacet
  facet normal 0 0 1
    outer loop
      vertex 3.56914 -10.9847 7
      vertex 1.33273 -12.6801 7
      vertex 3.93996 -12.126 7
    endloop
  endfacet
  facet normal -0 0 1
    outer loop
      vertex 1.20729 -11.4867 7
      vertex 1.33273 -12.6801 7
      vertex 3.56914 -10.9847 7
    endloop
  endfacet
  facet normal -0 0 1
    outer loop
      vertex -1.20729 -11.4867 7
      vertex 1.33273 -12.6801 7
      vertex 1.20729 -11.4867 7
    endloop
  endfacet
  facet normal 0 0 1
    outer loop
      vertex -1.20729 -11.4867 7
      vertex -1.33273 -12.6801 7
      vertex 1.33273 -12.6801 7
    endloop
  endfacet
  facet normal 0 0 1
    outer loop
      vertex -3.56914 -10.9847 7
      vertex -1.33273 -12.6801 7
      vertex -1.20729 -11.4867 7
    endloop
  endfacet
  facet normal 0 0 1
    outer loop
      vertex -3.56914 -10.9847 7
      vertex -3.93996 -12.126 7
      vertex -1.33273 -12.6801 7
    endloop
  endfacet
  facet normal 0 0 1
    outer loop
      vertex -5.77499 -10.0026 7
      vertex -3.93996 -12.126 7
      vertex -3.56914 -10.9847 7
    endloop
  endfacet
  facet normal 0 0 1
    outer loop
      vertex -5.77499 -10.0026 7
      vertex -6.375 -11.0418 7
      vertex -3.93996 -12.126 7
    endloop
  endfacet
  facet normal 0 0 1
    outer loop
      vertex -7.72845 -8.58331 7
      vertex -6.375 -11.0418 7
      vertex -5.77499 -10.0026 7
    endloop
  endfacet
  facet normal 0 0 1
    outer loop
      vertex -7.72845 -8.58331 7
      vertex -8.5314 -9.47508 7
      vertex -6.375 -11.0418 7
    endloop
  endfacet
  facet normal 0 0 1
    outer loop
      vertex -9.34413 -6.78891 7
      vertex -8.5314 -9.47508 7
      vertex -7.72845 -8.58331 7
    endloop
  endfacet
  facet normal 0 0 1
    outer loop
      vertex -9.34413 -6.78891 7
      vertex -10.315 -7.49425 7
      vertex -8.5314 -9.47508 7
    endloop
  endfacet
  facet normal 0 0 1
    outer loop
      vertex -10.5514 -4.6978 7
      vertex -10.315 -7.49425 7
      vertex -9.34413 -6.78891 7
    endloop
  endfacet
  facet normal 0 0 1
    outer loop
      vertex -11.6477 -5.18588 7
      vertex -10.5514 -4.6978 7
      vertex -11.2976 -2.40137 7
    endloop
  endfacet
  facet normal 0 0 1
    outer loop
      vertex -10.5514 -4.6978 7
      vertex -11.6477 -5.18588 7
      vertex -10.315 -7.49425 7
    endloop
  endfacet
  facet normal 0 0 1
    outer loop
      vertex -12.4714 -2.65086 7
      vertex -11.2976 -2.40137 7
      vertex -11.55 0 7
    endloop
  endfacet
  facet normal 0 0 1
    outer loop
      vertex -11.2976 2.40137 7
      vertex -12.4714 2.65086 7
      vertex -11.55 0 7
    endloop
  endfacet
  facet normal 0 0 1
    outer loop
      vertex -12.75 0 7
      vertex -11.55 0 7
      vertex -12.4714 2.65086 7
    endloop
  endfacet
  facet normal 0 0 1
    outer loop
      vertex -11.2976 -2.40137 7
      vertex -12.4714 -2.65086 7
      vertex -11.6477 -5.18588 7
    endloop
  endfacet
  facet normal 0 0 1
    outer loop
      vertex -11.55 0 7
      vertex -12.75 0 7
      vertex -12.4714 -2.65086 7
    endloop
  endfacet
  facet normal 0.406752 -0.913538 0
    outer loop
      vertex 3.93996 -12.126 1
      vertex 6.375 -11.0418 7
      vertex 3.93996 -12.126 7
    endloop
  endfacet
  facet normal 0.406752 -0.913538 0
    outer loop
      vertex 6.375 -11.0418 7
      vertex 3.93996 -12.126 1
      vertex 6.375 -11.0418 1
    endloop
  endfacet
  facet normal 0.587795 -0.80901 0
    outer loop
      vertex 6.375 -11.0418 1
      vertex 7 -10.5877 7
      vertex 6.375 -11.0418 7
    endloop
  endfacet
  facet normal 0.587795 -0.80901 0
    outer loop
      vertex 7 -10.5877 7
      vertex 6.375 -11.0418 1
      vertex 7 -10.5877 1
    endloop
  endfacet
  facet normal 0.587795 0.80901 -0
    outer loop
      vertex 7 10.5877 1
      vertex 6.375 11.0418 7
      vertex 7 10.5877 7
    endloop
  endfacet
  facet normal 0.587795 0.80901 0
    outer loop
      vertex 6.375 11.0418 7
      vertex 7 10.5877 1
      vertex 6.375 11.0418 1
    endloop
  endfacet
  facet normal 0.406752 0.913538 -0
    outer loop
      vertex 6.375 11.0418 1
      vertex 3.93996 12.126 7
      vertex 6.375 11.0418 7
    endloop
  endfacet
  facet normal 0.406752 0.913538 0
    outer loop
      vertex 3.93996 12.126 7
      vertex 6.375 11.0418 1
      vertex 3.93996 12.126 1
    endloop
  endfacet
  facet normal 0.207882 0.978154 -0
    outer loop
      vertex 3.93996 12.126 1
      vertex 1.33273 12.6801 7
      vertex 3.93996 12.126 7
    endloop
  endfacet
  facet normal 0.207882 0.978154 0
    outer loop
      vertex 1.33273 12.6801 7
      vertex 3.93996 12.126 1
      vertex 1.33273 12.6801 1
    endloop
  endfacet
  facet normal 0 1 -0
    outer loop
      vertex 1.33273 12.6801 1
      vertex -1.33273 12.6801 7
      vertex 1.33273 12.6801 7
    endloop
  endfacet
  facet normal 0 1 0
    outer loop
      vertex -1.33273 12.6801 7
      vertex 1.33273 12.6801 1
      vertex -1.33273 12.6801 1
    endloop
  endfacet
  facet normal -0.207882 0.978154 0
    outer loop
      vertex -1.33273 12.6801 1
      vertex -3.93996 12.126 7
      vertex -1.33273 12.6801 7
    endloop
  endfacet
  facet normal -0.207882 0.978154 0
    outer loop
      vertex -3.93996 12.126 7
      vertex -1.33273 12.6801 1
      vertex -3.93996 12.126 1
    endloop
  endfacet
  facet normal -0.406752 0.913538 0
    outer loop
      vertex -3.93996 12.126 1
      vertex -6.375 11.0418 7
      vertex -3.93996 12.126 7
    endloop
  endfacet
  facet normal -0.406752 0.913538 0
    outer loop
      vertex -6.375 11.0418 7
      vertex -3.93996 12.126 1
      vertex -6.375 11.0418 1
    endloop
  endfacet
  facet normal -0.587786 0.809016 0
    outer loop
      vertex -6.375 11.0418 1
      vertex -8.5314 9.47508 7
      vertex -6.375 11.0418 7
    endloop
  endfacet
  facet normal -0.587786 0.809016 0
    outer loop
      vertex -8.5314 9.47508 7
      vertex -6.375 11.0418 1
      vertex -8.5314 9.47508 1
    endloop
  endfacet
  facet normal -0.743135 0.669142 0
    outer loop
      vertex -10.315 7.49425 1
      vertex -8.5314 9.47508 7
      vertex -8.5314 9.47508 1
    endloop
  endfacet
  facet normal -0.743135 0.669142 0
    outer loop
      vertex -8.5314 9.47508 7
      vertex -10.315 7.49425 1
      vertex -10.315 7.49425 7
    endloop
  endfacet
  facet normal -0.866032 0.499989 0
    outer loop
      vertex -11.6477 5.18588 1
      vertex -10.315 7.49425 7
      vertex -10.315 7.49425 1
    endloop
  endfacet
  facet normal -0.866032 0.499989 0
    outer loop
      vertex -10.315 7.49425 7
      vertex -11.6477 5.18588 1
      vertex -11.6477 5.18588 7
    endloop
  endfacet
  facet normal -0.951054 0.309024 0
    outer loop
      vertex -12.4714 2.65086 1
      vertex -11.6477 5.18588 7
      vertex -11.6477 5.18588 1
    endloop
  endfacet
  facet normal -0.951054 0.309024 0
    outer loop
      vertex -11.6477 5.18588 7
      vertex -12.4714 2.65086 1
      vertex -12.4714 2.65086 7
    endloop
  endfacet
  facet normal -0.994523 0.104522 0
    outer loop
      vertex -12.75 0 1
      vertex -12.4714 2.65086 7
      vertex -12.4714 2.65086 1
    endloop
  endfacet
  facet normal -0.994523 0.104522 0
    outer loop
      vertex -12.4714 2.65086 7
      vertex -12.75 0 1
      vertex -12.75 0 7
    endloop
  endfacet
  facet normal -0.994523 -0.104522 0
    outer loop
      vertex -12.4714 -2.65086 1
      vertex -12.75 0 7
      vertex -12.75 0 1
    endloop
  endfacet
  facet normal -0.994523 -0.104522 0
    outer loop
      vertex -12.75 0 7
      vertex -12.4714 -2.65086 1
      vertex -12.4714 -2.65086 7
    endloop
  endfacet
  facet normal -0.951054 -0.309024 0
    outer loop
      vertex -11.6477 -5.18588 1
      vertex -12.4714 -2.65086 7
      vertex -12.4714 -2.65086 1
    endloop
  endfacet
  facet normal -0.951054 -0.309024 0
    outer loop
      vertex -12.4714 -2.65086 7
      vertex -11.6477 -5.18588 1
      vertex -11.6477 -5.18588 7
    endloop
  endfacet
  facet normal -0.866032 -0.499989 0
    outer loop
      vertex -10.315 -7.49425 1
      vertex -11.6477 -5.18588 7
      vertex -11.6477 -5.18588 1
    endloop
  endfacet
  facet normal -0.866032 -0.499989 0
    outer loop
      vertex -11.6477 -5.18588 7
      vertex -10.315 -7.49425 1
      vertex -10.315 -7.49425 7
    endloop
  endfacet
  facet normal -0.743135 -0.669142 0
    outer loop
      vertex -8.5314 -9.47508 1
      vertex -10.315 -7.49425 7
      vertex -10.315 -7.49425 1
    endloop
  endfacet
  facet normal -0.743135 -0.669142 0
    outer loop
      vertex -10.315 -7.49425 7
      vertex -8.5314 -9.47508 1
      vertex -8.5314 -9.47508 7
    endloop
  endfacet
  facet normal -0.587786 -0.809016 0
    outer loop
      vertex -8.5314 -9.47508 1
      vertex -6.375 -11.0418 7
      vertex -8.5314 -9.47508 7
    endloop
  endfacet
  facet normal -0.587786 -0.809016 -0
    outer loop
      vertex -6.375 -11.0418 7
      vertex -8.5314 -9.47508 1
      vertex -6.375 -11.0418 1
    endloop
  endfacet
  facet normal -0.406752 -0.913538 0
    outer loop
      vertex -6.375 -11.0418 1
      vertex -3.93996 -12.126 7
      vertex -6.375 -11.0418 7
    endloop
  endfacet
  facet normal -0.406752 -0.913538 -0
    outer loop
      vertex -3.93996 -12.126 7
      vertex -6.375 -11.0418 1
      vertex -3.93996 -12.126 1
    endloop
  endfacet
  facet normal -0.207882 -0.978154 0
    outer loop
      vertex -3.93996 -12.126 1
      vertex -1.33273 -12.6801 7
      vertex -3.93996 -12.126 7
    endloop
  endfacet
  facet normal -0.207882 -0.978154 -0
    outer loop
      vertex -1.33273 -12.6801 7
      vertex -3.93996 -12.126 1
      vertex -1.33273 -12.6801 1
    endloop
  endfacet
  facet normal 0 -1 0
    outer loop
      vertex -1.33273 -12.6801 1
      vertex 1.33273 -12.6801 7
      vertex -1.33273 -12.6801 7
    endloop
  endfacet
  facet normal 0 -1 -0
    outer loop
      vertex 1.33273 -12.6801 7
      vertex -1.33273 -12.6801 1
      vertex 1.33273 -12.6801 1
    endloop
  endfacet
  facet normal 0.207882 -0.978154 0
    outer loop
      vertex 1.33273 -12.6801 1
      vertex 3.93996 -12.126 7
      vertex 1.33273 -12.6801 7
    endloop
  endfacet
  facet normal 0.207882 -0.978154 0
    outer loop
      vertex 3.93996 -12.126 7
      vertex 1.33273 -12.6801 1
      vertex 3.93996 -12.126 1
    endloop
  endfacet
  facet normal 0.207901 0.97815 -0
    outer loop
      vertex -1.20729 -11.4867 1
      vertex -3.56914 -10.9847 7
      vertex -1.20729 -11.4867 7
    endloop
  endfacet
  facet normal 0.207901 0.97815 0
    outer loop
      vertex -3.56914 -10.9847 7
      vertex -1.20729 -11.4867 1
      vertex -3.56914 -10.9847 1
    endloop
  endfacet
  facet normal 0.406734 0.913547 -0
    outer loop
      vertex -3.56914 -10.9847 1
      vertex -5.77499 -10.0026 7
      vertex -3.56914 -10.9847 7
    endloop
  endfacet
  facet normal 0.406734 0.913547 0
    outer loop
      vertex -5.77499 -10.0026 7
      vertex -3.56914 -10.9847 1
      vertex -5.77499 -10.0026 1
    endloop
  endfacet
  facet normal 0.58779 0.809013 -0
    outer loop
      vertex -5.77499 -10.0026 1
      vertex -7.72845 -8.58331 7
      vertex -5.77499 -10.0026 7
    endloop
  endfacet
  facet normal 0.58779 0.809013 0
    outer loop
      vertex -7.72845 -8.58331 7
      vertex -5.77499 -10.0026 1
      vertex -7.72845 -8.58331 1
    endloop
  endfacet
  facet normal 0.743146 0.669129 0
    outer loop
      vertex -7.72845 -8.58331 7
      vertex -9.34413 -6.78891 1
      vertex -9.34413 -6.78891 7
    endloop
  endfacet
  facet normal 0.743146 0.669129 0
    outer loop
      vertex -9.34413 -6.78891 1
      vertex -7.72845 -8.58331 7
      vertex -7.72845 -8.58331 1
    endloop
  endfacet
  facet normal 0.866031 0.49999 0
    outer loop
      vertex -9.34413 -6.78891 7
      vertex -10.5514 -4.6978 1
      vertex -10.5514 -4.6978 7
    endloop
  endfacet
  facet normal 0.866031 0.49999 0
    outer loop
      vertex -10.5514 -4.6978 1
      vertex -9.34413 -6.78891 7
      vertex -9.34413 -6.78891 1
    endloop
  endfacet
  facet normal 0.951051 0.309034 0
    outer loop
      vertex -10.5514 -4.6978 7
      vertex -11.2976 -2.40137 1
      vertex -11.2976 -2.40137 7
    endloop
  endfacet
  facet normal 0.951051 0.309034 0
    outer loop
      vertex -11.2976 -2.40137 1
      vertex -10.5514 -4.6978 7
      vertex -10.5514 -4.6978 1
    endloop
  endfacet
  facet normal 0.994522 0.104531 0
    outer loop
      vertex -11.2976 -2.40137 7
      vertex -11.55 0 1
      vertex -11.55 0 7
    endloop
  endfacet
  facet normal 0.994522 0.104531 0
    outer loop
      vertex -11.55 0 1
      vertex -11.2976 -2.40137 7
      vertex -11.2976 -2.40137 1
    endloop
  endfacet
  facet normal 0.994522 -0.104531 0
    outer loop
      vertex -11.55 0 7
      vertex -11.2976 2.40137 1
      vertex -11.2976 2.40137 7
    endloop
  endfacet
  facet normal 0.994522 -0.104531 0
    outer loop
      vertex -11.2976 2.40137 1
      vertex -11.55 0 7
      vertex -11.55 0 1
    endloop
  endfacet
  facet normal 0.951051 -0.309034 0
    outer loop
      vertex -11.2976 2.40137 7
      vertex -10.5514 4.6978 1
      vertex -10.5514 4.6978 7
    endloop
  endfacet
  facet normal 0.951051 -0.309034 0
    outer loop
      vertex -10.5514 4.6978 1
      vertex -11.2976 2.40137 7
      vertex -11.2976 2.40137 1
    endloop
  endfacet
  facet normal 0.866031 -0.49999 0
    outer loop
      vertex -10.5514 4.6978 7
      vertex -9.34413 6.78891 1
      vertex -9.34413 6.78891 7
    endloop
  endfacet
  facet normal 0.866031 -0.49999 0
    outer loop
      vertex -9.34413 6.78891 1
      vertex -10.5514 4.6978 7
      vertex -10.5514 4.6978 1
    endloop
  endfacet
  facet normal 0.743146 -0.669129 0
    outer loop
      vertex -9.34413 6.78891 7
      vertex -7.72845 8.58331 1
      vertex -7.72845 8.58331 7
    endloop
  endfacet
  facet normal 0.743146 -0.669129 0
    outer loop
      vertex -7.72845 8.58331 1
      vertex -9.34413 6.78891 7
      vertex -9.34413 6.78891 1
    endloop
  endfacet
  facet normal 0.58779 -0.809013 0
    outer loop
      vertex -7.72845 8.58331 1
      vertex -5.77499 10.0026 7
      vertex -7.72845 8.58331 7
    endloop
  endfacet
  facet normal 0.58779 -0.809013 0
    outer loop
      vertex -5.77499 10.0026 7
      vertex -7.72845 8.58331 1
      vertex -5.77499 10.0026 1
    endloop
  endfacet
  facet normal 0.406734 -0.913547 0
    outer loop
      vertex -5.77499 10.0026 1
      vertex -3.56914 10.9847 7
      vertex -5.77499 10.0026 7
    endloop
  endfacet
  facet normal 0.406734 -0.913547 0
    outer loop
      vertex -3.56914 10.9847 7
      vertex -5.77499 10.0026 1
      vertex -3.56914 10.9847 1
    endloop
  endfacet
  facet normal 0.207901 -0.97815 0
    outer loop
      vertex -3.56914 10.9847 1
      vertex -1.20729 11.4867 7
      vertex -3.56914 10.9847 7
    endloop
  endfacet
  facet normal 0.207901 -0.97815 0
    outer loop
      vertex -1.20729 11.4867 7
      vertex -3.56914 10.9847 1
      vertex -1.20729 11.4867 1
    endloop
  endfacet
  facet normal 0 -1 0
    outer loop
      vertex -1.20729 11.4867 1
      vertex 1.20729 11.4867 7
      vertex -1.20729 11.4867 7
    endloop
  endfacet
  facet normal 0 -1 -0
    outer loop
      vertex 1.20729 11.4867 7
      vertex -1.20729 11.4867 1
      vertex 1.20729 11.4867 1
    endloop
  endfacet
  facet normal -0.207901 -0.97815 0
    outer loop
      vertex 1.20729 11.4867 1
      vertex 3.56914 10.9847 7
      vertex 1.20729 11.4867 7
    endloop
  endfacet
  facet normal -0.207901 -0.97815 -0
    outer loop
      vertex 3.56914 10.9847 7
      vertex 1.20729 11.4867 1
      vertex 3.56914 10.9847 1
    endloop
  endfacet
  facet normal -0.406734 -0.913547 0
    outer loop
      vertex 3.56914 10.9847 1
      vertex 5.77499 10.0026 7
      vertex 3.56914 10.9847 7
    endloop
  endfacet
  facet normal -0.406734 -0.913547 -0
    outer loop
      vertex 5.77499 10.0026 7
      vertex 3.56914 10.9847 1
      vertex 5.77499 10.0026 1
    endloop
  endfacet
  facet normal -0.587793 -0.809011 0
    outer loop
      vertex 5.77499 10.0026 1
      vertex 7 9.11256 7
      vertex 5.77499 10.0026 7
    endloop
  endfacet
  facet normal -0.587793 -0.809011 -0
    outer loop
      vertex 7 9.11256 7
      vertex 5.77499 10.0026 1
      vertex 7 9.11256 1
    endloop
  endfacet
  facet normal -0.587793 0.809011 0
    outer loop
      vertex 7 -9.11256 1
      vertex 5.77499 -10.0026 7
      vertex 7 -9.11256 7
    endloop
  endfacet
  facet normal -0.587793 0.809011 0
    outer loop
      vertex 5.77499 -10.0026 7
      vertex 7 -9.11256 1
      vertex 5.77499 -10.0026 1
    endloop
  endfacet
  facet normal -0.406734 0.913547 0
    outer loop
      vertex 5.77499 -10.0026 1
      vertex 3.56914 -10.9847 7
      vertex 5.77499 -10.0026 7
    endloop
  endfacet
  facet normal -0.406734 0.913547 0
    outer loop
      vertex 3.56914 -10.9847 7
      vertex 5.77499 -10.0026 1
      vertex 3.56914 -10.9847 1
    endloop
  endfacet
  facet normal -0.207901 0.97815 0
    outer loop
      vertex 3.56914 -10.9847 1
      vertex 1.20729 -11.4867 7
      vertex 3.56914 -10.9847 7
    endloop
  endfacet
  facet normal -0.207901 0.97815 0
    outer loop
      vertex 1.20729 -11.4867 7
      vertex 3.56914 -10.9847 1
      vertex 1.20729 -11.4867 1
    endloop
  endfacet
  facet normal 0 1 -0
    outer loop
      vertex 1.20729 -11.4867 1
      vertex -1.20729 -11.4867 7
      vertex 1.20729 -11.4867 7
    endloop
  endfacet
  facet normal 0 1 0
    outer loop
      vertex -1.20729 -11.4867 7
      vertex 1.20729 -11.4867 1
      vertex -1.20729 -11.4867 1
    endloop
  endfacet
  facet normal 1 0 0
    outer loop
      vertex 7 -14.9548 7
      vertex 7 -16.4789 7
      vertex 7 -14.9548 1
    endloop
  endfacet
  facet normal 1 0 0
    outer loop
      vertex 7 -9.11256 7
      vertex 7 -10.5877 7
      vertex 7 -9.11256 1
    endloop
  endfacet
  facet normal 1 0 0
    outer loop
      vertex 7 10.5877 7
      vertex 7 9.11256 7
      vertex 7 10.5877 1
    endloop
  endfacet
  facet normal 1 0 0
    outer loop
      vertex 7 14.9548 1
      vertex 7 16.4789 7
      vertex 7 14.9548 7
    endloop
  endfacet
  facet normal 1 0 0
    outer loop
      vertex 7 16.4789 7
      vertex 7 14.9548 1
      vertex 7 16.4789 0
    endloop
  endfacet
  facet normal 1 -0 0
    outer loop
      vertex 7 10.5877 1
      vertex 7 16.4789 0
      vertex 7 14.9548 1
    endloop
  endfacet
  facet normal 1 0 0
    outer loop
      vertex 7 9.11256 1
      vertex 7 10.5877 1
      vertex 7 9.11256 7
    endloop
  endfacet
  facet normal 1 -0 0
    outer loop
      vertex 7 9.11256 1
      vertex 7 16.4789 0
      vertex 7 10.5877 1
    endloop
  endfacet
  facet normal 1 -0 0
    outer loop
      vertex 7 -9.11256 1
      vertex 7 16.4789 0
      vertex 7 9.11256 1
    endloop
  endfacet
  facet normal 1 0 0
    outer loop
      vertex 7 -10.5877 1
      vertex 7 -9.11256 1
      vertex 7 -10.5877 7
    endloop
  endfacet
  facet normal 1 0 0
    outer loop
      vertex 7 -16.4789 0
      vertex 7 -9.11256 1
      vertex 7 -10.5877 1
    endloop
  endfacet
  facet normal 1 0 0
    outer loop
      vertex 7 -16.4789 0
      vertex 7 -10.5877 1
      vertex 7 -14.9548 1
    endloop
  endfacet
  facet normal 1 0 0
    outer loop
      vertex 7 -9.11256 1
      vertex 7 -16.4789 0
      vertex 7 16.4789 0
    endloop
  endfacet
  facet normal 1 0 0
    outer loop
      vertex 7 -16.4789 0
      vertex 7 -14.9548 1
      vertex 7 -16.4789 7
    endloop
  endfacet
endsolid OpenSCAD_Model
