solid OpenSCAD_Model
  facet normal -0.798707 0.601721 0
    outer loop
      vertex 11.8 8.72105 2
      vertex 11.9761 8.9548 3
      vertex 11.9761 8.9548 2
    endloop
  endfacet
  facet normal -0.798707 0.601721 0
    outer loop
      vertex 11.9761 8.9548 3
      vertex 11.8 8.72105 2
      vertex 11.8 8.72105 3
    endloop
  endfacet
  facet normal -0.656029 0.754736 -3.23214e-06
    outer loop
      vertex 12.197 9.14681 3
      vertex 12 8.97557 2
      vertex 11.9761 8.9548 3
    endloop
  endfacet
  facet normal -0.656038 0.754728 0
    outer loop
      vertex 12.197 9.14681 0
      vertex 12 8.97557 2
      vertex 12.197 9.14681 3
    endloop
  endfacet
  facet normal -0.656038 0.754728 0
    outer loop
      vertex 12 8.97557 2
      vertex 12.197 9.14681 0
      vertex 12 8.97557 0
    endloop
  endfacet
  facet normal -0.655952 0.754803 0
    outer loop
      vertex 11.9761 8.9548 3
      vertex 12 8.97557 2
      vertex 11.9761 8.9548 2
    endloop
  endfacet
  facet normal -0.906292 0.422652 0
    outer loop
      vertex 11.6763 8.4558 2
      vertex 11.8 8.72105 3
      vertex 11.8 8.72105 2
    endloop
  endfacet
  facet normal -0.906292 0.422652 0
    outer loop
      vertex 11.8 8.72105 3
      vertex 11.6763 8.4558 2
      vertex 11.6763 8.4558 3
    endloop
  endfacet
  facet normal -0.999848 0.0174249 0
    outer loop
      vertex 11.6053 7.87798 2
      vertex 11.6104 8.17062 3
      vertex 11.6104 8.17062 2
    endloop
  endfacet
  facet normal -0.999848 0.0174249 0
    outer loop
      vertex 11.6104 8.17062 3
      vertex 11.6053 7.87798 2
      vertex 11.6053 7.87798 3
    endloop
  endfacet
  facet normal -0.292359 0.956309 0
    outer loop
      vertex 12.7329 9.37428 0
      vertex 12.453 9.28871 3
      vertex 12.7329 9.37428 3
    endloop
  endfacet
  facet normal -0.292359 0.956309 0
    outer loop
      vertex 12.453 9.28871 3
      vertex 12.7329 9.37428 0
      vertex 12.453 9.28871 0
    endloop
  endfacet
  facet normal -0.484801 0.874624 0
    outer loop
      vertex 12.453 9.28871 0
      vertex 12.197 9.14681 3
      vertex 12.453 9.28871 3
    endloop
  endfacet
  facet normal -0.484801 0.874624 0
    outer loop
      vertex 12.197 9.14681 3
      vertex 12.453 9.28871 0
      vertex 12.197 9.14681 0
    endloop
  endfacet
  facet normal -0.974324 0.225149 0
    outer loop
      vertex 11.6104 8.17062 2
      vertex 11.6763 8.4558 3
      vertex 11.6763 8.4558 2
    endloop
  endfacet
  facet normal -0.974324 0.225149 0
    outer loop
      vertex 11.6763 8.4558 3
      vertex 11.6104 8.17062 2
      vertex 11.6104 8.17062 3
    endloop
  endfacet
  facet normal 0.798707 -0.601721 0
    outer loop
      vertex 14.0239 7.0452 3
      vertex 14.2 7.27895 0
      vertex 14.2 7.27895 3
    endloop
  endfacet
  facet normal 0.798707 -0.601721 0
    outer loop
      vertex 14.2 7.27895 0
      vertex 14.0239 7.0452 3
      vertex 14.0239 7.0452 0
    endloop
  endfacet
  facet normal 0.292359 -0.956309 0
    outer loop
      vertex 13.2671 6.62572 0
      vertex 13.547 6.71129 3
      vertex 13.2671 6.62572 3
    endloop
  endfacet
  facet normal 0.292359 -0.956309 0
    outer loop
      vertex 13.547 6.71129 3
      vertex 13.2671 6.62572 0
      vertex 13.547 6.71129 0
    endloop
  endfacet
  facet normal 0.325507 0.945539 -0
    outer loop
      vertex 13.5917 9.26883 0
      vertex 13.3149 9.36412 3
      vertex 13.5917 9.26883 3
    endloop
  endfacet
  facet normal 0.325507 0.945539 0
    outer loop
      vertex 13.3149 9.36412 3
      vertex 13.5917 9.26883 0
      vertex 13.3149 9.36412 0
    endloop
  endfacet
  facet normal -0.325507 -0.945539 0
    outer loop
      vertex 12.4083 6.73117 0
      vertex 12.6851 6.63588 3
      vertex 12.4083 6.73117 3
    endloop
  endfacet
  facet normal -0.325507 -0.945539 -0
    outer loop
      vertex 12.6851 6.63588 3
      vertex 12.4083 6.73117 0
      vertex 12.6851 6.63588 0
    endloop
  endfacet
  facet normal 0 0 1
    outer loop
      vertex 13.2747 8.5891 3
      vertex 13.7186 9.19258 3
      vertex 13.5917 9.26883 3
    endloop
  endfacet
  facet normal 0 0 1
    outer loop
      vertex 13.2747 8.5891 3
      vertex 13.5917 9.26883 3
      vertex 13.3149 9.36412 3
    endloop
  endfacet
  facet normal 0 0 1
    outer loop
      vertex 13.7186 9.19258 3
      vertex 13.2747 8.5891 3
      vertex 13.363 8.53602 3
    endloop
  endfacet
  facet normal 0 0 1
    outer loop
      vertex 13.3149 9.36412 3
      vertex 13.1462 8.63334 3
      vertex 13.2747 8.5891 3
    endloop
  endfacet
  facet normal 0 0 1
    outer loop
      vertex 13.0244 9.39979 3
      vertex 13.1462 8.63334 3
      vertex 13.3149 9.36412 3
    endloop
  endfacet
  facet normal 0 0 1
    outer loop
      vertex 13.0244 9.39979 3
      vertex 13.0113 8.6499 3
      vertex 13.1462 8.63334 3
    endloop
  endfacet
  facet normal 0 0 1
    outer loop
      vertex 13.0244 9.39979 3
      vertex 12.876 8.63806 3
      vertex 13.0113 8.6499 3
    endloop
  endfacet
  facet normal -0 0 1
    outer loop
      vertex 12.7329 9.37428 3
      vertex 12.876 8.63806 3
      vertex 13.0244 9.39979 3
    endloop
  endfacet
  facet normal 0 0 1
    outer loop
      vertex 12.876 8.63806 3
      vertex 12.7329 9.37428 3
      vertex 12.746 8.59833 3
    endloop
  endfacet
  facet normal -0 0 1
    outer loop
      vertex 12.453 9.28871 3
      vertex 12.746 8.59833 3
      vertex 12.7329 9.37428 3
    endloop
  endfacet
  facet normal 0 0 1
    outer loop
      vertex 12.746 8.59833 3
      vertex 12.453 9.28871 3
      vertex 12.6272 8.53245 3
    endloop
  endfacet
  facet normal -0 0 1
    outer loop
      vertex 12.197 9.14681 3
      vertex 12.6272 8.53245 3
      vertex 12.453 9.28871 3
    endloop
  endfacet
  facet normal 0 0 1
    outer loop
      vertex 12.6272 8.53245 3
      vertex 12.197 9.14681 3
      vertex 12.5246 8.4433 3
    endloop
  endfacet
  facet normal -0 0 1
    outer loop
      vertex 11.9761 8.9548 3
      vertex 12.5246 8.4433 3
      vertex 12.197 9.14681 3
    endloop
  endfacet
  facet normal 0 0 1
    outer loop
      vertex 12.5246 8.4433 3
      vertex 11.9761 8.9548 3
      vertex 12.4428 8.33477 3
    endloop
  endfacet
  facet normal 0 0 1
    outer loop
      vertex 12.4428 8.33477 3
      vertex 11.8 8.72105 3
      vertex 12.3854 8.21162 3
    endloop
  endfacet
  facet normal -0 0 1
    outer loop
      vertex 11.8 8.72105 3
      vertex 12.4428 8.33477 3
      vertex 11.9761 8.9548 3
    endloop
  endfacet
  facet normal 0 0 1
    outer loop
      vertex 13.6475 8.05665 3
      vertex 14.3947 8.12202 3
      vertex 14.3664 8.26734 3
    endloop
  endfacet
  facet normal 0 0 1
    outer loop
      vertex 14.3947 8.12202 3
      vertex 13.6475 8.05665 3
      vertex 14.3896 7.82938 3
    endloop
  endfacet
  facet normal 0 0 1
    outer loop
      vertex 14.3896 7.82938 3
      vertex 13.6452 7.92078 3
      vertex 14.3237 7.5442 3
    endloop
  endfacet
  facet normal -0 0 1
    outer loop
      vertex 13.6146 7.78838 3
      vertex 14.3237 7.5442 3
      vertex 13.6452 7.92078 3
    endloop
  endfacet
  facet normal -0 0 1
    outer loop
      vertex 13.5572 7.66523 3
      vertex 14.2 7.27895 3
      vertex 13.6146 7.78838 3
    endloop
  endfacet
  facet normal 0 0 1
    outer loop
      vertex 14.3896 7.82938 3
      vertex 13.6475 8.05665 3
      vertex 13.6452 7.92078 3
    endloop
  endfacet
  facet normal 0 -0 1
    outer loop
      vertex 13.6475 8.05665 3
      vertex 14.3664 8.26734 3
      vertex 13.6279 8.15782 3
    endloop
  endfacet
  facet normal 0 0 1
    outer loop
      vertex 14.3237 7.5442 3
      vertex 13.6146 7.78838 3
      vertex 14.2 7.27895 3
    endloop
  endfacet
  facet normal 0 0 1
    outer loop
      vertex 14.2 7.27895 3
      vertex 13.5572 7.66523 3
      vertex 14.0239 7.0452 3
    endloop
  endfacet
  facet normal -0 0 1
    outer loop
      vertex 13.4754 7.5567 3
      vertex 14.0239 7.0452 3
      vertex 13.5572 7.66523 3
    endloop
  endfacet
  facet normal 0 0 1
    outer loop
      vertex 14.0239 7.0452 3
      vertex 13.4754 7.5567 3
      vertex 13.803 6.85319 3
    endloop
  endfacet
  facet normal -0 0 1
    outer loop
      vertex 13.3728 7.46755 3
      vertex 13.803 6.85319 3
      vertex 13.4754 7.5567 3
    endloop
  endfacet
  facet normal 0 0 1
    outer loop
      vertex 13.803 6.85319 3
      vertex 13.3728 7.46755 3
      vertex 13.547 6.71129 3
    endloop
  endfacet
  facet normal -0 0 1
    outer loop
      vertex 13.254 7.40167 3
      vertex 13.547 6.71129 3
      vertex 13.3728 7.46755 3
    endloop
  endfacet
  facet normal 0 0 1
    outer loop
      vertex 13.547 6.71129 3
      vertex 13.254 7.40167 3
      vertex 13.2671 6.62572 3
    endloop
  endfacet
  facet normal -0 0 1
    outer loop
      vertex 13.124 7.36194 3
      vertex 13.2671 6.62572 3
      vertex 13.254 7.40167 3
    endloop
  endfacet
  facet normal -0 0 1
    outer loop
      vertex 12.9887 7.3501 3
      vertex 13.2671 6.62572 3
      vertex 13.124 7.36194 3
    endloop
  endfacet
  facet normal 0 0 1
    outer loop
      vertex 12.9887 7.3501 3
      vertex 12.9756 6.60021 3
      vertex 13.2671 6.62572 3
    endloop
  endfacet
  facet normal 0 0 1
    outer loop
      vertex 12.8538 7.36666 3
      vertex 12.9756 6.60021 3
      vertex 12.9887 7.3501 3
    endloop
  endfacet
  facet normal 0 0 1
    outer loop
      vertex 12.6851 6.63588 3
      vertex 12.8538 7.36666 3
      vertex 12.7253 7.4109 3
    endloop
  endfacet
  facet normal 0 0 1
    outer loop
      vertex 12.8538 7.36666 3
      vertex 12.6851 6.63588 3
      vertex 12.9756 6.60021 3
    endloop
  endfacet
  facet normal 0 0 1
    outer loop
      vertex 12.4083 6.73117 3
      vertex 12.7253 7.4109 3
      vertex 12.6088 7.48089 3
    endloop
  endfacet
  facet normal 0 0 1
    outer loop
      vertex 12.1575 6.88191 3
      vertex 12.6088 7.48089 3
      vertex 12.5094 7.57356 3
    endloop
  endfacet
  facet normal 0 0 1
    outer loop
      vertex 11.9434 7.08152 3
      vertex 12.5094 7.57356 3
      vertex 12.4315 7.68487 3
    endloop
  endfacet
  facet normal 0 0 1
    outer loop
      vertex 12.7253 7.4109 3
      vertex 12.4083 6.73117 3
      vertex 12.6851 6.63588 3
    endloop
  endfacet
  facet normal 0 0 1
    outer loop
      vertex 11.7755 7.32127 3
      vertex 12.4315 7.68487 3
      vertex 12.3784 7.80996 3
    endloop
  endfacet
  facet normal 0 0 1
    outer loop
      vertex 11.6612 7.59068 3
      vertex 12.3784 7.80996 3
      vertex 12.3525 7.94335 3
    endloop
  endfacet
  facet normal -0 0 1
    outer loop
      vertex 11.6763 8.4558 3
      vertex 12.3854 8.21162 3
      vertex 11.8 8.72105 3
    endloop
  endfacet
  facet normal 0 0 1
    outer loop
      vertex 12.6088 7.48089 3
      vertex 12.1575 6.88191 3
      vertex 12.4083 6.73117 3
    endloop
  endfacet
  facet normal 0 0 1
    outer loop
      vertex 12.3854 8.21162 3
      vertex 11.6763 8.4558 3
      vertex 12.3548 8.07922 3
    endloop
  endfacet
  facet normal 0 0 1
    outer loop
      vertex 12.5094 7.57356 3
      vertex 11.9434 7.08152 3
      vertex 12.1575 6.88191 3
    endloop
  endfacet
  facet normal -0 0 1
    outer loop
      vertex 11.6104 8.17062 3
      vertex 12.3548 8.07922 3
      vertex 11.6763 8.4558 3
    endloop
  endfacet
  facet normal 0 0 1
    outer loop
      vertex 12.4315 7.68487 3
      vertex 11.7755 7.32127 3
      vertex 11.9434 7.08152 3
    endloop
  endfacet
  facet normal 0 0 1
    outer loop
      vertex 12.3548 8.07922 3
      vertex 11.6104 8.17062 3
      vertex 12.3525 7.94335 3
    endloop
  endfacet
  facet normal 0 0 1
    outer loop
      vertex 12.3784 7.80996 3
      vertex 11.6612 7.59068 3
      vertex 11.7755 7.32127 3
    endloop
  endfacet
  facet normal 0 0 1
    outer loop
      vertex 11.6053 7.87798 3
      vertex 12.3525 7.94335 3
      vertex 11.6104 8.17062 3
    endloop
  endfacet
  facet normal 0 0 1
    outer loop
      vertex 12.3525 7.94335 3
      vertex 11.6053 7.87798 3
      vertex 11.6612 7.59068 3
    endloop
  endfacet
  facet normal 0.0871797 -0.996193 0
    outer loop
      vertex 12.9756 6.60021 0
      vertex 13.2671 6.62572 3
      vertex 12.9756 6.60021 3
    endloop
  endfacet
  facet normal 0.0871797 -0.996193 0
    outer loop
      vertex 13.2671 6.62572 3
      vertex 12.9756 6.60021 0
      vertex 13.2671 6.62572 0
    endloop
  endfacet
  facet normal -0.0871797 0.996193 0
    outer loop
      vertex 13.0244 9.39979 0
      vertex 12.7329 9.37428 3
      vertex 13.0244 9.39979 3
    endloop
  endfacet
  facet normal -0.0871797 0.996193 0
    outer loop
      vertex 12.7329 9.37428 3
      vertex 13.0244 9.39979 0
      vertex 12.7329 9.37428 0
    endloop
  endfacet
  facet normal -0.819112 -0.573634 0
    outer loop
      vertex 11.9434 7.08152 2
      vertex 11.7755 7.32127 3
      vertex 11.7755 7.32127 2
    endloop
  endfacet
  facet normal -0.819112 -0.573634 0
    outer loop
      vertex 11.7755 7.32127 3
      vertex 11.9434 7.08152 2
      vertex 11.9434 7.08152 3
    endloop
  endfacet
  facet normal -0.515149 -0.857101 0
    outer loop
      vertex 12.1575 6.88191 0
      vertex 12.4083 6.73117 3
      vertex 12.1575 6.88191 3
    endloop
  endfacet
  facet normal -0.515149 -0.857101 -0
    outer loop
      vertex 12.4083 6.73117 3
      vertex 12.1575 6.88191 0
      vertex 12.4083 6.73117 0
    endloop
  endfacet
  facet normal -0.681996 -0.731356 0
    outer loop
      vertex 12 7.02874 2
      vertex 11.9434 7.08152 3
      vertex 11.9434 7.08152 2
    endloop
  endfacet
  facet normal -0.681923 -0.731424 7.76178e-06
    outer loop
      vertex 11.9434 7.08152 3
      vertex 12 7.02874 2
      vertex 12.1575 6.88191 3
    endloop
  endfacet
  facet normal -0.681896 -0.731449 0
    outer loop
      vertex 12.1575 6.88191 0
      vertex 12 7.02874 2
      vertex 12 7.02874 0
    endloop
  endfacet
  facet normal -0.681896 -0.731449 0
    outer loop
      vertex 12 7.02874 2
      vertex 12.1575 6.88191 0
      vertex 12.1575 6.88191 3
    endloop
  endfacet
  facet normal 0.121873 0.992546 -0
    outer loop
      vertex 13.3149 9.36412 0
      vertex 13.0244 9.39979 3
      vertex 13.3149 9.36412 3
    endloop
  endfacet
  facet normal 0.121873 0.992546 0
    outer loop
      vertex 13.0244 9.39979 3
      vertex 13.3149 9.36412 0
      vertex 13.0244 9.39979 0
    endloop
  endfacet
  facet normal 0.515042 0.857165 -0
    outer loop
      vertex 13.7186 9.19258 0
      vertex 13.5917 9.26883 3
      vertex 13.7186 9.19258 3
    endloop
  endfacet
  facet normal 0.515042 0.857165 0
    outer loop
      vertex 13.5917 9.26883 3
      vertex 13.7186 9.19258 0
      vertex 13.5917 9.26883 0
    endloop
  endfacet
  facet normal 0.999848 -0.0174249 0
    outer loop
      vertex 14.3896 7.82938 3
      vertex 14.3947 8.12202 0
      vertex 14.3947 8.12202 3
    endloop
  endfacet
  facet normal 0.999848 -0.0174249 0
    outer loop
      vertex 14.3947 8.12202 0
      vertex 14.3896 7.82938 3
      vertex 14.3896 7.82938 0
    endloop
  endfacet
  facet normal 0.484801 -0.874624 0
    outer loop
      vertex 13.547 6.71129 0
      vertex 13.803 6.85319 3
      vertex 13.547 6.71129 3
    endloop
  endfacet
  facet normal 0.484801 -0.874624 0
    outer loop
      vertex 13.803 6.85319 3
      vertex 13.547 6.71129 0
      vertex 13.803 6.85319 0
    endloop
  endfacet
  facet normal -0.920576 -0.390564 0
    outer loop
      vertex 11.7755 7.32127 2
      vertex 11.6612 7.59068 3
      vertex 11.6612 7.59068 2
    endloop
  endfacet
  facet normal -0.920576 -0.390564 0
    outer loop
      vertex 11.6612 7.59068 3
      vertex 11.7755 7.32127 2
      vertex 11.7755 7.32127 3
    endloop
  endfacet
  facet normal 0.906292 -0.422652 0
    outer loop
      vertex 14.2 7.27895 3
      vertex 14.3237 7.5442 0
      vertex 14.3237 7.5442 3
    endloop
  endfacet
  facet normal 0.906292 -0.422652 0
    outer loop
      vertex 14.3237 7.5442 0
      vertex 14.2 7.27895 3
      vertex 14.2 7.27895 0
    endloop
  endfacet
  facet normal -0.981592 -0.190989 0
    outer loop
      vertex 11.6612 7.59068 2
      vertex 11.6053 7.87798 3
      vertex 11.6053 7.87798 2
    endloop
  endfacet
  facet normal -0.981592 -0.190989 0
    outer loop
      vertex 11.6053 7.87798 3
      vertex 11.6612 7.59068 2
      vertex 11.6612 7.59068 3
    endloop
  endfacet
  facet normal 0.656029 -0.754736 0
    outer loop
      vertex 13.803 6.85319 0
      vertex 14.0239 7.0452 3
      vertex 13.803 6.85319 3
    endloop
  endfacet
  facet normal 0.656029 -0.754736 0
    outer loop
      vertex 14.0239 7.0452 3
      vertex 13.803 6.85319 0
      vertex 14.0239 7.0452 0
    endloop
  endfacet
  facet normal 0.974324 -0.225149 0
    outer loop
      vertex 14.3237 7.5442 3
      vertex 14.3896 7.82938 0
      vertex 14.3896 7.82938 3
    endloop
  endfacet
  facet normal 0.974324 -0.225149 0
    outer loop
      vertex 14.3896 7.82938 0
      vertex 14.3237 7.5442 3
      vertex 14.3237 7.5442 0
    endloop
  endfacet
  facet normal 0 0 -1
    outer loop
      vertex 13.2747 18.9109 0
      vertex 13.7186 18.3074 0
      vertex 13.5917 18.2312 0
    endloop
  endfacet
  facet normal 0 0 -1
    outer loop
      vertex 13.2747 18.9109 0
      vertex 13.5917 18.2312 0
      vertex 13.3149 18.1359 0
    endloop
  endfacet
  facet normal 0 0 -1
    outer loop
      vertex 13.7186 18.3074 0
      vertex 13.2747 18.9109 0
      vertex 13.363 18.964 0
    endloop
  endfacet
  facet normal 0 0 -1
    outer loop
      vertex 13.3149 18.1359 0
      vertex 13.1462 18.8667 0
      vertex 13.2747 18.9109 0
    endloop
  endfacet
  facet normal 0 0 -1
    outer loop
      vertex 13.0244 18.1002 0
      vertex 13.1462 18.8667 0
      vertex 13.3149 18.1359 0
    endloop
  endfacet
  facet normal 0 0 -1
    outer loop
      vertex 13.0244 18.1002 0
      vertex 13.0113 18.8501 0
      vertex 13.1462 18.8667 0
    endloop
  endfacet
  facet normal 0 0 -1
    outer loop
      vertex 13.0244 18.1002 0
      vertex 12.876 18.8619 0
      vertex 13.0113 18.8501 0
    endloop
  endfacet
  facet normal 0 0 -1
    outer loop
      vertex 12.7329 18.1257 0
      vertex 12.876 18.8619 0
      vertex 13.0244 18.1002 0
    endloop
  endfacet
  facet normal -0 0 -1
    outer loop
      vertex 12.876 18.8619 0
      vertex 12.7329 18.1257 0
      vertex 12.746 18.9017 0
    endloop
  endfacet
  facet normal 0 0 -1
    outer loop
      vertex 12.453 18.2113 0
      vertex 12.746 18.9017 0
      vertex 12.7329 18.1257 0
    endloop
  endfacet
  facet normal -0 0 -1
    outer loop
      vertex 12.746 18.9017 0
      vertex 12.453 18.2113 0
      vertex 12.6272 18.9676 0
    endloop
  endfacet
  facet normal 0 0 -1
    outer loop
      vertex 12.197 18.3532 0
      vertex 12.6272 18.9676 0
      vertex 12.453 18.2113 0
    endloop
  endfacet
  facet normal 0 0 -1
    outer loop
      vertex 12 18.5244 0
      vertex 12.6272 18.9676 0
      vertex 12.197 18.3532 0
    endloop
  endfacet
  facet normal -0 0 -1
    outer loop
      vertex 12.6272 18.9676 0
      vertex 12 18.5244 0
      vertex 12.5246 19.0567 0
    endloop
  endfacet
  facet normal -0 0 -1
    outer loop
      vertex 12.5246 19.0567 0
      vertex 12 18.5244 0
      vertex 12.4428 19.1652 0
    endloop
  endfacet
  facet normal -0 0 -1
    outer loop
      vertex 12.3854 19.2884 0
      vertex 12 18.5244 0
      vertex 12.3548 19.4208 0
    endloop
  endfacet
  facet normal -0 0 -1
    outer loop
      vertex 12.4428 19.1652 0
      vertex 12 18.5244 0
      vertex 12.3854 19.2884 0
    endloop
  endfacet
  facet normal 0 0 -1
    outer loop
      vertex 13.6475 19.4433 0
      vertex 14.3947 19.378 0
      vertex 14.3664 19.2327 0
    endloop
  endfacet
  facet normal 0 0 -1
    outer loop
      vertex 14.3947 19.378 0
      vertex 13.6475 19.4433 0
      vertex 14.3896 19.6706 0
    endloop
  endfacet
  facet normal -0 0 -1
    outer loop
      vertex 14.3896 19.6706 0
      vertex 13.6452 19.5792 0
      vertex 14.3237 19.9558 0
    endloop
  endfacet
  facet normal 0 0 -1
    outer loop
      vertex 13.6146 19.7116 0
      vertex 14.3237 19.9558 0
      vertex 13.6452 19.5792 0
    endloop
  endfacet
  facet normal 0 0 -1
    outer loop
      vertex 13.5572 19.8348 0
      vertex 14.2 20.2211 0
      vertex 13.6146 19.7116 0
    endloop
  endfacet
  facet normal 0 0 -1
    outer loop
      vertex 14.3896 19.6706 0
      vertex 13.6475 19.4433 0
      vertex 13.6452 19.5792 0
    endloop
  endfacet
  facet normal 0 -0 -1
    outer loop
      vertex 13.6475 19.4433 0
      vertex 14.3664 19.2327 0
      vertex 13.6279 19.3422 0
    endloop
  endfacet
  facet normal -0 0 -1
    outer loop
      vertex 14.3237 19.9558 0
      vertex 13.6146 19.7116 0
      vertex 14.2 20.2211 0
    endloop
  endfacet
  facet normal -0 0 -1
    outer loop
      vertex 14.2 20.2211 0
      vertex 13.5572 19.8348 0
      vertex 14.0239 20.4548 0
    endloop
  endfacet
  facet normal 0 0 -1
    outer loop
      vertex 13.4754 19.9433 0
      vertex 14.0239 20.4548 0
      vertex 13.5572 19.8348 0
    endloop
  endfacet
  facet normal -0 0 -1
    outer loop
      vertex 14.0239 20.4548 0
      vertex 13.4754 19.9433 0
      vertex 13.803 20.6468 0
    endloop
  endfacet
  facet normal 0 0 -1
    outer loop
      vertex 13.3728 20.0324 0
      vertex 13.803 20.6468 0
      vertex 13.4754 19.9433 0
    endloop
  endfacet
  facet normal -0 0 -1
    outer loop
      vertex 13.803 20.6468 0
      vertex 13.3728 20.0324 0
      vertex 13.547 20.7887 0
    endloop
  endfacet
  facet normal 0 0 -1
    outer loop
      vertex 13.254 20.0983 0
      vertex 13.547 20.7887 0
      vertex 13.3728 20.0324 0
    endloop
  endfacet
  facet normal -0 0 -1
    outer loop
      vertex 13.547 20.7887 0
      vertex 13.254 20.0983 0
      vertex 13.2671 20.8743 0
    endloop
  endfacet
  facet normal 0 0 -1
    outer loop
      vertex 13.124 20.1381 0
      vertex 13.2671 20.8743 0
      vertex 13.254 20.0983 0
    endloop
  endfacet
  facet normal 0 0 -1
    outer loop
      vertex 12.9887 20.1499 0
      vertex 13.2671 20.8743 0
      vertex 13.124 20.1381 0
    endloop
  endfacet
  facet normal 0 0 -1
    outer loop
      vertex 12.9887 20.1499 0
      vertex 12.9756 20.8998 0
      vertex 13.2671 20.8743 0
    endloop
  endfacet
  facet normal 0 0 -1
    outer loop
      vertex 12.8538 20.1333 0
      vertex 12.9756 20.8998 0
      vertex 12.9887 20.1499 0
    endloop
  endfacet
  facet normal 0 0 -1
    outer loop
      vertex 12.6851 20.8641 0
      vertex 12.8538 20.1333 0
      vertex 12.7253 20.0891 0
    endloop
  endfacet
  facet normal 0 0 -1
    outer loop
      vertex 12.8538 20.1333 0
      vertex 12.6851 20.8641 0
      vertex 12.9756 20.8998 0
    endloop
  endfacet
  facet normal 0 0 -1
    outer loop
      vertex 12.4083 20.7688 0
      vertex 12.7253 20.0891 0
      vertex 12.6088 20.0191 0
    endloop
  endfacet
  facet normal 0 0 -1
    outer loop
      vertex 12 20.4713 0
      vertex 12.6088 20.0191 0
      vertex 12.5094 19.9264 0
    endloop
  endfacet
  facet normal 0 0 -1
    outer loop
      vertex 12 20.4713 0
      vertex 12.5094 19.9264 0
      vertex 12.4315 19.8151 0
    endloop
  endfacet
  facet normal 0 0 -1
    outer loop
      vertex 12.7253 20.0891 0
      vertex 12.4083 20.7688 0
      vertex 12.6851 20.8641 0
    endloop
  endfacet
  facet normal 0 0 -1
    outer loop
      vertex 12 20.4713 0
      vertex 12.4315 19.8151 0
      vertex 12.3784 19.69 0
    endloop
  endfacet
  facet normal 0 0 -1
    outer loop
      vertex 12 20.4713 0
      vertex 12.3784 19.69 0
      vertex 12.3525 19.5567 0
    endloop
  endfacet
  facet normal -0 0 -1
    outer loop
      vertex 12.3548 19.4208 0
      vertex 12 18.5244 0
      vertex 12.3525 19.5567 0
    endloop
  endfacet
  facet normal 0 0 -1
    outer loop
      vertex 12.6088 20.0191 0
      vertex 12 20.4713 0
      vertex 12.1575 20.6181 0
    endloop
  endfacet
  facet normal 0 0 -1
    outer loop
      vertex 10 20.5 0
      vertex 12.3525 19.5567 0
      vertex 12 18.5244 0
    endloop
  endfacet
  facet normal 0 0 -1
    outer loop
      vertex 12.6088 20.0191 0
      vertex 12.1575 20.6181 0
      vertex 12.4083 20.7688 0
    endloop
  endfacet
  facet normal 0 0 -1
    outer loop
      vertex 10 7 0
      vertex 12 7.02874 0
      vertex 12 7 0
    endloop
  endfacet
  facet normal -0 0 -1
    outer loop
      vertex 12 7.02874 0
      vertex 10 7 0
      vertex 12 8.97557 0
    endloop
  endfacet
  facet normal -0 0 -1
    outer loop
      vertex 12 8.97557 0
      vertex 10 7 0
      vertex 12 18.5244 0
    endloop
  endfacet
  facet normal 0 0 -1
    outer loop
      vertex 10 20.5 0
      vertex 12 18.5244 0
      vertex 10 7 0
    endloop
  endfacet
  facet normal 0 0 -1
    outer loop
      vertex 12.3525 19.5567 0
      vertex 10 20.5 0
      vertex 12 20.4713 0
    endloop
  endfacet
  facet normal 0 0 -1
    outer loop
      vertex 12 20.4713 0
      vertex 10 20.5 0
      vertex 12 20.5 0
    endloop
  endfacet
  facet normal 0 0 -1
    outer loop
      vertex 14.3896 7.82938 0
      vertex 13.6452 7.92078 0
      vertex 13.6475 8.05665 0
    endloop
  endfacet
  facet normal 0 0 -1
    outer loop
      vertex 14.0239 7.0452 0
      vertex 13.6146 7.78838 0
      vertex 13.6452 7.92078 0
    endloop
  endfacet
  facet normal 0 0 -1
    outer loop
      vertex 14.0239 7.0452 0
      vertex 13.5572 7.66523 0
      vertex 13.6146 7.78838 0
    endloop
  endfacet
  facet normal 0 0 -1
    outer loop
      vertex 13.3728 7.46755 0
      vertex 13.803 6.85319 0
      vertex 13.547 6.71129 0
    endloop
  endfacet
  facet normal 0 0 -1
    outer loop
      vertex 14.0239 7.0452 0
      vertex 13.4754 7.5567 0
      vertex 13.5572 7.66523 0
    endloop
  endfacet
  facet normal 0 0 -1
    outer loop
      vertex 13.803 6.85319 0
      vertex 13.3728 7.46755 0
      vertex 13.4754 7.5567 0
    endloop
  endfacet
  facet normal 0 0 -1
    outer loop
      vertex 13.254 7.40167 0
      vertex 13.547 6.71129 0
      vertex 13.2671 6.62572 0
    endloop
  endfacet
  facet normal 0 0 -1
    outer loop
      vertex 13.547 6.71129 0
      vertex 13.254 7.40167 0
      vertex 13.3728 7.46755 0
    endloop
  endfacet
  facet normal 0 0 -1
    outer loop
      vertex 13.2671 6.62572 0
      vertex 13.124 7.36194 0
      vertex 13.254 7.40167 0
    endloop
  endfacet
  facet normal 0 0 -1
    outer loop
      vertex 13.2671 6.62572 0
      vertex 12.9887 7.3501 0
      vertex 13.124 7.36194 0
    endloop
  endfacet
  facet normal 0 0 -1
    outer loop
      vertex 12.9756 6.60021 0
      vertex 12.9887 7.3501 0
      vertex 13.2671 6.62572 0
    endloop
  endfacet
  facet normal 0 0 -1
    outer loop
      vertex 12.9756 6.60021 0
      vertex 12.8538 7.36666 0
      vertex 12.9887 7.3501 0
    endloop
  endfacet
  facet normal 0 0 -1
    outer loop
      vertex 12.6851 6.63588 0
      vertex 12.8538 7.36666 0
      vertex 12.9756 6.60021 0
    endloop
  endfacet
  facet normal -0 0 -1
    outer loop
      vertex 12.8538 7.36666 0
      vertex 12.6851 6.63588 0
      vertex 12.7253 7.4109 0
    endloop
  endfacet
  facet normal 0 0 -1
    outer loop
      vertex 12.4083 6.73117 0
      vertex 12.7253 7.4109 0
      vertex 12.6851 6.63588 0
    endloop
  endfacet
  facet normal -0 0 -1
    outer loop
      vertex 12.7253 7.4109 0
      vertex 12.4083 6.73117 0
      vertex 12.6088 7.48089 0
    endloop
  endfacet
  facet normal 0 0 -1
    outer loop
      vertex 12.1575 6.88191 0
      vertex 12.6088 7.48089 0
      vertex 12.4083 6.73117 0
    endloop
  endfacet
  facet normal 0 0 -1
    outer loop
      vertex 12 7.02874 0
      vertex 12.6088 7.48089 0
      vertex 12.1575 6.88191 0
    endloop
  endfacet
  facet normal -0 0 -1
    outer loop
      vertex 12.6088 7.48089 0
      vertex 12 7.02874 0
      vertex 12.5094 7.57356 0
    endloop
  endfacet
  facet normal -0 0 -1
    outer loop
      vertex 12.5094 7.57356 0
      vertex 12 7.02874 0
      vertex 12.4315 7.68487 0
    endloop
  endfacet
  facet normal -0 0 -1
    outer loop
      vertex 12.4315 7.68487 0
      vertex 12 7.02874 0
      vertex 12.3784 7.80996 0
    endloop
  endfacet
  facet normal -0 0 -1
    outer loop
      vertex 12.3784 7.80996 0
      vertex 12 7.02874 0
      vertex 12.3525 7.94335 0
    endloop
  endfacet
  facet normal 0 0 -1
    outer loop
      vertex 12 8.97557 0
      vertex 12.3525 7.94335 0
      vertex 12 7.02874 0
    endloop
  endfacet
  facet normal 0 0 -1
    outer loop
      vertex 12.3525 7.94335 0
      vertex 12 8.97557 0
      vertex 12.197 9.14681 0
    endloop
  endfacet
  facet normal 0 0 -1
    outer loop
      vertex 13.6475 8.05665 0
      vertex 14.3947 8.12202 0
      vertex 14.3896 7.82938 0
    endloop
  endfacet
  facet normal 0 0 -1
    outer loop
      vertex 13.6452 7.92078 0
      vertex 14.3896 7.82938 0
      vertex 14.3237 7.5442 0
    endloop
  endfacet
  facet normal 0 0 -1
    outer loop
      vertex 13.6452 7.92078 0
      vertex 14.3237 7.5442 0
      vertex 14.2 7.27895 0
    endloop
  endfacet
  facet normal 0 0 -1
    outer loop
      vertex 13.6452 7.92078 0
      vertex 14.2 7.27895 0
      vertex 14.0239 7.0452 0
    endloop
  endfacet
  facet normal 0 0 -1
    outer loop
      vertex 13.4754 7.5567 0
      vertex 14.0239 7.0452 0
      vertex 13.803 6.85319 0
    endloop
  endfacet
  facet normal -0 0 -1
    outer loop
      vertex 14.3947 8.12202 0
      vertex 13.6475 8.05665 0
      vertex 14.3664 8.26734 0
    endloop
  endfacet
  facet normal 0 0 -1
    outer loop
      vertex 14.3664 8.26734 0
      vertex 13.6475 8.05665 0
      vertex 13.6279 8.15782 0
    endloop
  endfacet
  facet normal 0 0 -1
    outer loop
      vertex 13.2747 8.5891 0
      vertex 13.7186 9.19258 0
      vertex 13.363 8.53602 0
    endloop
  endfacet
  facet normal -0 0 -1
    outer loop
      vertex 13.7186 9.19258 0
      vertex 13.2747 8.5891 0
      vertex 13.5917 9.26883 0
    endloop
  endfacet
  facet normal -0 0 -1
    outer loop
      vertex 13.5917 9.26883 0
      vertex 13.2747 8.5891 0
      vertex 13.3149 9.36412 0
    endloop
  endfacet
  facet normal 0 0 -1
    outer loop
      vertex 13.1462 8.63334 0
      vertex 13.3149 9.36412 0
      vertex 13.2747 8.5891 0
    endloop
  endfacet
  facet normal 0 0 -1
    outer loop
      vertex 13.1462 8.63334 0
      vertex 13.0244 9.39979 0
      vertex 13.3149 9.36412 0
    endloop
  endfacet
  facet normal 0 0 -1
    outer loop
      vertex 13.0113 8.6499 0
      vertex 13.0244 9.39979 0
      vertex 13.1462 8.63334 0
    endloop
  endfacet
  facet normal 0 0 -1
    outer loop
      vertex 12.876 8.63806 0
      vertex 13.0244 9.39979 0
      vertex 13.0113 8.6499 0
    endloop
  endfacet
  facet normal 0 0 -1
    outer loop
      vertex 12.7329 9.37428 0
      vertex 12.876 8.63806 0
      vertex 12.746 8.59833 0
    endloop
  endfacet
  facet normal 0 0 -1
    outer loop
      vertex 12.876 8.63806 0
      vertex 12.7329 9.37428 0
      vertex 13.0244 9.39979 0
    endloop
  endfacet
  facet normal 0 0 -1
    outer loop
      vertex 12.453 9.28871 0
      vertex 12.746 8.59833 0
      vertex 12.6272 8.53245 0
    endloop
  endfacet
  facet normal 0 0 -1
    outer loop
      vertex 12.197 9.14681 0
      vertex 12.6272 8.53245 0
      vertex 12.5246 8.4433 0
    endloop
  endfacet
  facet normal 0 0 -1
    outer loop
      vertex 12.746 8.59833 0
      vertex 12.453 9.28871 0
      vertex 12.7329 9.37428 0
    endloop
  endfacet
  facet normal 0 0 -1
    outer loop
      vertex 12.197 9.14681 0
      vertex 12.5246 8.4433 0
      vertex 12.4428 8.33477 0
    endloop
  endfacet
  facet normal 0 0 -1
    outer loop
      vertex 12.197 9.14681 0
      vertex 12.4428 8.33477 0
      vertex 12.3854 8.21162 0
    endloop
  endfacet
  facet normal 0 0 -1
    outer loop
      vertex 12.197 9.14681 0
      vertex 12.3854 8.21162 0
      vertex 12.3548 8.07922 0
    endloop
  endfacet
  facet normal 0 0 -1
    outer loop
      vertex 12.6272 8.53245 0
      vertex 12.197 9.14681 0
      vertex 12.453 9.28871 0
    endloop
  endfacet
  facet normal 0 0 -1
    outer loop
      vertex 12.197 9.14681 0
      vertex 12.3548 8.07922 0
      vertex 12.3525 7.94335 0
    endloop
  endfacet
  facet normal 0.981561 0.191152 0
    outer loop
      vertex 14.3947 8.12202 3
      vertex 14.3664 8.26734 0
      vertex 14.3664 8.26734 3
    endloop
  endfacet
  facet normal 0.981561 0.191152 0
    outer loop
      vertex 14.3664 8.26734 0
      vertex 14.3947 8.12202 3
      vertex 14.3947 8.12202 0
    endloop
  endfacet
  facet normal -0.121873 -0.992546 0
    outer loop
      vertex 12.6851 6.63588 0
      vertex 12.9756 6.60021 3
      vertex 12.6851 6.63588 3
    endloop
  endfacet
  facet normal -0.121873 -0.992546 -0
    outer loop
      vertex 12.9756 6.60021 3
      vertex 12.6851 6.63588 0
      vertex 12.9756 6.60021 0
    endloop
  endfacet
  facet normal 0.798576 -0.601894 0
    outer loop
      vertex 12.4428 8.33477 3
      vertex 12.5246 8.4433 0
      vertex 12.5246 8.4433 3
    endloop
  endfacet
  facet normal 0.798576 -0.601894 0
    outer loop
      vertex 12.5246 8.4433 0
      vertex 12.4428 8.33477 3
      vertex 12.4428 8.33477 0
    endloop
  endfacet
  facet normal 0.655896 -0.754851 0
    outer loop
      vertex 12.5246 8.4433 0
      vertex 12.6272 8.53245 3
      vertex 12.5246 8.4433 3
    endloop
  endfacet
  facet normal 0.655896 -0.754851 0
    outer loop
      vertex 12.6272 8.53245 3
      vertex 12.5246 8.4433 0
      vertex 12.6272 8.53245 0
    endloop
  endfacet
  facet normal 0.292271 -0.956336 0
    outer loop
      vertex 12.746 8.59833 0
      vertex 12.876 8.63806 3
      vertex 12.746 8.59833 3
    endloop
  endfacet
  facet normal 0.292271 -0.956336 0
    outer loop
      vertex 12.876 8.63806 3
      vertex 12.746 8.59833 0
      vertex 12.876 8.63806 0
    endloop
  endfacet
  facet normal -0.999857 0.0169255 0
    outer loop
      vertex 13.6452 7.92078 0
      vertex 13.6475 8.05665 3
      vertex 13.6475 8.05665 0
    endloop
  endfacet
  facet normal -0.999857 0.0169255 0
    outer loop
      vertex 13.6475 8.05665 3
      vertex 13.6452 7.92078 0
      vertex 13.6452 7.92078 3
    endloop
  endfacet
  facet normal -0.90638 0.422462 0
    outer loop
      vertex 13.5572 7.66523 0
      vertex 13.6146 7.78838 3
      vertex 13.6146 7.78838 0
    endloop
  endfacet
  facet normal -0.90638 0.422462 0
    outer loop
      vertex 13.6146 7.78838 3
      vertex 13.5572 7.66523 0
      vertex 13.5572 7.66523 3
    endloop
  endfacet
  facet normal 0.920498 0.390746 0
    outer loop
      vertex 12.4315 7.68487 3
      vertex 12.3784 7.80996 0
      vertex 12.3784 7.80996 3
    endloop
  endfacet
  facet normal 0.920498 0.390746 0
    outer loop
      vertex 12.3784 7.80996 0
      vertex 12.4315 7.68487 3
      vertex 12.4315 7.68487 0
    endloop
  endfacet
  facet normal 0.999857 -0.0169255 0
    outer loop
      vertex 12.3525 7.94335 3
      vertex 12.3548 8.07922 0
      vertex 12.3548 8.07922 3
    endloop
  endfacet
  facet normal 0.999857 -0.0169255 0
    outer loop
      vertex 12.3548 8.07922 0
      vertex 12.3525 7.94335 3
      vertex 12.3525 7.94335 0
    endloop
  endfacet
  facet normal 0.981666 0.190608 0
    outer loop
      vertex 12.3784 7.80996 3
      vertex 12.3525 7.94335 0
      vertex 12.3525 7.94335 3
    endloop
  endfacet
  facet normal 0.981666 0.190608 0
    outer loop
      vertex 12.3525 7.94335 0
      vertex 12.3784 7.80996 3
      vertex 12.3784 7.80996 0
    endloop
  endfacet
  facet normal -0.292271 0.956336 0
    outer loop
      vertex 13.254 7.40167 0
      vertex 13.124 7.36194 3
      vertex 13.254 7.40167 3
    endloop
  endfacet
  facet normal -0.292271 0.956336 0
    outer loop
      vertex 13.124 7.36194 3
      vertex 13.254 7.40167 0
      vertex 13.124 7.36194 0
    endloop
  endfacet
  facet normal -0.981746 -0.190197 0
    outer loop
      vertex 13.6475 8.05665 0
      vertex 13.6279 8.15782 3
      vertex 13.6279 8.15782 0
    endloop
  endfacet
  facet normal -0.981746 -0.190197 0
    outer loop
      vertex 13.6279 8.15782 3
      vertex 13.6475 8.05665 0
      vertex 13.6475 8.05665 3
    endloop
  endfacet
  facet normal -0.0871761 0.996193 0
    outer loop
      vertex 13.124 7.36194 0
      vertex 12.9887 7.3501 3
      vertex 13.124 7.36194 3
    endloop
  endfacet
  facet normal -0.0871761 0.996193 0
    outer loop
      vertex 12.9887 7.3501 3
      vertex 13.124 7.36194 0
      vertex 12.9887 7.3501 0
    endloop
  endfacet
  facet normal -0.325528 -0.945532 0
    outer loop
      vertex 13.1462 8.63334 0
      vertex 13.2747 8.5891 3
      vertex 13.1462 8.63334 3
    endloop
  endfacet
  facet normal -0.325528 -0.945532 -0
    outer loop
      vertex 13.2747 8.5891 3
      vertex 13.1462 8.63334 0
      vertex 13.2747 8.5891 0
    endloop
  endfacet
  facet normal 0.681912 0.731434 -0
    outer loop
      vertex 12.6088 7.48089 0
      vertex 12.5094 7.57356 3
      vertex 12.6088 7.48089 3
    endloop
  endfacet
  facet normal 0.681912 0.731434 0
    outer loop
      vertex 12.5094 7.57356 3
      vertex 12.6088 7.48089 0
      vertex 12.5094 7.57356 0
    endloop
  endfacet
  facet normal 0.484968 -0.874532 0
    outer loop
      vertex 12.6272 8.53245 0
      vertex 12.746 8.59833 3
      vertex 12.6272 8.53245 3
    endloop
  endfacet
  facet normal 0.484968 -0.874532 0
    outer loop
      vertex 12.746 8.59833 3
      vertex 12.6272 8.53245 0
      vertex 12.746 8.59833 0
    endloop
  endfacet
  facet normal 0.121843 0.992549 -0
    outer loop
      vertex 12.9887 7.3501 0
      vertex 12.8538 7.36666 3
      vertex 12.9887 7.3501 3
    endloop
  endfacet
  facet normal 0.121843 0.992549 0
    outer loop
      vertex 12.8538 7.36666 3
      vertex 12.9887 7.3501 0
      vertex 12.8538 7.36666 0
    endloop
  endfacet
  facet normal 0.819291 0.573378 0
    outer loop
      vertex 12.5094 7.57356 3
      vertex 12.4315 7.68487 0
      vertex 12.4315 7.68487 3
    endloop
  endfacet
  facet normal 0.819291 0.573378 0
    outer loop
      vertex 12.4315 7.68487 0
      vertex 12.5094 7.57356 3
      vertex 12.5094 7.57356 0
    endloop
  endfacet
  facet normal 0.0871761 -0.996193 0
    outer loop
      vertex 12.876 8.63806 0
      vertex 13.0113 8.6499 3
      vertex 12.876 8.63806 3
    endloop
  endfacet
  facet normal 0.0871761 -0.996193 0
    outer loop
      vertex 13.0113 8.6499 3
      vertex 12.876 8.63806 0
      vertex 13.0113 8.6499 0
    endloop
  endfacet
  facet normal 0.325528 0.945532 -0
    outer loop
      vertex 12.8538 7.36666 0
      vertex 12.7253 7.4109 3
      vertex 12.8538 7.36666 3
    endloop
  endfacet
  facet normal 0.325528 0.945532 0
    outer loop
      vertex 12.7253 7.4109 3
      vertex 12.8538 7.36666 0
      vertex 12.7253 7.4109 0
    endloop
  endfacet
  facet normal -0.515209 -0.857064 0
    outer loop
      vertex 13.2747 8.5891 0
      vertex 13.363 8.53602 3
      vertex 13.2747 8.5891 3
    endloop
  endfacet
  facet normal -0.515209 -0.857064 -0
    outer loop
      vertex 13.363 8.53602 3
      vertex 13.2747 8.5891 0
      vertex 13.363 8.53602 0
    endloop
  endfacet
  facet normal 0.514983 0.857201 -0
    outer loop
      vertex 12.7253 7.4109 0
      vertex 12.6088 7.48089 3
      vertex 12.7253 7.4109 3
    endloop
  endfacet
  facet normal 0.514983 0.857201 0
    outer loop
      vertex 12.6088 7.48089 3
      vertex 12.7253 7.4109 0
      vertex 12.6088 7.48089 0
    endloop
  endfacet
  facet normal -0.121843 -0.992549 0
    outer loop
      vertex 13.0113 8.6499 0
      vertex 13.1462 8.63334 3
      vertex 13.0113 8.6499 3
    endloop
  endfacet
  facet normal -0.121843 -0.992549 -0
    outer loop
      vertex 13.1462 8.63334 3
      vertex 13.0113 8.6499 0
      vertex 13.1462 8.63334 0
    endloop
  endfacet
  facet normal 0.974317 -0.225182 0
    outer loop
      vertex 12.3548 8.07922 3
      vertex 12.3854 8.21162 0
      vertex 12.3854 8.21162 3
    endloop
  endfacet
  facet normal 0.974317 -0.225182 0
    outer loop
      vertex 12.3854 8.21162 0
      vertex 12.3548 8.07922 3
      vertex 12.3548 8.07922 0
    endloop
  endfacet
  facet normal -0.484968 0.874532 0
    outer loop
      vertex 13.3728 7.46755 0
      vertex 13.254 7.40167 3
      vertex 13.3728 7.46755 3
    endloop
  endfacet
  facet normal -0.484968 0.874532 0
    outer loop
      vertex 13.254 7.40167 3
      vertex 13.3728 7.46755 0
      vertex 13.254 7.40167 0
    endloop
  endfacet
  facet normal 0.90638 -0.422462 0
    outer loop
      vertex 12.3854 8.21162 3
      vertex 12.4428 8.33477 0
      vertex 12.4428 8.33477 3
    endloop
  endfacet
  facet normal 0.90638 -0.422462 0
    outer loop
      vertex 12.4428 8.33477 0
      vertex 12.3854 8.21162 3
      vertex 12.3854 8.21162 0
    endloop
  endfacet
  facet normal -0.798576 0.601894 0
    outer loop
      vertex 13.4754 7.5567 0
      vertex 13.5572 7.66523 3
      vertex 13.5572 7.66523 0
    endloop
  endfacet
  facet normal -0.798576 0.601894 0
    outer loop
      vertex 13.5572 7.66523 3
      vertex 13.4754 7.5567 0
      vertex 13.4754 7.5567 3
    endloop
  endfacet
  facet normal -0.974317 0.225182 0
    outer loop
      vertex 13.6146 7.78838 0
      vertex 13.6452 7.92078 3
      vertex 13.6452 7.92078 0
    endloop
  endfacet
  facet normal -0.974317 0.225182 0
    outer loop
      vertex 13.6452 7.92078 3
      vertex 13.6146 7.78838 0
      vertex 13.6146 7.78838 3
    endloop
  endfacet
  facet normal -0.655896 0.754851 0
    outer loop
      vertex 13.4754 7.5567 0
      vertex 13.3728 7.46755 3
      vertex 13.4754 7.5567 3
    endloop
  endfacet
  facet normal -0.655896 0.754851 0
    outer loop
      vertex 13.3728 7.46755 3
      vertex 13.4754 7.5567 0
      vertex 13.3728 7.46755 0
    endloop
  endfacet
  facet normal 0.879313 -0.476245 0
    outer loop
      vertex 13.363 8.53602 3
      vertex 13.7186 9.19258 0
      vertex 13.7186 9.19258 3
    endloop
  endfacet
  facet normal 0.879313 -0.476245 0
    outer loop
      vertex 13.7186 9.19258 0
      vertex 13.363 8.53602 3
      vertex 13.363 8.53602 0
    endloop
  endfacet
  facet normal -0.146696 0.989182 0
    outer loop
      vertex 14.3664 8.26734 0
      vertex 13.6279 8.15782 3
      vertex 14.3664 8.26734 3
    endloop
  endfacet
  facet normal -0.146696 0.989182 0
    outer loop
      vertex 13.6279 8.15782 3
      vertex 14.3664 8.26734 0
      vertex 13.6279 8.15782 0
    endloop
  endfacet
  facet normal 0.292453 0.95628 -0
    outer loop
      vertex 13.547 20.7887 0
      vertex 13.2671 20.8743 3
      vertex 13.547 20.7887 3
    endloop
  endfacet
  facet normal 0.292453 0.95628 0
    outer loop
      vertex 13.2671 20.8743 3
      vertex 13.547 20.7887 0
      vertex 13.2671 20.8743 0
    endloop
  endfacet
  facet normal 0.484801 0.874624 -0
    outer loop
      vertex 13.803 20.6468 0
      vertex 13.547 20.7887 3
      vertex 13.803 20.6468 3
    endloop
  endfacet
  facet normal 0.484801 0.874624 0
    outer loop
      vertex 13.547 20.7887 3
      vertex 13.803 20.6468 0
      vertex 13.547 20.7887 0
    endloop
  endfacet
  facet normal 0.0871458 0.996196 -0
    outer loop
      vertex 13.2671 20.8743 0
      vertex 12.9756 20.8998 3
      vertex 13.2671 20.8743 3
    endloop
  endfacet
  facet normal 0.0871458 0.996196 0
    outer loop
      vertex 12.9756 20.8998 3
      vertex 13.2671 20.8743 0
      vertex 12.9756 20.8998 0
    endloop
  endfacet
  facet normal -0.325538 0.945529 0
    outer loop
      vertex 12.6851 20.8641 0
      vertex 12.4083 20.7688 3
      vertex 12.6851 20.8641 3
    endloop
  endfacet
  facet normal -0.325538 0.945529 0
    outer loop
      vertex 12.4083 20.7688 3
      vertex 12.6851 20.8641 0
      vertex 12.4083 20.7688 0
    endloop
  endfacet
  facet normal 0.798645 0.601803 0
    outer loop
      vertex 14.2 20.2211 3
      vertex 14.0239 20.4548 0
      vertex 14.0239 20.4548 3
    endloop
  endfacet
  facet normal 0.798645 0.601803 0
    outer loop
      vertex 14.0239 20.4548 0
      vertex 14.2 20.2211 3
      vertex 14.2 20.2211 0
    endloop
  endfacet
  facet normal 0.65601 0.754753 -0
    outer loop
      vertex 14.0239 20.4548 0
      vertex 13.803 20.6468 3
      vertex 14.0239 20.4548 3
    endloop
  endfacet
  facet normal 0.65601 0.754753 0
    outer loop
      vertex 13.803 20.6468 3
      vertex 14.0239 20.4548 0
      vertex 13.803 20.6468 0
    endloop
  endfacet
  facet normal -0.121974 0.992533 0
    outer loop
      vertex 12.9756 20.8998 0
      vertex 12.6851 20.8641 3
      vertex 12.9756 20.8998 3
    endloop
  endfacet
  facet normal -0.121974 0.992533 0
    outer loop
      vertex 12.6851 20.8641 3
      vertex 12.9756 20.8998 0
      vertex 12.6851 20.8641 0
    endloop
  endfacet
  facet normal -0.292453 -0.95628 0
    outer loop
      vertex 12.453 18.2113 0
      vertex 12.7329 18.1257 3
      vertex 12.453 18.2113 3
    endloop
  endfacet
  facet normal -0.292453 -0.95628 -0
    outer loop
      vertex 12.7329 18.1257 3
      vertex 12.453 18.2113 0
      vertex 12.7329 18.1257 0
    endloop
  endfacet
  facet normal -0.798645 -0.601803 0
    outer loop
      vertex 11.9761 18.5452 2
      vertex 11.8 18.7789 3
      vertex 11.8 18.7789 2
    endloop
  endfacet
  facet normal -0.798645 -0.601803 0
    outer loop
      vertex 11.8 18.7789 3
      vertex 11.9761 18.5452 2
      vertex 11.9761 18.5452 3
    endloop
  endfacet
  facet normal 0.999848 0.0174273 0
    outer loop
      vertex 14.3947 19.378 3
      vertex 14.3896 19.6706 0
      vertex 14.3896 19.6706 3
    endloop
  endfacet
  facet normal 0.999848 0.0174273 0
    outer loop
      vertex 14.3896 19.6706 0
      vertex 14.3947 19.378 3
      vertex 14.3947 19.378 0
    endloop
  endfacet
  facet normal -0.999848 -0.0174273 0
    outer loop
      vertex 11.6104 19.3294 2
      vertex 11.6053 19.622 3
      vertex 11.6053 19.622 2
    endloop
  endfacet
  facet normal -0.999848 -0.0174273 0
    outer loop
      vertex 11.6053 19.622 3
      vertex 11.6104 19.3294 2
      vertex 11.6104 19.3294 3
    endloop
  endfacet
  facet normal 0 0 1
    outer loop
      vertex 14.3896 19.6706 3
      vertex 13.6452 19.5792 3
      vertex 13.6475 19.4433 3
    endloop
  endfacet
  facet normal 0 0 1
    outer loop
      vertex 14.0239 20.4548 3
      vertex 13.6146 19.7116 3
      vertex 13.6452 19.5792 3
    endloop
  endfacet
  facet normal 0 0 1
    outer loop
      vertex 14.0239 20.4548 3
      vertex 13.5572 19.8348 3
      vertex 13.6146 19.7116 3
    endloop
  endfacet
  facet normal 0 0 1
    outer loop
      vertex 13.3728 20.0324 3
      vertex 13.803 20.6468 3
      vertex 13.547 20.7887 3
    endloop
  endfacet
  facet normal 0 0 1
    outer loop
      vertex 14.0239 20.4548 3
      vertex 13.4754 19.9433 3
      vertex 13.5572 19.8348 3
    endloop
  endfacet
  facet normal 0 0 1
    outer loop
      vertex 13.803 20.6468 3
      vertex 13.3728 20.0324 3
      vertex 13.4754 19.9433 3
    endloop
  endfacet
  facet normal 0 0 1
    outer loop
      vertex 13.254 20.0983 3
      vertex 13.547 20.7887 3
      vertex 13.2671 20.8743 3
    endloop
  endfacet
  facet normal 0 0 1
    outer loop
      vertex 13.547 20.7887 3
      vertex 13.254 20.0983 3
      vertex 13.3728 20.0324 3
    endloop
  endfacet
  facet normal 0 0 1
    outer loop
      vertex 13.2671 20.8743 3
      vertex 13.124 20.1381 3
      vertex 13.254 20.0983 3
    endloop
  endfacet
  facet normal 0 0 1
    outer loop
      vertex 13.2671 20.8743 3
      vertex 12.9887 20.1499 3
      vertex 13.124 20.1381 3
    endloop
  endfacet
  facet normal 0 0 1
    outer loop
      vertex 12.9756 20.8998 3
      vertex 12.9887 20.1499 3
      vertex 13.2671 20.8743 3
    endloop
  endfacet
  facet normal 0 0 1
    outer loop
      vertex 12.9756 20.8998 3
      vertex 12.8538 20.1333 3
      vertex 12.9887 20.1499 3
    endloop
  endfacet
  facet normal -0 0 1
    outer loop
      vertex 12.6851 20.8641 3
      vertex 12.8538 20.1333 3
      vertex 12.9756 20.8998 3
    endloop
  endfacet
  facet normal 0 0 1
    outer loop
      vertex 12.8538 20.1333 3
      vertex 12.6851 20.8641 3
      vertex 12.7253 20.0891 3
    endloop
  endfacet
  facet normal -0 0 1
    outer loop
      vertex 12.4083 20.7688 3
      vertex 12.7253 20.0891 3
      vertex 12.6851 20.8641 3
    endloop
  endfacet
  facet normal 0 0 1
    outer loop
      vertex 12.7253 20.0891 3
      vertex 12.4083 20.7688 3
      vertex 12.6088 20.0191 3
    endloop
  endfacet
  facet normal -0 0 1
    outer loop
      vertex 12.1575 20.6181 3
      vertex 12.6088 20.0191 3
      vertex 12.4083 20.7688 3
    endloop
  endfacet
  facet normal 0 0 1
    outer loop
      vertex 12.6088 20.0191 3
      vertex 12.1575 20.6181 3
      vertex 12.5094 19.9264 3
    endloop
  endfacet
  facet normal -0 0 1
    outer loop
      vertex 11.9434 20.4185 3
      vertex 12.5094 19.9264 3
      vertex 12.1575 20.6181 3
    endloop
  endfacet
  facet normal 0 0 1
    outer loop
      vertex 12.5094 19.9264 3
      vertex 11.9434 20.4185 3
      vertex 12.4315 19.8151 3
    endloop
  endfacet
  facet normal -0 0 1
    outer loop
      vertex 11.7755 20.1787 3
      vertex 12.4315 19.8151 3
      vertex 11.9434 20.4185 3
    endloop
  endfacet
  facet normal 0 0 1
    outer loop
      vertex 12.4315 19.8151 3
      vertex 11.7755 20.1787 3
      vertex 12.3784 19.69 3
    endloop
  endfacet
  facet normal 0 0 1
    outer loop
      vertex 12.3525 19.5567 3
      vertex 11.9761 18.5452 3
      vertex 12.197 18.3532 3
    endloop
  endfacet
  facet normal -0 0 1
    outer loop
      vertex 11.6612 19.9093 3
      vertex 12.3784 19.69 3
      vertex 11.7755 20.1787 3
    endloop
  endfacet
  facet normal 0 0 1
    outer loop
      vertex 12.3525 19.5567 3
      vertex 11.8 18.7789 3
      vertex 11.9761 18.5452 3
    endloop
  endfacet
  facet normal 0 0 1
    outer loop
      vertex 12.3784 19.69 3
      vertex 11.6612 19.9093 3
      vertex 12.3525 19.5567 3
    endloop
  endfacet
  facet normal 0 0 1
    outer loop
      vertex 12.3525 19.5567 3
      vertex 11.6763 19.0442 3
      vertex 11.8 18.7789 3
    endloop
  endfacet
  facet normal -0 0 1
    outer loop
      vertex 11.6053 19.622 3
      vertex 12.3525 19.5567 3
      vertex 11.6612 19.9093 3
    endloop
  endfacet
  facet normal 0 0 1
    outer loop
      vertex 12.3525 19.5567 3
      vertex 11.6104 19.3294 3
      vertex 11.6763 19.0442 3
    endloop
  endfacet
  facet normal 0 0 1
    outer loop
      vertex 12.3525 19.5567 3
      vertex 11.6053 19.622 3
      vertex 11.6104 19.3294 3
    endloop
  endfacet
  facet normal -0 0 1
    outer loop
      vertex 13.6475 19.4433 3
      vertex 14.3947 19.378 3
      vertex 14.3896 19.6706 3
    endloop
  endfacet
  facet normal 0 0 1
    outer loop
      vertex 13.6452 19.5792 3
      vertex 14.3896 19.6706 3
      vertex 14.3237 19.9558 3
    endloop
  endfacet
  facet normal 0 0 1
    outer loop
      vertex 13.6452 19.5792 3
      vertex 14.3237 19.9558 3
      vertex 14.2 20.2211 3
    endloop
  endfacet
  facet normal 0 0 1
    outer loop
      vertex 13.6452 19.5792 3
      vertex 14.2 20.2211 3
      vertex 14.0239 20.4548 3
    endloop
  endfacet
  facet normal 0 0 1
    outer loop
      vertex 13.4754 19.9433 3
      vertex 14.0239 20.4548 3
      vertex 13.803 20.6468 3
    endloop
  endfacet
  facet normal 0 0 1
    outer loop
      vertex 14.3947 19.378 3
      vertex 13.6475 19.4433 3
      vertex 14.3664 19.2327 3
    endloop
  endfacet
  facet normal 0 0 1
    outer loop
      vertex 14.3664 19.2327 3
      vertex 13.6475 19.4433 3
      vertex 13.6279 19.3422 3
    endloop
  endfacet
  facet normal -0 0 1
    outer loop
      vertex 13.2747 18.9109 3
      vertex 13.7186 18.3074 3
      vertex 13.363 18.964 3
    endloop
  endfacet
  facet normal 0 0 1
    outer loop
      vertex 13.7186 18.3074 3
      vertex 13.2747 18.9109 3
      vertex 13.5917 18.2312 3
    endloop
  endfacet
  facet normal 0 0 1
    outer loop
      vertex 13.5917 18.2312 3
      vertex 13.2747 18.9109 3
      vertex 13.3149 18.1359 3
    endloop
  endfacet
  facet normal -0 0 1
    outer loop
      vertex 13.1462 18.8667 3
      vertex 13.3149 18.1359 3
      vertex 13.2747 18.9109 3
    endloop
  endfacet
  facet normal 0 0 1
    outer loop
      vertex 13.1462 18.8667 3
      vertex 13.0244 18.1002 3
      vertex 13.3149 18.1359 3
    endloop
  endfacet
  facet normal -0 0 1
    outer loop
      vertex 13.0113 18.8501 3
      vertex 13.0244 18.1002 3
      vertex 13.1462 18.8667 3
    endloop
  endfacet
  facet normal 0 0 1
    outer loop
      vertex 12.876 18.8619 3
      vertex 13.0244 18.1002 3
      vertex 13.0113 18.8501 3
    endloop
  endfacet
  facet normal 0 0 1
    outer loop
      vertex 12.7329 18.1257 3
      vertex 12.876 18.8619 3
      vertex 12.746 18.9017 3
    endloop
  endfacet
  facet normal 0 0 1
    outer loop
      vertex 12.876 18.8619 3
      vertex 12.7329 18.1257 3
      vertex 13.0244 18.1002 3
    endloop
  endfacet
  facet normal 0 0 1
    outer loop
      vertex 12.453 18.2113 3
      vertex 12.746 18.9017 3
      vertex 12.6272 18.9676 3
    endloop
  endfacet
  facet normal 0 0 1
    outer loop
      vertex 12.197 18.3532 3
      vertex 12.6272 18.9676 3
      vertex 12.5246 19.0567 3
    endloop
  endfacet
  facet normal 0 0 1
    outer loop
      vertex 12.746 18.9017 3
      vertex 12.453 18.2113 3
      vertex 12.7329 18.1257 3
    endloop
  endfacet
  facet normal 0 0 1
    outer loop
      vertex 12.197 18.3532 3
      vertex 12.5246 19.0567 3
      vertex 12.4428 19.1652 3
    endloop
  endfacet
  facet normal 0 0 1
    outer loop
      vertex 12.197 18.3532 3
      vertex 12.4428 19.1652 3
      vertex 12.3854 19.2884 3
    endloop
  endfacet
  facet normal 0 0 1
    outer loop
      vertex 12.197 18.3532 3
      vertex 12.3854 19.2884 3
      vertex 12.3548 19.4208 3
    endloop
  endfacet
  facet normal 0 0 1
    outer loop
      vertex 12.6272 18.9676 3
      vertex 12.197 18.3532 3
      vertex 12.453 18.2113 3
    endloop
  endfacet
  facet normal 0 0 1
    outer loop
      vertex 12.197 18.3532 3
      vertex 12.3548 19.4208 3
      vertex 12.3525 19.5567 3
    endloop
  endfacet
  facet normal -0.906323 -0.422586 0
    outer loop
      vertex 11.8 18.7789 2
      vertex 11.6763 19.0442 3
      vertex 11.6763 19.0442 2
    endloop
  endfacet
  facet normal -0.906323 -0.422586 0
    outer loop
      vertex 11.6763 19.0442 3
      vertex 11.8 18.7789 2
      vertex 11.8 18.7789 3
    endloop
  endfacet
  facet normal 0.906323 0.422586 0
    outer loop
      vertex 14.3237 19.9558 3
      vertex 14.2 20.2211 0
      vertex 14.2 20.2211 3
    endloop
  endfacet
  facet normal 0.906323 0.422586 0
    outer loop
      vertex 14.2 20.2211 0
      vertex 14.3237 19.9558 3
      vertex 14.3237 19.9558 0
    endloop
  endfacet
  facet normal -0.819168 0.573554 0
    outer loop
      vertex 11.7755 20.1787 2
      vertex 11.9434 20.4185 3
      vertex 11.9434 20.4185 2
    endloop
  endfacet
  facet normal -0.819168 0.573554 0
    outer loop
      vertex 11.9434 20.4185 3
      vertex 11.7755 20.1787 2
      vertex 11.7755 20.1787 3
    endloop
  endfacet
  facet normal -0.981592 0.190989 0
    outer loop
      vertex 11.6053 19.622 2
      vertex 11.6612 19.9093 3
      vertex 11.6612 19.9093 2
    endloop
  endfacet
  facet normal -0.981592 0.190989 0
    outer loop
      vertex 11.6612 19.9093 3
      vertex 11.6053 19.622 2
      vertex 11.6053 19.622 3
    endloop
  endfacet
  facet normal -0.920571 0.390576 0
    outer loop
      vertex 11.6612 19.9093 2
      vertex 11.7755 20.1787 3
      vertex 11.7755 20.1787 2
    endloop
  endfacet
  facet normal -0.920571 0.390576 0
    outer loop
      vertex 11.7755 20.1787 3
      vertex 11.6612 19.9093 2
      vertex 11.6612 19.9093 3
    endloop
  endfacet
  facet normal 0.974328 0.225134 0
    outer loop
      vertex 14.3896 19.6706 3
      vertex 14.3237 19.9558 0
      vertex 14.3237 19.9558 3
    endloop
  endfacet
  facet normal 0.974328 0.225134 0
    outer loop
      vertex 14.3237 19.9558 0
      vertex 14.3896 19.6706 3
      vertex 14.3896 19.6706 0
    endloop
  endfacet
  facet normal 0.981556 -0.191177 0
    outer loop
      vertex 14.3664 19.2327 3
      vertex 14.3947 19.378 0
      vertex 14.3947 19.378 3
    endloop
  endfacet
  facet normal 0.981556 -0.191177 0
    outer loop
      vertex 14.3947 19.378 0
      vertex 14.3664 19.2327 3
      vertex 14.3664 19.2327 0
    endloop
  endfacet
  facet normal 0.325538 -0.945529 0
    outer loop
      vertex 13.3149 18.1359 0
      vertex 13.5917 18.2312 3
      vertex 13.3149 18.1359 3
    endloop
  endfacet
  facet normal 0.325538 -0.945529 0
    outer loop
      vertex 13.5917 18.2312 3
      vertex 13.3149 18.1359 0
      vertex 13.5917 18.2312 0
    endloop
  endfacet
  facet normal -0.656491 -0.754334 0
    outer loop
      vertex 12 18.5244 2
      vertex 11.9761 18.5452 3
      vertex 11.9761 18.5452 2
    endloop
  endfacet
  facet normal -0.65601 -0.754753 2.0227e-05
    outer loop
      vertex 11.9761 18.5452 3
      vertex 12 18.5244 2
      vertex 12.197 18.3532 3
    endloop
  endfacet
  facet normal -0.655951 -0.754803 0
    outer loop
      vertex 12.197 18.3532 0
      vertex 12 18.5244 2
      vertex 12 18.5244 0
    endloop
  endfacet
  facet normal -0.655951 -0.754803 0
    outer loop
      vertex 12 18.5244 2
      vertex 12.197 18.3532 0
      vertex 12.197 18.3532 3
    endloop
  endfacet
  facet normal -0.681904 0.731441 2.43244e-05
    outer loop
      vertex 12.1575 20.6181 3
      vertex 12 20.4713 2
      vertex 11.9434 20.4185 3
    endloop
  endfacet
  facet normal -0.681822 0.731518 0
    outer loop
      vertex 12.1575 20.6181 0
      vertex 12 20.4713 2
      vertex 12.1575 20.6181 3
    endloop
  endfacet
  facet normal -0.681822 0.731518 0
    outer loop
      vertex 12 20.4713 2
      vertex 12.1575 20.6181 0
      vertex 12 20.4713 0
    endloop
  endfacet
  facet normal -0.682134 0.731227 0
    outer loop
      vertex 11.9434 20.4185 3
      vertex 12 20.4713 2
      vertex 11.9434 20.4185 2
    endloop
  endfacet
  facet normal -0.0871458 -0.996196 0
    outer loop
      vertex 12.7329 18.1257 0
      vertex 13.0244 18.1002 3
      vertex 12.7329 18.1257 3
    endloop
  endfacet
  facet normal -0.0871458 -0.996196 -0
    outer loop
      vertex 13.0244 18.1002 3
      vertex 12.7329 18.1257 0
      vertex 13.0244 18.1002 0
    endloop
  endfacet
  facet normal -0.515049 0.857161 0
    outer loop
      vertex 12.4083 20.7688 0
      vertex 12.1575 20.6181 3
      vertex 12.4083 20.7688 3
    endloop
  endfacet
  facet normal -0.515049 0.857161 0
    outer loop
      vertex 12.1575 20.6181 3
      vertex 12.4083 20.7688 0
      vertex 12.1575 20.6181 0
    endloop
  endfacet
  facet normal -0.484801 -0.874624 0
    outer loop
      vertex 12.197 18.3532 0
      vertex 12.453 18.2113 3
      vertex 12.197 18.3532 3
    endloop
  endfacet
  facet normal -0.484801 -0.874624 -0
    outer loop
      vertex 12.453 18.2113 3
      vertex 12.197 18.3532 0
      vertex 12.453 18.2113 0
    endloop
  endfacet
  facet normal 0.121974 -0.992533 0
    outer loop
      vertex 13.0244 18.1002 0
      vertex 13.3149 18.1359 3
      vertex 13.0244 18.1002 3
    endloop
  endfacet
  facet normal 0.121974 -0.992533 0
    outer loop
      vertex 13.3149 18.1359 3
      vertex 13.0244 18.1002 0
      vertex 13.3149 18.1359 0
    endloop
  endfacet
  facet normal 0.514794 -0.857314 0
    outer loop
      vertex 13.5917 18.2312 0
      vertex 13.7186 18.3074 3
      vertex 13.5917 18.2312 3
    endloop
  endfacet
  facet normal 0.514794 -0.857314 0
    outer loop
      vertex 13.7186 18.3074 3
      vertex 13.5917 18.2312 0
      vertex 13.7186 18.3074 0
    endloop
  endfacet
  facet normal -0.974328 -0.225134 0
    outer loop
      vertex 11.6763 19.0442 2
      vertex 11.6104 19.3294 3
      vertex 11.6104 19.3294 2
    endloop
  endfacet
  facet normal -0.974328 -0.225134 0
    outer loop
      vertex 11.6104 19.3294 3
      vertex 11.6763 19.0442 2
      vertex 11.6763 19.0442 3
    endloop
  endfacet
  facet normal -0.292742 -0.956192 0
    outer loop
      vertex 13.124 20.1381 0
      vertex 13.254 20.0983 3
      vertex 13.124 20.1381 3
    endloop
  endfacet
  facet normal -0.292742 -0.956192 -0
    outer loop
      vertex 13.254 20.0983 3
      vertex 13.124 20.1381 0
      vertex 13.254 20.0983 0
    endloop
  endfacet
  facet normal -0.48508 -0.87447 0
    outer loop
      vertex 13.254 20.0983 0
      vertex 13.3728 20.0324 3
      vertex 13.254 20.0983 3
    endloop
  endfacet
  facet normal -0.48508 -0.87447 -0
    outer loop
      vertex 13.3728 20.0324 3
      vertex 13.254 20.0983 0
      vertex 13.3728 20.0324 0
    endloop
  endfacet
  facet normal -0.798496 -0.602 0
    outer loop
      vertex 13.5572 19.8348 0
      vertex 13.4754 19.9433 3
      vertex 13.4754 19.9433 0
    endloop
  endfacet
  facet normal -0.798496 -0.602 0
    outer loop
      vertex 13.4754 19.9433 3
      vertex 13.5572 19.8348 0
      vertex 13.5572 19.8348 3
    endloop
  endfacet
  facet normal -0.325265 0.945623 0
    outer loop
      vertex 13.2747 18.9109 0
      vertex 13.1462 18.8667 3
      vertex 13.2747 18.9109 3
    endloop
  endfacet
  facet normal -0.325265 0.945623 0
    outer loop
      vertex 13.1462 18.8667 3
      vertex 13.2747 18.9109 0
      vertex 13.1462 18.8667 0
    endloop
  endfacet
  facet normal 0.0868838 0.996218 -0
    outer loop
      vertex 13.0113 18.8501 0
      vertex 12.876 18.8619 3
      vertex 13.0113 18.8501 3
    endloop
  endfacet
  facet normal 0.0868838 0.996218 0
    outer loop
      vertex 12.876 18.8619 3
      vertex 13.0113 18.8501 0
      vertex 12.876 18.8619 0
    endloop
  endfacet
  facet normal 0.68203 -0.731324 0
    outer loop
      vertex 12.5094 19.9264 0
      vertex 12.6088 20.0191 3
      vertex 12.5094 19.9264 3
    endloop
  endfacet
  facet normal 0.68203 -0.731324 0
    outer loop
      vertex 12.6088 20.0191 3
      vertex 12.5094 19.9264 0
      vertex 12.6088 20.0191 0
    endloop
  endfacet
  facet normal 0.325265 -0.945623 0
    outer loop
      vertex 12.7253 20.0891 0
      vertex 12.8538 20.1333 3
      vertex 12.7253 20.0891 3
    endloop
  endfacet
  facet normal 0.325265 -0.945623 0
    outer loop
      vertex 12.8538 20.1333 3
      vertex 12.7253 20.0891 0
      vertex 12.8538 20.1333 0
    endloop
  endfacet
  facet normal 0.515037 -0.857168 0
    outer loop
      vertex 12.6088 20.0191 0
      vertex 12.7253 20.0891 3
      vertex 12.6088 20.0191 3
    endloop
  endfacet
  facet normal 0.515037 -0.857168 0
    outer loop
      vertex 12.7253 20.0891 3
      vertex 12.6088 20.0191 0
      vertex 12.7253 20.0891 0
    endloop
  endfacet
  facet normal 0.798496 0.602 0
    outer loop
      vertex 12.5246 19.0567 3
      vertex 12.4428 19.1652 0
      vertex 12.4428 19.1652 3
    endloop
  endfacet
  facet normal 0.798496 0.602 0
    outer loop
      vertex 12.4428 19.1652 0
      vertex 12.5246 19.0567 3
      vertex 12.5246 19.0567 0
    endloop
  endfacet
  facet normal -0.515352 0.856979 0
    outer loop
      vertex 13.363 18.964 0
      vertex 13.2747 18.9109 3
      vertex 13.363 18.964 3
    endloop
  endfacet
  facet normal -0.515352 0.856979 0
    outer loop
      vertex 13.2747 18.9109 3
      vertex 13.363 18.964 0
      vertex 13.2747 18.9109 0
    endloop
  endfacet
  facet normal 0.906446 0.422321 0
    outer loop
      vertex 12.4428 19.1652 3
      vertex 12.3854 19.2884 0
      vertex 12.3854 19.2884 3
    endloop
  endfacet
  facet normal 0.906446 0.422321 0
    outer loop
      vertex 12.3854 19.2884 0
      vertex 12.4428 19.1652 3
      vertex 12.4428 19.1652 0
    endloop
  endfacet
  facet normal -0.999857 -0.0169218 0
    outer loop
      vertex 13.6475 19.4433 0
      vertex 13.6452 19.5792 3
      vertex 13.6452 19.5792 0
    endloop
  endfacet
  facet normal -0.999857 -0.0169218 0
    outer loop
      vertex 13.6452 19.5792 3
      vertex 13.6475 19.4433 0
      vertex 13.6475 19.4433 3
    endloop
  endfacet
  facet normal 0.92051 -0.39072 0
    outer loop
      vertex 12.3784 19.69 3
      vertex 12.4315 19.8151 0
      vertex 12.4315 19.8151 3
    endloop
  endfacet
  facet normal 0.92051 -0.39072 0
    outer loop
      vertex 12.4315 19.8151 0
      vertex 12.3784 19.69 3
      vertex 12.3784 19.69 0
    endloop
  endfacet
  facet normal -0.655687 -0.755033 0
    outer loop
      vertex 13.3728 20.0324 0
      vertex 13.4754 19.9433 3
      vertex 13.3728 20.0324 3
    endloop
  endfacet
  facet normal -0.655687 -0.755033 -0
    outer loop
      vertex 13.4754 19.9433 3
      vertex 13.3728 20.0324 0
      vertex 13.4754 19.9433 0
    endloop
  endfacet
  facet normal 0.974317 0.225182 0
    outer loop
      vertex 12.3854 19.2884 3
      vertex 12.3548 19.4208 0
      vertex 12.3548 19.4208 3
    endloop
  endfacet
  facet normal 0.974317 0.225182 0
    outer loop
      vertex 12.3548 19.4208 0
      vertex 12.3854 19.2884 3
      vertex 12.3854 19.2884 0
    endloop
  endfacet
  facet normal 0.819267 -0.573413 0
    outer loop
      vertex 12.4315 19.8151 3
      vertex 12.5094 19.9264 0
      vertex 12.5094 19.9264 3
    endloop
  endfacet
  facet normal 0.819267 -0.573413 0
    outer loop
      vertex 12.5094 19.9264 0
      vertex 12.4315 19.8151 3
      vertex 12.4315 19.8151 0
    endloop
  endfacet
  facet normal -0.906446 -0.422321 0
    outer loop
      vertex 13.6146 19.7116 0
      vertex 13.5572 19.8348 3
      vertex 13.5572 19.8348 0
    endloop
  endfacet
  facet normal -0.906446 -0.422321 0
    outer loop
      vertex 13.5572 19.8348 3
      vertex 13.6146 19.7116 0
      vertex 13.6146 19.7116 3
    endloop
  endfacet
  facet normal 0.999857 0.0169218 0
    outer loop
      vertex 12.3548 19.4208 3
      vertex 12.3525 19.5567 0
      vertex 12.3525 19.5567 3
    endloop
  endfacet
  facet normal 0.999857 0.0169218 0
    outer loop
      vertex 12.3525 19.5567 0
      vertex 12.3548 19.4208 3
      vertex 12.3548 19.4208 0
    endloop
  endfacet
  facet normal -0.981721 0.190324 0
    outer loop
      vertex 13.6279 19.3422 0
      vertex 13.6475 19.4433 3
      vertex 13.6475 19.4433 0
    endloop
  endfacet
  facet normal -0.981721 0.190324 0
    outer loop
      vertex 13.6475 19.4433 3
      vertex 13.6279 19.3422 0
      vertex 13.6279 19.3422 3
    endloop
  endfacet
  facet normal 0.981642 -0.190732 0
    outer loop
      vertex 12.3525 19.5567 3
      vertex 12.3784 19.69 0
      vertex 12.3784 19.69 3
    endloop
  endfacet
  facet normal 0.981642 -0.190732 0
    outer loop
      vertex 12.3784 19.69 0
      vertex 12.3525 19.5567 3
      vertex 12.3525 19.5567 0
    endloop
  endfacet
  facet normal -0.974317 -0.225182 0
    outer loop
      vertex 13.6452 19.5792 0
      vertex 13.6146 19.7116 3
      vertex 13.6146 19.7116 0
    endloop
  endfacet
  facet normal -0.974317 -0.225182 0
    outer loop
      vertex 13.6146 19.7116 3
      vertex 13.6452 19.5792 0
      vertex 13.6452 19.5792 3
    endloop
  endfacet
  facet normal 0.122133 -0.992514 0
    outer loop
      vertex 12.8538 20.1333 0
      vertex 12.9887 20.1499 3
      vertex 12.8538 20.1333 3
    endloop
  endfacet
  facet normal 0.122133 -0.992514 0
    outer loop
      vertex 12.9887 20.1499 3
      vertex 12.8538 20.1333 0
      vertex 12.9887 20.1499 0
    endloop
  endfacet
  facet normal 0.655687 0.755033 -0
    outer loop
      vertex 12.6272 18.9676 0
      vertex 12.5246 19.0567 3
      vertex 12.6272 18.9676 3
    endloop
  endfacet
  facet normal 0.655687 0.755033 0
    outer loop
      vertex 12.5246 19.0567 3
      vertex 12.6272 18.9676 0
      vertex 12.5246 19.0567 0
    endloop
  endfacet
  facet normal -0.0868838 -0.996218 0
    outer loop
      vertex 12.9887 20.1499 0
      vertex 13.124 20.1381 3
      vertex 12.9887 20.1499 3
    endloop
  endfacet
  facet normal -0.0868838 -0.996218 -0
    outer loop
      vertex 13.124 20.1381 3
      vertex 12.9887 20.1499 0
      vertex 13.124 20.1381 0
    endloop
  endfacet
  facet normal 0.292742 0.956192 -0
    outer loop
      vertex 12.876 18.8619 0
      vertex 12.746 18.9017 3
      vertex 12.876 18.8619 3
    endloop
  endfacet
  facet normal 0.292742 0.956192 0
    outer loop
      vertex 12.746 18.9017 3
      vertex 12.876 18.8619 0
      vertex 12.746 18.9017 0
    endloop
  endfacet
  facet normal -0.122133 0.992514 0
    outer loop
      vertex 13.1462 18.8667 0
      vertex 13.0113 18.8501 3
      vertex 13.1462 18.8667 3
    endloop
  endfacet
  facet normal -0.122133 0.992514 0
    outer loop
      vertex 13.0113 18.8501 3
      vertex 13.1462 18.8667 0
      vertex 13.0113 18.8501 0
    endloop
  endfacet
  facet normal 0.48508 0.87447 -0
    outer loop
      vertex 12.746 18.9017 0
      vertex 12.6272 18.9676 3
      vertex 12.746 18.9017 3
    endloop
  endfacet
  facet normal 0.48508 0.87447 0
    outer loop
      vertex 12.6272 18.9676 3
      vertex 12.746 18.9017 0
      vertex 12.6272 18.9676 0
    endloop
  endfacet
  facet normal -0.14667 -0.989185 0
    outer loop
      vertex 13.6279 19.3422 0
      vertex 14.3664 19.2327 3
      vertex 13.6279 19.3422 3
    endloop
  endfacet
  facet normal -0.14667 -0.989185 -0
    outer loop
      vertex 14.3664 19.2327 3
      vertex 13.6279 19.3422 0
      vertex 14.3664 19.2327 0
    endloop
  endfacet
  facet normal 0.879325 0.476223 0
    outer loop
      vertex 13.7186 18.3074 3
      vertex 13.363 18.964 0
      vertex 13.363 18.964 3
    endloop
  endfacet
  facet normal 0.879325 0.476223 0
    outer loop
      vertex 13.363 18.964 0
      vertex 13.7186 18.3074 3
      vertex 13.7186 18.3074 0
    endloop
  endfacet
  facet normal 0 1 -0
    outer loop
      vertex 12 20.5 0
      vertex 10 20.5 2
      vertex 12 20.5 2
    endloop
  endfacet
  facet normal 0 1 0
    outer loop
      vertex 10 20.5 2
      vertex 12 20.5 0
      vertex 10 20.5 0
    endloop
  endfacet
  facet normal 0 0 1
    outer loop
      vertex 12 20.5 2
      vertex 11.9434 20.4185 2
      vertex 12 20.4713 2
    endloop
  endfacet
  facet normal -0 0 1
    outer loop
      vertex 10 20.5 2
      vertex 11.9434 20.4185 2
      vertex 12 20.5 2
    endloop
  endfacet
  facet normal 0 0 1
    outer loop
      vertex 11.6763 8.4558 2
      vertex 10 7 2
      vertex 11.6104 8.17062 2
    endloop
  endfacet
  facet normal 0 0 1
    outer loop
      vertex 11.6612 19.9093 2
      vertex 10 20.5 2
      vertex 11.6053 19.622 2
    endloop
  endfacet
  facet normal 0 0 1
    outer loop
      vertex 11.7755 20.1787 2
      vertex 10 20.5 2
      vertex 11.6612 19.9093 2
    endloop
  endfacet
  facet normal 0 0 1
    outer loop
      vertex 11.9434 20.4185 2
      vertex 10 20.5 2
      vertex 11.7755 20.1787 2
    endloop
  endfacet
  facet normal 0 0 1
    outer loop
      vertex 11.9761 18.5452 2
      vertex 12 8.97557 2
      vertex 12 18.5244 2
    endloop
  endfacet
  facet normal 0 0 1
    outer loop
      vertex 11.9761 18.5452 2
      vertex 11.9761 8.9548 2
      vertex 12 8.97557 2
    endloop
  endfacet
  facet normal 0 0 1
    outer loop
      vertex 11.8 18.7789 2
      vertex 11.9761 8.9548 2
      vertex 11.9761 18.5452 2
    endloop
  endfacet
  facet normal 0 0 1
    outer loop
      vertex 11.8 18.7789 2
      vertex 11.8 8.72105 2
      vertex 11.9761 8.9548 2
    endloop
  endfacet
  facet normal 0 0 1
    outer loop
      vertex 10 20.5 2
      vertex 11.8 18.7789 2
      vertex 11.6763 19.0442 2
    endloop
  endfacet
  facet normal 0 0 1
    outer loop
      vertex 11.8 18.7789 2
      vertex 10 20.5 2
      vertex 11.8 8.72105 2
    endloop
  endfacet
  facet normal 0 0 1
    outer loop
      vertex 10 20.5 2
      vertex 11.6763 19.0442 2
      vertex 11.6104 19.3294 2
    endloop
  endfacet
  facet normal 0 0 1
    outer loop
      vertex 10 7 2
      vertex 11.8 8.72105 2
      vertex 10 20.5 2
    endloop
  endfacet
  facet normal 0 0 1
    outer loop
      vertex 10 20.5 2
      vertex 11.6104 19.3294 2
      vertex 11.6053 19.622 2
    endloop
  endfacet
  facet normal 0 0 1
    outer loop
      vertex 11.8 8.72105 2
      vertex 10 7 2
      vertex 11.6763 8.4558 2
    endloop
  endfacet
  facet normal 0 0 1
    outer loop
      vertex 11.9434 7.08152 2
      vertex 12 7 2
      vertex 12 7.02874 2
    endloop
  endfacet
  facet normal 0 0 1
    outer loop
      vertex 10 7 2
      vertex 11.9434 7.08152 2
      vertex 11.7755 7.32127 2
    endloop
  endfacet
  facet normal 0 0 1
    outer loop
      vertex 11.9434 7.08152 2
      vertex 10 7 2
      vertex 12 7 2
    endloop
  endfacet
  facet normal 0 0 1
    outer loop
      vertex 11.6612 7.59068 2
      vertex 10 7 2
      vertex 11.7755 7.32127 2
    endloop
  endfacet
  facet normal 0 0 1
    outer loop
      vertex 11.6053 7.87798 2
      vertex 10 7 2
      vertex 11.6612 7.59068 2
    endloop
  endfacet
  facet normal 0 0 1
    outer loop
      vertex 11.6104 8.17062 2
      vertex 10 7 2
      vertex 11.6053 7.87798 2
    endloop
  endfacet
  facet normal 0 -1 0
    outer loop
      vertex 10 7 0
      vertex 12 7 2
      vertex 10 7 2
    endloop
  endfacet
  facet normal 0 -1 -0
    outer loop
      vertex 12 7 2
      vertex 10 7 0
      vertex 12 7 0
    endloop
  endfacet
  facet normal -1 0 0
    outer loop
      vertex 10 7 0
      vertex 10 20.5 2
      vertex 10 20.5 0
    endloop
  endfacet
  facet normal -1 -0 0
    outer loop
      vertex 10 20.5 2
      vertex 10 7 0
      vertex 10 7 2
    endloop
  endfacet
  facet normal 1 -0 0
    outer loop
      vertex 12 7 2
      vertex 12 7.02874 0
      vertex 12 7.02874 2
    endloop
  endfacet
  facet normal 1 0 0
    outer loop
      vertex 12 7.02874 0
      vertex 12 7 2
      vertex 12 7 0
    endloop
  endfacet
  facet normal 1 -0 0
    outer loop
      vertex 12 20.4713 2
      vertex 12 20.5 0
      vertex 12 20.5 2
    endloop
  endfacet
  facet normal 1 0 0
    outer loop
      vertex 12 20.5 0
      vertex 12 20.4713 2
      vertex 12 20.4713 0
    endloop
  endfacet
  facet normal 1 -0 0
    outer loop
      vertex 12 8.97557 2
      vertex 12 18.5244 0
      vertex 12 18.5244 2
    endloop
  endfacet
  facet normal 1 0 0
    outer loop
      vertex 12 18.5244 0
      vertex 12 8.97557 2
      vertex 12 8.97557 0
    endloop
  endfacet
endsolid OpenSCAD_Model
