solid OpenSCAD_Model
  facet normal -0.891008 0.453989 0
    outer loop
      vertex 10 9.77935 0
      vertex 9.73247 9.25429 0
      vertex 10 9.77935 2
    endloop
  endfacet
  facet normal -0.890875 0.454249 0
    outer loop
      vertex 10 9.77935 2
      vertex 10.0647 9.90624 3
      vertex 10.0647 9.90624 2
    endloop
  endfacet
  facet normal -0.891008 0.453989 0
    outer loop
      vertex 9.73247 9.25429 3
      vertex 10 9.77935 2
      vertex 9.73247 9.25429 0
    endloop
  endfacet
  facet normal -0.890982 0.454039 3.34831e-05
    outer loop
      vertex 10 9.77935 2
      vertex 9.73247 9.25429 3
      vertex 10.0647 9.90624 3
    endloop
  endfacet
  facet normal -0.777207 0.629245 0
    outer loop
      vertex 10.0647 9.90624 2
      vertex 10.5251 10.4749 3
      vertex 10.5251 10.4749 2
    endloop
  endfacet
  facet normal -0.777207 0.629245 0
    outer loop
      vertex 10.5251 10.4749 3
      vertex 10.0647 9.90624 2
      vertex 10.0647 9.90624 3
    endloop
  endfacet
  facet normal -0.965925 0.258821 0
    outer loop
      vertex 9.54309 8.54752 0
      vertex 9.73247 9.25429 3
      vertex 9.73247 9.25429 0
    endloop
  endfacet
  facet normal -0.965925 0.258821 0
    outer loop
      vertex 9.73247 9.25429 3
      vertex 9.54309 8.54752 0
      vertex 9.54309 8.54752 3
    endloop
  endfacet
  facet normal -0.358371 -0.933579 0
    outer loop
      vertex 11.411 4.88148 0
      vertex 12.0941 4.61926 3
      vertex 11.411 4.88148 3
    endloop
  endfacet
  facet normal -0.358371 -0.933579 -0
    outer loop
      vertex 12.0941 4.61926 3
      vertex 11.411 4.88148 0
      vertex 12.0941 4.61926 0
    endloop
  endfacet
  facet normal -0.933579 -0.358371 0
    outer loop
      vertex 9.88148 6.41103 0
      vertex 9.61926 7.09413 3
      vertex 9.61926 7.09413 0
    endloop
  endfacet
  facet normal -0.933579 -0.358371 0
    outer loop
      vertex 9.61926 7.09413 3
      vertex 9.88148 6.41103 0
      vertex 9.88148 6.41103 3
    endloop
  endfacet
  facet normal -0.629218 0.777229 0
    outer loop
      vertex 11.0938 10.9353 2
      vertex 10.5251 10.4749 3
      vertex 11.0938 10.9353 3
    endloop
  endfacet
  facet normal -0.629218 0.777229 0
    outer loop
      vertex 10.5251 10.4749 3
      vertex 11.0938 10.9353 2
      vertex 10.5251 10.4749 2
    endloop
  endfacet
  facet normal 0.05233 -0.99863 0
    outer loop
      vertex 12.8168 4.5048 0
      vertex 13.5475 4.54309 3
      vertex 12.8168 4.5048 3
    endloop
  endfacet
  facet normal 0.05233 -0.99863 0
    outer loop
      vertex 13.5475 4.54309 3
      vertex 12.8168 4.5048 0
      vertex 13.5475 4.54309 0
    endloop
  endfacet
  facet normal -0.156429 -0.987689 0
    outer loop
      vertex 12.0941 4.61926 0
      vertex 12.8168 4.5048 3
      vertex 12.0941 4.61926 3
    endloop
  endfacet
  facet normal -0.156429 -0.987689 -0
    outer loop
      vertex 12.8168 4.5048 3
      vertex 12.0941 4.61926 0
      vertex 12.8168 4.5048 0
    endloop
  endfacet
  facet normal -0.99863 0.05233 0
    outer loop
      vertex 9.5048 7.81682 0
      vertex 9.54309 8.54752 3
      vertex 9.54309 8.54752 0
    endloop
  endfacet
  facet normal -0.99863 0.05233 0
    outer loop
      vertex 9.54309 8.54752 3
      vertex 9.5048 7.81682 0
      vertex 9.5048 7.81682 3
    endloop
  endfacet
  facet normal -0.454034 0.890984 0
    outer loop
      vertex 11.7457 11.2675 2
      vertex 11.0938 10.9353 3
      vertex 11.7457 11.2675 3
    endloop
  endfacet
  facet normal -0.454034 0.890984 0
    outer loop
      vertex 11.0938 10.9353 3
      vertex 11.7457 11.2675 2
      vertex 11.0938 10.9353 2
    endloop
  endfacet
  facet normal 0.965918 -0.258847 0
    outer loop
      vertex 16.2675 6.74571 3
      vertex 16.4569 7.45248 0
      vertex 16.4569 7.45248 3
    endloop
  endfacet
  facet normal 0.965918 -0.258847 0
    outer loop
      vertex 16.4569 7.45248 0
      vertex 16.2675 6.74571 3
      vertex 16.2675 6.74571 0
    endloop
  endfacet
  facet normal 0.454013 -0.890995 0
    outer loop
      vertex 14.2543 4.73247 0
      vertex 14.9062 5.06465 3
      vertex 14.2543 4.73247 3
    endloop
  endfacet
  facet normal 0.454013 -0.890995 0
    outer loop
      vertex 14.9062 5.06465 3
      vertex 14.2543 4.73247 0
      vertex 14.9062 5.06465 0
    endloop
  endfacet
  facet normal 0.890998 -0.454007 0
    outer loop
      vertex 15.9353 6.09376 3
      vertex 16.2675 6.74571 0
      vertex 16.2675 6.74571 3
    endloop
  endfacet
  facet normal 0.890998 -0.454007 0
    outer loop
      vertex 16.2675 6.74571 0
      vertex 15.9353 6.09376 3
      vertex 15.9353 6.09376 0
    endloop
  endfacet
  facet normal 0.629284 -0.777175 0
    outer loop
      vertex 14.9062 5.06465 0
      vertex 15.4749 5.52513 3
      vertex 14.9062 5.06465 3
    endloop
  endfacet
  facet normal 0.629284 -0.777175 0
    outer loop
      vertex 15.4749 5.52513 3
      vertex 14.9062 5.06465 0
      vertex 15.4749 5.52513 0
    endloop
  endfacet
  facet normal -0.7071 -0.707114 0
    outer loop
      vertex 10.7974 5.27999 0
      vertex 10.28 5.79738 3
      vertex 10.28 5.79738 0
    endloop
  endfacet
  facet normal -0.7071 -0.707114 0
    outer loop
      vertex 10.28 5.79738 3
      vertex 10.7974 5.27999 0
      vertex 10.7974 5.27999 3
    endloop
  endfacet
  facet normal -0.0523436 0.998629 0
    outer loop
      vertex 13.1832 11.4952 0
      vertex 12.4525 11.4569 3
      vertex 13.1832 11.4952 3
    endloop
  endfacet
  facet normal -0.0523436 0.998629 0
    outer loop
      vertex 12.4525 11.4569 3
      vertex 13.1832 11.4952 0
      vertex 12.4525 11.4569 0
    endloop
  endfacet
  facet normal -0.258836 0.965921 5.37625e-05
    outer loop
      vertex 12.4525 11.4569 3
      vertex 12 11.3357 2
      vertex 11.7457 11.2675 3
    endloop
  endfacet
  facet normal -0.258725 0.965951 0
    outer loop
      vertex 12.4525 11.4569 0
      vertex 12 11.3357 2
      vertex 12.4525 11.4569 3
    endloop
  endfacet
  facet normal -0.258725 0.965951 0
    outer loop
      vertex 12 11.3357 2
      vertex 12.4525 11.4569 0
      vertex 12 11.3357 0
    endloop
  endfacet
  facet normal -0.259034 0.965868 0
    outer loop
      vertex 11.7457 11.2675 3
      vertex 12 11.3357 2
      vertex 11.7457 11.2675 2
    endloop
  endfacet
  facet normal -0.838664 -0.54465 0
    outer loop
      vertex 10.28 5.79738 0
      vertex 9.88148 6.41103 3
      vertex 9.88148 6.41103 0
    endloop
  endfacet
  facet normal -0.838664 -0.54465 0
    outer loop
      vertex 9.88148 6.41103 3
      vertex 10.28 5.79738 0
      vertex 10.28 5.79738 3
    endloop
  endfacet
  facet normal 0.156416 0.987691 -0
    outer loop
      vertex 13.7092 11.4119 0
      vertex 13.1832 11.4952 3
      vertex 13.7092 11.4119 3
    endloop
  endfacet
  facet normal 0.156416 0.987691 0
    outer loop
      vertex 13.1832 11.4952 3
      vertex 13.7092 11.4119 0
      vertex 13.1832 11.4952 0
    endloop
  endfacet
  facet normal -0.987689 -0.156431 0
    outer loop
      vertex 9.61926 7.09413 0
      vertex 9.5048 7.81682 3
      vertex 9.5048 7.81682 0
    endloop
  endfacet
  facet normal -0.987689 -0.156431 0
    outer loop
      vertex 9.5048 7.81682 3
      vertex 9.61926 7.09413 0
      vertex 9.61926 7.09413 3
    endloop
  endfacet
  facet normal -0.544671 -0.83865 0
    outer loop
      vertex 10.7974 5.27999 0
      vertex 11.411 4.88148 3
      vertex 10.7974 5.27999 3
    endloop
  endfacet
  facet normal -0.544671 -0.83865 -0
    outer loop
      vertex 11.411 4.88148 3
      vertex 10.7974 5.27999 0
      vertex 11.411 4.88148 0
    endloop
  endfacet
  facet normal 0.777191 -0.629265 0
    outer loop
      vertex 15.4749 5.52513 3
      vertex 15.9353 6.09376 0
      vertex 15.9353 6.09376 3
    endloop
  endfacet
  facet normal 0.777191 -0.629265 0
    outer loop
      vertex 15.9353 6.09376 0
      vertex 15.4749 5.52513 3
      vertex 15.4749 5.52513 0
    endloop
  endfacet
  facet normal 0 0 -1
    outer loop
      vertex 13.3907 18.5795 0
      vertex 14.3676 16.2782 0
      vertex 13.6678 16.0643 0
    endloop
  endfacet
  facet normal 0 0 -1
    outer loop
      vertex 14.3676 16.2782 0
      vertex 13.3907 18.5795 0
      vertex 14.8334 16.5364 0
    endloop
  endfacet
  facet normal 0 0 -1
    outer loop
      vertex 14.8334 16.5364 0
      vertex 13.3907 18.5795 0
      vertex 13.4364 18.6048 0
    endloop
  endfacet
  facet normal 0 0 -1
    outer loop
      vertex 13.6678 16.0643 0
      vertex 13.1908 18.5184 0
      vertex 13.3907 18.5795 0
    endloop
  endfacet
  facet normal 0 0 -1
    outer loop
      vertex 13.6678 16.0643 0
      vertex 12.9825 18.5002 0
      vertex 13.1908 18.5184 0
    endloop
  endfacet
  facet normal 0 0 -1
    outer loop
      vertex 12.9389 16.0005 0
      vertex 12.9825 18.5002 0
      vertex 13.6678 16.0643 0
    endloop
  endfacet
  facet normal 0 0 -1
    outer loop
      vertex 12.9389 16.0005 0
      vertex 12.775 18.5256 0
      vertex 12.9825 18.5002 0
    endloop
  endfacet
  facet normal 0 0 -1
    outer loop
      vertex 12.2127 16.0897 0
      vertex 12.775 18.5256 0
      vertex 12.9389 16.0005 0
    endloop
  endfacet
  facet normal 0 0 -1
    outer loop
      vertex 12 16.1629 0
      vertex 12.775 18.5256 0
      vertex 12.2127 16.0897 0
    endloop
  endfacet
  facet normal -0 0 -1
    outer loop
      vertex 12.775 18.5256 0
      vertex 12 16.1629 0
      vertex 12.5774 18.5937 0
    endloop
  endfacet
  facet normal -0 0 -1
    outer loop
      vertex 12.5774 18.5937 0
      vertex 12 16.1629 0
      vertex 12.3982 18.7014 0
    endloop
  endfacet
  facet normal 0 0 -1
    outer loop
      vertex 10 17.7158 0
      vertex 12.3982 18.7014 0
      vertex 12 16.1629 0
    endloop
  endfacet
  facet normal -0 0 -1
    outer loop
      vertex 12.3982 18.7014 0
      vertex 10 17.7158 0
      vertex 12.2453 18.8439 0
    endloop
  endfacet
  facet normal -0 0 -1
    outer loop
      vertex 12.2453 18.8439 0
      vertex 10 17.7158 0
      vertex 12.1254 19.0152 0
    endloop
  endfacet
  facet normal 0 0 -1
    outer loop
      vertex 9.93883 17.8032 0
      vertex 12.1254 19.0152 0
      vertex 10 17.7158 0
    endloop
  endfacet
  facet normal 0 0 -1
    outer loop
      vertex 13.9563 19.7924 0
      vertex 16.3471 20.5233 0
      vertex 16.4487 20.0005 0
    endloop
  endfacet
  facet normal -0 0 -1
    outer loop
      vertex 16.3471 20.5233 0
      vertex 13.9563 19.7924 0
      vertex 16.0612 21.1968 0
    endloop
  endfacet
  facet normal -0 0 -1
    outer loop
      vertex 16.0612 21.1968 0
      vertex 13.8746 19.9848 0
      vertex 15.6415 21.7962 0
    endloop
  endfacet
  facet normal 0 0 -1
    outer loop
      vertex 13.7547 20.1561 0
      vertex 15.6415 21.7962 0
      vertex 13.8746 19.9848 0
    endloop
  endfacet
  facet normal 0 0 -1
    outer loop
      vertex 13.9563 19.7924 0
      vertex 16.4487 20.0005 0
      vertex 13.9663 19.7412 0
    endloop
  endfacet
  facet normal 0 0 -1
    outer loop
      vertex 16.0612 21.1968 0
      vertex 13.9563 19.7924 0
      vertex 13.8746 19.9848 0
    endloop
  endfacet
  facet normal -0 0 -1
    outer loop
      vertex 15.6415 21.7962 0
      vertex 13.7547 20.1561 0
      vertex 15.1064 22.2952 0
    endloop
  endfacet
  facet normal 0 0 -1
    outer loop
      vertex 13.6018 20.2986 0
      vertex 15.1064 22.2952 0
      vertex 13.7547 20.1561 0
    endloop
  endfacet
  facet normal -0 0 -1
    outer loop
      vertex 15.1064 22.2952 0
      vertex 13.6018 20.2986 0
      vertex 14.4792 22.6721 0
    endloop
  endfacet
  facet normal 0 0 -1
    outer loop
      vertex 13.4226 20.4063 0
      vertex 14.4792 22.6721 0
      vertex 13.6018 20.2986 0
    endloop
  endfacet
  facet normal -0 0 -1
    outer loop
      vertex 14.4792 22.6721 0
      vertex 13.4226 20.4063 0
      vertex 13.7873 22.9103 0
    endloop
  endfacet
  facet normal 0 0 -1
    outer loop
      vertex 13.225 20.4744 0
      vertex 13.7873 22.9103 0
      vertex 13.4226 20.4063 0
    endloop
  endfacet
  facet normal 0 0 -1
    outer loop
      vertex 13.225 20.4744 0
      vertex 13.0611 22.9995 0
      vertex 13.7873 22.9103 0
    endloop
  endfacet
  facet normal 0 0 -1
    outer loop
      vertex 13.0175 20.4998 0
      vertex 13.0611 22.9995 0
      vertex 13.225 20.4744 0
    endloop
  endfacet
  facet normal 0 0 -1
    outer loop
      vertex 12.8092 20.4816 0
      vertex 13.0611 22.9995 0
      vertex 13.0175 20.4998 0
    endloop
  endfacet
  facet normal 0 0 -1
    outer loop
      vertex 12.3322 22.9357 0
      vertex 12.8092 20.4816 0
      vertex 12.6093 20.4205 0
    endloop
  endfacet
  facet normal 0 0 -1
    outer loop
      vertex 11.6324 22.7218 0
      vertex 12.6093 20.4205 0
      vertex 12.4264 20.3192 0
    endloop
  endfacet
  facet normal 0 0 -1
    outer loop
      vertex 12.8092 20.4816 0
      vertex 12.3322 22.9357 0
      vertex 13.0611 22.9995 0
    endloop
  endfacet
  facet normal 0 0 -1
    outer loop
      vertex 10.9925 22.367 0
      vertex 12.4264 20.3192 0
      vertex 12.2686 20.182 0
    endloop
  endfacet
  facet normal 0 0 -1
    outer loop
      vertex 10.4403 21.887 0
      vertex 12.2686 20.182 0
      vertex 12.1428 20.015 0
    endloop
  endfacet
  facet normal 0 0 -1
    outer loop
      vertex 9.99991 21.3026 0
      vertex 12.1428 20.015 0
      vertex 12.0545 19.8256 0
    endloop
  endfacet
  facet normal 0 0 -1
    outer loop
      vertex 9.69069 20.6395 0
      vertex 12.0545 19.8256 0
      vertex 12.0075 19.6219 0
    endloop
  endfacet
  facet normal 0 0 -1
    outer loop
      vertex 12.6093 20.4205 0
      vertex 11.6324 22.7218 0
      vertex 12.3322 22.9357 0
    endloop
  endfacet
  facet normal 0 0 -1
    outer loop
      vertex 9.52609 19.9265 0
      vertex 12.0075 19.6219 0
      vertex 12.0038 19.4128 0
    endloop
  endfacet
  facet normal -0 0 -1
    outer loop
      vertex 12.1254 19.0152 0
      vertex 9.93883 17.8032 0
      vertex 12.0437 19.2076 0
    endloop
  endfacet
  facet normal -0 0 -1
    outer loop
      vertex 12.0341 7.74118 0
      vertex 9.61926 7.09413 0
      vertex 12.0014 7.94766 0
    endloop
  endfacet
  facet normal 0 0 -1
    outer loop
      vertex 9.5048 7.81682 0
      vertex 12.0014 7.94766 0
      vertex 9.61926 7.09413 0
    endloop
  endfacet
  facet normal 0 -0 -1
    outer loop
      vertex 9.73247 9.25429 0
      vertex 12.0014 7.94766 0
      vertex 9.54309 8.54752 0
    endloop
  endfacet
  facet normal 0 0 -1
    outer loop
      vertex 12.0014 7.94766 0
      vertex 9.73247 9.25429 0
      vertex 10 9.77935 0
    endloop
  endfacet
  facet normal -0 0 -1
    outer loop
      vertex 12.0014 7.94766 0
      vertex 9.5048 7.81682 0
      vertex 9.54309 8.54752 0
    endloop
  endfacet
  facet normal 0 0 -1
    outer loop
      vertex 16.4569 7.45248 0
      vertex 13.9877 7.84357 0
      vertex 13.9986 8.05234 0
    endloop
  endfacet
  facet normal 0 0 -1
    outer loop
      vertex 14.9062 5.06465 0
      vertex 13.9336 7.64163 0
      vertex 13.9877 7.84357 0
    endloop
  endfacet
  facet normal 0 0 -1
    outer loop
      vertex 14.9062 5.06465 0
      vertex 13.8387 7.45536 0
      vertex 13.9336 7.64163 0
    endloop
  endfacet
  facet normal 0 0 -1
    outer loop
      vertex 14.9062 5.06465 0
      vertex 13.7071 7.29289 0
      vertex 13.8387 7.45536 0
    endloop
  endfacet
  facet normal 0 0 -1
    outer loop
      vertex 13.3584 7.06642 0
      vertex 14.2543 4.73247 0
      vertex 13.5475 4.54309 0
    endloop
  endfacet
  facet normal 0 0 -1
    outer loop
      vertex 14.9062 5.06465 0
      vertex 13.5446 7.16133 0
      vertex 13.7071 7.29289 0
    endloop
  endfacet
  facet normal 0 0 -1
    outer loop
      vertex 14.2543 4.73247 0
      vertex 13.3584 7.06642 0
      vertex 13.5446 7.16133 0
    endloop
  endfacet
  facet normal 0 0 -1
    outer loop
      vertex 13.5475 4.54309 0
      vertex 13.1564 7.01231 0
      vertex 13.3584 7.06642 0
    endloop
  endfacet
  facet normal 0 0 -1
    outer loop
      vertex 13.5475 4.54309 0
      vertex 12.9477 7.00137 0
      vertex 13.1564 7.01231 0
    endloop
  endfacet
  facet normal 0 0 -1
    outer loop
      vertex 12.8168 4.5048 0
      vertex 12.9477 7.00137 0
      vertex 13.5475 4.54309 0
    endloop
  endfacet
  facet normal 0 0 -1
    outer loop
      vertex 12.8168 4.5048 0
      vertex 12.7412 7.03407 0
      vertex 12.9477 7.00137 0
    endloop
  endfacet
  facet normal 0 0 -1
    outer loop
      vertex 12.0941 4.61926 0
      vertex 12.7412 7.03407 0
      vertex 12.8168 4.5048 0
    endloop
  endfacet
  facet normal -0 0 -1
    outer loop
      vertex 12.7412 7.03407 0
      vertex 12.0941 4.61926 0
      vertex 12.546 7.10899 0
    endloop
  endfacet
  facet normal 0 0 -1
    outer loop
      vertex 11.411 4.88148 0
      vertex 12.546 7.10899 0
      vertex 12.0941 4.61926 0
    endloop
  endfacet
  facet normal -0 0 -1
    outer loop
      vertex 12.546 7.10899 0
      vertex 11.411 4.88148 0
      vertex 12.3707 7.22285 0
    endloop
  endfacet
  facet normal 0 0 -1
    outer loop
      vertex 10.7974 5.27999 0
      vertex 12.3707 7.22285 0
      vertex 11.411 4.88148 0
    endloop
  endfacet
  facet normal -0 0 -1
    outer loop
      vertex 12.3707 7.22285 0
      vertex 10.7974 5.27999 0
      vertex 12.2229 7.37068 0
    endloop
  endfacet
  facet normal 0 0 -1
    outer loop
      vertex 10.28 5.79738 0
      vertex 12.2229 7.37068 0
      vertex 10.7974 5.27999 0
    endloop
  endfacet
  facet normal 0 0 -1
    outer loop
      vertex 10 17.7158 0
      vertex 12 16.1629 0
      vertex 12 11.3357 0
    endloop
  endfacet
  facet normal 0 0 -1
    outer loop
      vertex 12.4554 8.83867 0
      vertex 10 9.77935 0
      vertex 12 11.3357 0
    endloop
  endfacet
  facet normal -0 0 -1
    outer loop
      vertex 12.2229 7.37068 0
      vertex 10.28 5.79738 0
      vertex 12.109 7.54601 0
    endloop
  endfacet
  facet normal 0 0 -1
    outer loop
      vertex 9.88148 6.41103 0
      vertex 12.109 7.54601 0
      vertex 10.28 5.79738 0
    endloop
  endfacet
  facet normal -0 0 -1
    outer loop
      vertex 12 11.3357 0
      vertex 10 9.77935 0
      vertex 10 17.7158 0
    endloop
  endfacet
  facet normal -0 0 -1
    outer loop
      vertex 12.109 7.54601 0
      vertex 9.88148 6.41103 0
      vertex 12.0341 7.74118 0
    endloop
  endfacet
  facet normal 0 0 -1
    outer loop
      vertex 9.65293 18.4767 0
      vertex 12.0437 19.2076 0
      vertex 9.93883 17.8032 0
    endloop
  endfacet
  facet normal 0 0 -1
    outer loop
      vertex 9.61926 7.09413 0
      vertex 12.0341 7.74118 0
      vertex 9.88148 6.41103 0
    endloop
  endfacet
  facet normal 0 0 -1
    outer loop
      vertex 12.4264 20.3192 0
      vertex 10.9925 22.367 0
      vertex 11.6324 22.7218 0
    endloop
  endfacet
  facet normal 0 0 -1
    outer loop
      vertex 12.2686 20.182 0
      vertex 10.4403 21.887 0
      vertex 10.9925 22.367 0
    endloop
  endfacet
  facet normal 0 0 -1
    outer loop
      vertex 12.1428 20.015 0
      vertex 9.99991 21.3026 0
      vertex 10.4403 21.887 0
    endloop
  endfacet
  facet normal -0 0 -1
    outer loop
      vertex 12.0437 19.2076 0
      vertex 9.65293 18.4767 0
      vertex 12.0038 19.4128 0
    endloop
  endfacet
  facet normal 0 0 -1
    outer loop
      vertex 12.0545 19.8256 0
      vertex 9.69069 20.6395 0
      vertex 9.99991 21.3026 0
    endloop
  endfacet
  facet normal 0 0 -1
    outer loop
      vertex 9.51332 19.195 0
      vertex 12.0038 19.4128 0
      vertex 9.65293 18.4767 0
    endloop
  endfacet
  facet normal 0 0 -1
    outer loop
      vertex 12.0075 19.6219 0
      vertex 9.52609 19.9265 0
      vertex 9.69069 20.6395 0
    endloop
  endfacet
  facet normal -0 0 -1
    outer loop
      vertex 12.0038 19.4128 0
      vertex 9.51332 19.195 0
      vertex 9.52609 19.9265 0
    endloop
  endfacet
  facet normal 0 0 -1
    outer loop
      vertex 13.9986 8.05234 0
      vertex 16.4952 8.18318 0
      vertex 16.4569 7.45248 0
    endloop
  endfacet
  facet normal 0 0 -1
    outer loop
      vertex 13.9877 7.84357 0
      vertex 16.4569 7.45248 0
      vertex 16.2675 6.74571 0
    endloop
  endfacet
  facet normal 0 0 -1
    outer loop
      vertex 13.9877 7.84357 0
      vertex 16.2675 6.74571 0
      vertex 15.9353 6.09376 0
    endloop
  endfacet
  facet normal 0 0 -1
    outer loop
      vertex 13.9877 7.84357 0
      vertex 15.9353 6.09376 0
      vertex 15.4749 5.52513 0
    endloop
  endfacet
  facet normal 0 0 -1
    outer loop
      vertex 13.9877 7.84357 0
      vertex 15.4749 5.52513 0
      vertex 14.9062 5.06465 0
    endloop
  endfacet
  facet normal 0 0 -1
    outer loop
      vertex 13.5446 7.16133 0
      vertex 14.9062 5.06465 0
      vertex 14.2543 4.73247 0
    endloop
  endfacet
  facet normal -0 0 -1
    outer loop
      vertex 16.4952 8.18318 0
      vertex 13.9986 8.05234 0
      vertex 16.4119 8.70922 0
    endloop
  endfacet
  facet normal 0 0 -1
    outer loop
      vertex 16.4119 8.70922 0
      vertex 13.9986 8.05234 0
      vertex 13.9905 8.10386 0
    endloop
  endfacet
  facet normal 0 0 -1
    outer loop
      vertex 13.0523 8.99863 0
      vertex 13.7092 11.4119 0
      vertex 13.1039 8.99047 0
    endloop
  endfacet
  facet normal -0 0 -1
    outer loop
      vertex 13.7092 11.4119 0
      vertex 13.0523 8.99863 0
      vertex 13.1832 11.4952 0
    endloop
  endfacet
  facet normal 0 0 -1
    outer loop
      vertex 12.8436 8.98769 0
      vertex 13.1832 11.4952 0
      vertex 13.0523 8.99863 0
    endloop
  endfacet
  facet normal 0 0 -1
    outer loop
      vertex 12 11.3357 0
      vertex 12.8436 8.98769 0
      vertex 12.6416 8.93358 0
    endloop
  endfacet
  facet normal 0 0 -1
    outer loop
      vertex 12 11.3357 0
      vertex 12.6416 8.93358 0
      vertex 12.4554 8.83867 0
    endloop
  endfacet
  facet normal 0 0 -1
    outer loop
      vertex 12.8436 8.98769 0
      vertex 12.4525 11.4569 0
      vertex 13.1832 11.4952 0
    endloop
  endfacet
  facet normal 0 0 -1
    outer loop
      vertex 10 9.77935 0
      vertex 12.4554 8.83867 0
      vertex 12.2929 8.70711 0
    endloop
  endfacet
  facet normal 0 0 -1
    outer loop
      vertex 10 9.77935 0
      vertex 12.2929 8.70711 0
      vertex 12.1613 8.54464 0
    endloop
  endfacet
  facet normal 0 0 -1
    outer loop
      vertex 10 9.77935 0
      vertex 12.1613 8.54464 0
      vertex 12.0664 8.35837 0
    endloop
  endfacet
  facet normal 0 0 -1
    outer loop
      vertex 10 9.77935 0
      vertex 12.0664 8.35837 0
      vertex 12.0123 8.15643 0
    endloop
  endfacet
  facet normal 0 0 -1
    outer loop
      vertex 12.8436 8.98769 0
      vertex 12 11.3357 0
      vertex 12.4525 11.4569 0
    endloop
  endfacet
  facet normal 0 0 -1
    outer loop
      vertex 10 9.77935 0
      vertex 12.0123 8.15643 0
      vertex 12.0014 7.94766 0
    endloop
  endfacet
  facet normal 0.998629 -0.0523436 0
    outer loop
      vertex 16.4569 7.45248 3
      vertex 16.4952 8.18318 0
      vertex 16.4952 8.18318 3
    endloop
  endfacet
  facet normal 0.998629 -0.0523436 0
    outer loop
      vertex 16.4952 8.18318 0
      vertex 16.4569 7.45248 3
      vertex 16.4569 7.45248 0
    endloop
  endfacet
  facet normal 0 0 1
    outer loop
      vertex 13.0523 8.99863 3
      vertex 13.7092 11.4119 3
      vertex 13.1832 11.4952 3
    endloop
  endfacet
  facet normal 0 0 1
    outer loop
      vertex 13.7092 11.4119 3
      vertex 13.0523 8.99863 3
      vertex 13.1039 8.99047 3
    endloop
  endfacet
  facet normal 0 0 1
    outer loop
      vertex 13.1832 11.4952 3
      vertex 12.8436 8.98769 3
      vertex 13.0523 8.99863 3
    endloop
  endfacet
  facet normal -0 0 1
    outer loop
      vertex 12.4525 11.4569 3
      vertex 12.8436 8.98769 3
      vertex 13.1832 11.4952 3
    endloop
  endfacet
  facet normal 0 0 1
    outer loop
      vertex 12.8436 8.98769 3
      vertex 12.4525 11.4569 3
      vertex 12.6416 8.93358 3
    endloop
  endfacet
  facet normal -0 0 1
    outer loop
      vertex 11.7457 11.2675 3
      vertex 12.6416 8.93358 3
      vertex 12.4525 11.4569 3
    endloop
  endfacet
  facet normal 0 0 1
    outer loop
      vertex 12.6416 8.93358 3
      vertex 11.7457 11.2675 3
      vertex 12.4554 8.83867 3
    endloop
  endfacet
  facet normal -0 0 1
    outer loop
      vertex 11.0938 10.9353 3
      vertex 12.4554 8.83867 3
      vertex 11.7457 11.2675 3
    endloop
  endfacet
  facet normal 0 0 1
    outer loop
      vertex 12.4554 8.83867 3
      vertex 11.0938 10.9353 3
      vertex 12.2929 8.70711 3
    endloop
  endfacet
  facet normal -0 0 1
    outer loop
      vertex 10.5251 10.4749 3
      vertex 12.2929 8.70711 3
      vertex 11.0938 10.9353 3
    endloop
  endfacet
  facet normal -0 0 1
    outer loop
      vertex 10.0647 9.90624 3
      vertex 12.1613 8.54464 3
      vertex 10.5251 10.4749 3
    endloop
  endfacet
  facet normal 0 0 1
    outer loop
      vertex 12.2929 8.70711 3
      vertex 10.5251 10.4749 3
      vertex 12.1613 8.54464 3
    endloop
  endfacet
  facet normal 0 0 1
    outer loop
      vertex 13.9986 8.05234 3
      vertex 16.4952 8.18318 3
      vertex 16.4119 8.70922 3
    endloop
  endfacet
  facet normal 0 0 1
    outer loop
      vertex 16.4952 8.18318 3
      vertex 13.9986 8.05234 3
      vertex 16.4569 7.45248 3
    endloop
  endfacet
  facet normal 0 0 1
    outer loop
      vertex 16.4569 7.45248 3
      vertex 13.9877 7.84357 3
      vertex 16.2675 6.74571 3
    endloop
  endfacet
  facet normal -0 0 1
    outer loop
      vertex 13.9336 7.64163 3
      vertex 16.2675 6.74571 3
      vertex 13.9877 7.84357 3
    endloop
  endfacet
  facet normal -0 0 1
    outer loop
      vertex 13.8387 7.45536 3
      vertex 15.9353 6.09376 3
      vertex 13.9336 7.64163 3
    endloop
  endfacet
  facet normal 0 0 1
    outer loop
      vertex 15.9353 6.09376 3
      vertex 13.8387 7.45536 3
      vertex 15.4749 5.52513 3
    endloop
  endfacet
  facet normal 0 0 1
    outer loop
      vertex 16.4569 7.45248 3
      vertex 13.9986 8.05234 3
      vertex 13.9877 7.84357 3
    endloop
  endfacet
  facet normal 0 -0 1
    outer loop
      vertex 13.9986 8.05234 3
      vertex 16.4119 8.70922 3
      vertex 13.9905 8.10386 3
    endloop
  endfacet
  facet normal 0 0 1
    outer loop
      vertex 16.2675 6.74571 3
      vertex 13.9336 7.64163 3
      vertex 15.9353 6.09376 3
    endloop
  endfacet
  facet normal -0 0 1
    outer loop
      vertex 13.7071 7.29289 3
      vertex 15.4749 5.52513 3
      vertex 13.8387 7.45536 3
    endloop
  endfacet
  facet normal 0 0 1
    outer loop
      vertex 15.4749 5.52513 3
      vertex 13.7071 7.29289 3
      vertex 14.9062 5.06465 3
    endloop
  endfacet
  facet normal -0 0 1
    outer loop
      vertex 13.5446 7.16133 3
      vertex 14.9062 5.06465 3
      vertex 13.7071 7.29289 3
    endloop
  endfacet
  facet normal 0 0 1
    outer loop
      vertex 14.9062 5.06465 3
      vertex 13.5446 7.16133 3
      vertex 14.2543 4.73247 3
    endloop
  endfacet
  facet normal -0 0 1
    outer loop
      vertex 13.3584 7.06642 3
      vertex 14.2543 4.73247 3
      vertex 13.5446 7.16133 3
    endloop
  endfacet
  facet normal 0 0 1
    outer loop
      vertex 14.2543 4.73247 3
      vertex 13.3584 7.06642 3
      vertex 13.5475 4.54309 3
    endloop
  endfacet
  facet normal -0 0 1
    outer loop
      vertex 13.1564 7.01231 3
      vertex 13.5475 4.54309 3
      vertex 13.3584 7.06642 3
    endloop
  endfacet
  facet normal -0 0 1
    outer loop
      vertex 12.9477 7.00137 3
      vertex 13.5475 4.54309 3
      vertex 13.1564 7.01231 3
    endloop
  endfacet
  facet normal 0 0 1
    outer loop
      vertex 12.9477 7.00137 3
      vertex 12.8168 4.5048 3
      vertex 13.5475 4.54309 3
    endloop
  endfacet
  facet normal 0 0 1
    outer loop
      vertex 12.7412 7.03407 3
      vertex 12.8168 4.5048 3
      vertex 12.9477 7.00137 3
    endloop
  endfacet
  facet normal 0 0 1
    outer loop
      vertex 12.0941 4.61926 3
      vertex 12.7412 7.03407 3
      vertex 12.546 7.10899 3
    endloop
  endfacet
  facet normal 0 0 1
    outer loop
      vertex 11.411 4.88148 3
      vertex 12.546 7.10899 3
      vertex 12.3707 7.22285 3
    endloop
  endfacet
  facet normal 0 0 1
    outer loop
      vertex 10.7974 5.27999 3
      vertex 12.3707 7.22285 3
      vertex 12.2229 7.37068 3
    endloop
  endfacet
  facet normal 0 0 1
    outer loop
      vertex 10.28 5.79738 3
      vertex 12.2229 7.37068 3
      vertex 12.109 7.54601 3
    endloop
  endfacet
  facet normal 0 0 1
    outer loop
      vertex 12.7412 7.03407 3
      vertex 12.0941 4.61926 3
      vertex 12.8168 4.5048 3
    endloop
  endfacet
  facet normal 0 0 1
    outer loop
      vertex 9.88148 6.41103 3
      vertex 12.109 7.54601 3
      vertex 12.0341 7.74118 3
    endloop
  endfacet
  facet normal 0 0 1
    outer loop
      vertex 9.61926 7.09413 3
      vertex 12.0341 7.74118 3
      vertex 12.0014 7.94766 3
    endloop
  endfacet
  facet normal 0 0 1
    outer loop
      vertex 12.1613 8.54464 3
      vertex 10.0647 9.90624 3
      vertex 12.0664 8.35837 3
    endloop
  endfacet
  facet normal 0 0 1
    outer loop
      vertex 12.546 7.10899 3
      vertex 11.411 4.88148 3
      vertex 12.0941 4.61926 3
    endloop
  endfacet
  facet normal -0 0 1
    outer loop
      vertex 9.73247 9.25429 3
      vertex 12.0664 8.35837 3
      vertex 10.0647 9.90624 3
    endloop
  endfacet
  facet normal 0 0 1
    outer loop
      vertex 12.3707 7.22285 3
      vertex 10.7974 5.27999 3
      vertex 11.411 4.88148 3
    endloop
  endfacet
  facet normal 0 0 1
    outer loop
      vertex 12.0664 8.35837 3
      vertex 9.73247 9.25429 3
      vertex 12.0123 8.15643 3
    endloop
  endfacet
  facet normal 0 0 1
    outer loop
      vertex 12.2229 7.37068 3
      vertex 10.28 5.79738 3
      vertex 10.7974 5.27999 3
    endloop
  endfacet
  facet normal -0 0 1
    outer loop
      vertex 9.54309 8.54752 3
      vertex 12.0123 8.15643 3
      vertex 9.73247 9.25429 3
    endloop
  endfacet
  facet normal 0 0 1
    outer loop
      vertex 12.109 7.54601 3
      vertex 9.88148 6.41103 3
      vertex 10.28 5.79738 3
    endloop
  endfacet
  facet normal 0 0 1
    outer loop
      vertex 12.0123 8.15643 3
      vertex 9.54309 8.54752 3
      vertex 12.0014 7.94766 3
    endloop
  endfacet
  facet normal 0 0 1
    outer loop
      vertex 12.0341 7.74118 3
      vertex 9.61926 7.09413 3
      vertex 9.88148 6.41103 3
    endloop
  endfacet
  facet normal 0 0 1
    outer loop
      vertex 9.5048 7.81682 3
      vertex 12.0014 7.94766 3
      vertex 9.54309 8.54752 3
    endloop
  endfacet
  facet normal 0 0 1
    outer loop
      vertex 12.0014 7.94766 3
      vertex 9.5048 7.81682 3
      vertex 9.61926 7.09413 3
    endloop
  endfacet
  facet normal 0.987693 0.156404 0
    outer loop
      vertex 16.4952 8.18318 3
      vertex 16.4119 8.70922 0
      vertex 16.4119 8.70922 3
    endloop
  endfacet
  facet normal 0.987693 0.156404 0
    outer loop
      vertex 16.4119 8.70922 0
      vertex 16.4952 8.18318 3
      vertex 16.4952 8.18318 0
    endloop
  endfacet
  facet normal 0.258811 -0.965928 0
    outer loop
      vertex 13.5475 4.54309 0
      vertex 14.2543 4.73247 3
      vertex 13.5475 4.54309 3
    endloop
  endfacet
  facet normal 0.258811 -0.965928 0
    outer loop
      vertex 14.2543 4.73247 3
      vertex 13.5475 4.54309 0
      vertex 14.2543 4.73247 0
    endloop
  endfacet
  facet normal 0.891025 -0.453955 0
    outer loop
      vertex 12.0664 8.35837 3
      vertex 12.1613 8.54464 0
      vertex 12.1613 8.54464 3
    endloop
  endfacet
  facet normal 0.891025 -0.453955 0
    outer loop
      vertex 12.1613 8.54464 0
      vertex 12.0664 8.35837 3
      vertex 12.0664 8.35837 0
    endloop
  endfacet
  facet normal 0.777066 -0.62942 0
    outer loop
      vertex 12.1613 8.54464 3
      vertex 12.2929 8.70711 0
      vertex 12.2929 8.70711 3
    endloop
  endfacet
  facet normal 0.777066 -0.62942 0
    outer loop
      vertex 12.2929 8.70711 0
      vertex 12.1613 8.54464 3
      vertex 12.1613 8.54464 0
    endloop
  endfacet
  facet normal 0.965937 -0.258776 0
    outer loop
      vertex 12.0123 8.15643 3
      vertex 12.0664 8.35837 0
      vertex 12.0664 8.35837 3
    endloop
  endfacet
  facet normal 0.965937 -0.258776 0
    outer loop
      vertex 12.0664 8.35837 0
      vertex 12.0123 8.15643 3
      vertex 12.0123 8.15643 0
    endloop
  endfacet
  facet normal 0.358325 0.933597 -0
    outer loop
      vertex 12.7412 7.03407 0
      vertex 12.546 7.10899 3
      vertex 12.7412 7.03407 3
    endloop
  endfacet
  facet normal 0.358325 0.933597 0
    outer loop
      vertex 12.546 7.10899 3
      vertex 12.7412 7.03407 0
      vertex 12.546 7.10899 0
    endloop
  endfacet
  facet normal 0.454129 -0.890936 0
    outer loop
      vertex 12.4554 8.83867 0
      vertex 12.6416 8.93358 3
      vertex 12.4554 8.83867 3
    endloop
  endfacet
  facet normal 0.454129 -0.890936 0
    outer loop
      vertex 12.6416 8.93358 3
      vertex 12.4554 8.83867 0
      vertex 12.6416 8.93358 0
    endloop
  endfacet
  facet normal 0.629234 -0.777216 0
    outer loop
      vertex 12.2929 8.70711 0
      vertex 12.4554 8.83867 3
      vertex 12.2929 8.70711 3
    endloop
  endfacet
  facet normal 0.629234 -0.777216 0
    outer loop
      vertex 12.4554 8.83867 3
      vertex 12.2929 8.70711 0
      vertex 12.4554 8.83867 0
    endloop
  endfacet
  facet normal 0.93361 0.35829 0
    outer loop
      vertex 12.109 7.54601 3
      vertex 12.0341 7.74118 0
      vertex 12.0341 7.74118 3
    endloop
  endfacet
  facet normal 0.93361 0.35829 0
    outer loop
      vertex 12.0341 7.74118 0
      vertex 12.109 7.54601 3
      vertex 12.109 7.54601 0
    endloop
  endfacet
  facet normal -0.258749 0.965945 0
    outer loop
      vertex 13.3584 7.06642 0
      vertex 13.1564 7.01231 3
      vertex 13.3584 7.06642 3
    endloop
  endfacet
  facet normal -0.258749 0.965945 0
    outer loop
      vertex 13.1564 7.01231 3
      vertex 13.3584 7.06642 0
      vertex 13.1564 7.01231 0
    endloop
  endfacet
  facet normal 0.156405 0.987693 -0
    outer loop
      vertex 12.9477 7.00137 0
      vertex 12.7412 7.03407 3
      vertex 12.9477 7.00137 3
    endloop
  endfacet
  facet normal 0.156405 0.987693 0
    outer loop
      vertex 12.7412 7.03407 3
      vertex 12.9477 7.00137 0
      vertex 12.7412 7.03407 0
    endloop
  endfacet
  facet normal 0.258749 -0.965945 0
    outer loop
      vertex 12.6416 8.93358 0
      vertex 12.8436 8.98769 3
      vertex 12.6416 8.93358 3
    endloop
  endfacet
  facet normal 0.258749 -0.965945 0
    outer loop
      vertex 12.8436 8.98769 3
      vertex 12.6416 8.93358 0
      vertex 12.8436 8.98769 0
    endloop
  endfacet
  facet normal 0.707179 0.707035 0
    outer loop
      vertex 12.3707 7.22285 3
      vertex 12.2229 7.37068 0
      vertex 12.2229 7.37068 3
    endloop
  endfacet
  facet normal 0.707179 0.707035 0
    outer loop
      vertex 12.2229 7.37068 0
      vertex 12.3707 7.22285 3
      vertex 12.3707 7.22285 0
    endloop
  endfacet
  facet normal -0.156198 -0.987726 0
    outer loop
      vertex 13.0523 8.99863 0
      vertex 13.1039 8.99047 3
      vertex 13.0523 8.99863 3
    endloop
  endfacet
  facet normal -0.156198 -0.987726 -0
    outer loop
      vertex 13.1039 8.99047 3
      vertex 13.0523 8.99863 0
      vertex 13.1039 8.99047 0
    endloop
  endfacet
  facet normal 0.99864 -0.0521396 0
    outer loop
      vertex 12.0014 7.94766 3
      vertex 12.0123 8.15643 0
      vertex 12.0123 8.15643 3
    endloop
  endfacet
  facet normal 0.99864 -0.0521396 0
    outer loop
      vertex 12.0123 8.15643 0
      vertex 12.0014 7.94766 3
      vertex 12.0014 7.94766 0
    endloop
  endfacet
  facet normal -0.454129 0.890936 0
    outer loop
      vertex 13.5446 7.16133 0
      vertex 13.3584 7.06642 3
      vertex 13.5446 7.16133 3
    endloop
  endfacet
  facet normal -0.454129 0.890936 0
    outer loop
      vertex 13.3584 7.06642 3
      vertex 13.5446 7.16133 0
      vertex 13.3584 7.06642 0
    endloop
  endfacet
  facet normal 0.544702 0.838629 -0
    outer loop
      vertex 12.546 7.10899 0
      vertex 12.3707 7.22285 3
      vertex 12.546 7.10899 3
    endloop
  endfacet
  facet normal 0.544702 0.838629 0
    outer loop
      vertex 12.3707 7.22285 3
      vertex 12.546 7.10899 0
      vertex 12.3707 7.22285 0
    endloop
  endfacet
  facet normal -0.965937 0.258776 0
    outer loop
      vertex 13.9336 7.64163 0
      vertex 13.9877 7.84357 3
      vertex 13.9877 7.84357 0
    endloop
  endfacet
  facet normal -0.965937 0.258776 0
    outer loop
      vertex 13.9877 7.84357 3
      vertex 13.9336 7.64163 0
      vertex 13.9336 7.64163 3
    endloop
  endfacet
  facet normal -0.629234 0.777216 0
    outer loop
      vertex 13.7071 7.29289 0
      vertex 13.5446 7.16133 3
      vertex 13.7071 7.29289 3
    endloop
  endfacet
  facet normal -0.629234 0.777216 0
    outer loop
      vertex 13.5446 7.16133 3
      vertex 13.7071 7.29289 0
      vertex 13.5446 7.16133 0
    endloop
  endfacet
  facet normal 0.987691 0.156419 0
    outer loop
      vertex 12.0341 7.74118 3
      vertex 12.0014 7.94766 0
      vertex 12.0014 7.94766 3
    endloop
  endfacet
  facet normal 0.987691 0.156419 0
    outer loop
      vertex 12.0014 7.94766 0
      vertex 12.0341 7.74118 3
      vertex 12.0341 7.74118 0
    endloop
  endfacet
  facet normal 0.838585 0.544771 0
    outer loop
      vertex 12.2229 7.37068 3
      vertex 12.109 7.54601 0
      vertex 12.109 7.54601 3
    endloop
  endfacet
  facet normal 0.838585 0.544771 0
    outer loop
      vertex 12.109 7.54601 0
      vertex 12.2229 7.37068 3
      vertex 12.2229 7.37068 0
    endloop
  endfacet
  facet normal 0.0523479 -0.998629 0
    outer loop
      vertex 12.8436 8.98769 0
      vertex 13.0523 8.99863 3
      vertex 12.8436 8.98769 3
    endloop
  endfacet
  facet normal 0.0523479 -0.998629 0
    outer loop
      vertex 13.0523 8.99863 3
      vertex 12.8436 8.98769 0
      vertex 13.0523 8.99863 0
    endloop
  endfacet
  facet normal -0.777066 0.62942 0
    outer loop
      vertex 13.7071 7.29289 0
      vertex 13.8387 7.45536 3
      vertex 13.8387 7.45536 0
    endloop
  endfacet
  facet normal -0.777066 0.62942 0
    outer loop
      vertex 13.8387 7.45536 3
      vertex 13.7071 7.29289 0
      vertex 13.7071 7.29289 3
    endloop
  endfacet
  facet normal -0.891025 0.453955 0
    outer loop
      vertex 13.8387 7.45536 0
      vertex 13.9336 7.64163 3
      vertex 13.9336 7.64163 0
    endloop
  endfacet
  facet normal -0.891025 0.453955 0
    outer loop
      vertex 13.9336 7.64163 3
      vertex 13.8387 7.45536 0
      vertex 13.8387 7.45536 3
    endloop
  endfacet
  facet normal -0.987865 -0.155313 0
    outer loop
      vertex 13.9986 8.05234 0
      vertex 13.9905 8.10386 3
      vertex 13.9905 8.10386 0
    endloop
  endfacet
  facet normal -0.987865 -0.155313 0
    outer loop
      vertex 13.9905 8.10386 3
      vertex 13.9986 8.05234 0
      vertex 13.9986 8.05234 3
    endloop
  endfacet
  facet normal -0.99864 0.0521396 0
    outer loop
      vertex 13.9877 7.84357 0
      vertex 13.9986 8.05234 3
      vertex 13.9986 8.05234 0
    endloop
  endfacet
  facet normal -0.99864 0.0521396 0
    outer loop
      vertex 13.9986 8.05234 3
      vertex 13.9877 7.84357 0
      vertex 13.9877 7.84357 3
    endloop
  endfacet
  facet normal -0.0523479 0.998629 0
    outer loop
      vertex 13.1564 7.01231 0
      vertex 12.9477 7.00137 3
      vertex 13.1564 7.01231 3
    endloop
  endfacet
  facet normal -0.0523479 0.998629 0
    outer loop
      vertex 12.9477 7.00137 3
      vertex 13.1564 7.01231 0
      vertex 12.9477 7.00137 0
    endloop
  endfacet
  facet normal 0.970148 -0.242514 0
    outer loop
      vertex 13.1039 8.99047 3
      vertex 13.7092 11.4119 0
      vertex 13.7092 11.4119 3
    endloop
  endfacet
  facet normal 0.970148 -0.242514 0
    outer loop
      vertex 13.7092 11.4119 0
      vertex 13.1039 8.99047 3
      vertex 13.1039 8.99047 0
    endloop
  endfacet
  facet normal -0.242539 0.970142 0
    outer loop
      vertex 16.4119 8.70922 0
      vertex 13.9905 8.10386 3
      vertex 16.4119 8.70922 3
    endloop
  endfacet
  facet normal -0.242539 0.970142 0
    outer loop
      vertex 13.9905 8.10386 3
      vertex 16.4119 8.70922 0
      vertex 13.9905 8.10386 0
    endloop
  endfacet
  facet normal 0.121915 0.992541 -0
    outer loop
      vertex 13.7873 22.9103 0
      vertex 13.0611 22.9995 3
      vertex 13.7873 22.9103 3
    endloop
  endfacet
  facet normal 0.121915 0.992541 0
    outer loop
      vertex 13.0611 22.9995 3
      vertex 13.7873 22.9103 0
      vertex 13.0611 22.9995 0
    endloop
  endfacet
  facet normal 0.325519 0.945536 -0
    outer loop
      vertex 14.4792 22.6721 0
      vertex 13.7873 22.9103 3
      vertex 14.4792 22.6721 3
    endloop
  endfacet
  facet normal 0.325519 0.945536 0
    outer loop
      vertex 13.7873 22.9103 3
      vertex 14.4792 22.6721 0
      vertex 13.7873 22.9103 0
    endloop
  endfacet
  facet normal -0.0871958 0.996191 0
    outer loop
      vertex 13.0611 22.9995 0
      vertex 12.3322 22.9357 3
      vertex 13.0611 22.9995 3
    endloop
  endfacet
  facet normal -0.0871958 0.996191 0
    outer loop
      vertex 12.3322 22.9357 3
      vertex 13.0611 22.9995 0
      vertex 12.3322 22.9357 0
    endloop
  endfacet
  facet normal -0.999848 0.0174546 0
    outer loop
      vertex 9.51332 19.195 0
      vertex 9.52609 19.9265 3
      vertex 9.52609 19.9265 0
    endloop
  endfacet
  facet normal -0.999848 0.0174546 0
    outer loop
      vertex 9.52609 19.9265 3
      vertex 9.51332 19.195 0
      vertex 9.51332 19.195 3
    endloop
  endfacet
  facet normal -0.656043 0.754723 0
    outer loop
      vertex 10.9925 22.367 0
      vertex 10.4403 21.887 3
      vertex 10.9925 22.367 3
    endloop
  endfacet
  facet normal -0.656043 0.754723 0
    outer loop
      vertex 10.4403 21.887 3
      vertex 10.9925 22.367 0
      vertex 10.4403 21.887 0
    endloop
  endfacet
  facet normal 0.515078 0.857143 -0
    outer loop
      vertex 15.1064 22.2952 0
      vertex 14.4792 22.6721 3
      vertex 15.1064 22.2952 3
    endloop
  endfacet
  facet normal 0.515078 0.857143 0
    outer loop
      vertex 14.4792 22.6721 3
      vertex 15.1064 22.2952 0
      vertex 14.4792 22.6721 0
    endloop
  endfacet
  facet normal -0.920497 -0.39075 0
    outer loop
      vertex 9.93883 17.8032 0
      vertex 9.65293 18.4767 3
      vertex 9.65293 18.4767 0
    endloop
  endfacet
  facet normal -0.920497 -0.39075 0
    outer loop
      vertex 9.65293 18.4767 3
      vertex 9.93883 17.8032 0
      vertex 9.93883 17.8032 3
    endloop
  endfacet
  facet normal -0.981631 -0.190791 0
    outer loop
      vertex 9.65293 18.4767 0
      vertex 9.51332 19.195 3
      vertex 9.51332 19.195 0
    endloop
  endfacet
  facet normal -0.981631 -0.190791 0
    outer loop
      vertex 9.51332 19.195 3
      vertex 9.65293 18.4767 0
      vertex 9.65293 18.4767 3
    endloop
  endfacet
  facet normal -0.292309 0.956324 0
    outer loop
      vertex 12.3322 22.9357 0
      vertex 11.6324 22.7218 3
      vertex 12.3322 22.9357 3
    endloop
  endfacet
  facet normal -0.292309 0.956324 0
    outer loop
      vertex 11.6324 22.7218 3
      vertex 12.3322 22.9357 0
      vertex 11.6324 22.7218 0
    endloop
  endfacet
  facet normal 0.682007 0.731346 -0
    outer loop
      vertex 15.6415 21.7962 0
      vertex 15.1064 22.2952 3
      vertex 15.6415 21.7962 3
    endloop
  endfacet
  facet normal 0.682007 0.731346 0
    outer loop
      vertex 15.1064 22.2952 3
      vertex 15.6415 21.7962 0
      vertex 15.1064 22.2952 0
    endloop
  endfacet
  facet normal 0.0871958 -0.996191 0
    outer loop
      vertex 12.9389 16.0005 0
      vertex 13.6678 16.0643 3
      vertex 12.9389 16.0005 3
    endloop
  endfacet
  facet normal 0.0871958 -0.996191 0
    outer loop
      vertex 13.6678 16.0643 3
      vertex 12.9389 16.0005 0
      vertex 13.6678 16.0643 0
    endloop
  endfacet
  facet normal -0.682007 -0.731346 0
    outer loop
      vertex 10.3585 17.2038 2
      vertex 10.8936 16.7048 3
      vertex 10.3585 17.2038 3
    endloop
  endfacet
  facet normal -0.682007 -0.731346 -0
    outer loop
      vertex 10.8936 16.7048 3
      vertex 10.3585 17.2038 2
      vertex 10.8936 16.7048 2
    endloop
  endfacet
  facet normal -0.121915 -0.992541 0
    outer loop
      vertex 12.2127 16.0897 0
      vertex 12.9389 16.0005 3
      vertex 12.2127 16.0897 3
    endloop
  endfacet
  facet normal -0.121915 -0.992541 -0
    outer loop
      vertex 12.9389 16.0005 3
      vertex 12.2127 16.0897 0
      vertex 12.9389 16.0005 0
    endloop
  endfacet
  facet normal -0.515078 -0.857143 0
    outer loop
      vertex 10.8936 16.7048 2
      vertex 11.5208 16.3279 3
      vertex 10.8936 16.7048 3
    endloop
  endfacet
  facet normal -0.515078 -0.857143 -0
    outer loop
      vertex 11.5208 16.3279 3
      vertex 10.8936 16.7048 2
      vertex 11.5208 16.3279 2
    endloop
  endfacet
  facet normal -0.906302 0.422631 0
    outer loop
      vertex 9.69069 20.6395 0
      vertex 9.99991 21.3026 3
      vertex 9.99991 21.3026 0
    endloop
  endfacet
  facet normal -0.906302 0.422631 0
    outer loop
      vertex 9.99991 21.3026 3
      vertex 9.69069 20.6395 0
      vertex 9.69069 20.6395 3
    endloop
  endfacet
  facet normal 0.920497 0.39075 0
    outer loop
      vertex 16.3471 20.5233 3
      vertex 16.0612 21.1968 0
      vertex 16.0612 21.1968 3
    endloop
  endfacet
  facet normal 0.920497 0.39075 0
    outer loop
      vertex 16.0612 21.1968 0
      vertex 16.3471 20.5233 3
      vertex 16.3471 20.5233 0
    endloop
  endfacet
  facet normal 0.819155 0.573572 0
    outer loop
      vertex 16.0612 21.1968 3
      vertex 15.6415 21.7962 0
      vertex 15.6415 21.7962 3
    endloop
  endfacet
  facet normal 0.819155 0.573572 0
    outer loop
      vertex 15.6415 21.7962 0
      vertex 16.0612 21.1968 3
      vertex 16.0612 21.1968 0
    endloop
  endfacet
  facet normal -0.798627 0.601826 0
    outer loop
      vertex 9.99991 21.3026 0
      vertex 10.4403 21.887 3
      vertex 10.4403 21.887 0
    endloop
  endfacet
  facet normal -0.798627 0.601826 0
    outer loop
      vertex 10.4403 21.887 3
      vertex 9.99991 21.3026 0
      vertex 9.99991 21.3026 3
    endloop
  endfacet
  facet normal 0.981635 0.190769 0
    outer loop
      vertex 16.4487 20.0005 3
      vertex 16.3471 20.5233 0
      vertex 16.3471 20.5233 3
    endloop
  endfacet
  facet normal 0.981635 0.190769 0
    outer loop
      vertex 16.3471 20.5233 0
      vertex 16.4487 20.0005 3
      vertex 16.4487 20.0005 0
    endloop
  endfacet
  facet normal -0.484912 0.874563 0
    outer loop
      vertex 11.6324 22.7218 0
      vertex 10.9925 22.367 3
      vertex 11.6324 22.7218 3
    endloop
  endfacet
  facet normal -0.484912 0.874563 0
    outer loop
      vertex 10.9925 22.367 3
      vertex 11.6324 22.7218 0
      vertex 10.9925 22.367 0
    endloop
  endfacet
  facet normal -0.974373 0.224939 0
    outer loop
      vertex 9.52609 19.9265 0
      vertex 9.69069 20.6395 3
      vertex 9.69069 20.6395 0
    endloop
  endfacet
  facet normal -0.974373 0.224939 0
    outer loop
      vertex 9.69069 20.6395 3
      vertex 9.52609 19.9265 0
      vertex 9.52609 19.9265 3
    endloop
  endfacet
  facet normal -0.325565 -0.94552 0
    outer loop
      vertex 12 16.1629 2
      vertex 11.5208 16.3279 3
      vertex 11.5208 16.3279 2
    endloop
  endfacet
  facet normal -0.325519 -0.945536 2.46804e-05
    outer loop
      vertex 11.5208 16.3279 3
      vertex 12 16.1629 2
      vertex 12.2127 16.0897 3
    endloop
  endfacet
  facet normal -0.325415 -0.945571 0
    outer loop
      vertex 12.2127 16.0897 0
      vertex 12 16.1629 2
      vertex 12 16.1629 0
    endloop
  endfacet
  facet normal -0.325415 -0.945571 0
    outer loop
      vertex 12 16.1629 2
      vertex 12.2127 16.0897 0
      vertex 12.2127 16.0897 3
    endloop
  endfacet
  facet normal 0.292309 -0.956324 0
    outer loop
      vertex 13.6678 16.0643 0
      vertex 14.3676 16.2782 3
      vertex 13.6678 16.0643 3
    endloop
  endfacet
  facet normal 0.292309 -0.956324 0
    outer loop
      vertex 14.3676 16.2782 3
      vertex 13.6678 16.0643 0
      vertex 14.3676 16.2782 0
    endloop
  endfacet
  facet normal 0 0 1
    outer loop
      vertex 13.9563 19.7924 3
      vertex 16.3471 20.5233 3
      vertex 16.0612 21.1968 3
    endloop
  endfacet
  facet normal 0 0 1
    outer loop
      vertex 13.8746 19.9848 3
      vertex 16.0612 21.1968 3
      vertex 15.6415 21.7962 3
    endloop
  endfacet
  facet normal 0 0 1
    outer loop
      vertex 13.7547 20.1561 3
      vertex 15.6415 21.7962 3
      vertex 15.1064 22.2952 3
    endloop
  endfacet
  facet normal 0 0 1
    outer loop
      vertex 13.6018 20.2986 3
      vertex 15.1064 22.2952 3
      vertex 14.4792 22.6721 3
    endloop
  endfacet
  facet normal 0 0 1
    outer loop
      vertex 15.6415 21.7962 3
      vertex 13.7547 20.1561 3
      vertex 13.8746 19.9848 3
    endloop
  endfacet
  facet normal 0 0 1
    outer loop
      vertex 16.4487 20.0005 3
      vertex 13.9563 19.7924 3
      vertex 13.9663 19.7412 3
    endloop
  endfacet
  facet normal 0 0 1
    outer loop
      vertex 16.3471 20.5233 3
      vertex 13.9563 19.7924 3
      vertex 16.4487 20.0005 3
    endloop
  endfacet
  facet normal 0 0 1
    outer loop
      vertex 13.4226 20.4063 3
      vertex 14.4792 22.6721 3
      vertex 13.7873 22.9103 3
    endloop
  endfacet
  facet normal 0 -0 1
    outer loop
      vertex 13.9563 19.7924 3
      vertex 16.0612 21.1968 3
      vertex 13.8746 19.9848 3
    endloop
  endfacet
  facet normal 0 0 1
    outer loop
      vertex 15.1064 22.2952 3
      vertex 13.6018 20.2986 3
      vertex 13.7547 20.1561 3
    endloop
  endfacet
  facet normal 0 0 1
    outer loop
      vertex 14.4792 22.6721 3
      vertex 13.4226 20.4063 3
      vertex 13.6018 20.2986 3
    endloop
  endfacet
  facet normal 0 0 1
    outer loop
      vertex 13.7873 22.9103 3
      vertex 13.225 20.4744 3
      vertex 13.4226 20.4063 3
    endloop
  endfacet
  facet normal 0 0 1
    outer loop
      vertex 13.0611 22.9995 3
      vertex 13.225 20.4744 3
      vertex 13.7873 22.9103 3
    endloop
  endfacet
  facet normal 0 0 1
    outer loop
      vertex 13.0611 22.9995 3
      vertex 13.0175 20.4998 3
      vertex 13.225 20.4744 3
    endloop
  endfacet
  facet normal 0 0 1
    outer loop
      vertex 13.0611 22.9995 3
      vertex 12.8092 20.4816 3
      vertex 13.0175 20.4998 3
    endloop
  endfacet
  facet normal -0 0 1
    outer loop
      vertex 12.3322 22.9357 3
      vertex 12.8092 20.4816 3
      vertex 13.0611 22.9995 3
    endloop
  endfacet
  facet normal 0 0 1
    outer loop
      vertex 12.8092 20.4816 3
      vertex 12.3322 22.9357 3
      vertex 12.6093 20.4205 3
    endloop
  endfacet
  facet normal -0 0 1
    outer loop
      vertex 11.6324 22.7218 3
      vertex 12.6093 20.4205 3
      vertex 12.3322 22.9357 3
    endloop
  endfacet
  facet normal 0 0 1
    outer loop
      vertex 12.6093 20.4205 3
      vertex 11.6324 22.7218 3
      vertex 12.4264 20.3192 3
    endloop
  endfacet
  facet normal -0 0 1
    outer loop
      vertex 10.9925 22.367 3
      vertex 12.4264 20.3192 3
      vertex 11.6324 22.7218 3
    endloop
  endfacet
  facet normal 0 0 1
    outer loop
      vertex 12.4264 20.3192 3
      vertex 10.9925 22.367 3
      vertex 12.2686 20.182 3
    endloop
  endfacet
  facet normal -0 0 1
    outer loop
      vertex 10.4403 21.887 3
      vertex 12.2686 20.182 3
      vertex 10.9925 22.367 3
    endloop
  endfacet
  facet normal -0 0 1
    outer loop
      vertex 9.99991 21.3026 3
      vertex 12.1428 20.015 3
      vertex 10.4403 21.887 3
    endloop
  endfacet
  facet normal 0 0 1
    outer loop
      vertex 12.2686 20.182 3
      vertex 10.4403 21.887 3
      vertex 12.1428 20.015 3
    endloop
  endfacet
  facet normal 0 0 1
    outer loop
      vertex 13.3907 18.5795 3
      vertex 14.3676 16.2782 3
      vertex 14.8334 16.5364 3
    endloop
  endfacet
  facet normal -0 0 1
    outer loop
      vertex 13.3907 18.5795 3
      vertex 14.8334 16.5364 3
      vertex 13.4364 18.6048 3
    endloop
  endfacet
  facet normal 0 0 1
    outer loop
      vertex 14.3676 16.2782 3
      vertex 13.3907 18.5795 3
      vertex 13.6678 16.0643 3
    endloop
  endfacet
  facet normal -0 0 1
    outer loop
      vertex 13.1908 18.5184 3
      vertex 13.6678 16.0643 3
      vertex 13.3907 18.5795 3
    endloop
  endfacet
  facet normal -0 0 1
    outer loop
      vertex 12.9825 18.5002 3
      vertex 13.6678 16.0643 3
      vertex 13.1908 18.5184 3
    endloop
  endfacet
  facet normal 0 0 1
    outer loop
      vertex 12.9825 18.5002 3
      vertex 12.9389 16.0005 3
      vertex 13.6678 16.0643 3
    endloop
  endfacet
  facet normal 0 0 1
    outer loop
      vertex 12.775 18.5256 3
      vertex 12.9389 16.0005 3
      vertex 12.9825 18.5002 3
    endloop
  endfacet
  facet normal 0 0 1
    outer loop
      vertex 12.2127 16.0897 3
      vertex 12.775 18.5256 3
      vertex 12.5774 18.5937 3
    endloop
  endfacet
  facet normal 0 0 1
    outer loop
      vertex 11.5208 16.3279 3
      vertex 12.5774 18.5937 3
      vertex 12.3982 18.7014 3
    endloop
  endfacet
  facet normal 0 0 1
    outer loop
      vertex 10.8936 16.7048 3
      vertex 12.3982 18.7014 3
      vertex 12.2453 18.8439 3
    endloop
  endfacet
  facet normal 0 0 1
    outer loop
      vertex 12.775 18.5256 3
      vertex 12.2127 16.0897 3
      vertex 12.9389 16.0005 3
    endloop
  endfacet
  facet normal 0 0 1
    outer loop
      vertex 10.3585 17.2038 3
      vertex 12.2453 18.8439 3
      vertex 12.1254 19.0152 3
    endloop
  endfacet
  facet normal 0 0 1
    outer loop
      vertex 9.93883 17.8032 3
      vertex 12.1254 19.0152 3
      vertex 12.0437 19.2076 3
    endloop
  endfacet
  facet normal 0 0 1
    outer loop
      vertex 9.65293 18.4767 3
      vertex 12.0437 19.2076 3
      vertex 12.0038 19.4128 3
    endloop
  endfacet
  facet normal 0 0 1
    outer loop
      vertex 12.1428 20.015 3
      vertex 9.99991 21.3026 3
      vertex 12.0545 19.8256 3
    endloop
  endfacet
  facet normal 0 0 1
    outer loop
      vertex 12.5774 18.5937 3
      vertex 11.5208 16.3279 3
      vertex 12.2127 16.0897 3
    endloop
  endfacet
  facet normal -0 0 1
    outer loop
      vertex 9.69069 20.6395 3
      vertex 12.0545 19.8256 3
      vertex 9.99991 21.3026 3
    endloop
  endfacet
  facet normal 0 0 1
    outer loop
      vertex 12.3982 18.7014 3
      vertex 10.8936 16.7048 3
      vertex 11.5208 16.3279 3
    endloop
  endfacet
  facet normal 0 0 1
    outer loop
      vertex 12.0545 19.8256 3
      vertex 9.69069 20.6395 3
      vertex 12.0075 19.6219 3
    endloop
  endfacet
  facet normal 0 0 1
    outer loop
      vertex 12.2453 18.8439 3
      vertex 10.3585 17.2038 3
      vertex 10.8936 16.7048 3
    endloop
  endfacet
  facet normal -0 0 1
    outer loop
      vertex 9.52609 19.9265 3
      vertex 12.0075 19.6219 3
      vertex 9.69069 20.6395 3
    endloop
  endfacet
  facet normal 0 0 1
    outer loop
      vertex 12.1254 19.0152 3
      vertex 9.93883 17.8032 3
      vertex 10.3585 17.2038 3
    endloop
  endfacet
  facet normal 0 0 1
    outer loop
      vertex 12.0075 19.6219 3
      vertex 9.52609 19.9265 3
      vertex 12.0038 19.4128 3
    endloop
  endfacet
  facet normal 0 0 1
    outer loop
      vertex 12.0437 19.2076 3
      vertex 9.65293 18.4767 3
      vertex 9.93883 17.8032 3
    endloop
  endfacet
  facet normal 0 0 1
    outer loop
      vertex 9.51332 19.195 3
      vertex 12.0038 19.4128 3
      vertex 9.52609 19.9265 3
    endloop
  endfacet
  facet normal 0 0 1
    outer loop
      vertex 12.0038 19.4128 3
      vertex 9.51332 19.195 3
      vertex 9.65293 18.4767 3
    endloop
  endfacet
  facet normal 0.484814 -0.874617 0
    outer loop
      vertex 14.3676 16.2782 0
      vertex 14.8334 16.5364 3
      vertex 14.3676 16.2782 3
    endloop
  endfacet
  facet normal 0.484814 -0.874617 0
    outer loop
      vertex 14.8334 16.5364 3
      vertex 14.3676 16.2782 0
      vertex 14.8334 16.5364 0
    endloop
  endfacet
  facet normal -0.819276 -0.573399 -0
    outer loop
      vertex 10 17.7158 2
      vertex 9.93883 17.8032 0
      vertex 10 17.7158 0
    endloop
  endfacet
  facet normal -0.819276 -0.573399 0
    outer loop
      vertex 9.93883 17.8032 0
      vertex 10 17.7158 2
      vertex 9.93883 17.8032 3
    endloop
  endfacet
  facet normal -0.819157 -0.57357 -0
    outer loop
      vertex 10.3585 17.2038 3
      vertex 10 17.7158 2
      vertex 10.3585 17.2038 2
    endloop
  endfacet
  facet normal -0.819174 -0.573545 1.89419e-05
    outer loop
      vertex 10 17.7158 2
      vertex 10.3585 17.2038 3
      vertex 9.93883 17.8032 3
    endloop
  endfacet
  facet normal -0.121503 -0.992591 0
    outer loop
      vertex 13.0175 20.4998 0
      vertex 13.225 20.4744 3
      vertex 13.0175 20.4998 3
    endloop
  endfacet
  facet normal -0.121503 -0.992591 -0
    outer loop
      vertex 13.225 20.4744 3
      vertex 13.0175 20.4998 0
      vertex 13.225 20.4744 0
    endloop
  endfacet
  facet normal -0.325828 -0.945429 0
    outer loop
      vertex 13.225 20.4744 0
      vertex 13.4226 20.4063 3
      vertex 13.225 20.4744 3
    endloop
  endfacet
  facet normal -0.325828 -0.945429 -0
    outer loop
      vertex 13.4226 20.4063 3
      vertex 13.225 20.4744 0
      vertex 13.4226 20.4063 0
    endloop
  endfacet
  facet normal 0.0870424 -0.996205 0
    outer loop
      vertex 12.8092 20.4816 0
      vertex 13.0175 20.4998 3
      vertex 12.8092 20.4816 3
    endloop
  endfacet
  facet normal 0.0870424 -0.996205 0
    outer loop
      vertex 13.0175 20.4998 3
      vertex 12.8092 20.4816 0
      vertex 13.0175 20.4998 0
    endloop
  endfacet
  facet normal 0.999843 -0.0176921 0
    outer loop
      vertex 12.0038 19.4128 3
      vertex 12.0075 19.6219 0
      vertex 12.0075 19.6219 3
    endloop
  endfacet
  facet normal 0.999843 -0.0176921 0
    outer loop
      vertex 12.0075 19.6219 0
      vertex 12.0038 19.4128 3
      vertex 12.0038 19.4128 0
    endloop
  endfacet
  facet normal -0.68179 -0.731548 0
    outer loop
      vertex 13.6018 20.2986 0
      vertex 13.7547 20.1561 3
      vertex 13.6018 20.2986 3
    endloop
  endfacet
  facet normal -0.68179 -0.731548 -0
    outer loop
      vertex 13.7547 20.1561 3
      vertex 13.6018 20.2986 0
      vertex 13.7547 20.1561 0
    endloop
  endfacet
  facet normal -0.515129 -0.857113 0
    outer loop
      vertex 13.4226 20.4063 0
      vertex 13.6018 20.2986 3
      vertex 13.4226 20.4063 3
    endloop
  endfacet
  facet normal -0.515129 -0.857113 -0
    outer loop
      vertex 13.6018 20.2986 3
      vertex 13.4226 20.4063 0
      vertex 13.6018 20.2986 0
    endloop
  endfacet
  facet normal 0.656131 -0.754647 0
    outer loop
      vertex 12.2686 20.182 0
      vertex 12.4264 20.3192 3
      vertex 12.2686 20.182 3
    endloop
  endfacet
  facet normal 0.656131 -0.754647 0
    outer loop
      vertex 12.4264 20.3192 3
      vertex 12.2686 20.182 0
      vertex 12.4264 20.3192 0
    endloop
  endfacet
  facet normal 0.819254 0.57343 0
    outer loop
      vertex 12.2453 18.8439 3
      vertex 12.1254 19.0152 0
      vertex 12.1254 19.0152 3
    endloop
  endfacet
  facet normal 0.819254 0.57343 0
    outer loop
      vertex 12.1254 19.0152 0
      vertex 12.2453 18.8439 3
      vertex 12.2453 18.8439 0
    endloop
  endfacet
  facet normal 0.981615 0.19087 0
    outer loop
      vertex 12.0437 19.2076 3
      vertex 12.0038 19.4128 0
      vertex 12.0038 19.4128 3
    endloop
  endfacet
  facet normal 0.981615 0.19087 0
    outer loop
      vertex 12.0038 19.4128 0
      vertex 12.0437 19.2076 3
      vertex 12.0437 19.2076 0
    endloop
  endfacet
  facet normal -0.819254 -0.57343 0
    outer loop
      vertex 13.8746 19.9848 0
      vertex 13.7547 20.1561 3
      vertex 13.7547 20.1561 0
    endloop
  endfacet
  facet normal -0.819254 -0.57343 0
    outer loop
      vertex 13.7547 20.1561 3
      vertex 13.8746 19.9848 0
      vertex 13.8746 19.9848 3
    endloop
  endfacet
  facet normal 0.906342 -0.422545 0
    outer loop
      vertex 12.0545 19.8256 3
      vertex 12.1428 20.015 0
      vertex 12.1428 20.015 3
    endloop
  endfacet
  facet normal 0.906342 -0.422545 0
    outer loop
      vertex 12.1428 20.015 0
      vertex 12.0545 19.8256 3
      vertex 12.0545 19.8256 0
    endloop
  endfacet
  facet normal -0.981455 -0.191691 0
    outer loop
      vertex 13.9663 19.7412 0
      vertex 13.9563 19.7924 3
      vertex 13.9563 19.7924 0
    endloop
  endfacet
  facet normal -0.981455 -0.191691 0
    outer loop
      vertex 13.9563 19.7924 3
      vertex 13.9663 19.7412 0
      vertex 13.9663 19.7412 3
    endloop
  endfacet
  facet normal 0.292304 -0.956326 0
    outer loop
      vertex 12.6093 20.4205 0
      vertex 12.8092 20.4816 3
      vertex 12.6093 20.4205 3
    endloop
  endfacet
  facet normal 0.292304 -0.956326 0
    outer loop
      vertex 12.8092 20.4816 3
      vertex 12.6093 20.4205 0
      vertex 12.8092 20.4816 0
    endloop
  endfacet
  facet normal 0.68179 0.731548 -0
    outer loop
      vertex 12.3982 18.7014 0
      vertex 12.2453 18.8439 3
      vertex 12.3982 18.7014 3
    endloop
  endfacet
  facet normal 0.68179 0.731548 0
    outer loop
      vertex 12.2453 18.8439 3
      vertex 12.3982 18.7014 0
      vertex 12.2453 18.8439 0
    endloop
  endfacet
  facet normal 0.974399 -0.224825 0
    outer loop
      vertex 12.0075 19.6219 3
      vertex 12.0545 19.8256 0
      vertex 12.0545 19.8256 3
    endloop
  endfacet
  facet normal 0.974399 -0.224825 0
    outer loop
      vertex 12.0545 19.8256 0
      vertex 12.0075 19.6219 3
      vertex 12.0075 19.6219 0
    endloop
  endfacet
  facet normal -0.0870424 0.996205 0
    outer loop
      vertex 13.1908 18.5184 0
      vertex 12.9825 18.5002 3
      vertex 13.1908 18.5184 3
    endloop
  endfacet
  facet normal -0.0870424 0.996205 0
    outer loop
      vertex 12.9825 18.5002 3
      vertex 13.1908 18.5184 0
      vertex 12.9825 18.5002 0
    endloop
  endfacet
  facet normal 0.515129 0.857113 -0
    outer loop
      vertex 12.5774 18.5937 0
      vertex 12.3982 18.7014 3
      vertex 12.5774 18.5937 3
    endloop
  endfacet
  facet normal 0.515129 0.857113 0
    outer loop
      vertex 12.3982 18.7014 3
      vertex 12.5774 18.5937 0
      vertex 12.3982 18.7014 0
    endloop
  endfacet
  facet normal 0.484505 -0.874788 0
    outer loop
      vertex 12.4264 20.3192 0
      vertex 12.6093 20.4205 3
      vertex 12.4264 20.3192 3
    endloop
  endfacet
  facet normal 0.484505 -0.874788 0
    outer loop
      vertex 12.6093 20.4205 3
      vertex 12.4264 20.3192 0
      vertex 12.6093 20.4205 0
    endloop
  endfacet
  facet normal 0.798736 -0.601682 0
    outer loop
      vertex 12.1428 20.015 3
      vertex 12.2686 20.182 0
      vertex 12.2686 20.182 3
    endloop
  endfacet
  facet normal 0.798736 -0.601682 0
    outer loop
      vertex 12.2686 20.182 0
      vertex 12.1428 20.015 3
      vertex 12.1428 20.015 0
    endloop
  endfacet
  facet normal -0.920451 -0.390857 0
    outer loop
      vertex 13.9563 19.7924 0
      vertex 13.8746 19.9848 3
      vertex 13.8746 19.9848 0
    endloop
  endfacet
  facet normal -0.920451 -0.390857 0
    outer loop
      vertex 13.8746 19.9848 3
      vertex 13.9563 19.7924 0
      vertex 13.9563 19.7924 3
    endloop
  endfacet
  facet normal 0.325828 0.945429 -0
    outer loop
      vertex 12.775 18.5256 0
      vertex 12.5774 18.5937 3
      vertex 12.775 18.5256 3
    endloop
  endfacet
  facet normal 0.325828 0.945429 0
    outer loop
      vertex 12.5774 18.5937 3
      vertex 12.775 18.5256 0
      vertex 12.5774 18.5937 0
    endloop
  endfacet
  facet normal 0.121503 0.992591 -0
    outer loop
      vertex 12.9825 18.5002 0
      vertex 12.775 18.5256 3
      vertex 12.9825 18.5002 3
    endloop
  endfacet
  facet normal 0.121503 0.992591 0
    outer loop
      vertex 12.775 18.5256 3
      vertex 12.9825 18.5002 0
      vertex 12.775 18.5256 0
    endloop
  endfacet
  facet normal -0.484342 0.874879 0
    outer loop
      vertex 13.4364 18.6048 0
      vertex 13.3907 18.5795 3
      vertex 13.4364 18.6048 3
    endloop
  endfacet
  facet normal -0.484342 0.874879 0
    outer loop
      vertex 13.3907 18.5795 3
      vertex 13.4364 18.6048 0
      vertex 13.3907 18.5795 0
    endloop
  endfacet
  facet normal -0.292304 0.956326 0
    outer loop
      vertex 13.3907 18.5795 0
      vertex 13.1908 18.5184 3
      vertex 13.3907 18.5795 3
    endloop
  endfacet
  facet normal -0.292304 0.956326 0
    outer loop
      vertex 13.1908 18.5184 3
      vertex 13.3907 18.5795 0
      vertex 13.1908 18.5184 0
    endloop
  endfacet
  facet normal 0.920451 0.390857 0
    outer loop
      vertex 12.1254 19.0152 3
      vertex 12.0437 19.2076 0
      vertex 12.0437 19.2076 3
    endloop
  endfacet
  facet normal 0.920451 0.390857 0
    outer loop
      vertex 12.0437 19.2076 0
      vertex 12.1254 19.0152 3
      vertex 12.1254 19.0152 0
    endloop
  endfacet
  facet normal 0.10389 -0.994589 0
    outer loop
      vertex 13.9663 19.7412 0
      vertex 16.4487 20.0005 3
      vertex 13.9663 19.7412 3
    endloop
  endfacet
  facet normal 0.10389 -0.994589 0
    outer loop
      vertex 16.4487 20.0005 3
      vertex 13.9663 19.7412 0
      vertex 16.4487 20.0005 0
    endloop
  endfacet
  facet normal 0.828694 0.559701 0
    outer loop
      vertex 14.8334 16.5364 3
      vertex 13.4364 18.6048 0
      vertex 13.4364 18.6048 3
    endloop
  endfacet
  facet normal 0.828694 0.559701 0
    outer loop
      vertex 13.4364 18.6048 0
      vertex 14.8334 16.5364 3
      vertex 14.8334 16.5364 0
    endloop
  endfacet
  facet normal 0 0 1
    outer loop
      vertex 12 16.1629 2
      vertex 11.7457 11.2675 2
      vertex 12 11.3357 2
    endloop
  endfacet
  facet normal 0 0 1
    outer loop
      vertex 11.5208 16.3279 2
      vertex 11.7457 11.2675 2
      vertex 12 16.1629 2
    endloop
  endfacet
  facet normal 0 0 1
    outer loop
      vertex 11.5208 16.3279 2
      vertex 11.0938 10.9353 2
      vertex 11.7457 11.2675 2
    endloop
  endfacet
  facet normal 0 0 1
    outer loop
      vertex 10.8936 16.7048 2
      vertex 11.0938 10.9353 2
      vertex 11.5208 16.3279 2
    endloop
  endfacet
  facet normal 0 0 1
    outer loop
      vertex 10.8936 16.7048 2
      vertex 10.5251 10.4749 2
      vertex 11.0938 10.9353 2
    endloop
  endfacet
  facet normal 0 0 1
    outer loop
      vertex 10.3585 17.2038 2
      vertex 10.5251 10.4749 2
      vertex 10.8936 16.7048 2
    endloop
  endfacet
  facet normal 0 0 1
    outer loop
      vertex 10.3585 17.2038 2
      vertex 10.0647 9.90624 2
      vertex 10.5251 10.4749 2
    endloop
  endfacet
  facet normal 0 0 1
    outer loop
      vertex 10 17.7158 2
      vertex 10.0647 9.90624 2
      vertex 10.3585 17.2038 2
    endloop
  endfacet
  facet normal 0 0 1
    outer loop
      vertex 10.0647 9.90624 2
      vertex 10 17.7158 2
      vertex 10 9.77935 2
    endloop
  endfacet
  facet normal -1 0 0
    outer loop
      vertex 10 9.77935 0
      vertex 10 17.7158 2
      vertex 10 17.7158 0
    endloop
  endfacet
  facet normal -1 -0 0
    outer loop
      vertex 10 17.7158 2
      vertex 10 9.77935 0
      vertex 10 9.77935 2
    endloop
  endfacet
  facet normal 1 -0 0
    outer loop
      vertex 12 11.3357 2
      vertex 12 16.1629 0
      vertex 12 16.1629 2
    endloop
  endfacet
  facet normal 1 0 0
    outer loop
      vertex 12 16.1629 0
      vertex 12 11.3357 2
      vertex 12 11.3357 0
    endloop
  endfacet
endsolid OpenSCAD_Model
