solid OpenSCAD_Model
  facet normal 0 0 1
    outer loop
      vertex 0 16.708 1
      vertex -1.3275 12.6304 1
      vertex 0 12.6304 1
    endloop
  endfacet
  facet normal -0 0 1
    outer loop
      vertex -1.75607 16.708 1
      vertex -1.3275 12.6304 1
      vertex 0 16.708 1
    endloop
  endfacet
  facet normal 0 0 1
    outer loop
      vertex -1.75607 16.708 1
      vertex -3.92451 12.0784 1
      vertex -1.3275 12.6304 1
    endloop
  endfacet
  facet normal -0 0 1
    outer loop
      vertex -5.19148 15.9777 1
      vertex -3.92451 12.0784 1
      vertex -1.75607 16.708 1
    endloop
  endfacet
  facet normal 0 0 1
    outer loop
      vertex -5.19148 15.9777 1
      vertex -6.34999 10.9985 1
      vertex -3.92451 12.0784 1
    endloop
  endfacet
  facet normal -0 0 1
    outer loop
      vertex -8.39999 14.5492 1
      vertex -6.34999 10.9985 1
      vertex -5.19148 15.9777 1
    endloop
  endfacet
  facet normal 0 0 1
    outer loop
      vertex -8.39999 14.5492 1
      vertex -8.49796 9.43793 1
      vertex -6.34999 10.9985 1
    endloop
  endfacet
  facet normal -0 0 1
    outer loop
      vertex -11.2414 12.4848 1
      vertex -8.49796 9.43793 1
      vertex -8.39999 14.5492 1
    endloop
  endfacet
  facet normal 0 0 1
    outer loop
      vertex -8.49796 9.43793 1
      vertex -11.2414 12.4848 1
      vertex -10.2745 7.46486 1
    endloop
  endfacet
  facet normal -0 0 1
    outer loop
      vertex -13.5915 9.87479 1
      vertex -10.2745 7.46486 1
      vertex -11.2414 12.4848 1
    endloop
  endfacet
  facet normal 0 0 1
    outer loop
      vertex -10.2745 7.46486 1
      vertex -13.5915 9.87479 1
      vertex -11.602 5.16554 1
    endloop
  endfacet
  facet normal 0 0 1
    outer loop
      vertex -11.602 5.16554 1
      vertex -15.3475 6.83316 1
      vertex -12.4225 2.64047 1
    endloop
  endfacet
  facet normal -0 0 1
    outer loop
      vertex -15.3475 6.83316 1
      vertex -11.602 5.16554 1
      vertex -13.5915 9.87479 1
    endloop
  endfacet
  facet normal -0 0 1
    outer loop
      vertex -1.3275 -12.6304 1
      vertex 0 -16.708 1
      vertex 0 -12.6304 1
    endloop
  endfacet
  facet normal 0 0 1
    outer loop
      vertex -1.3275 -12.6304 1
      vertex -1.75607 -16.708 1
      vertex 0 -16.708 1
    endloop
  endfacet
  facet normal 0 0 1
    outer loop
      vertex -3.92451 -12.0784 1
      vertex -1.75607 -16.708 1
      vertex -1.3275 -12.6304 1
    endloop
  endfacet
  facet normal 0 0 1
    outer loop
      vertex -3.92451 -12.0784 1
      vertex -5.19148 -15.9777 1
      vertex -1.75607 -16.708 1
    endloop
  endfacet
  facet normal 0 0 1
    outer loop
      vertex -6.34999 -10.9985 1
      vertex -5.19148 -15.9777 1
      vertex -3.92451 -12.0784 1
    endloop
  endfacet
  facet normal 0 0 1
    outer loop
      vertex -6.34999 -10.9985 1
      vertex -8.39999 -14.5492 1
      vertex -5.19148 -15.9777 1
    endloop
  endfacet
  facet normal 0 0 1
    outer loop
      vertex -8.49796 -9.43793 1
      vertex -8.39999 -14.5492 1
      vertex -6.34999 -10.9985 1
    endloop
  endfacet
  facet normal 0 0 1
    outer loop
      vertex -11.2414 -12.4848 1
      vertex -8.49796 -9.43793 1
      vertex -10.2745 -7.46486 1
    endloop
  endfacet
  facet normal 0 0 1
    outer loop
      vertex -8.49796 -9.43793 1
      vertex -11.2414 -12.4848 1
      vertex -8.39999 -14.5492 1
    endloop
  endfacet
  facet normal 0 0 1
    outer loop
      vertex -13.5915 -9.87479 1
      vertex -10.2745 -7.46486 1
      vertex -11.602 -5.16554 1
    endloop
  endfacet
  facet normal 0 0 1
    outer loop
      vertex -15.3475 -6.83316 1
      vertex -11.602 -5.16554 1
      vertex -12.4225 -2.64047 1
    endloop
  endfacet
  facet normal 0 0 1
    outer loop
      vertex -10.2745 -7.46486 1
      vertex -13.5915 -9.87479 1
      vertex -11.2414 -12.4848 1
    endloop
  endfacet
  facet normal 0 0 1
    outer loop
      vertex -16.4329 -3.4929 1
      vertex -12.4225 -2.64047 1
      vertex -12.7 0 1
    endloop
  endfacet
  facet normal -0 0 1
    outer loop
      vertex -16.4329 3.4929 1
      vertex -12.4225 2.64047 1
      vertex -15.3475 6.83316 1
    endloop
  endfacet
  facet normal 0 0 1
    outer loop
      vertex -12.4225 2.64047 1
      vertex -16.4329 3.4929 1
      vertex -12.7 0 1
    endloop
  endfacet
  facet normal 0 0 1
    outer loop
      vertex -11.602 -5.16554 1
      vertex -15.3475 -6.83316 1
      vertex -13.5915 -9.87479 1
    endloop
  endfacet
  facet normal 0 0 1
    outer loop
      vertex -16.8 0 1
      vertex -12.7 0 1
      vertex -16.4329 3.4929 1
    endloop
  endfacet
  facet normal 0 0 1
    outer loop
      vertex -12.4225 -2.64047 1
      vertex -16.4329 -3.4929 1
      vertex -15.3475 -6.83316 1
    endloop
  endfacet
  facet normal 0 0 1
    outer loop
      vertex -12.7 0 1
      vertex -16.8 0 1
      vertex -16.4329 -3.4929 1
    endloop
  endfacet
  facet normal 0 0 1
    outer loop
      vertex -3.8627 11.8882 1
      vertex 0 12.4315 1
      vertex -1.30659 12.4315 1
    endloop
  endfacet
  facet normal 0 0 1
    outer loop
      vertex -6.25 10.8253 1
      vertex 0 12.4315 1
      vertex -3.8627 11.8882 1
    endloop
  endfacet
  facet normal 0 0 1
    outer loop
      vertex 0 12.4315 1
      vertex -6.25 10.8253 1
      vertex 0 -12.4315 1
    endloop
  endfacet
  facet normal 0 0 1
    outer loop
      vertex 0 -12.4315 1
      vertex -3.8627 -11.8882 1
      vertex -1.30659 -12.4315 1
    endloop
  endfacet
  facet normal -0 0 1
    outer loop
      vertex -6.25 -10.8253 1
      vertex 0 -12.4315 1
      vertex -6.25 10.8253 1
    endloop
  endfacet
  facet normal 0 0 1
    outer loop
      vertex 0 -12.4315 1
      vertex -6.25 -10.8253 1
      vertex -3.8627 -11.8882 1
    endloop
  endfacet
  facet normal -0 0 1
    outer loop
      vertex -8.36412 9.28931 1
      vertex -6.25 -10.8253 1
      vertex -6.25 10.8253 1
    endloop
  endfacet
  facet normal 0 0 1
    outer loop
      vertex -8.36412 9.28931 1
      vertex -8.36412 -9.28931 1
      vertex -6.25 -10.8253 1
    endloop
  endfacet
  facet normal -0 0 1
    outer loop
      vertex -10.1127 7.34731 1
      vertex -8.36412 -9.28931 1
      vertex -8.36412 9.28931 1
    endloop
  endfacet
  facet normal 0 0 1
    outer loop
      vertex -10.1127 7.34731 1
      vertex -10.1127 -7.34731 1
      vertex -8.36412 -9.28931 1
    endloop
  endfacet
  facet normal -0 0 1
    outer loop
      vertex -11.4193 5.0842 1
      vertex -10.1127 -7.34731 1
      vertex -10.1127 7.34731 1
    endloop
  endfacet
  facet normal 0 0 1
    outer loop
      vertex -11.4193 5.0842 1
      vertex -11.4193 -5.0842 1
      vertex -10.1127 -7.34731 1
    endloop
  endfacet
  facet normal -0 0 1
    outer loop
      vertex -12.2268 2.59889 1
      vertex -11.4193 -5.0842 1
      vertex -11.4193 5.0842 1
    endloop
  endfacet
  facet normal 0 0 1
    outer loop
      vertex -12.2268 2.59889 1
      vertex -12.2268 -2.59889 1
      vertex -11.4193 -5.0842 1
    endloop
  endfacet
  facet normal 0 -0 1
    outer loop
      vertex -12.2268 -2.59889 1
      vertex -12.2268 2.59889 1
      vertex -12.5 0 1
    endloop
  endfacet
  facet normal 0 0 -1
    outer loop
      vertex -5.31508 -16.3582 0
      vertex 0 -17.1058 0
      vertex -1.79788 -17.1058 0
    endloop
  endfacet
  facet normal 0 0 -1
    outer loop
      vertex -8.59999 -14.8956 0
      vertex 0 -17.1058 0
      vertex -5.31508 -16.3582 0
    endloop
  endfacet
  facet normal 0 0 -1
    outer loop
      vertex 0 -17.1058 0
      vertex -8.59999 -14.8956 0
      vertex 0 17.1058 0
    endloop
  endfacet
  facet normal -0 0 -1
    outer loop
      vertex 0 17.1058 0
      vertex -5.31508 16.3582 0
      vertex -1.79788 17.1058 0
    endloop
  endfacet
  facet normal 0 0 -1
    outer loop
      vertex -8.59999 14.8956 0
      vertex 0 17.1058 0
      vertex -8.59999 -14.8956 0
    endloop
  endfacet
  facet normal 0 0 -1
    outer loop
      vertex 0 17.1058 0
      vertex -8.59999 14.8956 0
      vertex -5.31508 16.3582 0
    endloop
  endfacet
  facet normal 0 0 -1
    outer loop
      vertex -11.509 -12.7821 0
      vertex -8.59999 14.8956 0
      vertex -8.59999 -14.8956 0
    endloop
  endfacet
  facet normal 0 0 -1
    outer loop
      vertex -11.509 -12.7821 0
      vertex -11.509 12.7821 0
      vertex -8.59999 14.8956 0
    endloop
  endfacet
  facet normal 0 0 -1
    outer loop
      vertex -13.9151 -10.1099 0
      vertex -11.509 12.7821 0
      vertex -11.509 -12.7821 0
    endloop
  endfacet
  facet normal 0 0 -1
    outer loop
      vertex -13.9151 -10.1099 0
      vertex -13.9151 10.1099 0
      vertex -11.509 12.7821 0
    endloop
  endfacet
  facet normal 0 0 -1
    outer loop
      vertex -15.713 -6.99586 0
      vertex -13.9151 10.1099 0
      vertex -13.9151 -10.1099 0
    endloop
  endfacet
  facet normal 0 0 -1
    outer loop
      vertex -15.713 -6.99586 0
      vertex -15.713 6.99586 0
      vertex -13.9151 10.1099 0
    endloop
  endfacet
  facet normal 0 0 -1
    outer loop
      vertex -16.8241 -3.57608 0
      vertex -15.713 6.99586 0
      vertex -15.713 -6.99586 0
    endloop
  endfacet
  facet normal 0 0 -1
    outer loop
      vertex -16.8241 -3.57608 0
      vertex -16.8241 3.57608 0
      vertex -15.713 6.99586 0
    endloop
  endfacet
  facet normal 0 -0 -1
    outer loop
      vertex -16.8241 3.57608 0
      vertex -16.8241 -3.57608 0
      vertex -17.2 0 0
    endloop
  endfacet
  facet normal 0 0 1
    outer loop
      vertex 0 17.1058 7
      vertex -1.75607 16.708 7
      vertex 0 16.708 7
    endloop
  endfacet
  facet normal -0 0 1
    outer loop
      vertex -1.79788 17.1058 7
      vertex -1.75607 16.708 7
      vertex 0 17.1058 7
    endloop
  endfacet
  facet normal 0 0 1
    outer loop
      vertex -1.79788 17.1058 7
      vertex -5.19148 15.9777 7
      vertex -1.75607 16.708 7
    endloop
  endfacet
  facet normal -0 0 1
    outer loop
      vertex -5.31508 16.3582 7
      vertex -5.19148 15.9777 7
      vertex -1.79788 17.1058 7
    endloop
  endfacet
  facet normal 0 0 1
    outer loop
      vertex -5.31508 16.3582 7
      vertex -8.39999 14.5492 7
      vertex -5.19148 15.9777 7
    endloop
  endfacet
  facet normal -0 0 1
    outer loop
      vertex -8.59999 14.8956 7
      vertex -8.39999 14.5492 7
      vertex -5.31508 16.3582 7
    endloop
  endfacet
  facet normal 0 0 1
    outer loop
      vertex -8.59999 14.8956 7
      vertex -11.2414 12.4848 7
      vertex -8.39999 14.5492 7
    endloop
  endfacet
  facet normal -0 0 1
    outer loop
      vertex -11.509 12.7821 7
      vertex -11.2414 12.4848 7
      vertex -8.59999 14.8956 7
    endloop
  endfacet
  facet normal 0 0 1
    outer loop
      vertex -11.509 12.7821 7
      vertex -13.5915 9.87479 7
      vertex -11.2414 12.4848 7
    endloop
  endfacet
  facet normal -0 0 1
    outer loop
      vertex -13.9151 10.1099 7
      vertex -13.5915 9.87479 7
      vertex -11.509 12.7821 7
    endloop
  endfacet
  facet normal 0 0 1
    outer loop
      vertex -13.9151 10.1099 7
      vertex -15.3475 6.83316 7
      vertex -13.5915 9.87479 7
    endloop
  endfacet
  facet normal -0 0 1
    outer loop
      vertex -15.713 6.99586 7
      vertex -15.3475 6.83316 7
      vertex -13.9151 10.1099 7
    endloop
  endfacet
  facet normal 0 0 1
    outer loop
      vertex -15.713 6.99586 7
      vertex -16.4329 3.4929 7
      vertex -15.3475 6.83316 7
    endloop
  endfacet
  facet normal 0 0 1
    outer loop
      vertex -16.4329 3.4929 7
      vertex -16.8241 3.57608 7
      vertex -16.8 0 7
    endloop
  endfacet
  facet normal -0 0 1
    outer loop
      vertex -16.8241 3.57608 7
      vertex -16.4329 3.4929 7
      vertex -15.713 6.99586 7
    endloop
  endfacet
  facet normal -0 0 1
    outer loop
      vertex -1.75607 -16.708 7
      vertex 0 -17.1058 7
      vertex 0 -16.708 7
    endloop
  endfacet
  facet normal 0 0 1
    outer loop
      vertex -1.75607 -16.708 7
      vertex -1.79788 -17.1058 7
      vertex 0 -17.1058 7
    endloop
  endfacet
  facet normal 0 0 1
    outer loop
      vertex -5.19148 -15.9777 7
      vertex -1.79788 -17.1058 7
      vertex -1.75607 -16.708 7
    endloop
  endfacet
  facet normal 0 0 1
    outer loop
      vertex -5.19148 -15.9777 7
      vertex -5.31508 -16.3582 7
      vertex -1.79788 -17.1058 7
    endloop
  endfacet
  facet normal 0 0 1
    outer loop
      vertex -8.39999 -14.5492 7
      vertex -5.31508 -16.3582 7
      vertex -5.19148 -15.9777 7
    endloop
  endfacet
  facet normal 0 0 1
    outer loop
      vertex -8.39999 -14.5492 7
      vertex -8.59999 -14.8956 7
      vertex -5.31508 -16.3582 7
    endloop
  endfacet
  facet normal 0 0 1
    outer loop
      vertex -11.2414 -12.4848 7
      vertex -8.59999 -14.8956 7
      vertex -8.39999 -14.5492 7
    endloop
  endfacet
  facet normal 0 0 1
    outer loop
      vertex -11.2414 -12.4848 7
      vertex -11.509 -12.7821 7
      vertex -8.59999 -14.8956 7
    endloop
  endfacet
  facet normal 0 0 1
    outer loop
      vertex -13.5915 -9.87479 7
      vertex -11.509 -12.7821 7
      vertex -11.2414 -12.4848 7
    endloop
  endfacet
  facet normal 0 0 1
    outer loop
      vertex -13.5915 -9.87479 7
      vertex -13.9151 -10.1099 7
      vertex -11.509 -12.7821 7
    endloop
  endfacet
  facet normal 0 0 1
    outer loop
      vertex -15.3475 -6.83316 7
      vertex -13.9151 -10.1099 7
      vertex -13.5915 -9.87479 7
    endloop
  endfacet
  facet normal 0 0 1
    outer loop
      vertex -15.3475 -6.83316 7
      vertex -15.713 -6.99586 7
      vertex -13.9151 -10.1099 7
    endloop
  endfacet
  facet normal 0 0 1
    outer loop
      vertex -16.4329 -3.4929 7
      vertex -15.713 -6.99586 7
      vertex -15.3475 -6.83316 7
    endloop
  endfacet
  facet normal 0 0 1
    outer loop
      vertex -16.4329 -3.4929 7
      vertex -16.8241 -3.57608 7
      vertex -15.713 -6.99586 7
    endloop
  endfacet
  facet normal 0 0 1
    outer loop
      vertex -16.8 0 7
      vertex -16.8241 -3.57608 7
      vertex -16.4329 -3.4929 7
    endloop
  endfacet
  facet normal 0 0 1
    outer loop
      vertex -17.2 0 7
      vertex -16.8 0 7
      vertex -16.8241 3.57608 7
    endloop
  endfacet
  facet normal 0 0 1
    outer loop
      vertex -16.8 0 7
      vertex -17.2 0 7
      vertex -16.8241 -3.57608 7
    endloop
  endfacet
  facet normal 0 1 -0
    outer loop
      vertex 0 17.1058 0
      vertex -1.79788 17.1058 7
      vertex 0 17.1058 7
    endloop
  endfacet
  facet normal 0 1 0
    outer loop
      vertex -1.79788 17.1058 7
      vertex 0 17.1058 0
      vertex -1.79788 17.1058 0
    endloop
  endfacet
  facet normal -0.207911 0.978148 0
    outer loop
      vertex -1.79788 17.1058 0
      vertex -5.31508 16.3582 7
      vertex -1.79788 17.1058 7
    endloop
  endfacet
  facet normal -0.207911 0.978148 0
    outer loop
      vertex -5.31508 16.3582 7
      vertex -1.79788 17.1058 0
      vertex -5.31508 16.3582 0
    endloop
  endfacet
  facet normal -0.406751 0.913539 0
    outer loop
      vertex -5.31508 16.3582 0
      vertex -8.59999 14.8956 7
      vertex -5.31508 16.3582 7
    endloop
  endfacet
  facet normal -0.406751 0.913539 0
    outer loop
      vertex -8.59999 14.8956 7
      vertex -5.31508 16.3582 0
      vertex -8.59999 14.8956 0
    endloop
  endfacet
  facet normal -0.587782 0.80902 0
    outer loop
      vertex -8.59999 14.8956 0
      vertex -11.509 12.7821 7
      vertex -8.59999 14.8956 7
    endloop
  endfacet
  facet normal -0.587782 0.80902 0
    outer loop
      vertex -11.509 12.7821 7
      vertex -8.59999 14.8956 0
      vertex -11.509 12.7821 0
    endloop
  endfacet
  facet normal -0.743139 0.669137 0
    outer loop
      vertex -13.9151 10.1099 0
      vertex -11.509 12.7821 7
      vertex -11.509 12.7821 0
    endloop
  endfacet
  facet normal -0.743139 0.669137 0
    outer loop
      vertex -11.509 12.7821 7
      vertex -13.9151 10.1099 0
      vertex -13.9151 10.1099 7
    endloop
  endfacet
  facet normal -0.866024 0.500002 0
    outer loop
      vertex -15.713 6.99586 0
      vertex -13.9151 10.1099 7
      vertex -13.9151 10.1099 0
    endloop
  endfacet
  facet normal -0.866024 0.500002 0
    outer loop
      vertex -13.9151 10.1099 7
      vertex -15.713 6.99586 0
      vertex -15.713 6.99586 7
    endloop
  endfacet
  facet normal -0.951061 0.309003 0
    outer loop
      vertex -16.8241 3.57608 0
      vertex -15.713 6.99586 7
      vertex -15.713 6.99586 0
    endloop
  endfacet
  facet normal -0.951061 0.309003 0
    outer loop
      vertex -15.713 6.99586 7
      vertex -16.8241 3.57608 0
      vertex -16.8241 3.57608 7
    endloop
  endfacet
  facet normal -0.994521 0.104539 0
    outer loop
      vertex -17.2 0 0
      vertex -16.8241 3.57608 7
      vertex -16.8241 3.57608 0
    endloop
  endfacet
  facet normal -0.994521 0.104539 0
    outer loop
      vertex -16.8241 3.57608 7
      vertex -17.2 0 0
      vertex -17.2 0 7
    endloop
  endfacet
  facet normal -0.994521 -0.104539 0
    outer loop
      vertex -16.8241 -3.57608 0
      vertex -17.2 0 7
      vertex -17.2 0 0
    endloop
  endfacet
  facet normal -0.994521 -0.104539 0
    outer loop
      vertex -17.2 0 7
      vertex -16.8241 -3.57608 0
      vertex -16.8241 -3.57608 7
    endloop
  endfacet
  facet normal -0.951061 -0.309003 0
    outer loop
      vertex -15.713 -6.99586 0
      vertex -16.8241 -3.57608 7
      vertex -16.8241 -3.57608 0
    endloop
  endfacet
  facet normal -0.951061 -0.309003 0
    outer loop
      vertex -16.8241 -3.57608 7
      vertex -15.713 -6.99586 0
      vertex -15.713 -6.99586 7
    endloop
  endfacet
  facet normal -0.866024 -0.500002 0
    outer loop
      vertex -13.9151 -10.1099 0
      vertex -15.713 -6.99586 7
      vertex -15.713 -6.99586 0
    endloop
  endfacet
  facet normal -0.866024 -0.500002 0
    outer loop
      vertex -15.713 -6.99586 7
      vertex -13.9151 -10.1099 0
      vertex -13.9151 -10.1099 7
    endloop
  endfacet
  facet normal -0.743139 -0.669137 0
    outer loop
      vertex -11.509 -12.7821 0
      vertex -13.9151 -10.1099 7
      vertex -13.9151 -10.1099 0
    endloop
  endfacet
  facet normal -0.743139 -0.669137 0
    outer loop
      vertex -13.9151 -10.1099 7
      vertex -11.509 -12.7821 0
      vertex -11.509 -12.7821 7
    endloop
  endfacet
  facet normal -0.587782 -0.80902 0
    outer loop
      vertex -11.509 -12.7821 0
      vertex -8.59999 -14.8956 7
      vertex -11.509 -12.7821 7
    endloop
  endfacet
  facet normal -0.587782 -0.80902 -0
    outer loop
      vertex -8.59999 -14.8956 7
      vertex -11.509 -12.7821 0
      vertex -8.59999 -14.8956 0
    endloop
  endfacet
  facet normal -0.406751 -0.913539 0
    outer loop
      vertex -8.59999 -14.8956 0
      vertex -5.31508 -16.3582 7
      vertex -8.59999 -14.8956 7
    endloop
  endfacet
  facet normal -0.406751 -0.913539 -0
    outer loop
      vertex -5.31508 -16.3582 7
      vertex -8.59999 -14.8956 0
      vertex -5.31508 -16.3582 0
    endloop
  endfacet
  facet normal -0.207911 -0.978148 0
    outer loop
      vertex -5.31508 -16.3582 0
      vertex -1.79788 -17.1058 7
      vertex -5.31508 -16.3582 7
    endloop
  endfacet
  facet normal -0.207911 -0.978148 -0
    outer loop
      vertex -1.79788 -17.1058 7
      vertex -5.31508 -16.3582 0
      vertex -1.79788 -17.1058 0
    endloop
  endfacet
  facet normal 0 -1 0
    outer loop
      vertex -1.79788 -17.1058 0
      vertex 0 -17.1058 7
      vertex -1.79788 -17.1058 7
    endloop
  endfacet
  facet normal 0 -1 -0
    outer loop
      vertex 0 -17.1058 7
      vertex -1.79788 -17.1058 0
      vertex 0 -17.1058 0
    endloop
  endfacet
  facet normal 0.207934 0.978143 -0
    outer loop
      vertex -1.75607 -16.708 1
      vertex -5.19148 -15.9777 7
      vertex -1.75607 -16.708 7
    endloop
  endfacet
  facet normal 0.207934 0.978143 0
    outer loop
      vertex -5.19148 -15.9777 7
      vertex -1.75607 -16.708 1
      vertex -5.19148 -15.9777 1
    endloop
  endfacet
  facet normal 0.406732 0.913548 -0
    outer loop
      vertex -5.19148 -15.9777 1
      vertex -8.39999 -14.5492 7
      vertex -5.19148 -15.9777 7
    endloop
  endfacet
  facet normal 0.406732 0.913548 0
    outer loop
      vertex -8.39999 -14.5492 7
      vertex -5.19148 -15.9777 1
      vertex -8.39999 -14.5492 1
    endloop
  endfacet
  facet normal 0.587784 0.809018 -0
    outer loop
      vertex -8.39999 -14.5492 1
      vertex -11.2414 -12.4848 7
      vertex -8.39999 -14.5492 7
    endloop
  endfacet
  facet normal 0.587784 0.809018 0
    outer loop
      vertex -11.2414 -12.4848 7
      vertex -8.39999 -14.5492 1
      vertex -11.2414 -12.4848 1
    endloop
  endfacet
  facet normal 0.74314 0.669136 0
    outer loop
      vertex -11.2414 -12.4848 7
      vertex -13.5915 -9.87479 1
      vertex -13.5915 -9.87479 7
    endloop
  endfacet
  facet normal 0.74314 0.669136 0
    outer loop
      vertex -13.5915 -9.87479 1
      vertex -11.2414 -12.4848 7
      vertex -11.2414 -12.4848 1
    endloop
  endfacet
  facet normal 0.866036 0.499982 0
    outer loop
      vertex -13.5915 -9.87479 7
      vertex -15.3475 -6.83316 1
      vertex -15.3475 -6.83316 7
    endloop
  endfacet
  facet normal 0.866036 0.499982 0
    outer loop
      vertex -15.3475 -6.83316 1
      vertex -13.5915 -9.87479 7
      vertex -13.5915 -9.87479 1
    endloop
  endfacet
  facet normal 0.95105 0.309039 0
    outer loop
      vertex -15.3475 -6.83316 7
      vertex -16.4329 -3.4929 1
      vertex -16.4329 -3.4929 7
    endloop
  endfacet
  facet normal 0.95105 0.309039 0
    outer loop
      vertex -16.4329 -3.4929 1
      vertex -15.3475 -6.83316 7
      vertex -15.3475 -6.83316 1
    endloop
  endfacet
  facet normal 0.994522 0.104523 0
    outer loop
      vertex -16.4329 -3.4929 7
      vertex -16.8 0 1
      vertex -16.8 0 7
    endloop
  endfacet
  facet normal 0.994522 0.104523 0
    outer loop
      vertex -16.8 0 1
      vertex -16.4329 -3.4929 7
      vertex -16.4329 -3.4929 1
    endloop
  endfacet
  facet normal 0.994522 -0.104523 0
    outer loop
      vertex -16.8 0 7
      vertex -16.4329 3.4929 1
      vertex -16.4329 3.4929 7
    endloop
  endfacet
  facet normal 0.994522 -0.104523 0
    outer loop
      vertex -16.4329 3.4929 1
      vertex -16.8 0 7
      vertex -16.8 0 1
    endloop
  endfacet
  facet normal 0.95105 -0.309039 0
    outer loop
      vertex -16.4329 3.4929 7
      vertex -15.3475 6.83316 1
      vertex -15.3475 6.83316 7
    endloop
  endfacet
  facet normal 0.95105 -0.309039 0
    outer loop
      vertex -15.3475 6.83316 1
      vertex -16.4329 3.4929 7
      vertex -16.4329 3.4929 1
    endloop
  endfacet
  facet normal 0.866036 -0.499982 0
    outer loop
      vertex -15.3475 6.83316 7
      vertex -13.5915 9.87479 1
      vertex -13.5915 9.87479 7
    endloop
  endfacet
  facet normal 0.866036 -0.499982 0
    outer loop
      vertex -13.5915 9.87479 1
      vertex -15.3475 6.83316 7
      vertex -15.3475 6.83316 1
    endloop
  endfacet
  facet normal 0.74314 -0.669136 0
    outer loop
      vertex -13.5915 9.87479 7
      vertex -11.2414 12.4848 1
      vertex -11.2414 12.4848 7
    endloop
  endfacet
  facet normal 0.74314 -0.669136 0
    outer loop
      vertex -11.2414 12.4848 1
      vertex -13.5915 9.87479 7
      vertex -13.5915 9.87479 1
    endloop
  endfacet
  facet normal 0.587784 -0.809018 0
    outer loop
      vertex -11.2414 12.4848 1
      vertex -8.39999 14.5492 7
      vertex -11.2414 12.4848 7
    endloop
  endfacet
  facet normal 0.587784 -0.809018 0
    outer loop
      vertex -8.39999 14.5492 7
      vertex -11.2414 12.4848 1
      vertex -8.39999 14.5492 1
    endloop
  endfacet
  facet normal 0.406732 -0.913548 0
    outer loop
      vertex -8.39999 14.5492 1
      vertex -5.19148 15.9777 7
      vertex -8.39999 14.5492 7
    endloop
  endfacet
  facet normal 0.406732 -0.913548 0
    outer loop
      vertex -5.19148 15.9777 7
      vertex -8.39999 14.5492 1
      vertex -5.19148 15.9777 1
    endloop
  endfacet
  facet normal 0.207934 -0.978143 0
    outer loop
      vertex -5.19148 15.9777 1
      vertex -1.75607 16.708 7
      vertex -5.19148 15.9777 7
    endloop
  endfacet
  facet normal 0.207934 -0.978143 0
    outer loop
      vertex -1.75607 16.708 7
      vertex -5.19148 15.9777 1
      vertex -1.75607 16.708 1
    endloop
  endfacet
  facet normal 0 -1 0
    outer loop
      vertex -1.75607 16.708 1
      vertex 0 16.708 7
      vertex -1.75607 16.708 7
    endloop
  endfacet
  facet normal 0 -1 -0
    outer loop
      vertex 0 16.708 7
      vertex -1.75607 16.708 1
      vertex 0 16.708 1
    endloop
  endfacet
  facet normal 0 1 -0
    outer loop
      vertex 0 -16.708 1
      vertex -1.75607 -16.708 7
      vertex 0 -16.708 7
    endloop
  endfacet
  facet normal 0 1 0
    outer loop
      vertex -1.75607 -16.708 7
      vertex 0 -16.708 1
      vertex -1.75607 -16.708 1
    endloop
  endfacet
  facet normal 0 0 1
    outer loop
      vertex 0 12.6304 7
      vertex -1.30659 12.4315 7
      vertex 0 12.4315 7
    endloop
  endfacet
  facet normal -0 0 1
    outer loop
      vertex -1.3275 12.6304 7
      vertex -1.30659 12.4315 7
      vertex 0 12.6304 7
    endloop
  endfacet
  facet normal 0 0 1
    outer loop
      vertex -1.3275 12.6304 7
      vertex -3.8627 11.8882 7
      vertex -1.30659 12.4315 7
    endloop
  endfacet
  facet normal -0 0 1
    outer loop
      vertex -3.92451 12.0784 7
      vertex -3.8627 11.8882 7
      vertex -1.3275 12.6304 7
    endloop
  endfacet
  facet normal 0 0 1
    outer loop
      vertex -3.92451 12.0784 7
      vertex -6.25 10.8253 7
      vertex -3.8627 11.8882 7
    endloop
  endfacet
  facet normal -0 0 1
    outer loop
      vertex -6.34999 10.9985 7
      vertex -6.25 10.8253 7
      vertex -3.92451 12.0784 7
    endloop
  endfacet
  facet normal 0 0 1
    outer loop
      vertex -6.34999 10.9985 7
      vertex -8.36412 9.28931 7
      vertex -6.25 10.8253 7
    endloop
  endfacet
  facet normal -0 0 1
    outer loop
      vertex -8.49796 9.43793 7
      vertex -8.36412 9.28931 7
      vertex -6.34999 10.9985 7
    endloop
  endfacet
  facet normal 0 0 1
    outer loop
      vertex -8.49796 9.43793 7
      vertex -10.1127 7.34731 7
      vertex -8.36412 9.28931 7
    endloop
  endfacet
  facet normal -0 0 1
    outer loop
      vertex -10.2745 7.46486 7
      vertex -10.1127 7.34731 7
      vertex -8.49796 9.43793 7
    endloop
  endfacet
  facet normal 0 0 1
    outer loop
      vertex -10.2745 7.46486 7
      vertex -11.4193 5.0842 7
      vertex -10.1127 7.34731 7
    endloop
  endfacet
  facet normal -0 0 1
    outer loop
      vertex -11.602 5.16554 7
      vertex -11.4193 5.0842 7
      vertex -10.2745 7.46486 7
    endloop
  endfacet
  facet normal 0 0 1
    outer loop
      vertex -11.602 5.16554 7
      vertex -12.2268 2.59889 7
      vertex -11.4193 5.0842 7
    endloop
  endfacet
  facet normal -0 0 1
    outer loop
      vertex -12.4225 2.64047 7
      vertex -12.2268 2.59889 7
      vertex -11.602 5.16554 7
    endloop
  endfacet
  facet normal 0 0 1
    outer loop
      vertex -12.4225 2.64047 7
      vertex -12.5 0 7
      vertex -12.2268 2.59889 7
    endloop
  endfacet
  facet normal 0 -0 1
    outer loop
      vertex -12.5 0 7
      vertex -12.4225 2.64047 7
      vertex -12.7 0 7
    endloop
  endfacet
  facet normal -0 0 1
    outer loop
      vertex -1.30659 -12.4315 7
      vertex 0 -12.6304 7
      vertex 0 -12.4315 7
    endloop
  endfacet
  facet normal 0 0 1
    outer loop
      vertex -1.30659 -12.4315 7
      vertex -1.3275 -12.6304 7
      vertex 0 -12.6304 7
    endloop
  endfacet
  facet normal 0 0 1
    outer loop
      vertex -3.8627 -11.8882 7
      vertex -1.3275 -12.6304 7
      vertex -1.30659 -12.4315 7
    endloop
  endfacet
  facet normal 0 0 1
    outer loop
      vertex -3.8627 -11.8882 7
      vertex -3.92451 -12.0784 7
      vertex -1.3275 -12.6304 7
    endloop
  endfacet
  facet normal 0 0 1
    outer loop
      vertex -6.25 -10.8253 7
      vertex -3.92451 -12.0784 7
      vertex -3.8627 -11.8882 7
    endloop
  endfacet
  facet normal 0 0 1
    outer loop
      vertex -6.25 -10.8253 7
      vertex -6.34999 -10.9985 7
      vertex -3.92451 -12.0784 7
    endloop
  endfacet
  facet normal 0 0 1
    outer loop
      vertex -8.36412 -9.28931 7
      vertex -6.34999 -10.9985 7
      vertex -6.25 -10.8253 7
    endloop
  endfacet
  facet normal 0 0 1
    outer loop
      vertex -8.36412 -9.28931 7
      vertex -8.49796 -9.43793 7
      vertex -6.34999 -10.9985 7
    endloop
  endfacet
  facet normal 0 0 1
    outer loop
      vertex -10.1127 -7.34731 7
      vertex -8.49796 -9.43793 7
      vertex -8.36412 -9.28931 7
    endloop
  endfacet
  facet normal 0 0 1
    outer loop
      vertex -10.1127 -7.34731 7
      vertex -10.2745 -7.46486 7
      vertex -8.49796 -9.43793 7
    endloop
  endfacet
  facet normal 0 0 1
    outer loop
      vertex -11.4193 -5.0842 7
      vertex -10.2745 -7.46486 7
      vertex -10.1127 -7.34731 7
    endloop
  endfacet
  facet normal 0 0 1
    outer loop
      vertex -11.4193 -5.0842 7
      vertex -11.602 -5.16554 7
      vertex -10.2745 -7.46486 7
    endloop
  endfacet
  facet normal 0 0 1
    outer loop
      vertex -12.2268 -2.59889 7
      vertex -11.602 -5.16554 7
      vertex -11.4193 -5.0842 7
    endloop
  endfacet
  facet normal 0 0 1
    outer loop
      vertex -12.2268 -2.59889 7
      vertex -12.4225 -2.64047 7
      vertex -11.602 -5.16554 7
    endloop
  endfacet
  facet normal 0 0 1
    outer loop
      vertex -12.5 0 7
      vertex -12.4225 -2.64047 7
      vertex -12.2268 -2.59889 7
    endloop
  endfacet
  facet normal 0 0 1
    outer loop
      vertex -12.4225 -2.64047 7
      vertex -12.5 0 7
      vertex -12.7 0 7
    endloop
  endfacet
  facet normal 0 1 -0
    outer loop
      vertex 0 12.6304 1
      vertex -1.3275 12.6304 7
      vertex 0 12.6304 7
    endloop
  endfacet
  facet normal 0 1 0
    outer loop
      vertex -1.3275 12.6304 7
      vertex 0 12.6304 1
      vertex -1.3275 12.6304 1
    endloop
  endfacet
  facet normal -0.207908 0.978148 0
    outer loop
      vertex -1.3275 12.6304 1
      vertex -3.92451 12.0784 7
      vertex -1.3275 12.6304 7
    endloop
  endfacet
  facet normal -0.207908 0.978148 0
    outer loop
      vertex -3.92451 12.0784 7
      vertex -1.3275 12.6304 1
      vertex -3.92451 12.0784 1
    endloop
  endfacet
  facet normal -0.406739 0.913545 0
    outer loop
      vertex -3.92451 12.0784 1
      vertex -6.34999 10.9985 7
      vertex -3.92451 12.0784 7
    endloop
  endfacet
  facet normal -0.406739 0.913545 0
    outer loop
      vertex -6.34999 10.9985 7
      vertex -3.92451 12.0784 1
      vertex -6.34999 10.9985 1
    endloop
  endfacet
  facet normal -0.58778 0.809021 0
    outer loop
      vertex -6.34999 10.9985 1
      vertex -8.49796 9.43793 7
      vertex -6.34999 10.9985 7
    endloop
  endfacet
  facet normal -0.58778 0.809021 0
    outer loop
      vertex -8.49796 9.43793 7
      vertex -6.34999 10.9985 1
      vertex -8.49796 9.43793 1
    endloop
  endfacet
  facet normal -0.743149 0.669126 0
    outer loop
      vertex -10.2745 7.46486 1
      vertex -8.49796 9.43793 7
      vertex -8.49796 9.43793 1
    endloop
  endfacet
  facet normal -0.743149 0.669126 0
    outer loop
      vertex -8.49796 9.43793 7
      vertex -10.2745 7.46486 1
      vertex -10.2745 7.46486 7
    endloop
  endfacet
  facet normal -0.866028 0.499996 0
    outer loop
      vertex -11.602 5.16554 1
      vertex -10.2745 7.46486 7
      vertex -10.2745 7.46486 1
    endloop
  endfacet
  facet normal -0.866028 0.499996 0
    outer loop
      vertex -10.2745 7.46486 7
      vertex -11.602 5.16554 1
      vertex -11.602 5.16554 7
    endloop
  endfacet
  facet normal -0.95105 0.309036 0
    outer loop
      vertex -12.4225 2.64047 1
      vertex -11.602 5.16554 7
      vertex -11.602 5.16554 1
    endloop
  endfacet
  facet normal -0.95105 0.309036 0
    outer loop
      vertex -11.602 5.16554 7
      vertex -12.4225 2.64047 1
      vertex -12.4225 2.64047 7
    endloop
  endfacet
  facet normal -0.994523 0.104519 0
    outer loop
      vertex -12.7 0 1
      vertex -12.4225 2.64047 7
      vertex -12.4225 2.64047 1
    endloop
  endfacet
  facet normal -0.994523 0.104519 0
    outer loop
      vertex -12.4225 2.64047 7
      vertex -12.7 0 1
      vertex -12.7 0 7
    endloop
  endfacet
  facet normal -0.994523 -0.104519 0
    outer loop
      vertex -12.4225 -2.64047 1
      vertex -12.7 0 7
      vertex -12.7 0 1
    endloop
  endfacet
  facet normal -0.994523 -0.104519 0
    outer loop
      vertex -12.7 0 7
      vertex -12.4225 -2.64047 1
      vertex -12.4225 -2.64047 7
    endloop
  endfacet
  facet normal -0.95105 -0.309036 0
    outer loop
      vertex -11.602 -5.16554 1
      vertex -12.4225 -2.64047 7
      vertex -12.4225 -2.64047 1
    endloop
  endfacet
  facet normal -0.95105 -0.309036 0
    outer loop
      vertex -12.4225 -2.64047 7
      vertex -11.602 -5.16554 1
      vertex -11.602 -5.16554 7
    endloop
  endfacet
  facet normal -0.866028 -0.499996 0
    outer loop
      vertex -10.2745 -7.46486 1
      vertex -11.602 -5.16554 7
      vertex -11.602 -5.16554 1
    endloop
  endfacet
  facet normal -0.866028 -0.499996 0
    outer loop
      vertex -11.602 -5.16554 7
      vertex -10.2745 -7.46486 1
      vertex -10.2745 -7.46486 7
    endloop
  endfacet
  facet normal -0.743149 -0.669126 0
    outer loop
      vertex -8.49796 -9.43793 1
      vertex -10.2745 -7.46486 7
      vertex -10.2745 -7.46486 1
    endloop
  endfacet
  facet normal -0.743149 -0.669126 0
    outer loop
      vertex -10.2745 -7.46486 7
      vertex -8.49796 -9.43793 1
      vertex -8.49796 -9.43793 7
    endloop
  endfacet
  facet normal -0.58778 -0.809021 0
    outer loop
      vertex -8.49796 -9.43793 1
      vertex -6.34999 -10.9985 7
      vertex -8.49796 -9.43793 7
    endloop
  endfacet
  facet normal -0.58778 -0.809021 -0
    outer loop
      vertex -6.34999 -10.9985 7
      vertex -8.49796 -9.43793 1
      vertex -6.34999 -10.9985 1
    endloop
  endfacet
  facet normal -0.406739 -0.913545 0
    outer loop
      vertex -6.34999 -10.9985 1
      vertex -3.92451 -12.0784 7
      vertex -6.34999 -10.9985 7
    endloop
  endfacet
  facet normal -0.406739 -0.913545 -0
    outer loop
      vertex -3.92451 -12.0784 7
      vertex -6.34999 -10.9985 1
      vertex -3.92451 -12.0784 1
    endloop
  endfacet
  facet normal -0.207908 -0.978148 0
    outer loop
      vertex -3.92451 -12.0784 1
      vertex -1.3275 -12.6304 7
      vertex -3.92451 -12.0784 7
    endloop
  endfacet
  facet normal -0.207908 -0.978148 -0
    outer loop
      vertex -1.3275 -12.6304 7
      vertex -3.92451 -12.0784 1
      vertex -1.3275 -12.6304 1
    endloop
  endfacet
  facet normal 0 -1 0
    outer loop
      vertex -1.3275 -12.6304 1
      vertex 0 -12.6304 7
      vertex -1.3275 -12.6304 7
    endloop
  endfacet
  facet normal 0 -1 -0
    outer loop
      vertex 0 -12.6304 7
      vertex -1.3275 -12.6304 1
      vertex 0 -12.6304 1
    endloop
  endfacet
  facet normal 0.207905 0.978149 -0
    outer loop
      vertex -1.30659 -12.4315 1
      vertex -3.8627 -11.8882 7
      vertex -1.30659 -12.4315 7
    endloop
  endfacet
  facet normal 0.207905 0.978149 0
    outer loop
      vertex -3.8627 -11.8882 7
      vertex -1.30659 -12.4315 1
      vertex -3.8627 -11.8882 1
    endloop
  endfacet
  facet normal 0.406738 0.913545 -0
    outer loop
      vertex -3.8627 -11.8882 1
      vertex -6.25 -10.8253 7
      vertex -3.8627 -11.8882 7
    endloop
  endfacet
  facet normal 0.406738 0.913545 0
    outer loop
      vertex -6.25 -10.8253 7
      vertex -3.8627 -11.8882 1
      vertex -6.25 -10.8253 1
    endloop
  endfacet
  facet normal 0.587783 0.809018 -0
    outer loop
      vertex -6.25 -10.8253 1
      vertex -8.36412 -9.28931 7
      vertex -6.25 -10.8253 7
    endloop
  endfacet
  facet normal 0.587783 0.809018 0
    outer loop
      vertex -8.36412 -9.28931 7
      vertex -6.25 -10.8253 1
      vertex -8.36412 -9.28931 1
    endloop
  endfacet
  facet normal 0.743146 0.66913 0
    outer loop
      vertex -8.36412 -9.28931 7
      vertex -10.1127 -7.34731 1
      vertex -10.1127 -7.34731 7
    endloop
  endfacet
  facet normal 0.743146 0.66913 0
    outer loop
      vertex -10.1127 -7.34731 1
      vertex -8.36412 -9.28931 7
      vertex -8.36412 -9.28931 1
    endloop
  endfacet
  facet normal 0.866027 0.499998 0
    outer loop
      vertex -10.1127 -7.34731 7
      vertex -11.4193 -5.0842 1
      vertex -11.4193 -5.0842 7
    endloop
  endfacet
  facet normal 0.866027 0.499998 0
    outer loop
      vertex -11.4193 -5.0842 1
      vertex -10.1127 -7.34731 7
      vertex -10.1127 -7.34731 1
    endloop
  endfacet
  facet normal 0.951059 0.309008 0
    outer loop
      vertex -11.4193 -5.0842 7
      vertex -12.2268 -2.59889 1
      vertex -12.2268 -2.59889 7
    endloop
  endfacet
  facet normal 0.951059 0.309008 0
    outer loop
      vertex -12.2268 -2.59889 1
      vertex -11.4193 -5.0842 7
      vertex -11.4193 -5.0842 1
    endloop
  endfacet
  facet normal 0.99452 0.104546 0
    outer loop
      vertex -12.2268 -2.59889 7
      vertex -12.5 0 1
      vertex -12.5 0 7
    endloop
  endfacet
  facet normal 0.99452 0.104546 0
    outer loop
      vertex -12.5 0 1
      vertex -12.2268 -2.59889 7
      vertex -12.2268 -2.59889 1
    endloop
  endfacet
  facet normal 0.99452 -0.104546 0
    outer loop
      vertex -12.5 0 7
      vertex -12.2268 2.59889 1
      vertex -12.2268 2.59889 7
    endloop
  endfacet
  facet normal 0.99452 -0.104546 0
    outer loop
      vertex -12.2268 2.59889 1
      vertex -12.5 0 7
      vertex -12.5 0 1
    endloop
  endfacet
  facet normal 0.951059 -0.309008 0
    outer loop
      vertex -12.2268 2.59889 7
      vertex -11.4193 5.0842 1
      vertex -11.4193 5.0842 7
    endloop
  endfacet
  facet normal 0.951059 -0.309008 0
    outer loop
      vertex -11.4193 5.0842 1
      vertex -12.2268 2.59889 7
      vertex -12.2268 2.59889 1
    endloop
  endfacet
  facet normal 0.866027 -0.499998 0
    outer loop
      vertex -11.4193 5.0842 7
      vertex -10.1127 7.34731 1
      vertex -10.1127 7.34731 7
    endloop
  endfacet
  facet normal 0.866027 -0.499998 0
    outer loop
      vertex -10.1127 7.34731 1
      vertex -11.4193 5.0842 7
      vertex -11.4193 5.0842 1
    endloop
  endfacet
  facet normal 0.743146 -0.66913 0
    outer loop
      vertex -10.1127 7.34731 7
      vertex -8.36412 9.28931 1
      vertex -8.36412 9.28931 7
    endloop
  endfacet
  facet normal 0.743146 -0.66913 0
    outer loop
      vertex -8.36412 9.28931 1
      vertex -10.1127 7.34731 7
      vertex -10.1127 7.34731 1
    endloop
  endfacet
  facet normal 0.587783 -0.809018 0
    outer loop
      vertex -8.36412 9.28931 1
      vertex -6.25 10.8253 7
      vertex -8.36412 9.28931 7
    endloop
  endfacet
  facet normal 0.587783 -0.809018 0
    outer loop
      vertex -6.25 10.8253 7
      vertex -8.36412 9.28931 1
      vertex -6.25 10.8253 1
    endloop
  endfacet
  facet normal 0.406738 -0.913545 0
    outer loop
      vertex -6.25 10.8253 1
      vertex -3.8627 11.8882 7
      vertex -6.25 10.8253 7
    endloop
  endfacet
  facet normal 0.406738 -0.913545 0
    outer loop
      vertex -3.8627 11.8882 7
      vertex -6.25 10.8253 1
      vertex -3.8627 11.8882 1
    endloop
  endfacet
  facet normal 0.207905 -0.978149 0
    outer loop
      vertex -3.8627 11.8882 1
      vertex -1.30659 12.4315 7
      vertex -3.8627 11.8882 7
    endloop
  endfacet
  facet normal 0.207905 -0.978149 0
    outer loop
      vertex -1.30659 12.4315 7
      vertex -3.8627 11.8882 1
      vertex -1.30659 12.4315 1
    endloop
  endfacet
  facet normal 0 -1 0
    outer loop
      vertex -1.30659 12.4315 1
      vertex 0 12.4315 7
      vertex -1.30659 12.4315 7
    endloop
  endfacet
  facet normal 0 -1 -0
    outer loop
      vertex 0 12.4315 7
      vertex -1.30659 12.4315 1
      vertex 0 12.4315 1
    endloop
  endfacet
  facet normal 0 1 -0
    outer loop
      vertex 0 -12.4315 1
      vertex -1.30659 -12.4315 7
      vertex 0 -12.4315 7
    endloop
  endfacet
  facet normal 0 1 0
    outer loop
      vertex -1.30659 -12.4315 7
      vertex 0 -12.4315 1
      vertex -1.30659 -12.4315 1
    endloop
  endfacet
  facet normal 1 0 0
    outer loop
      vertex 0 -16.708 7
      vertex 0 -17.1058 7
      vertex 0 -16.708 1
    endloop
  endfacet
  facet normal 1 0 0
    outer loop
      vertex 0 -12.4315 7
      vertex 0 -12.6304 7
      vertex 0 -12.4315 1
    endloop
  endfacet
  facet normal 1 0 0
    outer loop
      vertex 0 12.6304 7
      vertex 0 12.4315 7
      vertex 0 12.6304 1
    endloop
  endfacet
  facet normal 1 0 0
    outer loop
      vertex 0 16.708 1
      vertex 0 17.1058 7
      vertex 0 16.708 7
    endloop
  endfacet
  facet normal 1 0 0
    outer loop
      vertex 0 17.1058 7
      vertex 0 16.708 1
      vertex 0 17.1058 0
    endloop
  endfacet
  facet normal 1 -0 0
    outer loop
      vertex 0 12.6304 1
      vertex 0 17.1058 0
      vertex 0 16.708 1
    endloop
  endfacet
  facet normal 1 0 0
    outer loop
      vertex 0 12.4315 1
      vertex 0 12.6304 1
      vertex 0 12.4315 7
    endloop
  endfacet
  facet normal 1 -0 0
    outer loop
      vertex 0 12.4315 1
      vertex 0 17.1058 0
      vertex 0 12.6304 1
    endloop
  endfacet
  facet normal 1 -0 0
    outer loop
      vertex 0 -12.4315 1
      vertex 0 17.1058 0
      vertex 0 12.4315 1
    endloop
  endfacet
  facet normal 1 0 0
    outer loop
      vertex 0 -12.6304 1
      vertex 0 -12.4315 1
      vertex 0 -12.6304 7
    endloop
  endfacet
  facet normal 1 0 0
    outer loop
      vertex 0 -17.1058 0
      vertex 0 -12.4315 1
      vertex 0 -12.6304 1
    endloop
  endfacet
  facet normal 1 0 0
    outer loop
      vertex 0 -17.1058 0
      vertex 0 -12.6304 1
      vertex 0 -16.708 1
    endloop
  endfacet
  facet normal 1 0 0
    outer loop
      vertex 0 -12.4315 1
      vertex 0 -17.1058 0
      vertex 0 17.1058 0
    endloop
  endfacet
  facet normal 1 0 0
    outer loop
      vertex 0 -17.1058 0
      vertex 0 -16.708 1
      vertex 0 -17.1058 7
    endloop
  endfacet
endsolid OpenSCAD_Model
