solid OpenSCAD_Model
  facet normal 0 0 -1
    outer loop
      vertex -4 -0 0
      vertex -3.54182 1.85889 0
      vertex -3 -0 0
    endloop
  endfacet
  facet normal 0 0 -1
    outer loop
      vertex -3.54182 1.85889 0
      vertex -2.65637 1.39417 0
      vertex -3 -0 0
    endloop
  endfacet
  facet normal -0.970941 0.239318 0
    outer loop
      vertex -4 -0 2
      vertex -3.54182 1.85889 2
      vertex -4 -0 0
    endloop
  endfacet
  facet normal -0.970941 0.239318 0
    outer loop
      vertex -3.54182 1.85889 2
      vertex -3.54182 1.85889 0
      vertex -4 -0 0
    endloop
  endfacet
  facet normal 0 -0 1
    outer loop
      vertex -3 -0 2
      vertex -2.65637 1.39417 2
      vertex -4 -0 2
    endloop
  endfacet
  facet normal 0 0 1
    outer loop
      vertex -2.65637 1.39417 2
      vertex -3.54182 1.85889 2
      vertex -4 -0 2
    endloop
  endfacet
  facet normal 0.970942 -0.239314 0
    outer loop
      vertex -3 -0 0
      vertex -2.65637 1.39417 0
      vertex -3 -0 2
    endloop
  endfacet
  facet normal 0.970942 -0.239314 0
    outer loop
      vertex -2.65637 1.39417 0
      vertex -2.65637 1.39417 2
      vertex -3 -0 2
    endloop
  endfacet
  facet normal 0 0 -1
    outer loop
      vertex -3.54182 1.85889 0
      vertex -2.27226 3.29194 0
      vertex -2.65637 1.39417 0
    endloop
  endfacet
  facet normal 0 -0 -1
    outer loop
      vertex -2.27226 3.29194 0
      vertex -1.70419 2.46895 0
      vertex -2.65637 1.39417 0
    endloop
  endfacet
  facet normal -0.748514 0.663119 0
    outer loop
      vertex -3.54182 1.85889 2
      vertex -2.27226 3.29194 2
      vertex -3.54182 1.85889 0
    endloop
  endfacet
  facet normal -0.748514 0.663119 0
    outer loop
      vertex -2.27226 3.29194 2
      vertex -2.27226 3.29194 0
      vertex -3.54182 1.85889 0
    endloop
  endfacet
  facet normal 0 -0 1
    outer loop
      vertex -2.65637 1.39417 2
      vertex -1.70419 2.46895 2
      vertex -3.54182 1.85889 2
    endloop
  endfacet
  facet normal 0 0 1
    outer loop
      vertex -1.70419 2.46895 2
      vertex -2.27226 3.29194 2
      vertex -3.54182 1.85889 2
    endloop
  endfacet
  facet normal 0.748508 -0.663126 0
    outer loop
      vertex -2.65637 1.39417 0
      vertex -1.70419 2.46895 0
      vertex -2.65637 1.39417 2
    endloop
  endfacet
  facet normal 0.748508 -0.663126 0
    outer loop
      vertex -1.70419 2.46895 0
      vertex -1.70419 2.46895 2
      vertex -2.65637 1.39417 2
    endloop
  endfacet
  facet normal 0 0 -1
    outer loop
      vertex -2.27226 3.29194 0
      vertex -0.482147 3.97084 0
      vertex -1.70419 2.46895 0
    endloop
  endfacet
  facet normal 0 -0 -1
    outer loop
      vertex -0.482147 3.97084 0
      vertex -0.36161 2.97813 0
      vertex -1.70419 2.46895 0
    endloop
  endfacet
  facet normal -0.354605 0.935016 0
    outer loop
      vertex -2.27226 3.29194 2
      vertex -0.482147 3.97084 2
      vertex -2.27226 3.29194 0
    endloop
  endfacet
  facet normal -0.354605 0.935016 0
    outer loop
      vertex -0.482147 3.97084 2
      vertex -0.482147 3.97084 0
      vertex -2.27226 3.29194 0
    endloop
  endfacet
  facet normal 0 -0 1
    outer loop
      vertex -1.70419 2.46895 2
      vertex -0.36161 2.97813 2
      vertex -2.27226 3.29194 2
    endloop
  endfacet
  facet normal 0 0 1
    outer loop
      vertex -0.36161 2.97813 2
      vertex -0.482147 3.97084 2
      vertex -2.27226 3.29194 2
    endloop
  endfacet
  facet normal 0.354609 -0.935015 0
    outer loop
      vertex -1.70419 2.46895 0
      vertex -0.36161 2.97813 0
      vertex -1.70419 2.46895 2
    endloop
  endfacet
  facet normal 0.354609 -0.935015 0
    outer loop
      vertex -0.36161 2.97813 0
      vertex -0.36161 2.97813 2
      vertex -1.70419 2.46895 2
    endloop
  endfacet
  facet normal 0 0 -1
    outer loop
      vertex -0.482147 3.97084 0
      vertex 1.41842 3.74006 0
      vertex -0.36161 2.97813 0
    endloop
  endfacet
  facet normal 0 0 -1
    outer loop
      vertex 1.41842 3.74006 0
      vertex 1.06381 2.80505 0
      vertex -0.36161 2.97813 0
    endloop
  endfacet
  facet normal 0.120542 0.992708 0
    outer loop
      vertex -0.482147 3.97084 2
      vertex 1.41842 3.74006 2
      vertex -0.482147 3.97084 0
    endloop
  endfacet
  facet normal 0.120542 0.992708 0
    outer loop
      vertex 1.41842 3.74006 2
      vertex 1.41842 3.74006 0
      vertex -0.482147 3.97084 0
    endloop
  endfacet
  facet normal -0 -0 1
    outer loop
      vertex -0.36161 2.97813 2
      vertex 1.06381 2.80505 2
      vertex -0.482147 3.97084 2
    endloop
  endfacet
  facet normal 0 -0 1
    outer loop
      vertex 1.06381 2.80505 2
      vertex 1.41842 3.74006 2
      vertex -0.482147 3.97084 2
    endloop
  endfacet
  facet normal -0.120539 -0.992709 0
    outer loop
      vertex -0.36161 2.97813 0
      vertex 1.06381 2.80505 0
      vertex -0.36161 2.97813 2
    endloop
  endfacet
  facet normal -0.120539 -0.992709 0
    outer loop
      vertex 1.06381 2.80505 0
      vertex 1.06381 2.80505 2
      vertex -0.36161 2.97813 2
    endloop
  endfacet
  facet normal 0 -0 -1
    outer loop
      vertex 1.41842 3.74006 0
      vertex 2.99404 2.65249 0
      vertex 1.06381 2.80505 0
    endloop
  endfacet
  facet normal -0 0 -1
    outer loop
      vertex 2.99404 2.65249 0
      vertex 2.24553 1.98937 0
      vertex 1.06381 2.80505 0
    endloop
  endfacet
  facet normal 0.568064 0.822984 0
    outer loop
      vertex 1.41842 3.74006 2
      vertex 2.99404 2.65249 2
      vertex 1.41842 3.74006 0
    endloop
  endfacet
  facet normal 0.568064 0.822984 0
    outer loop
      vertex 2.99404 2.65249 2
      vertex 2.99404 2.65249 0
      vertex 1.41842 3.74006 0
    endloop
  endfacet
  facet normal -0 0 1
    outer loop
      vertex 1.06381 2.80505 2
      vertex 2.24553 1.98937 2
      vertex 1.41842 3.74006 2
    endloop
  endfacet
  facet normal 0 -0 1
    outer loop
      vertex 2.24553 1.98937 2
      vertex 2.99404 2.65249 2
      vertex 1.41842 3.74006 2
    endloop
  endfacet
  facet normal -0.568064 -0.822985 0
    outer loop
      vertex 1.06381 2.80505 0
      vertex 2.24553 1.98937 0
      vertex 1.06381 2.80505 2
    endloop
  endfacet
  facet normal -0.568064 -0.822985 0
    outer loop
      vertex 2.24553 1.98937 0
      vertex 2.24553 1.98937 2
      vertex 1.06381 2.80505 2
    endloop
  endfacet
  facet normal 0 -0 -1
    outer loop
      vertex 2.99404 2.65249 0
      vertex 3.88377 0.957263 0
      vertex 2.24553 1.98937 0
    endloop
  endfacet
  facet normal -0 0 -1
    outer loop
      vertex 3.88377 0.957263 0
      vertex 2.91283 0.717947 0
      vertex 2.24553 1.98937 0
    endloop
  endfacet
  facet normal 0.885455 0.464726 0
    outer loop
      vertex 2.99404 2.65249 2
      vertex 3.88377 0.957263 2
      vertex 2.99404 2.65249 0
    endloop
  endfacet
  facet normal 0.885455 0.464726 0
    outer loop
      vertex 3.88377 0.957263 2
      vertex 3.88377 0.957263 0
      vertex 2.99404 2.65249 0
    endloop
  endfacet
  facet normal -0 0 1
    outer loop
      vertex 2.24553 1.98937 2
      vertex 2.91283 0.717947 2
      vertex 2.99404 2.65249 2
    endloop
  endfacet
  facet normal 0 0 1
    outer loop
      vertex 2.91283 0.717947 2
      vertex 3.88377 0.957263 2
      vertex 2.99404 2.65249 2
    endloop
  endfacet
  facet normal -0.885454 -0.464726 0
    outer loop
      vertex 2.24553 1.98937 0
      vertex 2.91283 0.717947 0
      vertex 2.24553 1.98937 2
    endloop
  endfacet
  facet normal -0.885454 -0.464726 0
    outer loop
      vertex 2.91283 0.717947 0
      vertex 2.91283 0.717947 2
      vertex 2.24553 1.98937 2
    endloop
  endfacet
  facet normal 0 -0 -1
    outer loop
      vertex 3.88377 0.957263 0
      vertex 3.88377 -0.957263 0
      vertex 2.91283 0.717947 0
    endloop
  endfacet
  facet normal 0 0 -1
    outer loop
      vertex 3.88377 -0.957263 0
      vertex 2.91283 -0.717947 0
      vertex 2.91283 0.717947 0
    endloop
  endfacet
  facet normal 1 0 0
    outer loop
      vertex 3.88377 0.957263 2
      vertex 3.88377 -0.957263 2
      vertex 3.88377 0.957263 0
    endloop
  endfacet
  facet normal 1 0 0
    outer loop
      vertex 3.88377 -0.957263 2
      vertex 3.88377 -0.957263 0
      vertex 3.88377 0.957263 0
    endloop
  endfacet
  facet normal -0 0 1
    outer loop
      vertex 2.91283 0.717947 2
      vertex 2.91283 -0.717947 2
      vertex 3.88377 0.957263 2
    endloop
  endfacet
  facet normal -0 0 1
    outer loop
      vertex 2.91283 -0.717947 2
      vertex 3.88377 -0.957263 2
      vertex 3.88377 0.957263 2
    endloop
  endfacet
  facet normal -1 0 0
    outer loop
      vertex 2.91283 0.717947 0
      vertex 2.91283 -0.717947 0
      vertex 2.91283 0.717947 2
    endloop
  endfacet
  facet normal -1 0 0
    outer loop
      vertex 2.91283 -0.717947 0
      vertex 2.91283 -0.717947 2
      vertex 2.91283 0.717947 2
    endloop
  endfacet
  facet normal -0 0 -1
    outer loop
      vertex 3.88377 -0.957263 0
      vertex 2.99404 -2.65249 0
      vertex 2.91283 -0.717947 0
    endloop
  endfacet
  facet normal 0 0 -1
    outer loop
      vertex 2.99404 -2.65249 0
      vertex 2.24553 -1.98937 0
      vertex 2.91283 -0.717947 0
    endloop
  endfacet
  facet normal 0.885455 -0.464726 0
    outer loop
      vertex 3.88377 -0.957263 2
      vertex 2.99404 -2.65249 2
      vertex 3.88377 -0.957263 0
    endloop
  endfacet
  facet normal 0.885455 -0.464726 0
    outer loop
      vertex 2.99404 -2.65249 2
      vertex 2.99404 -2.65249 0
      vertex 3.88377 -0.957263 0
    endloop
  endfacet
  facet normal 0 0 1
    outer loop
      vertex 2.91283 -0.717947 2
      vertex 2.24553 -1.98937 2
      vertex 3.88377 -0.957263 2
    endloop
  endfacet
  facet normal -0 0 1
    outer loop
      vertex 2.24553 -1.98937 2
      vertex 2.99404 -2.65249 2
      vertex 3.88377 -0.957263 2
    endloop
  endfacet
  facet normal -0.885454 0.464726 0
    outer loop
      vertex 2.91283 -0.717947 0
      vertex 2.24553 -1.98937 0
      vertex 2.91283 -0.717947 2
    endloop
  endfacet
  facet normal -0.885454 0.464726 0
    outer loop
      vertex 2.24553 -1.98937 0
      vertex 2.24553 -1.98937 2
      vertex 2.91283 -0.717947 2
    endloop
  endfacet
  facet normal -0 0 -1
    outer loop
      vertex 2.99404 -2.65249 0
      vertex 1.41842 -3.74006 0
      vertex 2.24553 -1.98937 0
    endloop
  endfacet
  facet normal 0 0 -1
    outer loop
      vertex 1.41842 -3.74006 0
      vertex 1.06381 -2.80505 0
      vertex 2.24553 -1.98937 0
    endloop
  endfacet
  facet normal 0.568064 -0.822984 0
    outer loop
      vertex 2.99404 -2.65249 2
      vertex 1.41842 -3.74006 2
      vertex 2.99404 -2.65249 0
    endloop
  endfacet
  facet normal 0.568064 -0.822984 0
    outer loop
      vertex 1.41842 -3.74006 2
      vertex 1.41842 -3.74006 0
      vertex 2.99404 -2.65249 0
    endloop
  endfacet
  facet normal 0 0 1
    outer loop
      vertex 2.24553 -1.98937 2
      vertex 1.06381 -2.80505 2
      vertex 2.99404 -2.65249 2
    endloop
  endfacet
  facet normal -0 0 1
    outer loop
      vertex 1.06381 -2.80505 2
      vertex 1.41842 -3.74006 2
      vertex 2.99404 -2.65249 2
    endloop
  endfacet
  facet normal -0.568064 0.822985 0
    outer loop
      vertex 2.24553 -1.98937 0
      vertex 1.06381 -2.80505 0
      vertex 2.24553 -1.98937 2
    endloop
  endfacet
  facet normal -0.568064 0.822985 0
    outer loop
      vertex 1.06381 -2.80505 0
      vertex 1.06381 -2.80505 2
      vertex 2.24553 -1.98937 2
    endloop
  endfacet
  facet normal -0 0 -1
    outer loop
      vertex 1.41842 -3.74006 0
      vertex -0.482147 -3.97084 0
      vertex 1.06381 -2.80505 0
    endloop
  endfacet
  facet normal 0 0 -1
    outer loop
      vertex -0.482147 -3.97084 0
      vertex -0.36161 -2.97813 0
      vertex 1.06381 -2.80505 0
    endloop
  endfacet
  facet normal 0.120542 -0.992708 0
    outer loop
      vertex 1.41842 -3.74006 2
      vertex -0.482147 -3.97084 2
      vertex 1.41842 -3.74006 0
    endloop
  endfacet
  facet normal 0.120542 -0.992708 0
    outer loop
      vertex -0.482147 -3.97084 2
      vertex -0.482147 -3.97084 0
      vertex 1.41842 -3.74006 0
    endloop
  endfacet
  facet normal 0 0 1
    outer loop
      vertex 1.06381 -2.80505 2
      vertex -0.36161 -2.97813 2
      vertex 1.41842 -3.74006 2
    endloop
  endfacet
  facet normal 0 0 1
    outer loop
      vertex -0.36161 -2.97813 2
      vertex -0.482147 -3.97084 2
      vertex 1.41842 -3.74006 2
    endloop
  endfacet
  facet normal -0.120539 0.992709 0
    outer loop
      vertex 1.06381 -2.80505 0
      vertex -0.36161 -2.97813 0
      vertex 1.06381 -2.80505 2
    endloop
  endfacet
  facet normal -0.120539 0.992709 0
    outer loop
      vertex -0.36161 -2.97813 0
      vertex -0.36161 -2.97813 2
      vertex 1.06381 -2.80505 2
    endloop
  endfacet
  facet normal 0 0 -1
    outer loop
      vertex -0.482147 -3.97084 0
      vertex -2.27226 -3.29194 0
      vertex -0.36161 -2.97813 0
    endloop
  endfacet
  facet normal 0 0 -1
    outer loop
      vertex -2.27226 -3.29194 0
      vertex -1.70419 -2.46895 0
      vertex -0.36161 -2.97813 0
    endloop
  endfacet
  facet normal -0.354605 -0.935016 -0
    outer loop
      vertex -0.482147 -3.97084 2
      vertex -2.27226 -3.29194 2
      vertex -0.482147 -3.97084 0
    endloop
  endfacet
  facet normal -0.354605 -0.935016 -0
    outer loop
      vertex -2.27226 -3.29194 2
      vertex -2.27226 -3.29194 0
      vertex -0.482147 -3.97084 0
    endloop
  endfacet
  facet normal 0 0 1
    outer loop
      vertex -0.36161 -2.97813 2
      vertex -1.70419 -2.46895 2
      vertex -0.482147 -3.97084 2
    endloop
  endfacet
  facet normal 0 0 1
    outer loop
      vertex -1.70419 -2.46895 2
      vertex -2.27226 -3.29194 2
      vertex -0.482147 -3.97084 2
    endloop
  endfacet
  facet normal 0.354609 0.935015 -0
    outer loop
      vertex -0.36161 -2.97813 0
      vertex -1.70419 -2.46895 0
      vertex -0.36161 -2.97813 2
    endloop
  endfacet
  facet normal 0.354609 0.935015 -0
    outer loop
      vertex -1.70419 -2.46895 0
      vertex -1.70419 -2.46895 2
      vertex -0.36161 -2.97813 2
    endloop
  endfacet
  facet normal 0 0 -1
    outer loop
      vertex -2.27226 -3.29194 0
      vertex -3.54182 -1.85889 0
      vertex -1.70419 -2.46895 0
    endloop
  endfacet
  facet normal 0 0 -1
    outer loop
      vertex -3.54182 -1.85889 0
      vertex -2.65637 -1.39417 0
      vertex -1.70419 -2.46895 0
    endloop
  endfacet
  facet normal -0.748514 -0.663119 -0
    outer loop
      vertex -2.27226 -3.29194 2
      vertex -3.54182 -1.85889 2
      vertex -2.27226 -3.29194 0
    endloop
  endfacet
  facet normal -0.748514 -0.663119 -0
    outer loop
      vertex -3.54182 -1.85889 2
      vertex -3.54182 -1.85889 0
      vertex -2.27226 -3.29194 0
    endloop
  endfacet
  facet normal 0 0 1
    outer loop
      vertex -1.70419 -2.46895 2
      vertex -2.65637 -1.39417 2
      vertex -2.27226 -3.29194 2
    endloop
  endfacet
  facet normal 0 0 1
    outer loop
      vertex -2.65637 -1.39417 2
      vertex -3.54182 -1.85889 2
      vertex -2.27226 -3.29194 2
    endloop
  endfacet
  facet normal 0.748508 0.663126 -0
    outer loop
      vertex -1.70419 -2.46895 0
      vertex -2.65637 -1.39417 0
      vertex -1.70419 -2.46895 2
    endloop
  endfacet
  facet normal 0.748508 0.663126 -0
    outer loop
      vertex -2.65637 -1.39417 0
      vertex -2.65637 -1.39417 2
      vertex -1.70419 -2.46895 2
    endloop
  endfacet
  facet normal 0 0 -1
    outer loop
      vertex -3.54182 -1.85889 0
      vertex -4 -0 0
      vertex -2.65637 -1.39417 0
    endloop
  endfacet
  facet normal 0 0 -1
    outer loop
      vertex -4 -0 0
      vertex -3 -0 0
      vertex -2.65637 -1.39417 0
    endloop
  endfacet
  facet normal -0.970941 -0.239318 -0
    outer loop
      vertex -3.54182 -1.85889 2
      vertex -4 -0 2
      vertex -3.54182 -1.85889 0
    endloop
  endfacet
  facet normal -0.970941 -0.239318 -0
    outer loop
      vertex -4 -0 2
      vertex -4 -0 0
      vertex -3.54182 -1.85889 0
    endloop
  endfacet
  facet normal 0 0 1
    outer loop
      vertex -2.65637 -1.39417 2
      vertex -3 -0 2
      vertex -3.54182 -1.85889 2
    endloop
  endfacet
  facet normal 0 0 1
    outer loop
      vertex -3 -0 2
      vertex -4 -0 2
      vertex -3.54182 -1.85889 2
    endloop
  endfacet
  facet normal 0.970942 0.239314 -0
    outer loop
      vertex -2.65637 -1.39417 0
      vertex -3 -0 0
      vertex -2.65637 -1.39417 2
    endloop
  endfacet
  facet normal 0.970942 0.239314 -0
    outer loop
      vertex -3 -0 0
      vertex -3 -0 2
      vertex -2.65637 -1.39417 2
    endloop
  endfacet
endsolid OpenSCAD_Model
