<?xml version="1.0" encoding="UTF-8" standalone="no"?>
<svg
   xmlns:dc="http://purl.org/dc/elements/1.1/"
   xmlns:cc="http://creativecommons.org/ns#"
   xmlns:rdf="http://www.w3.org/1999/02/22-rdf-syntax-ns#"
   xmlns:svg="http://www.w3.org/2000/svg"
   xmlns="http://www.w3.org/2000/svg"
   id="svg3453"
   version="1.1"
   viewBox="0 0 210 297"
   height="297mm"
   width="210mm">
  <defs
     id="defs3447" />
  <metadata
     id="metadata3450">
    <rdf:RDF>
      <cc:Work
         rdf:about="">
        <dc:format>image/svg+xml</dc:format>
        <dc:type
           rdf:resource="http://purl.org/dc/dcmitype/StillImage" />
        <dc:title></dc:title>
      </cc:Work>
    </rdf:RDF>
  </metadata>
  <g
     style="display:inline"
     id="layer3">
    <path
       id="path4052"
       d="m 12.252691,267.97143 c 0,0 8.610501,12.30291 14.943702,15.85978 4.183999,2.34982 9.436949,1.78383 14.084869,2.9773 15.699802,4.03133 19.54044,4.17403 30.97526,0.57256 6.025246,-1.89769 11.076825,-1.68108 16.432347,-3.26358 6.914107,-2.04304 17.270171,-17.08842 17.577461,-17.80648"
       style="fill:none;fill-rule:evenodd;stroke:#00bd00;stroke-width:0.26458332px;stroke-linecap:butt;stroke-linejoin:miter;stroke-opacity:1" />
    <path
       id="path4058"
       d="m 42.004016,267.99193 c -0.951643,-1.45654 -8.338331,-7.82711 -12.186225,-5.24292 -3.026807,2.03276 -4.574682,7.00217 -2.287448,9.7166 2.677751,3.17789 6.622294,2.6084 10.679455,2.41683 0.81582,-0.0385 2.253309,-0.30204 3.205284,-0.86659 3.909549,-2.31849 0.422253,-6.22696 0.422253,-6.22696"
       style="display:inline;fill:none;fill-rule:evenodd;stroke:#00d100;stroke-width:0.26458332px;stroke-linecap:butt;stroke-linejoin:miter;stroke-opacity:1" />
    <path
       id="path4054"
       d="m 56.053198,284.34651 c -0.678968,-3.48248 -4.559846,-2.8087 -6.6989,-6.12634"
       style="display:inline;fill:none;fill-rule:evenodd;stroke:#00a600;stroke-width:0.26458332px;stroke-linecap:butt;stroke-linejoin:miter;stroke-opacity:1" />
    <path
       id="path4056"
       d="m 62.866611,283.37316 c 0.86168,-2.88705 5.397998,-3.40734 6.1836,-6.29811"
       style="display:inline;fill:none;fill-rule:evenodd;stroke:#00c700;stroke-width:0.26458332px;stroke-linecap:butt;stroke-linejoin:miter;stroke-opacity:1" />
    <path
       id="path4063"
       d="m 74.655811,271.89879 c -0.24628,-2.74404 7.655809,-12.36063 12.793512,-10.04046 2.929834,1.3231 4.611416,6.32687 2.884612,9.03845 -2.954668,4.63969 -15.342309,2.89979 -15.72873,0.81983"
       style="display:inline;fill:none;fill-rule:evenodd;stroke:#00c000;stroke-width:0.26458332px;stroke-linecap:butt;stroke-linejoin:miter;stroke-opacity:1" />
    <path
       id="path4066"
       d="m 98.88656,281.41297 c 1.94849,-2.36482 3.72622,-5.43555 5.24291,-8.66396"
       style="fill:none;fill-rule:evenodd;stroke:#00bf00;stroke-width:0.26458332px;stroke-linecap:butt;stroke-linejoin:miter;stroke-opacity:1" />
    <path
       id="path4068"
       d="m 106.21449,268.07289 c 2.37291,-5.65684 0.82666,-9.75845 -0.0405,-14.12954"
       style="fill:none;fill-rule:evenodd;stroke:#00b800;stroke-width:0.26458332px;stroke-linecap:butt;stroke-linejoin:miter;stroke-opacity:1" />
    <path
       id="path4070"
       d="m 12.767991,271.09184 c -2.116615,-4.40989 -1.29811,-9.62695 -0.429417,-14.8578"
       style="fill:none;fill-rule:evenodd;stroke:#00bd00;stroke-width:0.26458332px;stroke-linecap:butt;stroke-linejoin:miter;stroke-opacity:1" />
    <path
       id="path4072"
       d="m 15.172724,275.5578 c 1.499319,2.8456 3.202267,5.60636 5.611046,8.07302"
       style="fill:none;fill-rule:evenodd;stroke:#00bc00;stroke-width:0.26458332px;stroke-linecap:butt;stroke-linejoin:miter;stroke-opacity:1" />
    <path
       id="path4074"
       d="m 58.858721,250.05043 -0.700068,-1.00152 0.757324,-1.40321 0.666821,1.40073 -0.626932,1.02236"
       style="display:inline;fill:none;fill-rule:evenodd;stroke:#00c100;stroke-width:0.576;stroke-linecap:butt;stroke-linejoin:miter;stroke-miterlimit:4;stroke-dasharray:none;stroke-opacity:1" />
    <path
       id="path4074-8"
       d="m 58.723178,244.87526 -1.013938,-1.35092 1.096864,-1.89275 0.965785,1.88941 -0.908012,1.37903"
       style="display:inline;fill:none;fill-rule:evenodd;stroke:#00c100;stroke-width:0.576;stroke-linecap:butt;stroke-linejoin:miter;stroke-miterlimit:4;stroke-dasharray:none;stroke-opacity:1" />
    <path
       id="path4074-88"
       d="m 58.759607,239.97087 -0.964075,-1.42645 1.042923,-1.99857 0.91829,1.99504 -0.863358,1.45614"
       style="display:inline;fill:none;fill-rule:evenodd;stroke:#00c100;stroke-width:0.576;stroke-linecap:butt;stroke-linejoin:miter;stroke-miterlimit:4;stroke-dasharray:none;stroke-opacity:1" />
    <path
       id="path4074-9"
       d="m 58.68131,235.6231 -0.935501,-1.55005 1.012012,-2.17174 0.891073,2.1679 -0.837769,1.58231"
       style="display:inline;fill:none;fill-rule:evenodd;stroke:#00c100;stroke-width:0.576;stroke-linecap:butt;stroke-linejoin:miter;stroke-miterlimit:4;stroke-dasharray:none;stroke-opacity:1" />
    <path
       id="path4074-7"
       d="m 58.686222,231.06757 -1.101844,-1.29458 1.19196,-1.81383 1.049517,1.81062 -0.986735,1.32153"
       style="display:inline;fill:none;fill-rule:evenodd;stroke:#00c100;stroke-width:0.576;stroke-linecap:butt;stroke-linejoin:miter;stroke-miterlimit:4;stroke-dasharray:none;stroke-opacity:1" />
    <path
       id="path4074-76"
       d="m 58.677109,227.55119 -0.71867,-0.77239 0.777448,-1.08219 0.684539,1.08027 -0.64359,0.78847"
       style="display:inline;fill:none;fill-rule:evenodd;stroke:#00c100;stroke-width:0.576;stroke-linecap:butt;stroke-linejoin:miter;stroke-miterlimit:4;stroke-dasharray:none;stroke-opacity:1" />
    <path
       id="path4074-4"
       d="m 58.707507,225.39196 -0.569959,-0.73429 0.616573,-1.02879 0.542891,1.02697 -0.510414,0.74957"
       style="display:inline;fill:none;fill-rule:evenodd;stroke:#00c100;stroke-width:0.576;stroke-linecap:butt;stroke-linejoin:miter;stroke-miterlimit:4;stroke-dasharray:none;stroke-opacity:1" />
    <path
       id="path4156"
       d="m 34.868638,263.04745 c -1.987211,3.29555 -2.004551,9.51202 1.488646,10.70679 4.224965,1.44506 4.874007,-6.66664 4.465934,-6.87068"
       style="fill:none;fill-rule:evenodd;stroke:#00b5e0;stroke-width:0.26458332px;stroke-linecap:butt;stroke-linejoin:miter;stroke-opacity:1" />
    <path
       id="path4159"
       d="m 76.779712,267.51338 c -0.02719,0.0102 0.766236,6.29079 3.778866,5.72556 5.991242,-1.12409 3.045285,-10.7891 2.519246,-10.76405"
       style="fill:none;fill-rule:evenodd;stroke:#00b0b8;stroke-width:0.26458332px;stroke-linecap:butt;stroke-linejoin:miter;stroke-opacity:1" />
  </g>
</svg>
