<?xml version="1.0" encoding="UTF-8" standalone="no"?>
<svg
   xmlns:dc="http://purl.org/dc/elements/1.1/"
   xmlns:cc="http://creativecommons.org/ns#"
   xmlns:rdf="http://www.w3.org/1999/02/22-rdf-syntax-ns#"
   xmlns:svg="http://www.w3.org/2000/svg"
   xmlns="http://www.w3.org/2000/svg"
   id="svg3453"
   version="1.1"
   viewBox="0 0 210 297"
   height="297mm"
   width="210mm">
  <defs
     id="defs3447" />
  <metadata
     id="metadata3450">
    <rdf:RDF>
      <cc:Work
         rdf:about="">
        <dc:format>image/svg+xml</dc:format>
        <dc:type
           rdf:resource="http://purl.org/dc/dcmitype/StillImage" />
        <dc:title></dc:title>
      </cc:Work>
    </rdf:RDF>
  </metadata>
  <g
     style="display:inline"
     id="layer1">
    <path
       id="path4009"
       d="m 13.613919,215.98645 c -4.0475846,5.44396 -8.4209196,24.16918 0.699972,32.00278 l -1.946689,8.24481 c -4.5072588,0.87792 -10.1712552,1.61832 -10.5975405,5.58921 -0.5139571,4.78757 5.5057192,8.02848 11.0555845,9.29722 l 2.404734,4.46595 c -2.977855,3.263 -7.1605308,6.56252 -3.320823,9.61893 4.828716,1.64592 6.702984,-0.11714 8.817357,-1.60316 16.231598,15.12254 61.342137,15.75258 78.09659,-2.1757 3.433026,1.24344 6.838916,2.29699 9.847956,0.57256 4.86142,-4.05004 -1.41601,-6.42926 -4.58044,-9.27542 l 2.0612,-4.58044 c 6.77292,-3.03268 11.24207,-10.12543 6.59997,-13.55399 -2.65797,-1.10565 -4.53014,-0.49681 -6.61386,-0.64539 l -1.81829,-7.55773 c 7.89221,-8.00423 10.15187,-19.03672 -1.94669,-37.78868 -3.396196,-4.56941 -9.075289,15.24514 -13.855848,19.4669 -3.638767,3.36241 -7.701915,-1.19311 -11.451114,-2.74827 -2.778035,-3.36319 -4.047579,-7.48063 -10.420511,-9.04638 -3.556879,1.15172 -2.864923,4.07379 -4.122401,6.1836 -2.099371,0.47571 -4.279714,0.92418 -6.702971,0.0197 0.307268,-5.80665 -0.794068,-9.06201 -2.572429,-8.49347 -10.193879,4.67517 -9.129819,8.42325 -11.451114,10.64953 -10.533397,8.51029 -10.194366,5.64246 -11.909158,4.92398 L 19.072555,213.56207 c -3.103467,-2.22211 -4.348304,-0.13912 -5.630849,2.6541"
       style="fill:none;fill-rule:evenodd;stroke:#00cb00;stroke-width:5;stroke-linecap:butt;stroke-linejoin:miter;stroke-opacity:1;stroke-miterlimit:4;stroke-dasharray:none" />
  </g>
</svg>
