  0
SECTION
  2
HEADER
  9
$ACADVER
  1
AC1014
  9
$HANDSEED
  5
FFFF
  9
$MEASUREMENT
 70
     1
  0
ENDSEC
  0
SECTION
  2
TABLES
  0
TABLE
  2
VPORT
  5
8
330
0
100
AcDbSymbolTable
 70
     4
  0
VPORT
  5
2E
330
8
100
AcDbSymbolTableRecord
100
AcDbViewportTableRecord
  2
*ACTIVE
 70
     0
 10
0.0
 20
0.0
 11
1.0
 21
1.0
 12
210.0
 22
148.5
 13
0.0
 23
0.0
 14
10.0
 24
10.0
 15
10.0
 25
10.0
 16
0.0
 26
0.0
 36
1.0
 17
0.0
 27
0.0
 37
0.0
 40
341.0
 41
1.24
 42
50.0
 43
0.0
 44
0.0
 50
0.0
 51
0.0
 71
     0
 72
   100
 73
     1
 74
     3
 75
     0
 76
     0
 77
     0
 78
     0
  0
ENDTAB
  0
TABLE
  2
LTYPE
  5
5
330
0
100
AcDbSymbolTable
 70
     1
  0
LTYPE
  5
14
330
5
100
AcDbSymbolTableRecord
100
AcDbLinetypeTableRecord
  2
BYBLOCK
 70
     0
  3

 72
    65
 73
     0
 40
0.0
  0
LTYPE
  5
15
330
5
100
AcDbSymbolTableRecord
100
AcDbLinetypeTableRecord
  2
BYLAYER
 70
     0
  3

 72
    65
 73
     0
 40
0.0
  0
LTYPE
  5
16
330
5
100
AcDbSymbolTableRecord
100
AcDbLinetypeTableRecord
  2
CONTINUOUS
 70
     0
  3
Solid line
 72
    65
 73
     0
 40
0.0
  0
ENDTAB
  0
TABLE
  2
LAYER
  5
2
100
AcDbSymbolTable
 70
2
  0
LAYER
  5
50
100
AcDbSymbolTableRecord
100
AcDbLayerTableRecord
  2
0
 70
0
  6
CONTINUOUS
  0
LAYER
  5
51
100
AcDbSymbolTableRecord
100
AcDbLayerTableRecord
  2
Layer_1
 70
0
  6
CONTINUOUS
  0
ENDTAB
  0
TABLE
  2
STYLE
  5
3
330
0
100
AcDbSymbolTable
 70
     1
  0
STYLE
  5
11
330
3
100
AcDbSymbolTableRecord
100
AcDbTextStyleTableRecord
  2
STANDARD
 70
     0
 40
0.0
 41
1.0
 50
0.0
 71
     0
 42
2.5
  3
txt
  4

  0
ENDTAB
  0
TABLE
  2
VIEW
  5
6
330
0
100
AcDbSymbolTable
 70
     0
  0
ENDTAB
  0
TABLE
  2
UCS
  5
7
330
0
100
AcDbSymbolTable
 70
     0
  0
ENDTAB
  0
TABLE
  2
APPID
  5
9
330
0
100
AcDbSymbolTable
 70
     2
  0
APPID
  5
12
330
9
100
AcDbSymbolTableRecord
100
AcDbRegAppTableRecord
  2
ACAD
 70
     0
  0
ENDTAB
  0
TABLE
  2
DIMSTYLE
  5
A
330
0
100
AcDbSymbolTable
 70
     1
  0
DIMSTYLE
105
27
330
A
100
AcDbSymbolTableRecord
100
AcDbDimStyleTableRecord
  2
ISO-25
 70
     0
  3

  4

  5

  6

  7

 40
1.0
 41
2.5
 42
0.625
 43
3.75
 44
1.25
 45
0.0
 46
0.0
 47
0.0
 48
0.0
140
2.5
141
2.5
142
0.0
143
0.03937007874016
144
1.0
145
0.0
146
1.0
147
0.625
 71
     0
 72
     0
 73
     0
 74
     0
 75
     0
 76
     0
 77
     1
 78
     8
170
     0
171
     3
172
     1
173
     0
174
     0
175
     0
176
     0
177
     0
178
     0
270
     2
271
     2
272
     2
273
     2
274
     3
340
11
275
     0
280
     0
281
     0
282
     0
283
     0
284
     8
285
     0
286
     0
287
     3
288
     0
  0
ENDTAB
  0
TABLE
  2
BLOCK_RECORD
  5
1
330
0
100
AcDbSymbolTable
 70
     1
  0
BLOCK_RECORD
  5
1F
330
1
100
AcDbSymbolTableRecord
100
AcDbBlockTableRecord
  2
*MODEL_SPACE
  0
BLOCK_RECORD
  5
1B
330
1
100
AcDbSymbolTableRecord
100
AcDbBlockTableRecord
  2
*PAPER_SPACE
  0
ENDTAB
  0
ENDSEC
  0
SECTION
  2
BLOCKS
  0
BLOCK
  5
20
330
1F
100
AcDbEntity
  8
0
100
AcDbBlockBegin
  2
*MODEL_SPACE
 70
     0
 10
0.0
 20
0.0
 30
0.0
  3
*MODEL_SPACE
  1

  0
ENDBLK
  5
21
330
1F
100
AcDbEntity
  8
0
100
AcDbBlockEnd
  0
BLOCK
  5
1C
330
1B
100
AcDbEntity
 67
     1
  8
0
100
AcDbBlockBegin
  2
*PAPER_SPACE
  1

  0
ENDBLK
  5
1D
330
1B
100
AcDbEntity
 67
     1
  8
0
100
AcDbBlockEnd
  0
ENDSEC
  0
SECTION
  2
ENTITIES
  0
LWPOLYLINE
  5
100
100
AcDbEntity
  8
Layer_1
 62
7
100
AcDbPolyline
 90
48
 70
1
 10
24.962919
 20
51.994547
 30
0.0
 10
2.309707
 20
54.949819
 30
0.0
 10
-1.476357
 20
58.919842
 30
0.0
 10
-4.814143
 20
63.342349
 30
0.0
 10
-7.470522
 20
68.153906
 30
0.0
 10
-9.212364
 20
73.291069
 30
0.0
 10
-10.455557
 20
82.291628
 30
0.0
 10
-10.190532
 20
91.506004
 30
0.0
 10
-8.437062
 20
100.548399
 30
0.0
 10
-5.214924
 20
109.033020
 30
0.0
 10
-2.854440
 20
113.264562
 30
0.0
 10
-0.065483
 20
117.256530
 30
0.0
 10
6.573986
 20
124.514408
 30
0.0
 10
14.255761
 20
130.791994
 30
0.0
 10
22.532116
 20
136.074630
 30
0.0
 10
26.872986
 20
138.101868
 30
0.0
 10
32.041497
 20
139.885429
 30
0.0
 10
43.127491
 20
142.688708
 30
0.0
 10
56.157757
 20
145.010109
 30
0.0
 10
56.157775
 20
133.723180
 30
0.0
 10
76.380179
 20
152.064441
 30
0.0
 10
52.160308
 20
159.118780
 30
0.0
 10
54.982047
 20
150.183290
 30
0.0
 10
49.459610
 20
149.984520
 30
0.0
 10
36.277690
 20
148.908615
 30
0.0
 10
28.401328
 20
147.816923
 30
0.0
 10
20.514374
 20
146.236173
 30
0.0
 10
13.251594
 20
144.076440
 30
0.0
 10
7.247748
 20
141.247801
 30
0.0
 10
0.892301
 20
136.802753
 30
0.0
 10
-4.999260
 20
131.675385
 30
0.0
 10
-10.418599
 20
125.960072
 30
0.0
 10
-15.357382
 20
119.751188
 30
0.0
 10
-19.807270
 20
113.143113
 30
0.0
 10
-23.759930
 20
106.230220
 30
0.0
 10
-27.207022
 20
99.106883
 30
0.0
 10
-30.140214
 20
91.867481
 30
0.0
 10
-33.005001
 20
81.865432
 30
0.0
 10
-34.417407
 20
71.436676
 30
0.0
 10
-34.279083
 20
60.935758
 30
0.0
 10
-32.491675
 20
50.717221
 30
0.0
 10
-29.572307
 20
42.896043
 30
0.0
 10
-25.114821
 20
34.473704
 30
0.0
 10
-19.713269
 20
25.956918
 30
0.0
 10
-13.961702
 20
17.852360
 30
0.0
 10
-3.784729
 20
4.906879
 30
0.0
 10
0.663687
 20
-0.309117
 30
0.0
 10
24.375727
 20
-0.213920
 30
0.0
  0
ENDSEC
  0
SECTION
  2
OBJECTS
  0
DICTIONARY
  5
C
330
0
100
AcDbDictionary
  3
ACAD_GROUP
350
D
  3
ACAD_MLINESTYLE
350
17
  0
DICTIONARY
  5
D
330
C
100
AcDbDictionary
  0
DICTIONARY
  5
1A
330
C
100
AcDbDictionary
  0
DICTIONARY
  5
17
330
C
100
AcDbDictionary
  3
STANDARD
350
18
  0
DICTIONARY
  5
19
330
C
100
AcDbDictionary
  0
ENDSEC
  0
EOF
