  0
SECTION
  2
HEADER
  9
$ACADVER
  1
AC1014
  9
$HANDSEED
  5
FFFF
  9
$MEASUREMENT
 70
     1
  0
ENDSEC
  0
SECTION
  2
TABLES
  0
TABLE
  2
VPORT
  5
8
330
0
100
AcDbSymbolTable
 70
     4
  0
VPORT
  5
2E
330
8
100
AcDbSymbolTableRecord
100
AcDbViewportTableRecord
  2
*ACTIVE
 70
     0
 10
0.0
 20
0.0
 11
1.0
 21
1.0
 12
210.0
 22
148.5
 13
0.0
 23
0.0
 14
10.0
 24
10.0
 15
10.0
 25
10.0
 16
0.0
 26
0.0
 36
1.0
 17
0.0
 27
0.0
 37
0.0
 40
341.0
 41
1.24
 42
50.0
 43
0.0
 44
0.0
 50
0.0
 51
0.0
 71
     0
 72
   100
 73
     1
 74
     3
 75
     0
 76
     0
 77
     0
 78
     0
  0
ENDTAB
  0
TABLE
  2
LTYPE
  5
5
330
0
100
AcDbSymbolTable
 70
     1
  0
LTYPE
  5
14
330
5
100
AcDbSymbolTableRecord
100
AcDbLinetypeTableRecord
  2
BYBLOCK
 70
     0
  3

 72
    65
 73
     0
 40
0.0
  0
LTYPE
  5
15
330
5
100
AcDbSymbolTableRecord
100
AcDbLinetypeTableRecord
  2
BYLAYER
 70
     0
  3

 72
    65
 73
     0
 40
0.0
  0
LTYPE
  5
16
330
5
100
AcDbSymbolTableRecord
100
AcDbLinetypeTableRecord
  2
CONTINUOUS
 70
     0
  3
Solid line
 72
    65
 73
     0
 40
0.0
  0
ENDTAB
  0
TABLE
  2
LAYER
  5
2
100
AcDbSymbolTable
 70
2
  0
LAYER
  5
50
100
AcDbSymbolTableRecord
100
AcDbLayerTableRecord
  2
0
 70
0
  6
CONTINUOUS
  0
LAYER
  5
51
100
AcDbSymbolTableRecord
100
AcDbLayerTableRecord
  2
Layer_1
 70
0
  6
CONTINUOUS
  0
ENDTAB
  0
TABLE
  2
STYLE
  5
3
330
0
100
AcDbSymbolTable
 70
     1
  0
STYLE
  5
11
330
3
100
AcDbSymbolTableRecord
100
AcDbTextStyleTableRecord
  2
STANDARD
 70
     0
 40
0.0
 41
1.0
 50
0.0
 71
     0
 42
2.5
  3
txt
  4

  0
ENDTAB
  0
TABLE
  2
VIEW
  5
6
330
0
100
AcDbSymbolTable
 70
     0
  0
ENDTAB
  0
TABLE
  2
UCS
  5
7
330
0
100
AcDbSymbolTable
 70
     0
  0
ENDTAB
  0
TABLE
  2
APPID
  5
9
330
0
100
AcDbSymbolTable
 70
     2
  0
APPID
  5
12
330
9
100
AcDbSymbolTableRecord
100
AcDbRegAppTableRecord
  2
ACAD
 70
     0
  0
ENDTAB
  0
TABLE
  2
DIMSTYLE
  5
A
330
0
100
AcDbSymbolTable
 70
     1
  0
DIMSTYLE
105
27
330
A
100
AcDbSymbolTableRecord
100
AcDbDimStyleTableRecord
  2
ISO-25
 70
     0
  3

  4

  5

  6

  7

 40
1.0
 41
2.5
 42
0.625
 43
3.75
 44
1.25
 45
0.0
 46
0.0
 47
0.0
 48
0.0
140
2.5
141
2.5
142
0.0
143
0.03937007874016
144
1.0
145
0.0
146
1.0
147
0.625
 71
     0
 72
     0
 73
     0
 74
     0
 75
     0
 76
     0
 77
     1
 78
     8
170
     0
171
     3
172
     1
173
     0
174
     0
175
     0
176
     0
177
     0
178
     0
270
     2
271
     2
272
     2
273
     2
274
     3
340
11
275
     0
280
     0
281
     0
282
     0
283
     0
284
     8
285
     0
286
     0
287
     3
288
     0
  0
ENDTAB
  0
TABLE
  2
BLOCK_RECORD
  5
1
330
0
100
AcDbSymbolTable
 70
     1
  0
BLOCK_RECORD
  5
1F
330
1
100
AcDbSymbolTableRecord
100
AcDbBlockTableRecord
  2
*MODEL_SPACE
  0
BLOCK_RECORD
  5
1B
330
1
100
AcDbSymbolTableRecord
100
AcDbBlockTableRecord
  2
*PAPER_SPACE
  0
ENDTAB
  0
ENDSEC
  0
SECTION
  2
BLOCKS
  0
BLOCK
  5
20
330
1F
100
AcDbEntity
  8
0
100
AcDbBlockBegin
  2
*MODEL_SPACE
 70
     0
 10
0.0
 20
0.0
 30
0.0
  3
*MODEL_SPACE
  1

  0
ENDBLK
  5
21
330
1F
100
AcDbEntity
  8
0
100
AcDbBlockEnd
  0
BLOCK
  5
1C
330
1B
100
AcDbEntity
 67
     1
  8
0
100
AcDbBlockBegin
  2
*PAPER_SPACE
  1

  0
ENDBLK
  5
1D
330
1B
100
AcDbEntity
 67
     1
  8
0
100
AcDbBlockEnd
  0
ENDSEC
  0
SECTION
  2
ENTITIES
  0
LWPOLYLINE
  5
100
100
AcDbEntity
  8
Layer_1
 62
7
100
AcDbPolyline
 90
110
 70
1
 10
197.990370
 20
140.644860
 30
0.0
 10
183.842128
 20
113.325120
 30
0.0
 10
205.631770
 20
129.622141
 30
0.0
 10
205.234627
 20
127.701973
 30
0.0
 10
204.763254
 20
125.811959
 30
0.0
 10
203.603754
 20
122.129501
 30
0.0
 10
202.165188
 20
118.588992
 30
0.0
 10
200.459470
 20
115.204654
 30
0.0
 10
198.498510
 20
111.990707
 30
0.0
 10
196.294224
 20
108.961379
 30
0.0
 10
193.858526
 20
106.130893
 30
0.0
 10
191.203329
 20
103.513468
 30
0.0
 10
189.092988
 20
101.783479
 30
0.0
 10
186.757649
 20
100.197551
 30
0.0
 10
184.261281
 20
98.779427
 30
0.0
 10
181.667851
 20
97.552853
 30
0.0
 10
179.041332
 20
96.541573
 30
0.0
 10
176.445693
 20
95.769339
 30
0.0
 10
173.944896
 20
95.259891
 30
0.0
 10
171.602919
 20
95.036980
 30
0.0
 10
170.018430
 20
85.429324
 30
0.0
 10
168.678349
 20
78.255084
 30
0.0
 10
167.461232
 20
72.983396
 30
0.0
 10
166.860831
 20
70.895116
 30
0.0
 10
166.245627
 20
69.083403
 30
0.0
 10
165.600444
 20
67.481896
 30
0.0
 10
164.910090
 20
66.024243
 30
0.0
 10
163.333171
 20
63.275061
 30
0.0
 10
158.969393
 20
56.583187
 30
0.0
 10
157.542423
 20
54.419737
 30
0.0
 10
156.025133
 20
52.287100
 30
0.0
 10
154.423687
 20
50.184694
 30
0.0
 10
152.744260
 20
48.111946
 30
0.0
 10
149.176134
 20
44.053097
 30
0.0
 10
145.370106
 20
40.105932
 30
0.0
 10
141.375530
 20
36.265820
 30
0.0
 10
137.241762
 20
32.528138
 30
0.0
 10
133.018157
 20
28.888263
 30
0.0
 10
128.754071
 20
25.341550
 30
0.0
 10
120.301867
 20
18.509188
 30
0.0
 10
112.279991
 20
11.994008
 30
0.0
 10
108.553811
 20
8.843800
 30
0.0
 10
105.083277
 20
5.759023
 30
0.0
 10
101.917743
 20
2.735047
 30
0.0
 10
99.106567
 20
-0.232784
 30
0.0
 10
-0.132542
 20
-0.178174
 30
0.0
 10
-0.084544
 20
59.981509
 30
0.0
 10
7.808272
 20
63.905682
 30
0.0
 10
15.394327
 20
61.642245
 30
0.0
 10
25.921188
 20
67.654820
 30
0.0
 10
38.867638
 20
62.958788
 30
0.0
 10
47.529769
 20
75.986028
 30
0.0
 10
60.344756
 20
68.379648
 30
0.0
 10
70.436248
 20
80.768498
 30
0.0
 10
80.599587
 20
71.773239
 30
0.0
 10
90.051657
 20
83.624609
 30
0.0
 10
98.385347
 20
75.089638
 30
0.0
 10
108.328119
 20
84.600199
 30
0.0
 10
118.174537
 20
76.841309
 30
0.0
 10
127.025159
 20
86.617967
 30
0.0
 10
136.801447
 20
80.831599
 30
0.0
 10
137.721520
 20
82.411775
 30
0.0
 10
138.790249
 20
83.949626
 30
0.0
 10
139.962517
 20
85.416087
 30
0.0
 10
141.193213
 20
86.782094
 30
0.0
 10
142.437223
 20
88.018582
 30
0.0
 10
143.649427
 20
89.096489
 30
0.0
 10
144.784718
 20
89.986754
 30
0.0
 10
145.797979
 20
90.660309
 30
0.0
 10
147.140303
 20
91.951581
 30
0.0
 10
148.331833
 20
93.316032
 30
0.0
 10
149.381726
 20
94.741231
 30
0.0
 10
150.299147
 20
96.214757
 30
0.0
 10
151.093260
 20
97.724181
 30
0.0
 10
151.773221
 20
99.257082
 30
0.0
 10
152.348195
 20
100.801031
 30
0.0
 10
152.827342
 20
102.343605
 30
0.0
 10
153.534798
 20
105.374928
 30
0.0
 10
153.968884
 20
108.251648
 30
0.0
 10
154.202892
 20
110.874367
 30
0.0
 10
154.310109
 20
113.143680
 30
0.0
 10
154.258002
 20
114.742694
 30
0.0
 10
154.412871
 20
116.347027
 30
0.0
 10
154.767468
 20
117.933802
 30
0.0
 10
155.314547
 20
119.480146
 30
0.0
 10
156.046863
 20
120.963181
 30
0.0
 10
156.957165
 20
122.360033
 30
0.0
 10
158.038207
 20
123.647823
 30
0.0
 10
159.282744
 20
124.803679
 30
0.0
 10
160.683527
 20
125.804722
 30
0.0
 10
162.233311
 20
126.628079
 30
0.0
 10
163.924843
 20
127.250871
 30
0.0
 10
165.750883
 20
127.650223
 30
0.0
 10
167.704177
 20
127.803260
 30
0.0
 10
169.777484
 20
127.687106
 30
0.0
 10
171.963554
 20
127.278885
 30
0.0
 10
174.255139
 20
126.555721
 30
0.0
 10
175.471087
 20
127.403335
 30
0.0
 10
176.738891
 20
128.386034
 30
0.0
 10
179.416191
 20
130.644674
 30
0.0
 10
182.259285
 20
133.107593
 30
0.0
 10
185.240422
 20
135.550747
 30
0.0
 10
186.774085
 20
136.694901
 30
0.0
 10
188.331853
 20
137.750096
 30
0.0
 10
189.910257
 20
138.688333
 30
0.0
 10
191.505824
 20
139.481598
 30
0.0
 10
193.115091
 20
140.101893
 30
0.0
 10
194.734587
 20
140.521207
 30
0.0
 10
196.360844
 20
140.711538
 30
0.0
 10
197.990389
 20
140.644881
 30
0.0
  0
ENDSEC
  0
SECTION
  2
OBJECTS
  0
DICTIONARY
  5
C
330
0
100
AcDbDictionary
  3
ACAD_GROUP
350
D
  3
ACAD_MLINESTYLE
350
17
  0
DICTIONARY
  5
D
330
C
100
AcDbDictionary
  0
DICTIONARY
  5
1A
330
C
100
AcDbDictionary
  0
DICTIONARY
  5
17
330
C
100
AcDbDictionary
  3
STANDARD
350
18
  0
DICTIONARY
  5
19
330
C
100
AcDbDictionary
  0
ENDSEC
  0
EOF
