  0
SECTION
  2
HEADER
  9
$ACADVER
  1
AC1014
  9
$HANDSEED
  5
FFFF
  9
$MEASUREMENT
 70
     1
  0
ENDSEC
  0
SECTION
  2
TABLES
  0
TABLE
  2
VPORT
  5
8
330
0
100
AcDbSymbolTable
 70
     4
  0
VPORT
  5
2E
330
8
100
AcDbSymbolTableRecord
100
AcDbViewportTableRecord
  2
*ACTIVE
 70
     0
 10
0.0
 20
0.0
 11
1.0
 21
1.0
 12
210.0
 22
148.5
 13
0.0
 23
0.0
 14
10.0
 24
10.0
 15
10.0
 25
10.0
 16
0.0
 26
0.0
 36
1.0
 17
0.0
 27
0.0
 37
0.0
 40
341.0
 41
1.24
 42
50.0
 43
0.0
 44
0.0
 50
0.0
 51
0.0
 71
     0
 72
   100
 73
     1
 74
     3
 75
     0
 76
     0
 77
     0
 78
     0
  0
ENDTAB
  0
TABLE
  2
LTYPE
  5
5
330
0
100
AcDbSymbolTable
 70
     1
  0
LTYPE
  5
14
330
5
100
AcDbSymbolTableRecord
100
AcDbLinetypeTableRecord
  2
BYBLOCK
 70
     0
  3

 72
    65
 73
     0
 40
0.0
  0
LTYPE
  5
15
330
5
100
AcDbSymbolTableRecord
100
AcDbLinetypeTableRecord
  2
BYLAYER
 70
     0
  3

 72
    65
 73
     0
 40
0.0
  0
LTYPE
  5
16
330
5
100
AcDbSymbolTableRecord
100
AcDbLinetypeTableRecord
  2
CONTINUOUS
 70
     0
  3
Solid line
 72
    65
 73
     0
 40
0.0
  0
ENDTAB
  0
TABLE
  2
LAYER
  5
2
100
AcDbSymbolTable
 70
2
  0
LAYER
  5
50
100
AcDbSymbolTableRecord
100
AcDbLayerTableRecord
  2
0
 70
0
  6
CONTINUOUS
  0
LAYER
  5
51
100
AcDbSymbolTableRecord
100
AcDbLayerTableRecord
  2
Layer_1
 70
0
  6
CONTINUOUS
  0
ENDTAB
  0
TABLE
  2
STYLE
  5
3
330
0
100
AcDbSymbolTable
 70
     1
  0
STYLE
  5
11
330
3
100
AcDbSymbolTableRecord
100
AcDbTextStyleTableRecord
  2
STANDARD
 70
     0
 40
0.0
 41
1.0
 50
0.0
 71
     0
 42
2.5
  3
txt
  4

  0
ENDTAB
  0
TABLE
  2
VIEW
  5
6
330
0
100
AcDbSymbolTable
 70
     0
  0
ENDTAB
  0
TABLE
  2
UCS
  5
7
330
0
100
AcDbSymbolTable
 70
     0
  0
ENDTAB
  0
TABLE
  2
APPID
  5
9
330
0
100
AcDbSymbolTable
 70
     2
  0
APPID
  5
12
330
9
100
AcDbSymbolTableRecord
100
AcDbRegAppTableRecord
  2
ACAD
 70
     0
  0
ENDTAB
  0
TABLE
  2
DIMSTYLE
  5
A
330
0
100
AcDbSymbolTable
 70
     1
  0
DIMSTYLE
105
27
330
A
100
AcDbSymbolTableRecord
100
AcDbDimStyleTableRecord
  2
ISO-25
 70
     0
  3

  4

  5

  6

  7

 40
1.0
 41
2.5
 42
0.625
 43
3.75
 44
1.25
 45
0.0
 46
0.0
 47
0.0
 48
0.0
140
2.5
141
2.5
142
0.0
143
0.03937007874016
144
1.0
145
0.0
146
1.0
147
0.625
 71
     0
 72
     0
 73
     0
 74
     0
 75
     0
 76
     0
 77
     1
 78
     8
170
     0
171
     3
172
     1
173
     0
174
     0
175
     0
176
     0
177
     0
178
     0
270
     2
271
     2
272
     2
273
     2
274
     3
340
11
275
     0
280
     0
281
     0
282
     0
283
     0
284
     8
285
     0
286
     0
287
     3
288
     0
  0
ENDTAB
  0
TABLE
  2
BLOCK_RECORD
  5
1
330
0
100
AcDbSymbolTable
 70
     1
  0
BLOCK_RECORD
  5
1F
330
1
100
AcDbSymbolTableRecord
100
AcDbBlockTableRecord
  2
*MODEL_SPACE
  0
BLOCK_RECORD
  5
1B
330
1
100
AcDbSymbolTableRecord
100
AcDbBlockTableRecord
  2
*PAPER_SPACE
  0
ENDTAB
  0
ENDSEC
  0
SECTION
  2
BLOCKS
  0
BLOCK
  5
20
330
1F
100
AcDbEntity
  8
0
100
AcDbBlockBegin
  2
*MODEL_SPACE
 70
     0
 10
0.0
 20
0.0
 30
0.0
  3
*MODEL_SPACE
  1

  0
ENDBLK
  5
21
330
1F
100
AcDbEntity
  8
0
100
AcDbBlockEnd
  0
BLOCK
  5
1C
330
1B
100
AcDbEntity
 67
     1
  8
0
100
AcDbBlockBegin
  2
*PAPER_SPACE
  1

  0
ENDBLK
  5
1D
330
1B
100
AcDbEntity
 67
     1
  8
0
100
AcDbBlockEnd
  0
ENDSEC
  0
SECTION
  2
ENTITIES
  0
LWPOLYLINE
  5
100
100
AcDbEntity
  8
Layer_1
 62
7
100
AcDbPolyline
 90
82
 70
1
 10
22.482812
 20
56.429230
 30
0.0
 10
18.372050
 20
54.676459
 30
0.0
 10
14.475297
 20
52.390439
 30
0.0
 10
10.980469
 20
49.574924
 30
0.0
 10
8.075482
 20
46.233670
 30
0.0
 10
6.459137
 20
43.769030
 30
0.0
 10
5.099651
 20
41.021200
 30
0.0
 10
4.480765
 20
38.240497
 30
0.0
 10
5.086222
 20
35.677240
 30
0.0
 10
7.015563
 20
32.789181
 30
0.0
 10
9.221318
 20
30.409617
 30
0.0
 10
11.792040
 20
28.573201
 30
0.0
 10
14.816282
 20
27.314589
 30
0.0
 10
18.382596
 20
26.668433
 30
0.0
 10
22.579534
 20
26.669389
 30
0.0
 10
27.495649
 20
27.352110
 30
0.0
 10
33.219493
 20
28.751250
 30
0.0
 10
28.457286
 20
24.211224
 30
0.0
 10
23.960445
 20
21.711544
 30
0.0
 10
19.693533
 20
20.552582
 30
0.0
 10
15.621111
 20
20.034708
 30
0.0
 10
11.707741
 20
19.458293
 30
0.0
 10
7.917985
 20
18.123710
 30
0.0
 10
4.216404
 20
15.331328
 30
0.0
 10
0.567562
 20
10.381520
 30
0.0
 10
5.409674
 20
10.426614
 30
0.0
 10
8.612665
 20
9.492092
 30
0.0
 10
10.656120
 20
7.877883
 30
0.0
 10
12.019622
 20
5.883916
 30
0.0
 10
13.182756
 20
3.810122
 30
0.0
 10
14.625106
 20
1.956430
 30
0.0
 10
16.826257
 20
0.622770
 30
0.0
 10
20.265792
 20
0.109070
 30
0.0
 10
45.501382
 20
0.086670
 30
0.0
 10
52.889567
 20
0.266213
 30
0.0
 10
55.692203
 20
0.662246
 30
0.0
 10
57.978496
 20
1.409591
 30
0.0
 10
59.806913
 20
2.618601
 30
0.0
 10
61.235923
 20
4.399629
 30
0.0
 10
62.323997
 20
6.863028
 30
0.0
 10
63.129602
 20
10.119150
 30
0.0
 10
65.335430
 20
12.728603
 30
0.0
 10
66.204627
 20
13.725068
 30
0.0
 10
67.248661
 20
14.262420
 30
0.0
 10
68.715519
 20
14.150456
 30
0.0
 10
70.853189
 20
13.198973
 30
0.0
 10
78.132914
 20
8.016630
 30
0.0
 10
75.043880
 20
15.351534
 30
0.0
 10
72.236475
 20
19.675377
 30
0.0
 10
69.662769
 20
21.574249
 30
0.0
 10
67.274830
 20
21.634241
 30
0.0
 10
65.024729
 20
20.441443
 30
0.0
 10
62.864536
 20
18.581945
 30
0.0
 10
60.746320
 20
16.641837
 30
0.0
 10
58.622152
 20
15.207210
 30
0.0
 10
56.036947
 20
15.441824
 30
0.0
 10
54.176105
 20
15.220078
 30
0.0
 10
51.941950
 20
13.879961
 30
0.0
 10
50.548574
 20
12.131779
 30
0.0
 10
48.624862
 20
10.920450
 30
0.0
 10
42.898653
 20
10.099305
 30
0.0
 10
36.485486
 20
9.760453
 30
0.0
 10
29.103413
 20
9.729430
 30
0.0
 10
43.045852
 20
14.424097
 30
0.0
 10
48.074811
 20
16.785398
 30
0.0
 10
52.088123
 20
19.307966
 30
0.0
 10
55.295181
 20
22.105770
 30
0.0
 10
57.905379
 20
25.292777
 30
0.0
 10
60.128112
 20
28.982954
 30
0.0
 10
62.172773
 20
33.290270
 30
0.0
 10
62.897348
 20
36.311166
 30
0.0
 10
62.728093
 20
39.521316
 30
0.0
 10
61.875429
 20
42.700823
 30
0.0
 10
60.549782
 20
45.629790
 30
0.0
 10
57.805555
 20
49.675224
 30
0.0
 10
54.316413
 20
53.222470
 30
0.0
 10
50.259140
 20
56.085596
 30
0.0
 10
45.810521
 20
58.078670
 30
0.0
 10
40.071399
 20
59.209920
 30
0.0
 10
34.120350
 20
59.144414
 30
0.0
 10
28.182459
 20
58.133673
 30
0.0
 10
22.482812
 20
56.429220
 30
0.0
  0
ENDSEC
  0
SECTION
  2
OBJECTS
  0
DICTIONARY
  5
C
330
0
100
AcDbDictionary
  3
ACAD_GROUP
350
D
  3
ACAD_MLINESTYLE
350
17
  0
DICTIONARY
  5
D
330
C
100
AcDbDictionary
  0
DICTIONARY
  5
1A
330
C
100
AcDbDictionary
  0
DICTIONARY
  5
17
330
C
100
AcDbDictionary
  3
STANDARD
350
18
  0
DICTIONARY
  5
19
330
C
100
AcDbDictionary
  0
ENDSEC
  0
EOF
