  0
SECTION
  2
HEADER
  9
$ACADVER
  1
AC1014
  9
$HANDSEED
  5
FFFF
  9
$MEASUREMENT
 70
     1
  0
ENDSEC
  0
SECTION
  2
TABLES
  0
TABLE
  2
VPORT
  5
8
330
0
100
AcDbSymbolTable
 70
     4
  0
VPORT
  5
2E
330
8
100
AcDbSymbolTableRecord
100
AcDbViewportTableRecord
  2
*ACTIVE
 70
     0
 10
0.0
 20
0.0
 11
1.0
 21
1.0
 12
210.0
 22
148.5
 13
0.0
 23
0.0
 14
10.0
 24
10.0
 15
10.0
 25
10.0
 16
0.0
 26
0.0
 36
1.0
 17
0.0
 27
0.0
 37
0.0
 40
341.0
 41
1.24
 42
50.0
 43
0.0
 44
0.0
 50
0.0
 51
0.0
 71
     0
 72
   100
 73
     1
 74
     3
 75
     0
 76
     0
 77
     0
 78
     0
  0
ENDTAB
  0
TABLE
  2
LTYPE
  5
5
330
0
100
AcDbSymbolTable
 70
     1
  0
LTYPE
  5
14
330
5
100
AcDbSymbolTableRecord
100
AcDbLinetypeTableRecord
  2
BYBLOCK
 70
     0
  3

 72
    65
 73
     0
 40
0.0
  0
LTYPE
  5
15
330
5
100
AcDbSymbolTableRecord
100
AcDbLinetypeTableRecord
  2
BYLAYER
 70
     0
  3

 72
    65
 73
     0
 40
0.0
  0
LTYPE
  5
16
330
5
100
AcDbSymbolTableRecord
100
AcDbLinetypeTableRecord
  2
CONTINUOUS
 70
     0
  3
Solid line
 72
    65
 73
     0
 40
0.0
  0
ENDTAB
  0
TABLE
  2
LAYER
  5
2
100
AcDbSymbolTable
 70
3
  0
LAYER
  5
50
100
AcDbSymbolTableRecord
100
AcDbLayerTableRecord
  2
0
 70
0
  6
CONTINUOUS
  0
LAYER
  5
51
100
AcDbSymbolTableRecord
100
AcDbLayerTableRecord
  2
Picture
 70
0
  6
CONTINUOUS
  0
LAYER
  5
52
100
AcDbSymbolTableRecord
100
AcDbLayerTableRecord
  2
Outline
 70
0
  6
CONTINUOUS
  0
ENDTAB
  0
TABLE
  2
STYLE
  5
3
330
0
100
AcDbSymbolTable
 70
     1
  0
STYLE
  5
11
330
3
100
AcDbSymbolTableRecord
100
AcDbTextStyleTableRecord
  2
STANDARD
 70
     0
 40
0.0
 41
1.0
 50
0.0
 71
     0
 42
2.5
  3
txt
  4

  0
ENDTAB
  0
TABLE
  2
VIEW
  5
6
330
0
100
AcDbSymbolTable
 70
     0
  0
ENDTAB
  0
TABLE
  2
UCS
  5
7
330
0
100
AcDbSymbolTable
 70
     0
  0
ENDTAB
  0
TABLE
  2
APPID
  5
9
330
0
100
AcDbSymbolTable
 70
     2
  0
APPID
  5
12
330
9
100
AcDbSymbolTableRecord
100
AcDbRegAppTableRecord
  2
ACAD
 70
     0
  0
ENDTAB
  0
TABLE
  2
DIMSTYLE
  5
A
330
0
100
AcDbSymbolTable
 70
     1
  0
DIMSTYLE
105
27
330
A
100
AcDbSymbolTableRecord
100
AcDbDimStyleTableRecord
  2
ISO-25
 70
     0
  3

  4

  5

  6

  7

 40
1.0
 41
2.5
 42
0.625
 43
3.75
 44
1.25
 45
0.0
 46
0.0
 47
0.0
 48
0.0
140
2.5
141
2.5
142
0.0
143
0.03937007874016
144
1.0
145
0.0
146
1.0
147
0.625
 71
     0
 72
     0
 73
     0
 74
     0
 75
     0
 76
     0
 77
     1
 78
     8
170
     0
171
     3
172
     1
173
     0
174
     0
175
     0
176
     0
177
     0
178
     0
270
     2
271
     2
272
     2
273
     2
274
     3
340
11
275
     0
280
     0
281
     0
282
     0
283
     0
284
     8
285
     0
286
     0
287
     3
288
     0
  0
ENDTAB
  0
TABLE
  2
BLOCK_RECORD
  5
1
330
0
100
AcDbSymbolTable
 70
     1
  0
BLOCK_RECORD
  5
1F
330
1
100
AcDbSymbolTableRecord
100
AcDbBlockTableRecord
  2
*MODEL_SPACE
  0
BLOCK_RECORD
  5
1B
330
1
100
AcDbSymbolTableRecord
100
AcDbBlockTableRecord
  2
*PAPER_SPACE
  0
ENDTAB
  0
ENDSEC
  0
SECTION
  2
BLOCKS
  0
BLOCK
  5
20
330
1F
100
AcDbEntity
  8
0
100
AcDbBlockBegin
  2
*MODEL_SPACE
 70
     0
 10
0.0
 20
0.0
 30
0.0
  3
*MODEL_SPACE
  1

  0
ENDBLK
  5
21
330
1F
100
AcDbEntity
  8
0
100
AcDbBlockEnd
  0
BLOCK
  5
1C
330
1B
100
AcDbEntity
 67
     1
  8
0
100
AcDbBlockBegin
  2
*PAPER_SPACE
  1

  0
ENDBLK
  5
1D
330
1B
100
AcDbEntity
 67
     1
  8
0
100
AcDbBlockEnd
  0
ENDSEC
  0
SECTION
  2
ENTITIES
  0
LWPOLYLINE
  5
100
100
AcDbEntity
  8
Picture
 62
3
100
AcDbPolyline
 90
259
 70
1
 10
82.829597
 20
83.887750
 30
0.0
 10
82.476884
 20
81.947810
 30
0.0
 10
83.159546
 20
81.441521
 30
0.0
 10
84.369914
 20
81.219381
 30
0.0
 10
87.767632
 20
81.301170
 30
0.0
 10
88.950501
 20
83.410321
 30
0.0
 10
90.706937
 20
84.945910
 30
0.0
 10
89.746789
 20
86.979538
 30
0.0
 10
87.869535
 20
88.561249
 30
0.0
 10
86.058901
 20
90.187050
 30
0.0
 10
85.485981
 20
91.171487
 30
0.0
 10
85.298615
 20
92.352950
 30
0.0
 10
85.886204
 20
93.699236
 30
0.0
 10
87.203217
 20
94.359005
 30
0.0
 10
91.059652
 20
94.528040
 30
0.0
 10
92.128357
 20
98.602662
 30
0.0
 10
93.752436
 20
102.361733
 30
0.0
 10
94.991341
 20
103.998731
 30
0.0
 10
96.631408
 20
105.407797
 30
0.0
 10
98.760078
 20
106.539247
 30
0.0
 10
101.464790
 20
107.343400
 30
0.0
 10
103.948466
 20
109.649323
 30
0.0
 10
105.547070
 20
110.409841
 30
0.0
 10
107.578540
 20
110.694210
 30
0.0
 10
109.311042
 20
109.704267
 30
0.0
 10
109.856220
 20
108.121731
 30
0.0
 10
109.527692
 20
106.122932
 30
0.0
 10
108.639079
 20
103.884198
 30
0.0
 10
106.436076
 20
99.392238
 30
0.0
 10
105.748926
 20
97.491669
 30
0.0
 10
105.756170
 20
96.056480
 30
0.0
 10
109.093810
 20
97.418036
 30
0.0
 10
110.880473
 20
98.970949
 30
0.0
 10
112.059624
 20
100.624457
 30
0.0
 10
113.574730
 20
102.287800
 30
0.0
 10
115.019644
 20
102.947503
 30
0.0
 10
116.280925
 20
102.512801
 30
0.0
 10
117.070898
 20
100.907449
 30
0.0
 10
117.101890
 20
98.055200
 30
0.0
 10
115.995548
 20
94.432394
 30
0.0
 10
114.682204
 20
92.376091
 30
0.0
 10
110.223920
 20
88.943360
 30
0.0
 10
110.740742
 20
85.693584
 30
0.0
 10
110.580324
 20
82.965698
 30
0.0
 10
109.887783
 20
80.731016
 30
0.0
 10
108.808235
 20
78.960850
 30
0.0
 10
106.068586
 20
76.699324
 30
0.0
 10
103.522310
 20
75.951630
 30
0.0
 10
100.436082
 20
74.129338
 30
0.0
 10
97.937626
 20
73.247470
 30
0.0
 10
96.282392
 20
72.200573
 30
0.0
 10
94.498236
 20
71.927204
 30
0.0
 10
92.567317
 20
72.534415
 30
0.0
 10
90.471793
 20
74.129260
 30
0.0
 10
86.504444
 20
74.277633
 30
0.0
 10
82.603713
 20
75.051225
 30
0.0
 10
79.389090
 20
76.157449
 30
0.0
 10
77.480066
 20
77.303720
 30
0.0
 10
76.304344
 20
76.921606
 30
0.0
 10
74.893479
 20
77.244920
 30
0.0
 10
75.514084
 20
75.478424
 30
0.0
 10
76.766340
 20
73.960761
 30
0.0
 10
80.610221
 20
71.453065
 30
0.0
 10
85.313950
 20
69.284099
 30
0.0
 10
89.766358
 20
67.016130
 30
0.0
 10
90.525529
 20
66.239604
 30
0.0
 10
90.572487
 20
65.186900
 30
0.0
 10
89.159263
 20
62.598199
 30
0.0
 10
84.710756
 20
57.904290
 30
0.0
 10
83.152924
 20
54.435918
 30
0.0
 10
81.595091
 20
52.613540
 30
0.0
 10
81.998372
 20
49.632459
 30
0.0
 10
81.085923
 20
48.038226
 30
0.0
 10
79.090676
 20
47.585323
 30
0.0
 10
76.245558
 20
48.028230
 30
0.0
 10
75.698473
 20
45.468309
 30
0.0
 10
74.913530
 20
44.494952
 30
0.0
 10
73.365041
 20
43.913200
 30
0.0
 10
71.777817
 20
38.328520
 30
0.0
 10
71.675435
 20
34.232434
 30
0.0
 10
71.248740
 20
30.568760
 30
0.0
 10
72.843179
 20
28.736108
 30
0.0
 10
74.356694
 20
27.348535
 30
0.0
 10
76.079815
 20
24.808130
 30
0.0
 10
78.303071
 20
19.516980
 30
0.0
 10
79.292680
 20
19.915121
 30
0.0
 10
80.248626
 20
19.935499
 30
0.0
 10
81.010710
 20
18.453325
 30
0.0
 10
81.418734
 20
14.343810
 30
0.0
 10
82.511200
 20
14.354863
 30
0.0
 10
83.029860
 20
13.391424
 30
0.0
 10
83.299889
 20
10.816630
 30
0.0
 10
84.676134
 20
8.875223
 30
0.0
 10
85.238230
 20
7.208517
 30
0.0
 10
85.073865
 20
5.810282
 30
0.0
 10
84.270732
 20
4.674288
 30
0.0
 10
81.098922
 20
3.164102
 30
0.0
 10
76.424325
 20
2.628119
 30
0.0
 10
70.948466
 20
3.016499
 30
0.0
 10
65.372872
 20
4.279403
 30
0.0
 10
60.399066
 20
6.366990
 30
0.0
 10
56.728576
 20
9.229420
 30
0.0
 10
54.582439
 20
8.292840
 30
0.0
 10
52.319620
 20
8.406410
 30
0.0
 10
49.468494
 20
10.173826
 30
0.0
 10
46.617368
 20
13.344440
 30
0.0
 10
45.910243
 20
13.005045
 30
0.0
 10
44.442284
 20
12.991720
 30
0.0
 10
42.756611
 20
7.737938
 30
0.0
 10
41.533368
 20
6.170808
 30
0.0
 10
39.974540
 20
5.878610
 30
0.0
 10
37.463624
 20
6.820635
 30
0.0
 10
35.476474
 20
8.053599
 30
0.0
 10
32.755317
 20
11.204344
 30
0.0
 10
31.174757
 20
14.954847
 30
0.0
 10
30.098479
 20
18.929110
 30
0.0
 10
29.634851
 20
21.608950
 30
0.0
 10
29.623718
 20
24.209746
 30
0.0
 10
30.696787
 20
29.186631
 30
0.0
 10
32.793388
 20
33.884608
 30
0.0
 10
35.389227
 20
38.328520
 30
0.0
 10
32.626281
 20
39.504250
 30
0.0
 10
35.342500
 20
44.516140
 30
0.0
 10
38.344814
 20
47.096216
 30
0.0
 10
41.515345
 20
48.246449
 30
0.0
 10
44.736215
 20
48.968810
 30
0.0
 10
45.853151
 20
46.676150
 30
0.0
 10
51.026328
 20
47.440370
 30
0.0
 10
48.244169
 20
48.434096
 30
0.0
 10
45.713099
 20
50.013698
 30
0.0
 10
41.091477
 20
54.200770
 30
0.0
 10
44.882142
 20
58.164624
 30
0.0
 10
48.129416
 20
62.490739
 30
0.0
 10
50.341433
 20
67.507024
 30
0.0
 10
50.905512
 20
70.376452
 30
0.0
 10
51.026327
 20
73.541390
 30
0.0
 10
49.466048
 20
72.304421
 30
0.0
 10
47.791502
 20
71.638788
 30
0.0
 10
44.207138
 20
71.483880
 30
0.0
 10
43.090203
 20
69.250010
 30
0.0
 10
41.679338
 20
69.720300
 30
0.0
 10
39.563038
 20
65.781630
 30
0.0
 10
40.449328
 20
61.975984
 30
0.0
 10
40.126391
 20
59.368604
 30
0.0
 10
38.930512
 20
57.746558
 30
0.0
 10
37.197974
 20
56.896914
 30
0.0
 10
33.468058
 20
56.663101
 30
0.0
 10
31.626915
 20
56.963710
 30
0.0
 10
30.626845
 20
55.900754
 30
0.0
 10
29.378972
 20
55.262450
 30
0.0
 10
26.400679
 20
54.786954
 30
0.0
 10
23.213772
 20
54.591528
 30
0.0
 10
20.339987
 20
53.730480
 30
0.0
 10
13.620464
 20
49.005254
 30
0.0
 10
10.956078
 20
48.057731
 30
0.0
 10
9.798993
 20
48.392355
 30
0.0
 10
8.759127
 20
49.439090
 30
0.0
 10
8.693527
 20
52.449735
 30
0.0
 10
9.965549
 20
55.042273
 30
0.0
 10
12.133406
 20
57.316933
 30
0.0
 10
14.755309
 20
59.373950
 30
0.0
 10
13.431114
 20
62.113040
 30
0.0
 10
11.383402
 20
65.098209
 30
0.0
 10
6.502335
 20
71.492016
 30
0.0
 10
4.361437
 20
74.743274
 30
0.0
 10
2.881934
 20
77.925845
 30
0.0
 10
2.410052
 20
80.961041
 30
0.0
 10
3.292021
 20
83.770170
 30
0.0
 10
3.853525
 20
86.669518
 30
0.0
 10
4.951928
 20
88.164152
 30
0.0
 10
6.399177
 20
88.548535
 30
0.0
 10
8.007221
 20
88.117130
 30
0.0
 10
10.953482
 20
85.984808
 30
0.0
 10
12.286293
 20
84.122890
 30
0.0
 10
19.407731
 20
80.598737
 30
0.0
 10
24.639959
 20
77.344471
 30
0.0
 10
32.214777
 20
71.248740
 30
0.0
 10
33.919575
 20
70.543300
 30
0.0
 10
36.035874
 20
73.600180
 30
0.0
 10
37.270380
 20
75.246190
 30
0.0
 10
35.314457
 20
77.555408
 30
0.0
 10
34.952899
 20
79.831411
 30
0.0
 10
35.999924
 20
82.078069
 30
0.0
 10
38.269746
 20
84.299250
 30
0.0
 10
38.364010
 20
86.826038
 30
0.0
 10
39.151536
 20
89.237280
 30
0.0
 10
36.358484
 20
91.279023
 30
0.0
 10
34.446056
 20
93.829198
 30
0.0
 10
33.563680
 20
96.287891
 30
0.0
 10
33.860787
 20
98.055190
 30
0.0
 10
33.251513
 20
99.435550
 30
0.0
 10
32.324237
 20
103.627101
 30
0.0
 10
32.163477
 20
106.800733
 30
0.0
 10
32.429773
 20
110.705555
 30
0.0
 10
33.291976
 20
115.351029
 30
0.0
 10
34.918938
 20
120.746620
 30
0.0
 10
30.536387
 20
119.393441
 30
0.0
 10
26.528864
 20
119.193098
 30
0.0
 10
22.954924
 20
119.970343
 30
0.0
 10
19.873121
 20
121.549915
 30
0.0
 10
17.342010
 20
123.756554
 30
0.0
 10
15.420145
 20
126.415002
 30
0.0
 10
14.166081
 20
129.349997
 30
0.0
 10
13.638373
 20
132.386280
 30
0.0
 10
13.913152
 20
135.421086
 30
0.0
 10
14.970893
 20
138.440435
 30
0.0
 10
16.733578
 20
141.257856
 30
0.0
 10
19.123187
 20
143.686876
 30
0.0
 10
22.061702
 20
145.541024
 30
0.0
 10
25.471105
 20
146.633827
 30
0.0
 10
29.273376
 20
146.778813
 30
0.0
 10
33.390498
 20
145.789510
 30
0.0
 10
32.452689
 20
151.256218
 30
0.0
 10
32.332350
 20
156.606150
 30
0.0
 10
32.803180
 20
157.987081
 30
0.0
 10
33.689856
 20
158.952165
 30
0.0
 10
36.329802
 20
160.015740
 30
0.0
 10
39.533151
 20
158.892018
 30
0.0
 10
42.230489
 20
157.277584
 30
0.0
 10
44.478588
 20
155.271798
 30
0.0
 10
46.334221
 20
152.974021
 30
0.0
 10
49.095178
 20
147.899933
 30
0.0
 10
50.967541
 20
142.850200
 30
0.0
 10
53.529065
 20
143.379428
 30
0.0
 10
56.081930
 20
142.967780
 30
0.0
 10
56.781980
 20
148.306140
 30
0.0
 10
58.421802
 20
153.365739
 30
0.0
 10
60.721234
 20
157.714390
 30
0.0
 10
63.400115
 20
160.919905
 30
0.0
 10
66.178283
 20
162.550095
 30
0.0
 10
67.517049
 20
162.639385
 30
0.0
 10
68.775576
 20
162.172773
 30
0.0
 10
69.918844
 20
161.096236
 30
0.0
 10
70.911833
 20
159.355751
 30
0.0
 10
72.306891
 20
153.666840
 30
0.0
 10
75.516628
 20
153.254982
 30
0.0
 10
80.626486
 20
151.531811
 30
0.0
 10
83.203514
 20
149.893111
 30
0.0
 10
85.427035
 20
147.584135
 30
0.0
 10
87.020872
 20
144.490735
 30
0.0
 10
87.708846
 20
140.498760
 30
0.0
 10
87.231909
 20
135.990195
 30
0.0
 10
85.705299
 20
132.538345
 30
0.0
 10
83.472145
 20
130.002794
 30
0.0
 10
80.875577
 20
128.243126
 30
0.0
 10
75.964717
 20
126.489772
 30
0.0
 10
73.717756
 20
126.154950
 30
0.0
 10
77.811540
 20
120.196308
 30
0.0
 10
79.946930
 20
114.343641
 30
0.0
 10
80.496172
 20
108.576807
 30
0.0
 10
79.831511
 20
102.875660
 30
0.0
 10
80.257426
 20
99.632925
 30
0.0
 10
79.958369
 20
97.108883
 30
0.0
 10
79.169684
 20
95.160874
 30
0.0
 10
78.126712
 20
93.646240
 30
0.0
 10
81.604824
 20
92.306620
 30
0.0
 10
83.704392
 20
90.350785
 30
0.0
 10
84.163917
 20
89.086887
 30
0.0
 10
84.190841
 20
87.603055
 30
0.0
  0
ENDSEC
  0
SECTION
  2
OBJECTS
  0
DICTIONARY
  5
C
330
0
100
AcDbDictionary
  3
ACAD_GROUP
350
D
  3
ACAD_MLINESTYLE
350
17
  0
DICTIONARY
  5
D
330
C
100
AcDbDictionary
  0
DICTIONARY
  5
1A
330
C
100
AcDbDictionary
  0
DICTIONARY
  5
17
330
C
100
AcDbDictionary
  3
STANDARD
350
18
  0
DICTIONARY
  5
19
330
C
100
AcDbDictionary
  0
ENDSEC
  0
EOF
