  0
SECTION
  2
HEADER
  9
$ACADVER
  1
AC1014
  9
$HANDSEED
  5
FFFF
  9
$MEASUREMENT
 70
     1
  0
ENDSEC
  0
SECTION
  2
TABLES
  0
TABLE
  2
VPORT
  5
8
330
0
100
AcDbSymbolTable
 70
     4
  0
VPORT
  5
2E
330
8
100
AcDbSymbolTableRecord
100
AcDbViewportTableRecord
  2
*ACTIVE
 70
     0
 10
0.0
 20
0.0
 11
1.0
 21
1.0
 12
210.0
 22
148.5
 13
0.0
 23
0.0
 14
10.0
 24
10.0
 15
10.0
 25
10.0
 16
0.0
 26
0.0
 36
1.0
 17
0.0
 27
0.0
 37
0.0
 40
341.0
 41
1.24
 42
50.0
 43
0.0
 44
0.0
 50
0.0
 51
0.0
 71
     0
 72
   100
 73
     1
 74
     3
 75
     0
 76
     0
 77
     0
 78
     0
  0
ENDTAB
  0
TABLE
  2
LTYPE
  5
5
330
0
100
AcDbSymbolTable
 70
     1
  0
LTYPE
  5
14
330
5
100
AcDbSymbolTableRecord
100
AcDbLinetypeTableRecord
  2
BYBLOCK
 70
     0
  3

 72
    65
 73
     0
 40
0.0
  0
LTYPE
  5
15
330
5
100
AcDbSymbolTableRecord
100
AcDbLinetypeTableRecord
  2
BYLAYER
 70
     0
  3

 72
    65
 73
     0
 40
0.0
  0
LTYPE
  5
16
330
5
100
AcDbSymbolTableRecord
100
AcDbLinetypeTableRecord
  2
CONTINUOUS
 70
     0
  3
Solid line
 72
    65
 73
     0
 40
0.0
  0
ENDTAB
  0
TABLE
  2
LAYER
  5
2
100
AcDbSymbolTable
 70
2
  0
LAYER
  5
50
100
AcDbSymbolTableRecord
100
AcDbLayerTableRecord
  2
0
 70
0
  6
CONTINUOUS
  0
LAYER
  5
51
100
AcDbSymbolTableRecord
100
AcDbLayerTableRecord
  2
bow_spots
 70
0
  6
CONTINUOUS
  0
ENDTAB
  0
TABLE
  2
STYLE
  5
3
330
0
100
AcDbSymbolTable
 70
     1
  0
STYLE
  5
11
330
3
100
AcDbSymbolTableRecord
100
AcDbTextStyleTableRecord
  2
STANDARD
 70
     0
 40
0.0
 41
1.0
 50
0.0
 71
     0
 42
2.5
  3
txt
  4

  0
ENDTAB
  0
TABLE
  2
VIEW
  5
6
330
0
100
AcDbSymbolTable
 70
     0
  0
ENDTAB
  0
TABLE
  2
UCS
  5
7
330
0
100
AcDbSymbolTable
 70
     0
  0
ENDTAB
  0
TABLE
  2
APPID
  5
9
330
0
100
AcDbSymbolTable
 70
     2
  0
APPID
  5
12
330
9
100
AcDbSymbolTableRecord
100
AcDbRegAppTableRecord
  2
ACAD
 70
     0
  0
ENDTAB
  0
TABLE
  2
DIMSTYLE
  5
A
330
0
100
AcDbSymbolTable
 70
     1
  0
DIMSTYLE
105
27
330
A
100
AcDbSymbolTableRecord
100
AcDbDimStyleTableRecord
  2
ISO-25
 70
     0
  3

  4

  5

  6

  7

 40
1.0
 41
2.5
 42
0.625
 43
3.75
 44
1.25
 45
0.0
 46
0.0
 47
0.0
 48
0.0
140
2.5
141
2.5
142
0.0
143
0.03937007874016
144
1.0
145
0.0
146
1.0
147
0.625
 71
     0
 72
     0
 73
     0
 74
     0
 75
     0
 76
     0
 77
     1
 78
     8
170
     0
171
     3
172
     1
173
     0
174
     0
175
     0
176
     0
177
     0
178
     0
270
     2
271
     2
272
     2
273
     2
274
     3
340
11
275
     0
280
     0
281
     0
282
     0
283
     0
284
     8
285
     0
286
     0
287
     3
288
     0
  0
ENDTAB
  0
TABLE
  2
BLOCK_RECORD
  5
1
330
0
100
AcDbSymbolTable
 70
     1
  0
BLOCK_RECORD
  5
1F
330
1
100
AcDbSymbolTableRecord
100
AcDbBlockTableRecord
  2
*MODEL_SPACE
  0
BLOCK_RECORD
  5
1B
330
1
100
AcDbSymbolTableRecord
100
AcDbBlockTableRecord
  2
*PAPER_SPACE
  0
ENDTAB
  0
ENDSEC
  0
SECTION
  2
BLOCKS
  0
BLOCK
  5
20
330
1F
100
AcDbEntity
  8
0
100
AcDbBlockBegin
  2
*MODEL_SPACE
 70
     0
 10
0.0
 20
0.0
 30
0.0
  3
*MODEL_SPACE
  1

  0
ENDBLK
  5
21
330
1F
100
AcDbEntity
  8
0
100
AcDbBlockEnd
  0
BLOCK
  5
1C
330
1B
100
AcDbEntity
 67
     1
  8
0
100
AcDbBlockBegin
  2
*PAPER_SPACE
  1

  0
ENDBLK
  5
1D
330
1B
100
AcDbEntity
 67
     1
  8
0
100
AcDbBlockEnd
  0
ENDSEC
  0
SECTION
  2
ENTITIES
  0
LWPOLYLINE
  5
100
100
AcDbEntity
  8
bow_spots
 62
3
100
AcDbPolyline
 90
17
 70
1
 10
41.149591
 20
154.383730
 30
0.0
 10
40.947295
 20
153.271270
 30
0.0
 10
40.371203
 20
152.328171
 30
0.0
 10
39.509019
 20
151.698012
 30
0.0
 10
38.492004
 20
151.476730
 30
0.0
 10
37.474989
 20
151.698012
 30
0.0
 10
36.612805
 20
152.328171
 30
0.0
 10
36.036713
 20
153.271270
 30
0.0
 10
35.834417
 20
154.383730
 30
0.0
 10
36.043265
 20
155.515262
 30
0.0
 10
36.612808
 20
156.439283
 30
0.0
 10
37.457552
 20
157.062274
 30
0.0
 10
38.492004
 20
157.290720
 30
0.0
 10
39.526456
 20
157.062274
 30
0.0
 10
40.371200
 20
156.439283
 30
0.0
 10
40.940743
 20
155.515262
 30
0.0
 10
41.149591
 20
154.383730
 30
0.0
  0
LWPOLYLINE
  5
101
100
AcDbEntity
  8
bow_spots
 62
3
100
AcDbPolyline
 90
17
 70
1
 10
41.460904
 20
134.722050
 30
0.0
 10
41.225419
 20
133.442736
 30
0.0
 10
40.554811
 20
132.358185
 30
0.0
 10
39.551176
 20
131.633512
 30
0.0
 10
38.367306
 20
131.379040
 30
0.0
 10
37.183436
 20
131.633511
 30
0.0
 10
36.179800
 20
132.358185
 30
0.0
 10
35.509192
 20
133.442736
 30
0.0
 10
35.273707
 20
134.722050
 30
0.0
 10
35.516819
 20
136.023297
 30
0.0
 10
36.179803
 20
137.085909
 30
0.0
 10
37.163139
 20
137.802341
 30
0.0
 10
38.367306
 20
138.065050
 30
0.0
 10
39.571473
 20
137.802341
 30
0.0
 10
40.554808
 20
137.085908
 30
0.0
 10
41.217792
 20
136.023297
 30
0.0
 10
41.460904
 20
134.722050
 30
0.0
  0
LWPOLYLINE
  5
102
100
AcDbEntity
  8
bow_spots
 62
3
100
AcDbPolyline
 90
17
 70
1
 10
52.543874
 20
136.000550
 30
0.0
 10
52.141350
 20
134.688936
 30
0.0
 10
51.322830
 20
133.651039
 30
0.0
 10
50.179084
 20
132.968460
 30
0.0
 10
48.800880
 20
132.722800
 30
0.0
 10
47.424025
 20
132.994241
 30
0.0
 10
46.299671
 20
133.734486
 30
0.0
 10
45.541611
 20
134.832415
 30
0.0
 10
45.263638
 20
136.176910
 30
0.0
 10
45.541634
 20
137.524995
 30
0.0
 10
46.299734
 20
138.628908
 30
0.0
 10
47.424095
 20
139.370349
 30
0.0
 10
48.800880
 20
139.631020
 30
0.0
 10
50.350599
 20
139.318325
 30
0.0
 10
51.584856
 20
138.516304
 30
0.0
 10
52.362874
 20
137.364023
 30
0.0
 10
52.543874
 20
136.000550
 30
0.0
  0
LWPOLYLINE
  5
103
100
AcDbEntity
  8
bow_spots
 62
3
100
AcDbPolyline
 90
13
 70
0
 10
33.218406
 20
146.617340
 30
0.0
 10
34.258985
 20
147.302905
 30
0.0
 10
35.540678
 20
147.535680
 30
0.0
 10
36.835952
 20
147.247528
 30
0.0
 10
37.866731
 20
146.475408
 30
0.0
 10
38.547736
 20
145.357818
 30
0.0
 10
38.793687
 20
144.033260
 30
0.0
 10
38.528248
 20
142.734683
 30
0.0
 10
37.804376
 20
141.674253
 30
0.0
 10
36.730731
 20
140.959290
 30
0.0
 10
35.415974
 20
140.697120
 30
0.0
 10
33.871999
 20
140.993435
 30
0.0
 10
33.027571
 20
141.289750
 30
0.0
  0
LWPOLYLINE
  5
104
100
AcDbEntity
  8
bow_spots
 62
3
100
AcDbPolyline
 90
11
 70
0
 10
50.060078
 20
145.401540
 30
0.0
 10
49.070303
 20
144.232400
 30
0.0
 10
47.067203
 20
143.569690
 30
0.0
 10
45.671463
 20
143.777665
 30
0.0
 10
44.544752
 20
144.634011
 30
0.0
 10
43.773060
 20
145.915842
 30
0.0
 10
43.442377
 20
147.400270
 30
0.0
 10
43.807592
 20
148.913134
 30
0.0
 10
44.837721
 20
150.166563
 30
0.0
 10
46.179260
 20
150.965097
 30
0.0
 10
47.478706
 20
151.113280
 30
0.0
  0
LWPOLYLINE
  5
105
100
AcDbEntity
  8
bow_spots
 62
3
100
AcDbPolyline
 90
12
 70
0
 10
58.590694
 20
137.756510
 30
0.0
 10
57.925116
 20
136.848128
 30
0.0
 10
57.280598
 20
136.474384
 30
0.0
 10
56.241562
 20
136.321870
 30
0.0
 10
55.035929
 20
136.571810
 30
0.0
 10
54.051397
 20
137.253418
 30
0.0
 10
53.387609
 20
138.264377
 30
0.0
 10
53.144205
 20
139.502370
 30
0.0
 10
53.418201
 20
140.749807
 30
0.0
 10
54.119671
 20
141.800249
 30
0.0
 10
55.067839
 20
142.568103
 30
0.0
 10
56.081930
 20
142.967780
 30
0.0
  0
LWPOLYLINE
  5
106
100
AcDbEntity
  8
bow_spots
 62
3
100
AcDbPolyline
 90
17
 70
1
 10
67.891317
 20
136.426320
 30
0.0
 10
67.634205
 20
135.149631
 30
0.0
 10
66.902009
 20
134.067306
 30
0.0
 10
65.806199
 20
133.344119
 30
0.0
 10
64.513603
 20
133.090170
 30
0.0
 10
63.221007
 20
133.344119
 30
0.0
 10
62.125198
 20
134.067306
 30
0.0
 10
61.393002
 20
135.149631
 30
0.0
 10
61.135890
 20
136.426320
 30
0.0
 10
61.401329
 20
137.724897
 30
0.0
 10
62.125201
 20
138.785327
 30
0.0
 10
63.198846
 20
139.500290
 30
0.0
 10
64.513603
 20
139.762460
 30
0.0
 10
65.828360
 20
139.500290
 30
0.0
 10
66.902005
 20
138.785328
 30
0.0
 10
67.625878
 20
137.724897
 30
0.0
 10
67.891317
 20
136.426320
 30
0.0
  0
LWPOLYLINE
  5
107
100
AcDbEntity
  8
bow_spots
 62
3
100
AcDbPolyline
 90
9
 70
0
 10
72.141336
 20
148.260700
 30
0.0
 10
70.073300
 20
148.482393
 30
0.0
 10
68.617365
 20
149.398503
 30
0.0
 10
67.756382
 20
150.777651
 30
0.0
 10
67.473200
 20
152.388460
 30
0.0
 10
67.738523
 20
153.923921
 30
0.0
 10
68.536830
 20
155.165373
 30
0.0
 10
69.871632
 20
156.013933
 30
0.0
 10
71.746440
 20
156.370720
 30
0.0
  0
LWPOLYLINE
  5
108
100
AcDbEntity
  8
bow_spots
 62
3
100
AcDbPolyline
 90
7
 70
0
 10
70.177555
 20
160.660480
 30
0.0
 10
69.422068
 20
159.709589
 30
0.0
 10
68.611470
 20
159.287548
 30
0.0
 10
67.423363
 20
159.111760
 30
0.0
 10
66.187842
 20
159.329441
 30
0.0
 10
65.263581
 20
159.888851
 30
0.0
 10
64.253489
 20
161.471060
 30
0.0
  0
LWPOLYLINE
  5
109
100
AcDbEntity
  8
bow_spots
 62
3
100
AcDbPolyline
 90
11
 70
0
 10
75.394341
 20
138.276090
 30
0.0
 10
74.545326
 20
137.260246
 30
0.0
 10
73.752264
 20
136.783323
 30
0.0
 10
72.577797
 20
136.581880
 30
0.0
 10
71.263037
 20
136.844052
 30
0.0
 10
70.189391
 20
137.559018
 30
0.0
 10
69.465519
 20
138.619452
 30
0.0
 10
69.200083
 20
139.918030
 30
0.0
 10
69.405441
 20
141.100673
 30
0.0
 10
69.911405
 20
141.941901
 30
0.0
 10
71.164484
 20
142.942420
 30
0.0
  0
LWPOLYLINE
  5
10a
100
AcDbEntity
  8
bow_spots
 62
3
100
AcDbPolyline
 90
12
 70
0
 10
67.246828
 20
130.378170
 30
0.0
 10
67.609838
 20
131.558360
 30
0.0
 10
68.463387
 20
132.526714
 30
0.0
 10
69.688072
 20
133.181978
 30
0.0
 10
71.164490
 20
133.422900
 30
0.0
 10
72.632790
 20
133.123197
 30
0.0
 10
73.831819
 20
132.305881
 30
0.0
 10
74.640226
 20
131.093640
 30
0.0
 10
74.936663
 20
129.609160
 30
0.0
 10
74.759410
 20
128.308490
 30
0.0
 10
74.302057
 20
127.463216
 30
0.0
 10
72.993484
 20
126.522860
 30
0.0
  0
LWPOLYLINE
  5
10b
100
AcDbEntity
  8
bow_spots
 62
3
100
AcDbPolyline
 90
12
 70
0
 10
62.643046
 20
150.512280
 30
0.0
 10
63.464696
 20
150.287549
 30
0.0
 10
64.241999
 20
149.715989
 30
0.0
 10
64.821162
 20
148.764574
 30
0.0
 10
65.048392
 20
147.400280
 30
0.0
 10
64.767903
 20
145.913884
 30
0.0
 10
64.002983
 20
144.700079
 30
0.0
 10
62.868455
 20
143.881709
 30
0.0
 10
61.479141
 20
143.581620
 30
0.0
 10
60.291173
 20
143.726883
 30
0.0
 10
59.599604
 20
144.046460
 30
0.0
 10
59.198499
 20
144.511300
 30
0.0
  0
LWPOLYLINE
  5
10c
100
AcDbEntity
  8
bow_spots
 62
3
100
AcDbPolyline
 90
11
 70
0
 10
29.494068
 20
125.669230
 30
0.0
 10
29.850101
 20
126.844082
 30
0.0
 10
30.599395
 20
127.841398
 30
0.0
 10
31.637865
 20
128.533452
 30
0.0
 10
32.861425
 20
128.792520
 30
0.0
 10
34.065592
 20
128.529811
 30
0.0
 10
35.048927
 20
127.813379
 30
0.0
 10
35.711911
 20
126.750767
 30
0.0
 10
35.955023
 20
125.449520
 30
0.0
 10
35.698583
 20
123.682971
 30
0.0
 10
35.330441
 20
123.105870
 30
0.0
  0
ENDSEC
  0
SECTION
  2
OBJECTS
  0
DICTIONARY
  5
C
330
0
100
AcDbDictionary
  3
ACAD_GROUP
350
D
  3
ACAD_MLINESTYLE
350
17
  0
DICTIONARY
  5
D
330
C
100
AcDbDictionary
  0
DICTIONARY
  5
1A
330
C
100
AcDbDictionary
  0
DICTIONARY
  5
17
330
C
100
AcDbDictionary
  3
STANDARD
350
18
  0
DICTIONARY
  5
19
330
C
100
AcDbDictionary
  0
ENDSEC
  0
EOF
